<?xml version="1.0" encoding="UTF-8" standalone="no"?><svg xmlns="http://www.w3.org/2000/svg" xmlns:xlink="http://www.w3.org/1999/xlink" contentScriptType="application/ecmascript" contentStyleType="text/css" height="373px" preserveAspectRatio="none" style="width:560px;height:373px;" version="1.1" viewBox="0 0 560 373" width="560px" zoomAndPan="magnify"><defs><filter height="300%" id="fit7hue473pjo" width="300%" x="-1" y="-1"><feGaussianBlur result="blurOut" stdDeviation="2.0"/><feColorMatrix in="blurOut" result="blurOut2" type="matrix" values="0 0 0 0 0 0 0 0 0 0 0 0 0 0 0 0 0 0 .4 0"/><feOffset dx="4.0" dy="4.0" in="blurOut2" result="blurOut3"/><feBlend in="SourceGraphic" in2="blurOut3" mode="normal"/></filter></defs><g><ellipse cx="279" cy="20" fill="#000000" filter="url(#fit7hue473pjo)" rx="10" ry="10" style="stroke: none; stroke-width: 1.0;"/><rect fill="#FEFECE" filter="url(#fit7hue473pjo)" height="51.9375" rx="12.5" ry="12.5" style="stroke: #A80036; stroke-width: 1.5;" width="126" x="216" y="50"/><text fill="#000000" font-family="sans-serif" font-size="12" lengthAdjust="spacingAndGlyphs" textLength="49" x="228" y="73.1387">Procura</text><text fill="#000000" font-family="monospace" font-size="12" font-style="italic" lengthAdjust="spacingAndGlyphs" textLength="49" x="281" y="73.1387">${bean}</text><text fill="#000000" font-family="sans-serif" font-size="12" lengthAdjust="spacingAndGlyphs" textLength="92" x="233" y="87.1074">em um escopo</text><polygon fill="#FEFECE" filter="url(#fit7hue473pjo)" points="32,141.4458,74,141.4458,86,153.4458,74,165.4458,32,165.4458,20,153.4458,32,141.4458" style="stroke: #A80036; stroke-width: 1.5;"/><text fill="#000000" font-family="sans-serif" font-size="11" lengthAdjust="spacingAndGlyphs" textLength="0" x="63" y="177.6563"/><text fill="#000000" font-family="sans-serif" font-size="11" lengthAdjust="spacingAndGlyphs" textLength="21" x="59" y="190.4609">sim</text><text fill="#000000" font-family="sans-serif" font-size="11" font-weight="bold" lengthAdjust="spacingAndGlyphs" textLength="32" x="34" y="157.2539">page</text><text fill="#000000" font-family="sans-serif" font-size="11" lengthAdjust="spacingAndGlyphs" textLength="6" x="66" y="157.2539">?</text><polygon fill="#FEFECE" filter="url(#fit7hue473pjo)" points="118,141.4458,177,141.4458,189,153.4458,177,165.4458,118,165.4458,106,153.4458,118,141.4458" style="stroke: #A80036; stroke-width: 1.5;"/><text fill="#000000" font-family="sans-serif" font-size="11" lengthAdjust="spacingAndGlyphs" textLength="0" x="157.5" y="177.6563"/><text fill="#000000" font-family="sans-serif" font-size="11" lengthAdjust="spacingAndGlyphs" textLength="21" x="153.5" y="190.4609">sim</text><text fill="#000000" font-family="sans-serif" font-size="11" font-weight="bold" lengthAdjust="spacingAndGlyphs" textLength="49" x="120" y="157.2539">request</text><text fill="#000000" font-family="sans-serif" font-size="11" lengthAdjust="spacingAndGlyphs" textLength="6" x="169" y="157.2539">?</text><polygon fill="#FEFECE" filter="url(#fit7hue473pjo)" points="221,141.4458,280,141.4458,292,153.4458,280,165.4458,221,165.4458,209,153.4458,221,141.4458" style="stroke: #A80036; stroke-width: 1.5;"/><text fill="#000000" font-family="sans-serif" font-size="11" lengthAdjust="spacingAndGlyphs" textLength="0" x="260.5" y="177.6563"/><text fill="#000000" font-family="sans-serif" font-size="11" lengthAdjust="spacingAndGlyphs" textLength="21" x="256.5" y="190.4609">sim</text><text fill="#000000" font-family="sans-serif" font-size="11" font-weight="bold" lengthAdjust="spacingAndGlyphs" textLength="49" x="223" y="157.2539">session</text><text fill="#000000" font-family="sans-serif" font-size="11" lengthAdjust="spacingAndGlyphs" textLength="6" x="272" y="157.2539">?</text><polygon fill="#FEFECE" filter="url(#fit7hue473pjo)" points="324,141.4458,406,141.4458,418,153.4458,406,165.4458,324,165.4458,312,153.4458,324,141.4458" style="stroke: #A80036; stroke-width: 1.5;"/><text fill="#000000" font-family="sans-serif" font-size="11" lengthAdjust="spacingAndGlyphs" textLength="0" x="375" y="177.6563"/><text fill="#000000" font-family="sans-serif" font-size="11" lengthAdjust="spacingAndGlyphs" textLength="21" x="371" y="190.4609">sim</text><text fill="#000000" font-family="sans-serif" font-size="11" font-weight="bold" lengthAdjust="spacingAndGlyphs" textLength="72" x="326" y="157.2539">application</text><text fill="#000000" font-family="sans-serif" font-size="11" lengthAdjust="spacingAndGlyphs" textLength="6" x="398" y="157.2539">?</text><text fill="#000000" font-family="sans-serif" font-size="11" lengthAdjust="spacingAndGlyphs" textLength="0" x="424" y="123.2422"/><text fill="#000000" font-family="sans-serif" font-size="11" lengthAdjust="spacingAndGlyphs" textLength="0" x="424" y="136.0469"/><text fill="#000000" font-family="sans-serif" font-size="11" lengthAdjust="spacingAndGlyphs" textLength="89" x="420" y="148.8516">não encontrado</text><polygon fill="#FEFECE" filter="url(#fit7hue473pjo)" points="448,166.4458,538,166.4458,528,204.4146,438,204.4146" style="stroke: #A80036; stroke-width: 1.5;"/><text fill="#000000" font-family="sans-serif" font-size="12" lengthAdjust="spacingAndGlyphs" textLength="36" x="454" y="189.5845">Utiliza</text><text fill="#000000" font-family="monospace" font-size="12" font-style="italic" font-weight="bold" lengthAdjust="spacingAndGlyphs" textLength="28" x="494" y="189.5845">null</text><text fill="#000000" font-family="sans-serif" font-size="12" lengthAdjust="spacingAndGlyphs" textLength="0" x="526" y="189.5845"/><ellipse cx="488" cy="234.4146" fill="none" filter="url(#fit7hue473pjo)" rx="10" ry="10" style="stroke: #000000; stroke-width: 1.0;"/><ellipse cx="488.5" cy="234.9146" fill="#000000" filter="url(#fit7hue473pjo)" rx="6" ry="6" style="stroke: none; stroke-width: 1.0;"/><polygon fill="#FEFECE" filter="url(#fit7hue473pjo)" points="230.5,284.4146,337.5,284.4146,327.5,322.3833,220.5,322.3833" style="stroke: #A80036; stroke-width: 1.5;"/><text fill="#000000" font-family="sans-serif" font-size="12" lengthAdjust="spacingAndGlyphs" textLength="36" x="232.5" y="307.5532">Utiliza</text><text fill="#000000" font-family="monospace" font-size="12" font-style="italic" lengthAdjust="spacingAndGlyphs" textLength="49" x="272.5" y="307.5532">${bean}</text><text fill="#000000" font-family="sans-serif" font-size="12" lengthAdjust="spacingAndGlyphs" textLength="0" x="325.5" y="307.5532"/><ellipse cx="279" cy="352.3833" fill="none" filter="url(#fit7hue473pjo)" rx="10" ry="10" style="stroke: #000000; stroke-width: 1.0;"/><ellipse cx="279.5" cy="352.8833" fill="#000000" filter="url(#fit7hue473pjo)" rx="6" ry="6" style="stroke: none; stroke-width: 1.0;"/><line style="stroke: #A80036; stroke-width: 1.5;" x1="279" x2="279" y1="30" y2="50"/><polygon fill="#A80036" points="275,40,279,50,283,40,279,44" style="stroke: #A80036; stroke-width: 1.0;"/><line style="stroke: #A80036; stroke-width: 1.5;" x1="488" x2="488" y1="204.4146" y2="224.4146"/><polygon fill="#A80036" points="484,214.4146,488,224.4146,492,214.4146,488,218.4146" style="stroke: #A80036; stroke-width: 1.0;"/><line style="stroke: #A80036; stroke-width: 1.5;" x1="53" x2="53" y1="165.4458" y2="264.4146"/><polygon fill="#A80036" points="49,254.4146,53,264.4146,57,254.4146,53,258.4146" style="stroke: #A80036; stroke-width: 1.0;"/><line style="stroke: #A80036; stroke-width: 1.5;" x1="147.5" x2="147.5" y1="165.4458" y2="264.4146"/><polygon fill="#A80036" points="143.5,254.4146,147.5,264.4146,151.5,254.4146,147.5,258.4146" style="stroke: #A80036; stroke-width: 1.0;"/><line style="stroke: #A80036; stroke-width: 1.5;" x1="250.5" x2="250.5" y1="165.4458" y2="264.4146"/><polygon fill="#A80036" points="246.5,254.4146,250.5,264.4146,254.5,254.4146,250.5,258.4146" style="stroke: #A80036; stroke-width: 1.0;"/><line style="stroke: #A80036; stroke-width: 1.5;" x1="365" x2="365" y1="165.4458" y2="264.4146"/><polygon fill="#A80036" points="361,254.4146,365,264.4146,369,254.4146,365,258.4146" style="stroke: #A80036; stroke-width: 1.0;"/><line style="stroke: #A80036; stroke-width: 1.5;" x1="86" x2="106" y1="153.4458" y2="153.4458"/><polygon fill="#A80036" points="96,149.4458,106,153.4458,96,157.4458,100,153.4458" style="stroke: #A80036; stroke-width: 1.0;"/><line style="stroke: #A80036; stroke-width: 1.5;" x1="189" x2="209" y1="153.4458" y2="153.4458"/><polygon fill="#A80036" points="199,149.4458,209,153.4458,199,157.4458,203,153.4458" style="stroke: #A80036; stroke-width: 1.0;"/><line style="stroke: #A80036; stroke-width: 1.5;" x1="292" x2="312" y1="153.4458" y2="153.4458"/><polygon fill="#A80036" points="302,149.4458,312,153.4458,302,157.4458,306,153.4458" style="stroke: #A80036; stroke-width: 1.0;"/><line style="stroke: #A80036; stroke-width: 1.5;" x1="279" x2="279" y1="101.9375" y2="116.4458"/><line style="stroke: #A80036; stroke-width: 1.5;" x1="279" x2="53" y1="116.4458" y2="116.4458"/><line style="stroke: #A80036; stroke-width: 1.5;" x1="53" x2="53" y1="116.4458" y2="141.4458"/><polygon fill="#A80036" points="49,131.4458,53,141.4458,57,131.4458,53,135.4458" style="stroke: #A80036; stroke-width: 1.0;"/><line style="stroke: #A80036; stroke-width: 1.5;" x1="418" x2="488" y1="153.4458" y2="153.4458"/><line style="stroke: #A80036; stroke-width: 1.5;" x1="488" x2="488" y1="153.4458" y2="166.4458"/><polygon fill="#A80036" points="484,156.4458,488,166.4458,492,156.4458,488,160.4458" style="stroke: #A80036; stroke-width: 1.0;"/><line style="stroke: #A80036; stroke-width: 1.5;" x1="53" x2="365" y1="264.4146" y2="264.4146"/><line style="stroke: #A80036; stroke-width: 1.5;" x1="279" x2="279" y1="264.4146" y2="284.4146"/><polygon fill="#A80036" points="275,274.4146,279,284.4146,283,274.4146,279,278.4146" style="stroke: #A80036; stroke-width: 1.0;"/><line style="stroke: #A80036; stroke-width: 1.5;" x1="279" x2="279" y1="322.3833" y2="342.3833"/><polygon fill="#A80036" points="275,332.3833,279,342.3833,283,332.3833,279,336.3833" style="stroke: #A80036; stroke-width: 1.0;"/><!--
@startuml

skinparam defaultTextAlignment center
skinparam padding 2

start

:Procura //""${bean}""//
em um escopo;

if (**page**?) then (\nsim)
elseif (**request**?) then (\nsim)
elseif (**session**?) then (\nsim)
elseif (**application**?) then (\nsim)
else (\n\nnão encontrado)
  : Utiliza //**""null""**// /
  stop
endif

:Utiliza //""${bean}""// /

stop

@enduml

PlantUML version 1.2017.15(Mon Jul 03 13:45:34 BRT 2017)
(GPL source distribution)
Java Runtime: OpenJDK Runtime Environment
JVM: OpenJDK 64-Bit Server VM
Java Version: 1.8.0_152-release-915-b10
Operating System: Linux
OS Version: 4.4.0-93-generic
Default Encoding: UTF-8
Language: pt
Country: BR
--></g></svg>