<?xml version="1.0" encoding="UTF-8" standalone="no"?>
<svg
   xmlns:dc="http://purl.org/dc/elements/1.1/"
   xmlns:cc="http://creativecommons.org/ns#"
   xmlns:rdf="http://www.w3.org/1999/02/22-rdf-syntax-ns#"
   xmlns:svg="http://www.w3.org/2000/svg"
   xmlns="http://www.w3.org/2000/svg"
   id="svg2"
   zoomAndPan="magnify"
   width="507px"
   viewBox="0 0 507 246"
   version="1.1"
   style="width:507px;height:246px;"
   preserveAspectRatio="none"
   height="246px"
   contentStyleType="text/css"
   contentScriptType="application/ecmascript">
  <metadata
     id="metadata86">
    <rdf:RDF>
      <cc:Work
         rdf:about="">
        <dc:format>image/svg+xml</dc:format>
        <dc:type
           rdf:resource="http://purl.org/dc/dcmitype/StillImage" />
      </cc:Work>
    </rdf:RDF>
  </metadata>
  <defs
     id="defs4">
    <filter
       y="-1"
       x="-1"
       width="300%"
       id="f6tki9um3zqs5"
       height="300%">
      <feGaussianBlur
         id="feGaussianBlur7"
         stdDeviation="2.0"
         result="blurOut" />
      <feColorMatrix
         id="feColorMatrix9"
         values="0 0 0 0 0 0 0 0 0 0 0 0 0 0 0 0 0 0 .4 0"
         type="matrix"
         result="blurOut2"
         in="blurOut" />
      <feOffset
         id="feOffset11"
         result="blurOut3"
         in="blurOut2"
         dy="4.0"
         dx="4.0" />
      <feBlend
         id="feBlend13"
         mode="normal"
         in2="blurOut3"
         in="SourceGraphic" />
    </filter>
  </defs>
  <g
     id="g15">
    <!--class FC-->
    <path
       id="FC"
       d="m 6,8 171,0 0,83.429604 -171,0 z"
       style="fill:#fefece;stroke:#a80036;stroke-width:1.5;filter:url(#f6tki9um3zqs5)" />
    <path
       id="ellipse18"
       d="m 32,28.7148 a 11,11 0 0 1 -11,11 11,11 0 0 1 -11,-11 11,11 0 0 1 11,-11 11,11 0 0 1 11,11 z"
       style="fill:#add1b2;stroke:#a80036;stroke-width:1" />
    <path
       id="path20"
       d="m 24,33.7148 q -0.6094,0.5 -1.2656,0.75 -0.6563,0.25 -1.3906,0.25 -2.6094,0 -3.9766,-1.539 Q 16,31.6367 16,28.7148 q 0,-2.9218 1.3672,-4.4609 1.3672,-1.5391 3.9766,-1.5391 0.7343,0 1.4062,0.25 0.6719,0.25 1.25,0.75 l 0,3 q -0.6094,-1.0312 -1.1875,-1.5156 -0.5781,-0.4844 -1.1875,-0.4844 -1.2969,0 -1.9609,1.0079 Q 19,26.7305 19,28.7148 q 0,1.9844 0.6641,2.9922 0.664,1.0078 1.9609,1.0078 0.6094,0 1.1875,-0.4843 Q 23.3906,31.7461 24,30.7148 l 0,3 z" />
    <g
       id="text22"
       style="font-style:italic;font-size:12px;font-family:sans-serif;fill:#000000">
      <path
         id="path91"
         style="font-style:italic;font-size:12px;font-family:sans-serif;fill:#000000"
         d="m 81.054687,17.933622 -0.228515,1.177735 -2.074219,1.582031 1.476563,1.558594 -0.216797,1.060547 -2.267578,-2.449219 0.09375,-0.480469 3.216796,-2.449219 z m 2.607422,0 -0.228515,1.177735 -2.080078,1.582031 1.476562,1.558594 -0.216797,1.060547 -2.267578,-2.449219 0.09961,-0.480469 3.216797,-2.449219 z" />
      <path
         id="path93"
         style="font-style:italic;font-size:12px;font-family:sans-serif;fill:#000000"
         d="m 90.40625,17.76956 -0.205078,1.019531 q -0.427735,-0.234375 -0.902344,-0.351562 -0.474609,-0.117188 -0.978516,-0.117188 -0.849609,0 -1.341796,0.292969 -0.486329,0.287109 -0.486329,0.785156 0,0.580078 1.136719,0.890625 0.08789,0.02344 0.128906,0.03516 l 0.345704,0.105469 q 1.078125,0.298828 1.435546,0.626953 0.363282,0.328125 0.363282,0.896485 0,1.042968 -0.832032,1.699218 -0.826171,0.65625 -2.167968,0.65625 -0.521485,0 -1.095703,-0.09961 -0.574219,-0.09961 -1.265625,-0.310547 l 0.210937,-1.113281 q 0.591797,0.304687 1.166016,0.46289 0.574218,0.158204 1.101562,0.158204 0.791016,0 1.283203,-0.339844 0.498047,-0.339844 0.498047,-0.861328 0,-0.5625 -1.300781,-0.908203 l -0.111328,-0.0293 -0.369141,-0.09375 Q 86.199219,20.95706 85.818359,20.605497 85.4375,20.248075 85.4375,19.697294 q 0,-1.048828 0.785156,-1.664062 0.791016,-0.615235 2.144531,-0.615235 0.533204,0 1.03711,0.08789 0.509765,0.08789 1.001953,0.263672 z" />
      <path
         id="path95"
         style="font-style:italic;font-size:12px;font-family:sans-serif;fill:#000000"
         d="m 96.435547,20.271513 q 0.01758,-0.09375 0.02344,-0.193359 0.01172,-0.09961 0.01172,-0.199219 0,-0.714844 -0.421875,-1.13086 -0.416016,-0.416015 -1.136719,-0.416015 -0.802734,0 -1.417968,0.509765 -0.615235,0.503907 -0.931641,1.435547 l 3.873047,-0.0059 z m 0.9375,0.84375 -5.015625,0 q -0.03516,0.222656 -0.04687,0.351562 -0.01172,0.128907 -0.01172,0.222657 0,0.814453 0.498047,1.259765 0.503906,0.445313 1.417969,0.445313 0.703125,0 1.330078,-0.158203 0.626953,-0.158203 1.166015,-0.462891 l -0.205078,1.066406 q -0.580078,0.234375 -1.201172,0.351563 -0.615234,0.117187 -1.253906,0.117187 -1.365234,0 -2.103515,-0.65039 -0.732422,-0.65625 -0.732422,-1.857422 0,-1.025391 0.363281,-1.904297 0.369141,-0.884766 1.078125,-1.576172 0.457031,-0.433594 1.083984,-0.667969 0.632813,-0.234375 1.341797,-0.234375 1.113281,0 1.769531,0.667969 0.66211,0.667969 0.66211,1.792969 0,0.269531 -0.03516,0.580078 -0.03516,0.304687 -0.105469,0.65625 z" />
      <path
         id="path97"
         style="font-style:italic;font-size:12px;font-family:sans-serif;fill:#000000"
         d="m 103.39648,18.572294 q -0.16406,-0.08789 -0.375,-0.134765 -0.21093,-0.04687 -0.45117,-0.04687 -0.86133,0 -1.50586,0.65625 -0.64453,0.65039 -0.85547,1.746093 l -0.662105,3.345703 -1.078125,0 1.283203,-6.5625 1.078127,0 -0.20508,1.019532 q 0.42773,-0.56836 1.01953,-0.873047 0.59766,-0.304688 1.27149,-0.304688 0.17578,0 0.3457,0.02344 0.16992,0.01758 0.33984,0.06445 l -0.20508,1.066406 z" />
      <path
         id="path99"
         style="font-style:italic;font-size:12px;font-family:sans-serif;fill:#000000"
         d="m 103.85352,17.5762 1.14257,0 0.96094,5.578125 3.14063,-5.578125 1.14257,0 -3.73242,6.5625 -1.45312,0 -1.20117,-6.5625 z" />
      <path
         id="path101"
         style="font-style:italic;font-size:12px;font-family:sans-serif;fill:#000000"
         d="m 112.29102,15.021513 1.07812,0 -1.77539,9.117187 -1.07812,0 1.77539,-9.117187 z" />
      <path
         id="path103"
         style="font-style:italic;font-size:12px;font-family:sans-serif;fill:#000000"
         d="m 119.19336,20.271513 q 0.0176,-0.09375 0.0234,-0.193359 0.0117,-0.09961 0.0117,-0.199219 0,-0.714844 -0.42188,-1.13086 -0.41601,-0.416015 -1.13672,-0.416015 -0.80273,0 -1.41797,0.509765 -0.61523,0.503907 -0.93164,1.435547 l 3.87305,-0.0059 z m 0.9375,0.84375 -5.01563,0 q -0.0352,0.222656 -0.0469,0.351562 -0.0117,0.128907 -0.0117,0.222657 0,0.814453 0.49805,1.259765 0.5039,0.445313 1.41797,0.445313 0.70312,0 1.33007,-0.158203 0.62696,-0.158203 1.16602,-0.462891 l -0.20508,1.066406 q -0.58008,0.234375 -1.20117,0.351563 -0.61523,0.117187 -1.25391,0.117187 -1.36523,0 -2.10351,-0.65039 -0.73242,-0.65625 -0.73242,-1.857422 0,-1.025391 0.36328,-1.904297 0.36914,-0.884766 1.07812,-1.576172 0.45703,-0.433594 1.08399,-0.667969 0.63281,-0.234375 1.34179,-0.234375 1.11329,0 1.76954,0.667969 0.6621,0.667969 0.6621,1.792969 0,0.269531 -0.0352,0.580078 -0.0352,0.304687 -0.10547,0.65625 z" />
      <path
         id="path105"
         style="font-style:italic;font-size:12px;font-family:sans-serif;fill:#000000"
         d="m 125.87891,17.5762 -0.16407,0.837891 -2.15039,0 -0.69726,3.5625 q -0.0352,0.199219 -0.0527,0.333984 -0.0176,0.134766 -0.0176,0.210938 0,0.375 0.22265,0.544922 0.22852,0.169922 0.72656,0.169922 l 1.08985,0 -0.18164,0.902343 -1.03125,0 q -0.96094,0 -1.43555,-0.375 -0.46875,-0.375 -0.46875,-1.136718 0,-0.134766 0.0176,-0.292969 0.0176,-0.164063 0.0527,-0.357422 l 0.69727,-3.5625 -0.91406,0 0.16992,-0.837891 0.89648,0 0.36328,-1.863281 1.07813,0 -0.35742,1.863281 2.15625,0 z" />
      <path
         id="path107"
         style="font-style:italic;font-size:12px;font-family:sans-serif;fill:#000000"
         d="m 128.84961,23.312529 0.22851,-1.177735 2.08008,-1.582031 -1.47656,-1.564453 0.22852,-1.054688 2.25586,2.449219 -0.0879,0.480469 -3.22851,2.449219 z m -2.58984,0 0.22851,-1.177735 2.0625,-1.582031 -1.46484,-1.564453 0.21679,-1.054688 2.25586,2.449219 -0.082,0.480469 -3.21679,2.449219 z" />
    </g>
    <g
       id="text24"
       style="font-weight:bold;font-size:15px;font-family:sans-serif;fill:#000000">
      <path
         id="path110"
         style="font-weight:bold;font-size:15px;font-family:sans-serif;fill:#000000"
         d="m 41.376953,29.957043 7.609863,0 0,2.131347 -4.790039,0 0,2.036133 4.504395,0 0,2.131348 -4.504395,0 0,4.63623 -2.819824,0 0,-10.935058 z" />
      <path
         id="path112"
         style="font-weight:bold;font-size:15px;font-family:sans-serif;fill:#000000"
         d="m 56.640625,34.922863 q -0.344238,-0.161133 -0.688477,-0.234375 -0.336914,-0.08057 -0.681152,-0.08057 -1.010742,0 -1.560059,0.651855 -0.541992,0.644531 -0.541992,1.853027 l 0,3.779297 -2.62207,0 0,-8.203125 2.62207,0 0,1.347657 q 0.505371,-0.805665 1.157227,-1.171875 0.65918,-0.373536 1.574707,-0.373536 0.131836,0 0.285644,0.01465 0.153809,0.0073 0.446778,0.04395 l 0.0073,2.373047 z" />
      <path
         id="path114"
         style="font-weight:bold;font-size:15px;font-family:sans-serif;fill:#000000"
         d="m 61.862793,34.366222 q -0.871582,0 -1.333008,0.629883 -0.454101,0.622559 -0.454101,1.801758 0,1.179199 0.454101,1.809082 0.461426,0.622559 1.333008,0.622559 0.856934,0 1.311035,-0.622559 0.454102,-0.629883 0.454102,-1.809082 0,-1.179199 -0.454102,-1.801758 -0.454101,-0.629883 -1.311035,-0.629883 z m 0,-1.875 q 2.116699,0 3.303223,1.142579 1.193847,1.142578 1.193847,3.164062 0,2.021484 -1.193847,3.164063 -1.186524,1.142578 -3.303223,1.142578 -2.124023,0 -3.325195,-1.142578 -1.193848,-1.142579 -1.193848,-3.164063 0,-2.021484 1.193848,-3.164062 1.201172,-1.142579 3.325195,-1.142579 z" />
      <path
         id="path116"
         style="font-weight:bold;font-size:15px;font-family:sans-serif;fill:#000000"
         d="m 76.518555,35.896984 0,4.995117 -2.636719,0 0,-0.812988 0,-3.010254 q 0,-1.062012 -0.05127,-1.464844 -0.04395,-0.402832 -0.161132,-0.593261 -0.153809,-0.256348 -0.417481,-0.395508 -0.263672,-0.146485 -0.600586,-0.146485 -0.820312,0 -1.289062,0.637207 -0.46875,0.629883 -0.46875,1.750489 l 0,4.035644 -2.622071,0 0,-8.203125 2.622071,0 0,1.201172 q 0.593261,-0.717773 1.259765,-1.054687 0.666504,-0.344239 1.472168,-0.344239 1.420899,0 2.153321,0.871582 0.739746,0.871582 0.739746,2.53418 z" />
      <path
         id="path118"
         style="font-weight:bold;font-size:15px;font-family:sans-serif;fill:#000000"
         d="m 81.828613,30.359875 0,2.329101 2.702637,0 0,1.875 -2.702637,0 0,3.479004 q 0,0.571289 0.227051,0.776367 0.227051,0.197754 0.900879,0.197754 l 1.347656,0 0,1.875 -2.248535,0 q -1.552734,0 -2.20459,-0.644531 -0.644531,-0.651855 -0.644531,-2.20459 l 0,-3.479004 -1.303711,0 0,-1.875 1.303711,0 0,-2.329101 2.62207,0 z" />
      <path
         id="path120"
         style="font-weight:bold;font-size:15px;font-family:sans-serif;fill:#000000"
         d="m 94.931641,40.291515 q -0.776368,0.402832 -1.618653,0.607911 -0.842285,0.205078 -1.757812,0.205078 -2.731934,0 -4.328614,-1.523438 -1.596679,-1.530762 -1.596679,-4.145508 0,-2.62207 1.596679,-4.145507 1.59668,-1.530762 4.328614,-1.530762 0.915527,0 1.757812,0.205078 0.842285,0.205078 1.618653,0.60791 l 0,2.263184 q -0.783692,-0.534668 -1.545411,-0.783692 -0.761718,-0.249023 -1.604003,-0.249023 -1.50879,0 -2.373047,0.966797 -0.864258,0.966797 -0.864258,2.666015 0,1.691895 0.864258,2.658692 0.864257,0.966797 2.373047,0.966797 0.842285,0 1.604003,-0.249024 0.761719,-0.249023 1.545411,-0.783691 l 0,2.263183 z" />
      <path
         id="path122"
         style="font-weight:bold;font-size:15px;font-family:sans-serif;fill:#000000"
         d="m 101.06201,34.366222 q -0.87158,0 -1.333006,0.629883 -0.454102,0.622559 -0.454102,1.801758 0,1.179199 0.454102,1.809082 0.461426,0.622559 1.333006,0.622559 0.85694,0 1.31104,-0.622559 0.4541,-0.629883 0.4541,-1.809082 0,-1.179199 -0.4541,-1.801758 -0.4541,-0.629883 -1.31104,-0.629883 z m 0,-1.875 q 2.1167,0 3.30322,1.142579 1.19385,1.142578 1.19385,3.164062 0,2.021484 -1.19385,3.164063 -1.18652,1.142578 -3.30322,1.142578 -2.124022,0 -3.325194,-1.142578 -1.193847,-1.142579 -1.193847,-3.164063 0,-2.021484 1.193847,-3.164062 1.201172,-1.142579 3.325194,-1.142579 z" />
      <path
         id="path124"
         style="font-weight:bold;font-size:15px;font-family:sans-serif;fill:#000000"
         d="m 115.71777,35.896984 0,4.995117 -2.63672,0 0,-0.812988 0,-3.010254 q 0,-1.062012 -0.0513,-1.464844 -0.044,-0.402832 -0.16114,-0.593261 -0.15381,-0.256348 -0.41748,-0.395508 -0.26367,-0.146485 -0.60058,-0.146485 -0.82032,0 -1.28907,0.637207 -0.46875,0.629883 -0.46875,1.750489 l 0,4.035644 -2.62207,0 0,-8.203125 2.62207,0 0,1.201172 q 0.59327,-0.717773 1.25977,-1.054687 0.6665,-0.344239 1.47217,-0.344239 1.4209,0 2.15332,0.871582 0.73974,0.871582 0.73974,2.53418 z" />
      <path
         id="path126"
         style="font-weight:bold;font-size:15px;font-family:sans-serif;fill:#000000"
         d="m 121.02783,30.359875 0,2.329101 2.70264,0 0,1.875 -2.70264,0 0,3.479004 q 0,0.571289 0.22705,0.776367 0.22705,0.197754 0.90088,0.197754 l 1.34766,0 0,1.875 -2.24854,0 q -1.55273,0 -2.20459,-0.644531 -0.64453,-0.651855 -0.64453,-2.20459 l 0,-3.479004 -1.30371,0 0,-1.875 1.30371,0 0,-2.329101 2.62207,0 z" />
      <path
         id="path128"
         style="font-weight:bold;font-size:15px;font-family:sans-serif;fill:#000000"
         d="m 131.43555,34.922863 q -0.34424,-0.161133 -0.68848,-0.234375 -0.33691,-0.08057 -0.68115,-0.08057 -1.01074,0 -1.56006,0.651855 -0.54199,0.644531 -0.54199,1.853027 l 0,3.779297 -2.62207,0 0,-8.203125 2.62207,0 0,1.347657 q 0.50537,-0.805665 1.15722,-1.171875 0.65918,-0.373536 1.57471,-0.373536 0.13184,0 0.28565,0.01465 0.1538,0.0073 0.44677,0.04395 l 0.007,2.373047 z" />
      <path
         id="path130"
         style="font-weight:bold;font-size:15px;font-family:sans-serif;fill:#000000"
         d="m 136.65771,34.366222 q -0.87158,0 -1.333,0.629883 -0.4541,0.622559 -0.4541,1.801758 0,1.179199 0.4541,1.809082 0.46142,0.622559 1.333,0.622559 0.85694,0 1.31104,-0.622559 0.4541,-0.629883 0.4541,-1.809082 0,-1.179199 -0.4541,-1.801758 -0.4541,-0.629883 -1.31104,-0.629883 z m 0,-1.875 q 2.1167,0 3.30323,1.142579 1.19385,1.142578 1.19385,3.164062 0,2.021484 -1.19385,3.164063 -1.18653,1.142578 -3.30323,1.142578 -2.12402,0 -3.32519,-1.142578 -1.19385,-1.142579 -1.19385,-3.164063 0,-2.021484 1.19385,-3.164062 1.20117,-1.142579 3.32519,-1.142579 z" />
      <path
         id="path132"
         style="font-weight:bold;font-size:15px;font-family:sans-serif;fill:#000000"
         d="m 143.06641,29.495617 2.62207,0 0,11.396484 -2.62207,0 0,-11.396484 z" />
      <path
         id="path134"
         style="font-weight:bold;font-size:15px;font-family:sans-serif;fill:#000000"
         d="m 148.22266,29.495617 2.62207,0 0,11.396484 -2.62207,0 0,-11.396484 z" />
      <path
         id="path136"
         style="font-weight:bold;font-size:15px;font-family:sans-serif;fill:#000000"
         d="m 161.56738,36.768566 0,0.74707 -6.13037,0 q 0.0952,0.922852 0.66651,1.384278 0.57128,0.461426 1.59668,0.461426 0.82763,0 1.69189,-0.2417 0.87158,-0.249023 1.78711,-0.74707 l 0,2.021484 q -0.93018,0.351563 -1.86035,0.527344 -0.93018,0.183106 -1.86035,0.183106 -2.22657,0 -3.46436,-1.12793 -1.23047,-1.135254 -1.23047,-3.178711 0,-2.006836 1.2085,-3.156738 1.21582,-1.149903 3.33984,-1.149903 1.9336,0 3.09082,1.164551 1.16455,1.164551 1.16455,3.112793 z m -2.69531,-0.871582 q 0,-0.74707 -0.43945,-1.201172 -0.43213,-0.461426 -1.13526,-0.461426 -0.76172,0 -1.23779,0.432129 -0.47607,0.424805 -0.59326,1.230469 l 3.40576,0 z" />
      <path
         id="path138"
         style="font-weight:bold;font-size:15px;font-family:sans-serif;fill:#000000"
         d="m 169.63867,34.922863 q -0.34424,-0.161133 -0.68847,-0.234375 -0.33692,-0.08057 -0.68116,-0.08057 -1.01074,0 -1.56006,0.651855 -0.54199,0.644531 -0.54199,1.853027 l 0,3.779297 -2.62207,0 0,-8.203125 2.62207,0 0,1.347657 q 0.50537,-0.805665 1.15723,-1.171875 0.65918,-0.373536 1.57471,-0.373536 0.13183,0 0.28564,0.01465 0.15381,0.0073 0.44678,0.04395 l 0.007,2.373047 z" />
    </g>
    <path
       id="line26"
       d="m 7,49.429699 169,0"
       style="stroke:#a80036;stroke-width:1.5" />
    <g
       id="text28"
       style="font-size:17px;font-family:'Ubuntu Mono';fill:#000000">
      <path
         id="path142"
         style="font-size:17px;font-family:'Ubuntu Mono';fill:#000000"
         d="m 17.882,61.317703 q -0.238,-0.221 -0.697,-0.408 -0.459,-0.204 -0.952,-0.204 -0.561,0 -0.969,0.221 -0.391,0.221 -0.646,0.612 -0.255,0.374 -0.374,0.918 -0.119,0.527 -0.119,1.139 0,1.377 0.646,2.125 0.646,0.748 1.683,0.748 0.527,0 0.884,-0.051 0.374,-0.051 0.544,-0.102 l 0,-4.998 z m 0,-5.321 1.411,-0.238 0,11.56 q -0.459,0.136 -1.173,0.272 -0.714,0.136 -1.666,0.136 -0.85,0 -1.547,-0.289 -0.697,-0.289 -1.19,-0.816 -0.493,-0.544 -0.765,-1.309 -0.272,-0.765 -0.272,-1.717 0,-0.918 0.221,-1.666 0.238,-0.765 0.68,-1.309 0.442,-0.544 1.054,-0.85 0.629,-0.306 1.428,-0.306 0.629,0 1.105,0.153 0.476,0.153 0.714,0.323 l 0,-3.944 z" />
      <path
         id="path144"
         style="font-size:17px;font-family:'Ubuntu Mono';fill:#000000"
         d="m 28.32,63.595703 q 0,0.935 -0.272,1.7 -0.255,0.748 -0.731,1.292 -0.476,0.544 -1.139,0.85 -0.663,0.289 -1.445,0.289 -0.765,0 -1.428,-0.289 -0.646,-0.306 -1.122,-0.85 -0.476,-0.544 -0.748,-1.292 -0.255,-0.765 -0.255,-1.7 0,-0.935 0.255,-1.7 0.272,-0.765 0.748,-1.292 0.476,-0.544 1.122,-0.833 0.663,-0.306 1.428,-0.306 0.782,0 1.445,0.306 0.663,0.289 1.139,0.833 0.476,0.527 0.731,1.292 0.272,0.765 0.272,1.7 z m -1.445,0 q 0,-1.343 -0.578,-2.108 -0.578,-0.782 -1.564,-0.782 -0.969,0 -1.547,0.782 -0.561,0.765 -0.561,2.108 0,1.326 0.561,2.108 0.578,0.765 1.547,0.765 0.986,0 1.564,-0.765 0.578,-0.782 0.578,-2.108 z" />
      <path
         id="path146"
         style="font-size:17px;font-family:'Ubuntu Mono';fill:#000000"
         d="m 35.341,62.354703 1.394,0 0,4.93 q -0.323,0.119 -1.037,0.289 -0.714,0.187 -1.683,0.187 -0.952,0 -1.734,-0.357 -0.782,-0.374 -1.343,-1.071 -0.544,-0.697 -0.85,-1.717 -0.306,-1.037 -0.306,-2.346 0,-1.326 0.34,-2.346 0.34,-1.02 0.918,-1.717 0.595,-0.697 1.377,-1.054 0.782,-0.374 1.683,-0.374 0.578,0 1.02,0.085 0.442,0.085 0.748,0.204 0.323,0.119 0.527,0.255 0.204,0.119 0.306,0.187 l -0.459,1.173 q -0.391,-0.306 -0.935,-0.493 -0.527,-0.204 -1.122,-0.204 -0.646,0 -1.207,0.306 -0.544,0.306 -0.935,0.867 -0.391,0.561 -0.612,1.36 -0.221,0.782 -0.221,1.751 0,0.952 0.187,1.734 0.204,0.782 0.578,1.343 0.374,0.561 0.918,0.884 0.561,0.306 1.275,0.306 0.493,0 0.765,-0.068 0.272,-0.068 0.408,-0.136 l 0,-3.978 z" />
      <path
         id="path148"
         style="font-size:17px;font-family:'Ubuntu Mono';fill:#000000"
         d="m 41.903,59.464703 q 1.598,0 2.465,1.003 0.867,0.986 0.867,3.009 l 0,0.493 -5.644,0 q 0.085,1.224 0.799,1.87 0.731,0.629 2.04,0.629 0.748,0 1.275,-0.119 0.527,-0.119 0.799,-0.255 l 0.187,1.19 q -0.255,0.136 -0.918,0.289 -0.663,0.153 -1.496,0.153 -1.02,0 -1.802,-0.306 -0.765,-0.323 -1.275,-0.867 -0.51,-0.544 -0.765,-1.292 -0.255,-0.765 -0.255,-1.649 0,-1.054 0.323,-1.836 0.323,-0.782 0.85,-1.292 0.527,-0.51 1.19,-0.765 0.663,-0.255 1.36,-0.255 z m 1.904,3.366 q 0,-1.003 -0.527,-1.581 -0.527,-0.595 -1.394,-0.595 -0.493,0 -0.901,0.187 -0.391,0.187 -0.68,0.493 -0.289,0.306 -0.459,0.697 -0.17,0.391 -0.221,0.799 l 4.182,0 z" />
      <path
         id="path150"
         style="font-size:17px;font-family:'Ubuntu Mono';fill:#000000"
         d="m 50.131,59.651703 3.332,0 0,1.173 -3.332,0 0,3.672 q 0,0.595 0.085,0.969 0.085,0.374 0.272,0.612 0.204,0.221 0.51,0.306 0.306,0.085 0.748,0.085 0.612,0 0.986,-0.102 0.374,-0.102 0.714,-0.272 l 0.204,1.19 q -0.238,0.102 -0.765,0.272 -0.51,0.17 -1.275,0.17 -0.884,0 -1.445,-0.204 -0.561,-0.204 -0.884,-0.612 -0.306,-0.408 -0.425,-1.003 -0.119,-0.612 -0.119,-1.411 l 0,-3.672 -1.666,0 0,-1.173 1.666,0 0,-2.21 1.394,-0.238 0,2.448 z" />
      <path
         id="path152"
         style="font-size:17px;font-family:'Ubuntu Mono';fill:#000000"
         d="m 61.028,56.642703 q -1.581,1.224 -2.414,2.822 -0.833,1.598 -0.833,3.485 0,0.952 0.187,1.802 0.204,0.85 0.595,1.632 0.408,0.782 1.02,1.513 0.629,0.731 1.479,1.462 l -0.765,1.02 q -1.955,-1.445 -2.924,-3.349 -0.952,-1.921 -0.952,-4.046 0,-2.108 0.969,-4.029 0.969,-1.921 2.907,-3.332 l 0.748,1.02 -0.017,0 z" />
      <path
         id="path154"
         style="font-size:17px;font-family:'Ubuntu Mono';fill:#000000"
         d="m 64.955,69.358703 q 1.581,-1.224 2.414,-2.822 0.85,-1.598 0.85,-3.485 0,-0.952 -0.204,-1.802 -0.187,-0.85 -0.595,-1.632 -0.408,-0.782 -1.037,-1.513 -0.612,-0.731 -1.462,-1.462 l 0.765,-1.02 q 1.955,1.445 2.907,3.366 0.969,1.904 0.969,4.029 0,1.054 -0.255,2.074 -0.238,1.02 -0.731,1.972 -0.476,0.935 -1.207,1.768 -0.714,0.85 -1.683,1.547 l -0.748,-1.02 0.017,0 z" />
    </g>
    <g
       id="text30"
       style="font-size:17px;font-family:'Ubuntu Mono';fill:#000000">
      <path
         id="path157"
         style="font-size:17px;font-family:'Ubuntu Mono';fill:#000000"
         d="m 17.882,78.317597 q -0.238,-0.221 -0.697,-0.408 -0.459,-0.204 -0.952,-0.204 -0.561,0 -0.969,0.221 -0.391,0.221 -0.646,0.612 -0.255,0.374 -0.374,0.918 -0.119,0.527 -0.119,1.139 0,1.377 0.646,2.125 0.646,0.748 1.683,0.748 0.527,0 0.884,-0.051 0.374,-0.051 0.544,-0.102 l 0,-4.998 z m 0,-5.321 1.411,-0.238 0,11.56 q -0.459,0.136 -1.173,0.272 -0.714,0.136 -1.666,0.136 -0.85,0 -1.547,-0.289 -0.697,-0.289 -1.19,-0.816 -0.493,-0.544 -0.765,-1.309 -0.272,-0.765 -0.272,-1.717 0,-0.918 0.221,-1.666 0.238,-0.765 0.68,-1.309 0.442,-0.544 1.054,-0.85 0.629,-0.306 1.428,-0.306 0.629,0 1.105,0.153 0.476,0.153 0.714,0.323 l 0,-3.944 z" />
      <path
         id="path159"
         style="font-size:17px;font-family:'Ubuntu Mono';fill:#000000"
         d="m 28.32,80.595597 q 0,0.935 -0.272,1.7 -0.255,0.748 -0.731,1.292 -0.476,0.544 -1.139,0.85 -0.663,0.289 -1.445,0.289 -0.765,0 -1.428,-0.289 -0.646,-0.306 -1.122,-0.85 -0.476,-0.544 -0.748,-1.292 -0.255,-0.765 -0.255,-1.7 0,-0.935 0.255,-1.7 0.272,-0.765 0.748,-1.292 0.476,-0.544 1.122,-0.833 0.663,-0.306 1.428,-0.306 0.782,0 1.445,0.306 0.663,0.289 1.139,0.833 0.476,0.527 0.731,1.292 0.272,0.765 0.272,1.7 z m -1.445,0 q 0,-1.343 -0.578,-2.108 -0.578,-0.782 -1.564,-0.782 -0.969,0 -1.547,0.782 -0.561,0.765 -0.561,2.108 0,1.326 0.561,2.108 0.578,0.765 1.547,0.765 0.986,0 1.564,-0.765 0.578,-0.782 0.578,-2.108 z" />
      <path
         id="path161"
         style="font-size:17px;font-family:'Ubuntu Mono';fill:#000000"
         d="m 32.995,73.914597 q 0.935,0 1.632,0.238 0.714,0.238 1.173,0.68 0.476,0.425 0.697,1.02 0.238,0.595 0.238,1.326 0,1.649 -0.969,2.55 -0.969,0.884 -2.907,0.884 l -1.224,0 0,3.927 -1.394,0 0,-10.37 q 0.306,-0.068 0.663,-0.119 0.374,-0.051 0.731,-0.085 0.374,-0.034 0.714,-0.034 0.357,-0.017 0.646,-0.017 z m 0.102,1.207 q -0.442,0 -0.85,0.017 -0.408,0 -0.612,0.034 l 0,4.25 1.156,0 q 1.275,0 1.887,-0.51 0.629,-0.51 0.629,-1.683 0,-2.108 -2.21,-2.108 z" />
      <path
         id="path163"
         style="font-size:17px;font-family:'Ubuntu Mono';fill:#000000"
         d="m 45.32,80.595597 q 0,0.935 -0.272,1.7 -0.255,0.748 -0.731,1.292 -0.476,0.544 -1.139,0.85 -0.663,0.289 -1.445,0.289 -0.765,0 -1.428,-0.289 -0.646,-0.306 -1.122,-0.85 -0.476,-0.544 -0.748,-1.292 -0.255,-0.765 -0.255,-1.7 0,-0.935 0.255,-1.7 0.272,-0.765 0.748,-1.292 0.476,-0.544 1.122,-0.833 0.663,-0.306 1.428,-0.306 0.782,0 1.445,0.306 0.663,0.289 1.139,0.833 0.476,0.527 0.731,1.292 0.272,0.765 0.272,1.7 z m -1.445,0 q 0,-1.343 -0.578,-2.108 -0.578,-0.782 -1.564,-0.782 -0.969,0 -1.547,0.782 -0.561,0.765 -0.561,2.108 0,1.326 0.561,2.108 0.578,0.765 1.547,0.765 0.986,0 1.564,-0.765 0.578,-0.782 0.578,-2.108 z" />
      <path
         id="path165"
         style="font-size:17px;font-family:'Ubuntu Mono';fill:#000000"
         d="m 51.967,82.567597 q 0,-0.425 -0.357,-0.697 -0.34,-0.272 -0.867,-0.476 -0.51,-0.204 -1.122,-0.391 -0.612,-0.204 -1.139,-0.493 -0.51,-0.289 -0.867,-0.714 -0.34,-0.425 -0.34,-1.105 0,-0.952 0.765,-1.581 0.782,-0.646 2.431,-0.646 0.646,0 1.326,0.102 0.697,0.085 1.19,0.238 l -0.255,1.258 q -0.136,-0.068 -0.374,-0.136 -0.238,-0.085 -0.544,-0.136 -0.306,-0.068 -0.663,-0.102 -0.34,-0.034 -0.663,-0.034 -1.836,0 -1.836,1.003 0,0.357 0.34,0.612 0.357,0.238 0.884,0.442 0.527,0.204 1.139,0.425 0.612,0.204 1.139,0.51 0.527,0.306 0.867,0.748 0.357,0.425 0.357,1.088 0,1.071 -0.833,1.666 -0.833,0.578 -2.635,0.578 -0.816,0 -1.496,-0.136 -0.68,-0.136 -1.292,-0.408 l 0.272,-1.275 q 0.595,0.272 1.241,0.459 0.663,0.17 1.411,0.17 1.921,0 1.921,-0.969 z" />
      <path
         id="path167"
         style="font-size:17px;font-family:'Ubuntu Mono';fill:#000000"
         d="m 58.631,76.651597 3.332,0 0,1.173 -3.332,0 0,3.672 q 0,0.595 0.085,0.969 0.085,0.374 0.272,0.612 0.204,0.221 0.51,0.306 0.306,0.085 0.748,0.085 0.612,0 0.986,-0.102 0.374,-0.102 0.714,-0.272 l 0.204,1.19 q -0.238,0.102 -0.765,0.272 -0.51,0.17 -1.275,0.17 -0.884,0 -1.445,-0.204 -0.561,-0.204 -0.884,-0.612 -0.306,-0.408 -0.425,-1.003 -0.119,-0.612 -0.119,-1.411 l 0,-3.672 -1.666,0 0,-1.173 1.666,0 0,-2.21 1.394,-0.238 0,2.448 z" />
      <path
         id="path169"
         style="font-size:17px;font-family:'Ubuntu Mono';fill:#000000"
         d="m 69.528,73.642597 q -1.581,1.224 -2.414,2.822 -0.833,1.598 -0.833,3.485 0,0.952 0.187,1.802 0.204,0.85 0.595,1.632 0.408,0.782 1.02,1.513 0.629,0.731 1.479,1.462 l -0.765,1.02 q -1.955,-1.445 -2.924,-3.349 -0.952,-1.921 -0.952,-4.046 0,-2.108 0.969,-4.029 0.969,-1.921 2.907,-3.332 l 0.748,1.02 -0.017,0 z" />
      <path
         id="path171"
         style="font-size:17px;font-family:'Ubuntu Mono';fill:#000000"
         d="m 73.455,86.358597 q 1.581,-1.224 2.414,-2.822 0.85,-1.598 0.85,-3.485 0,-0.952 -0.204,-1.802 -0.187,-0.85 -0.595,-1.632 -0.408,-0.782 -1.037,-1.513 -0.612,-0.731 -1.462,-1.462 l 0.765,-1.02 q 1.955,1.445 2.907,3.366 0.969,1.904 0.969,4.029 0,1.054 -0.255,2.074 -0.238,1.02 -0.731,1.972 -0.476,0.935 -1.207,1.768 -0.714,0.85 -1.683,1.547 l -0.748,-1.02 0.017,0 z" />
    </g>
    <!--class CMD-->
    <path
       id="CMD"
       d="m 273.5,25 132,0 0,49.429699 -132,0 z"
       style="fill:#fefece;stroke:#a80036;stroke-width:1.5;filter:url(#f6tki9um3zqs5)" />
    <path
       id="ellipse33"
       d="m 299.5,45.714802 a 11,11 0 0 1 -11,11 11,11 0 0 1 -11,-11 11,11 0 0 1 11,-11 11,11 0 0 1 11,11 z"
       style="fill:#a9dcdf;stroke:#a80036;stroke-width:1" />
    <path
       id="path35"
       d="m 288.5313,42.8086 -1.3594,3.4062 2.6562,0 -1.2968,-3.4062 z m -1.2657,-3.5938 2.4688,0 2.7656,12 -2.4375,0 -0.75,-3 -1.6406,0 -0.7344,3 -2.4375,0 2.7656,-12 z" />
    <g
       id="text37"
       style="font-style:italic;font-size:12px;font-family:sans-serif;fill:#000000">
      <path
         id="path176"
         style="font-style:italic;font-size:12px;font-family:sans-serif;fill:#000000"
         d="m 323.55469,34.93362 -0.22852,1.177735 -2.07422,1.582031 1.47657,1.558594 -0.2168,1.060547 -2.26758,-2.449219 0.0937,-0.480469 3.2168,-2.449219 z m 2.60742,0 -0.22852,1.177735 -2.08007,1.582031 1.47656,1.558594 -0.2168,1.060547 -2.26758,-2.449219 0.0996,-0.480469 3.2168,-2.449219 z" />
      <path
         id="path178"
         style="font-style:italic;font-size:12px;font-family:sans-serif;fill:#000000"
         d="m 333.35156,37.394558 -0.73242,3.744141 -1.07812,0 0.19921,-0.996094 q -0.47461,0.585937 -1.08398,0.878906 -0.60352,0.287109 -1.34766,0.287109 -0.83789,0 -1.37695,-0.509765 -0.5332,-0.515625 -0.5332,-1.31836 0,-1.148437 0.91406,-1.816406 0.91992,-0.667969 2.53125,-0.667969 l 1.5,0 0.0586,-0.287109 q 0.0117,-0.04687 0.0176,-0.09961 0.006,-0.05859 0.006,-0.175782 0,-0.521484 -0.42773,-0.808593 -0.42188,-0.292969 -1.18946,-0.292969 -0.52734,0 -1.08398,0.134766 -0.55078,0.134765 -1.13672,0.404296 l 0.1875,-0.996093 q 0.60938,-0.228516 1.18945,-0.339844 0.58594,-0.117188 1.13086,-0.117188 1.16016,0 1.76367,0.503907 0.60938,0.503906 0.60938,1.464843 0,0.19336 -0.0293,0.457032 -0.0293,0.257812 -0.0879,0.550781 z m -1.16601,0.445312 -1.07813,0 q -1.32422,0 -1.96289,0.357422 -0.63281,0.351563 -0.63281,1.095703 0,0.515625 0.32226,0.808594 0.32813,0.292969 0.90235,0.292969 0.8789,0 1.53515,-0.626953 0.65625,-0.632813 0.86719,-1.6875 l 0.0469,-0.240235 z" />
      <path
         id="path180"
         style="font-style:italic;font-size:12px;font-family:sans-serif;fill:#000000"
         d="m 340.20703,37.130886 q 0,-0.849609 -0.39258,-1.330078 -0.38672,-0.480469 -1.07226,-0.480469 -0.49805,0 -0.9375,0.246094 -0.4336,0.240234 -0.75586,0.703125 -0.33985,0.486328 -0.53906,1.130859 -0.19336,0.638672 -0.19336,1.277344 0,0.808594 0.38086,1.271484 0.38671,0.457032 1.06054,0.457032 0.50977,0 0.94336,-0.234375 0.4336,-0.240235 0.76172,-0.703125 0.33398,-0.480469 0.53906,-1.119141 0.20508,-0.638672 0.20508,-1.21875 z m -3.35156,-1.558594 q 0.39844,-0.539062 0.99609,-0.84375 0.60352,-0.310547 1.25977,-0.310547 1.00781,0 1.59961,0.679688 0.59765,0.679687 0.59765,1.839844 0,0.949218 -0.35156,1.839843 -0.3457,0.890625 -0.99023,1.582032 -0.42188,0.457031 -0.97266,0.703125 -0.55078,0.246093 -1.1543,0.246093 -0.63867,0 -1.10742,-0.292968 -0.46875,-0.292969 -0.76172,-0.873047 l -0.19336,0.996094 -1.07812,0 1.77539,-9.117188 1.07812,0 -0.69726,3.550781 z" />
      <path
         id="path182"
         style="font-style:italic;font-size:12px;font-family:sans-serif;fill:#000000"
         d="m 347.88281,34.769558 -0.20508,1.019531 q -0.42773,-0.234375 -0.90234,-0.351562 -0.47461,-0.117188 -0.97852,-0.117188 -0.8496,0 -1.34179,0.292969 -0.48633,0.287109 -0.48633,0.785156 0,0.580078 1.13672,0.890625 0.0879,0.02344 0.1289,0.03516 l 0.34571,0.105469 q 1.07812,0.298828 1.43554,0.626953 0.36329,0.328125 0.36329,0.896485 0,1.042968 -0.83204,1.699218 -0.82617,0.65625 -2.16796,0.65625 -0.52149,0 -1.09571,-0.09961 -0.57422,-0.09961 -1.26562,-0.310547 l 0.21094,-1.113281 q 0.59179,0.304687 1.16601,0.462891 0.57422,0.158203 1.10156,0.158203 0.79102,0 1.28321,-0.339844 0.49804,-0.339844 0.49804,-0.861328 0,-0.5625 -1.30078,-0.908203 l -0.11133,-0.0293 -0.36914,-0.09375 q -0.82031,-0.216797 -1.20117,-0.56836 -0.38086,-0.357421 -0.38086,-0.908203 0,-1.048828 0.78516,-1.664062 0.79101,-0.615235 2.14453,-0.615235 0.5332,0 1.03711,0.08789 0.50976,0.08789 1.00195,0.263672 z" />
      <path
         id="path184"
         style="font-style:italic;font-size:12px;font-family:sans-serif;fill:#000000"
         d="m 353.21484,34.576199 -0.16406,0.83789 -2.15039,0 -0.69727,3.5625 q -0.0351,0.199219 -0.0527,0.333985 -0.0176,0.134765 -0.0176,0.210937 0,0.375 0.22266,0.544922 0.22851,0.169922 0.72656,0.169922 l 1.08984,0 -0.18164,0.902344 -1.03125,0 q -0.96093,0 -1.43554,-0.375 -0.46875,-0.375 -0.46875,-1.136719 0,-0.134766 0.0176,-0.292969 0.0176,-0.164062 0.0527,-0.357422 l 0.69727,-3.5625 -0.91407,0 0.16992,-0.83789 0.89649,0 0.36328,-1.863282 1.07813,0 -0.35743,1.863282 2.15625,0 z" />
      <path
         id="path186"
         style="font-style:italic;font-size:12px;font-family:sans-serif;fill:#000000"
         d="m 358.20117,35.572292 q -0.16406,-0.08789 -0.375,-0.134765 -0.21094,-0.04687 -0.45117,-0.04687 -0.86133,0 -1.50586,0.65625 -0.64453,0.65039 -0.85547,1.746093 l -0.66211,3.345704 -1.07812,0 1.2832,-6.5625 1.07813,0 -0.20508,1.019531 q 0.42773,-0.56836 1.01953,-0.873047 0.59765,-0.304688 1.27148,-0.304688 0.17578,0 0.34571,0.02344 0.16992,0.01758 0.33984,0.06445 l -0.20508,1.066406 z" />
      <path
         id="path188"
         style="font-style:italic;font-size:12px;font-family:sans-serif;fill:#000000"
         d="m 364.24219,37.394558 -0.73242,3.744141 -1.07813,0 0.19922,-0.996094 q -0.47461,0.585937 -1.08399,0.878906 -0.60351,0.287109 -1.34765,0.287109 -0.83789,0 -1.37695,-0.509765 -0.53321,-0.515625 -0.53321,-1.31836 0,-1.148437 0.91406,-1.816406 0.91993,-0.667969 2.53125,-0.667969 l 1.5,0 0.0586,-0.287109 q 0.0117,-0.04687 0.0176,-0.09961 0.006,-0.05859 0.006,-0.175782 0,-0.521484 -0.42774,-0.808593 -0.42187,-0.292969 -1.18945,-0.292969 -0.52735,0 -1.08399,0.134766 -0.55078,0.134765 -1.13671,0.404296 l 0.1875,-0.996093 q 0.60937,-0.228516 1.18945,-0.339844 0.58594,-0.117188 1.13086,-0.117188 1.16015,0 1.76367,0.503907 0.60937,0.503906 0.60937,1.464843 0,0.19336 -0.0293,0.457032 -0.0293,0.257812 -0.0879,0.550781 z m -1.16602,0.445312 -1.07812,0 q -1.32422,0 -1.96289,0.357422 -0.63282,0.351563 -0.63282,1.095703 0,0.515625 0.32227,0.808594 0.32812,0.292969 0.90234,0.292969 0.87891,0 1.53516,-0.626953 0.65625,-0.632813 0.86719,-1.6875 l 0.0469,-0.240235 z" />
      <path
         id="path190"
         style="font-style:italic;font-size:12px;font-family:sans-serif;fill:#000000"
         d="m 371.58984,34.828152 -0.21679,1.066406 q -0.38672,-0.28125 -0.82618,-0.421875 -0.43359,-0.140625 -0.90234,-0.140625 -0.51562,0 -0.98437,0.181641 -0.46289,0.18164 -0.7793,0.515625 -0.50391,0.509765 -0.7793,1.195312 -0.27539,0.685547 -0.27539,1.417969 0,0.884765 0.43945,1.318359 0.44532,0.433594 1.34766,0.433594 0.44531,0 0.94336,-0.134766 0.50391,-0.134765 1.04883,-0.404297 l -0.20508,1.066407 q -0.46875,0.193359 -0.9668,0.287109 -0.49218,0.09961 -1.01367,0.09961 -1.30664,0 -2.00976,-0.65039 -0.70313,-0.65625 -0.70313,-1.869141 0,-1.019531 0.36328,-1.875 0.36914,-0.861328 1.08985,-1.546875 0.49218,-0.46875 1.15429,-0.708984 0.66211,-0.240235 1.44727,-0.240235 0.45703,0 0.9082,0.105469 0.45117,0.09961 0.91992,0.304688 z" />
      <path
         id="path192"
         style="font-style:italic;font-size:12px;font-family:sans-serif;fill:#000000"
         d="m 376.83984,34.576199 -0.16406,0.83789 -2.15039,0 -0.69727,3.5625 q -0.0351,0.199219 -0.0527,0.333985 -0.0176,0.134765 -0.0176,0.210937 0,0.375 0.22266,0.544922 0.22851,0.169922 0.72656,0.169922 l 1.08984,0 -0.18164,0.902344 -1.03125,0 q -0.96093,0 -1.43554,-0.375 -0.46875,-0.375 -0.46875,-1.136719 0,-0.134766 0.0176,-0.292969 0.0176,-0.164062 0.0527,-0.357422 l 0.69727,-3.5625 -0.91407,0 0.16992,-0.83789 0.89649,0 0.36328,-1.863282 1.07813,0 -0.35743,1.863282 2.15625,0 z" />
      <path
         id="path194"
         style="font-style:italic;font-size:12px;font-family:sans-serif;fill:#000000"
         d="m 379.81055,40.312527 0.22851,-1.177735 2.08008,-1.582031 -1.47656,-1.564453 0.22851,-1.054688 2.25586,2.449219 -0.0879,0.480469 -3.22851,2.449219 z m -2.58985,0 0.22852,-1.177735 2.0625,-1.582031 -1.46485,-1.564453 0.2168,-1.054688 2.25586,2.449219 -0.082,0.480469 -3.2168,2.449219 z" />
    </g>
    <g
       id="text39"
       style="font-style:italic;font-weight:bold;font-size:15px;font-family:sans-serif;fill:#000000">
      <path
         id="path197"
         style="font-style:italic;font-weight:bold;font-size:15px;font-family:sans-serif;fill:#000000"
         d="m 316.58936,57.379406 q -1.01075,0.358887 -1.94092,0.541992 -0.93018,0.183106 -1.76514,0.183106 -2.20459,0 -3.52295,-1.208496 -1.31836,-1.208497 -1.31836,-3.200684 0,-1.311035 0.41748,-2.468262 0.41748,-1.164551 1.23047,-2.124023 0.95947,-1.12793 2.30713,-1.73584 1.35498,-0.60791 2.91504,-0.60791 0.84961,0 1.70654,0.205078 0.85694,0.197754 1.74317,0.60791 l -0.45411,2.263184 q -0.70312,-0.534668 -1.41357,-0.783692 -0.71045,-0.249023 -1.52344,-0.249023 -1.69189,0 -2.83447,1.303711 -1.14258,1.303711 -1.14258,3.259277 0,1.259766 0.70313,1.977539 0.70312,0.717774 1.94092,0.717774 0.73974,0 1.56738,-0.263672 0.83496,-0.270996 1.86767,-0.842285 l -0.48339,2.424316 z" />
      <path
         id="path199"
         style="font-style:italic;font-weight:bold;font-size:15px;font-family:sans-serif;fill:#000000"
         d="m 324.14062,51.366222 q -1.01806,0 -1.67724,0.922852 -0.65918,0.922852 -0.65918,2.351074 0,0.776367 0.35156,1.186524 0.35889,0.402832 1.04004,0.402832 1.01807,0 1.67725,-0.922852 0.65918,-0.930176 0.65918,-2.365723 0,-0.769043 -0.35889,-1.171875 -0.35156,-0.402832 -1.03272,-0.402832 z m 0.21241,-1.875 q 1.83105,0 2.87842,0.930176 1.04736,0.930176 1.04736,2.53418 0,0.930176 -0.32959,1.809082 -0.32959,0.871582 -0.95947,1.59668 -0.74707,0.864257 -1.76514,1.303711 -1.01807,0.439453 -2.27051,0.439453 -1.80908,0 -2.85644,-0.930176 -1.04004,-0.930176 -1.04004,-2.53418 0,-0.922851 0.33691,-1.801758 0.33692,-0.88623 0.9668,-1.618652 0.73242,-0.849609 1.74316,-1.289062 1.01807,-0.439454 2.24854,-0.439454 z" />
      <path
         id="path201"
         style="font-style:italic;font-weight:bold;font-size:15px;font-family:sans-serif;fill:#000000"
         d="m 338.23242,51.051281 q 0.60791,-0.754395 1.37695,-1.157227 0.77637,-0.402832 1.61133,-0.402832 1.09864,0 1.72852,0.607911 0.63721,0.600585 0.63721,1.655273 0,0.219727 -0.0366,0.505371 -0.0293,0.27832 -0.0952,0.637207 l -0.97412,4.995117 -2.64404,0 0.82763,-4.277343 0.022,-0.109864 q 0.19042,-0.908203 0.19042,-1.164551 0,-0.402832 -0.23437,-0.637207 -0.22705,-0.234375 -0.62256,-0.234375 -0.75439,0 -1.28174,0.622559 -0.52002,0.615234 -0.74707,1.765137 l -0.79101,4.035644 -2.64405,0 0.84229,-4.277343 q 0.10986,-0.549317 0.15381,-0.827637 0.0439,-0.285645 0.0439,-0.446778 0,-0.410156 -0.22705,-0.637207 -0.22705,-0.234375 -0.62988,-0.234375 -0.7251,0 -1.27441,0.644532 -0.542,0.637207 -0.7544,1.743164 l -0.79101,4.035644 -2.6294,0 1.59668,-8.203125 2.63672,0 -0.2417,1.201172 q 0.61523,-0.695801 1.31104,-1.047363 0.6958,-0.351563 1.45019,-0.351563 0.84961,0 1.45752,0.439454 0.60791,0.432128 0.73242,1.120605 z" />
      <path
         id="path203"
         style="font-style:italic;font-weight:bold;font-size:15px;font-family:sans-serif;fill:#000000"
         d="m 353.87695,51.051281 q 0.60791,-0.754395 1.37696,-1.157227 0.77636,-0.402832 1.61132,-0.402832 1.09864,0 1.72852,0.607911 0.63721,0.600585 0.63721,1.655273 0,0.219727 -0.0366,0.505371 -0.0293,0.27832 -0.0952,0.637207 l -0.97412,4.995117 -2.64404,0 0.82763,-4.277343 0.022,-0.109864 q 0.19043,-0.908203 0.19043,-1.164551 0,-0.402832 -0.23438,-0.637207 -0.22705,-0.234375 -0.62256,-0.234375 -0.75439,0 -1.28174,0.622559 -0.52002,0.615234 -0.74707,1.765137 l -0.79101,4.035644 -2.64404,0 0.84228,-4.277343 q 0.10986,-0.549317 0.15381,-0.827637 0.0439,-0.285645 0.0439,-0.446778 0,-0.410156 -0.22705,-0.637207 -0.22705,-0.234375 -0.62988,-0.234375 -0.7251,0 -1.27441,0.644532 -0.542,0.637207 -0.7544,1.743164 l -0.79101,4.035644 -2.6294,0 1.59668,-8.203125 2.63672,0 -0.2417,1.201172 q 0.61524,-0.695801 1.31104,-1.047363 0.6958,-0.351563 1.45019,-0.351563 0.84961,0 1.45752,0.439454 0.60791,0.432128 0.73242,1.120605 z" />
      <path
         id="path205"
         style="font-style:italic;font-weight:bold;font-size:15px;font-family:sans-serif;fill:#000000"
         d="m 365.05371,54.200695 q -0.98144,0 -1.48682,0.307617 -0.49804,0.300293 -0.49804,0.893555 0,0.446777 0.29297,0.703125 0.30029,0.256348 0.82031,0.256348 0.80566,0 1.34766,-0.483399 0.54199,-0.490723 0.72509,-1.376953 l 0.0586,-0.300293 -1.25977,0 z m 4.09424,-0.988769 -0.91553,4.680175 -2.62207,0 0.21973,-1.21582 q -0.64453,0.732422 -1.36231,1.083984 -0.71777,0.344239 -1.56006,0.344239 -1.16455,0 -1.85302,-0.600586 -0.68115,-0.60791 -0.68115,-1.633301 0,-1.567383 1.20849,-2.39502 1.21582,-0.834961 3.50098,-0.834961 l 1.54541,0 0.0293,-0.205078 q 0.022,-0.102539 0.022,-0.146484 0.007,-0.04395 0.007,-0.08057 0,-0.483399 -0.46142,-0.725098 -0.45411,-0.249024 -1.35498,-0.249024 -0.81299,0 -1.57471,0.168457 -0.76172,0.168458 -1.47217,0.505372 l 0.39551,-1.999512 q 0.82031,-0.205078 1.67724,-0.307617 0.86426,-0.109864 1.78711,-0.109864 1.82373,0 2.70996,0.629883 0.88624,0.622559 0.88624,1.904297 0,0.249024 -0.0366,0.549316 -0.0293,0.292969 -0.0952,0.637208 z" />
      <path
         id="path207"
         style="font-style:italic;font-weight:bold;font-size:15px;font-family:sans-serif;fill:#000000"
         d="m 379.9292,52.896984 -0.97412,4.995117 -2.6294,0 0.82764,-4.277343 q 0.0879,-0.417481 0.13184,-0.703125 0.0513,-0.292969 0.0513,-0.461426 0,-0.46875 -0.26368,-0.725098 -0.25634,-0.256348 -0.73242,-0.256348 -0.81299,0 -1.39892,0.637207 -0.57862,0.629883 -0.80567,1.750489 l -0.79101,4.035644 -2.6294,0 1.59668,-8.203125 2.63672,0 -0.2417,1.201172 q 0.7251,-0.710449 1.45752,-1.054687 0.73242,-0.344239 1.53076,-0.344239 1.13526,0 1.75049,0.593262 0.61524,0.593262 0.61524,1.669922 0,0.234375 -0.0366,0.52002 -0.0293,0.285644 -0.0952,0.622558 z" />
      <path
         id="path209"
         style="font-style:italic;font-weight:bold;font-size:15px;font-family:sans-serif;fill:#000000"
         d="m 385.5542,56.200207 q 1.01074,0 1.64062,-0.930176 0.63721,-0.930176 0.63721,-2.431641 0,-0.681152 -0.35889,-1.062011 -0.35156,-0.38086 -0.98877,-0.38086 -0.99609,0 -1.64062,0.922852 -0.64453,0.915527 -0.64453,2.351074 0,0.74707 0.34424,1.142578 0.35156,0.388184 1.01074,0.388184 z m 2.76123,-5.310059 0.84961,-4.394531 2.64404,0 -2.21924,11.396484 -2.64404,0 0.2417,-1.186523 q -0.60059,0.717773 -1.25977,1.062012 -0.65918,0.336914 -1.44287,0.336914 -1.38427,0 -2.18994,-0.878907 -0.80566,-0.878906 -0.80566,-2.395019 0,-0.944824 0.27832,-1.838379 0.28564,-0.893555 0.81299,-1.625977 0.6665,-0.922851 1.50146,-1.398925 0.84229,-0.476075 1.80176,-0.476075 0.84228,0 1.42822,0.344239 0.59326,0.336914 1.00342,1.054687 z" />
    </g>
    <path
       id="line41"
       d="m 274.5,66.429703 130,0"
       style="stroke:#a80036;stroke-width:1.5" />
    <!--class  Command1  -->
    <path
       id=" Command1  "
       d="m 181.5,152 140,0 0,83.4296 -140,0 z"
       style="fill:#fefece;stroke:#a80036;stroke-width:1.5;filter:url(#f6tki9um3zqs5)" />
    <path
       id="ellipse44"
       d="m 207.5,172.7148 a 11,11 0 0 1 -11,11 11,11 0 0 1 -11,-11 11,11 0 0 1 11,-11 11,11 0 0 1 11,11 z"
       style="fill:#add1b2;stroke:#a80036;stroke-width:1" />
    <path
       id="path46"
       d="m 199.5,177.7148 q -0.6094,0.5 -1.2656,0.75 -0.6563,0.25 -1.3906,0.25 -2.6094,0 -3.9766,-1.539 -1.3672,-1.5391 -1.3672,-4.461 0,-2.9218 1.3672,-4.4609 1.3672,-1.5391 3.9766,-1.5391 0.7343,0 1.4062,0.25 0.6719,0.25 1.25,0.75 l 0,3 q -0.6094,-1.0312 -1.1875,-1.5156 -0.5781,-0.4844 -1.1875,-0.4844 -1.2969,0 -1.9609,1.0079 -0.6641,1.0078 -0.6641,2.9921 0,1.9844 0.6641,2.9922 0.664,1.0078 1.9609,1.0078 0.6094,0 1.1875,-0.4843 0.5781,-0.4844 1.1875,-1.5157 l 0,3 z" />
    <g
       id="text48"
       style="font-style:italic;font-size:12px;font-family:sans-serif;fill:#000000">
      <path
         id="path215"
         style="font-style:italic;font-size:12px;font-family:sans-serif;fill:#000000"
         d="m 233.55469,161.93362 -0.22852,1.17774 -2.07422,1.58203 1.47657,1.55859 -0.2168,1.06055 -2.26758,-2.44922 0.0937,-0.48047 3.2168,-2.44922 z m 2.60742,0 -0.22852,1.17774 -2.08007,1.58203 1.47656,1.55859 -0.2168,1.06055 -2.26758,-2.44922 0.0996,-0.48047 3.2168,-2.44922 z" />
      <path
         id="path217"
         style="font-style:italic;font-size:12px;font-family:sans-serif;fill:#000000"
         d="m 243.33984,161.82816 -0.21679,1.0664 q -0.38672,-0.28125 -0.82618,-0.42187 -0.43359,-0.14063 -0.90234,-0.14063 -0.51562,0 -0.98437,0.18164 -0.46289,0.18164 -0.7793,0.51563 -0.50391,0.50976 -0.7793,1.19531 -0.27539,0.68555 -0.27539,1.41797 0,0.88476 0.43945,1.31836 0.44532,0.43359 1.34766,0.43359 0.44531,0 0.94336,-0.13476 0.50391,-0.13477 1.04883,-0.4043 l -0.20508,1.06641 q -0.46875,0.19335 -0.9668,0.2871 -0.49218,0.0996 -1.01367,0.0996 -1.30664,0 -2.00976,-0.65039 -0.70313,-0.65625 -0.70313,-1.86914 0,-1.01953 0.36328,-1.875 0.36914,-0.86133 1.08985,-1.54687 0.49218,-0.46875 1.15429,-0.70899 0.66211,-0.24023 1.44727,-0.24023 0.45703,0 0.9082,0.10547 0.45117,0.0996 0.91992,0.30469 z" />
      <path
         id="path219"
         style="font-style:italic;font-size:12px;font-family:sans-serif;fill:#000000"
         d="m 246.5625,168.30862 q -1.1543,0 -1.82813,-0.70898 -0.66796,-0.71484 -0.66796,-1.94531 0,-0.71485 0.22851,-1.45313 0.23438,-0.74414 0.60352,-1.24804 0.58008,-0.78516 1.29492,-1.16016 0.71484,-0.375 1.61719,-0.375 1.11914,0 1.80468,0.69726 0.69141,0.69727 0.69141,1.82227 0,0.7793 -0.22852,1.55273 -0.22851,0.77344 -0.59765,1.28321 -0.57422,0.78515 -1.28906,1.16015 -0.71485,0.375 -1.62891,0.375 z m -1.37695,-2.68945 q 0,0.89063 0.36914,1.33594 0.375,0.43945 1.13086,0.43945 1.08398,0 1.79297,-0.94336 0.71484,-0.94922 0.71484,-2.40234 0,-0.84961 -0.38086,-1.2832 -0.38086,-0.4336 -1.11914,-0.4336 -0.60938,0 -1.08399,0.28711 -0.4746,0.28125 -0.8496,0.86133 -0.2754,0.43359 -0.42774,0.99023 -0.14648,0.55664 -0.14648,1.14844 z" />
      <path
         id="path221"
         style="font-style:italic;font-size:12px;font-family:sans-serif;fill:#000000"
         d="m 257.53711,164.17776 -0.76758,3.96094 -1.08398,0 0.76757,-3.91992 q 0.0527,-0.27539 0.082,-0.48633 0.0293,-0.21094 0.0293,-0.33398 0,-0.49219 -0.31054,-0.76758 -0.31055,-0.27539 -0.86719,-0.27539 -0.86719,0 -1.49414,0.58008 -0.62696,0.57422 -0.82031,1.56445 l -0.72071,3.63867 -1.07812,0 1.27148,-6.5625 1.07813,0 -0.2168,1.03125 q 0.45117,-0.56836 1.08398,-0.8789 0.63282,-0.31055 1.33008,-0.31055 0.86719,0 1.3418,0.46875 0.48047,0.46875 0.48047,1.31836 0,0.21094 -0.0293,0.45117 -0.0234,0.24023 -0.0762,0.52148 z" />
      <path
         id="path223"
         style="font-style:italic;font-size:12px;font-family:sans-serif;fill:#000000"
         d="m 264.90234,161.82816 -0.21679,1.0664 q -0.38672,-0.28125 -0.82618,-0.42187 -0.43359,-0.14063 -0.90234,-0.14063 -0.51562,0 -0.98437,0.18164 -0.46289,0.18164 -0.7793,0.51563 -0.50391,0.50976 -0.7793,1.19531 -0.27539,0.68555 -0.27539,1.41797 0,0.88476 0.43945,1.31836 0.44532,0.43359 1.34766,0.43359 0.44531,0 0.94336,-0.13476 0.50391,-0.13477 1.04883,-0.4043 l -0.20508,1.06641 q -0.46875,0.19335 -0.9668,0.2871 -0.49218,0.0996 -1.01367,0.0996 -1.30664,0 -2.00976,-0.65039 -0.70313,-0.65625 -0.70313,-1.86914 0,-1.01953 0.36328,-1.875 0.36914,-0.86133 1.08985,-1.54687 0.49218,-0.46875 1.15429,-0.70899 0.66211,-0.24023 1.44727,-0.24023 0.45703,0 0.9082,0.10547 0.45117,0.0996 0.91992,0.30469 z" />
      <path
         id="path225"
         style="font-style:italic;font-size:12px;font-family:sans-serif;fill:#000000"
         d="m 270.42773,162.5723 q -0.16406,-0.0879 -0.375,-0.13477 -0.21093,-0.0469 -0.45117,-0.0469 -0.86133,0 -1.50586,0.65625 -0.64453,0.65039 -0.85547,1.74609 l -0.66211,3.3457 -1.07812,0 1.2832,-6.5625 1.07813,0 -0.20508,1.01953 q 0.42773,-0.56836 1.01953,-0.87304 0.59766,-0.30469 1.27149,-0.30469 0.17578,0 0.3457,0.0234 0.16992,0.0176 0.33984,0.0644 l -0.20508,1.06641 z" />
      <path
         id="path227"
         style="font-style:italic;font-size:12px;font-family:sans-serif;fill:#000000"
         d="m 275.79492,164.27151 q 0.0176,-0.0937 0.0234,-0.19335 0.0117,-0.0996 0.0117,-0.19922 0,-0.71485 -0.42188,-1.13086 -0.41601,-0.41602 -1.13672,-0.41602 -0.80273,0 -1.41796,0.50977 -0.61524,0.5039 -0.93165,1.43554 l 3.87305,-0.006 z m 0.9375,0.84375 -5.01562,0 q -0.0352,0.22266 -0.0469,0.35157 -0.0117,0.1289 -0.0117,0.22265 0,0.81446 0.49805,1.25977 0.50391,0.44531 1.41797,0.44531 0.70312,0 1.33008,-0.1582 0.62695,-0.1582 1.16601,-0.46289 l -0.20508,1.0664 q -0.58007,0.23438 -1.20117,0.35157 -0.61523,0.11718 -1.2539,0.11718 -1.36524,0 -2.10352,-0.65039 -0.73242,-0.65625 -0.73242,-1.85742 0,-1.02539 0.36328,-1.9043 0.36914,-0.88476 1.07812,-1.57617 0.45704,-0.43359 1.08399,-0.66797 0.63281,-0.23437 1.3418,-0.23437 1.11328,0 1.76953,0.66797 0.66211,0.66797 0.66211,1.79297 0,0.26953 -0.0352,0.58007 -0.0352,0.30469 -0.10547,0.65625 z" />
      <path
         id="path229"
         style="font-style:italic;font-size:12px;font-family:sans-serif;fill:#000000"
         d="m 282.48047,161.5762 -0.16406,0.83789 -2.15039,0 -0.69727,3.5625 q -0.0352,0.19922 -0.0527,0.33399 -0.0176,0.13476 -0.0176,0.21093 0,0.375 0.22265,0.54493 0.22852,0.16992 0.72657,0.16992 l 1.08984,0 -0.18164,0.90234 -1.03125,0 q -0.96094,0 -1.43555,-0.375 -0.46875,-0.375 -0.46875,-1.13672 0,-0.13476 0.0176,-0.29297 0.0176,-0.16406 0.0527,-0.35742 l 0.69727,-3.5625 -0.91406,0 0.16992,-0.83789 0.89648,0 0.36329,-1.86328 1.07812,0 -0.35742,1.86328 2.15625,0 z" />
      <path
         id="path231"
         style="font-style:italic;font-size:12px;font-family:sans-serif;fill:#000000"
         d="m 287.88867,164.27151 q 0.0176,-0.0937 0.0234,-0.19335 0.0117,-0.0996 0.0117,-0.19922 0,-0.71485 -0.42188,-1.13086 -0.41601,-0.41602 -1.13672,-0.41602 -0.80273,0 -1.41796,0.50977 -0.61524,0.5039 -0.93165,1.43554 l 3.87305,-0.006 z m 0.9375,0.84375 -5.01562,0 q -0.0352,0.22266 -0.0469,0.35157 -0.0117,0.1289 -0.0117,0.22265 0,0.81446 0.49805,1.25977 0.50391,0.44531 1.41797,0.44531 0.70312,0 1.33008,-0.1582 0.62695,-0.1582 1.16601,-0.46289 l -0.20508,1.0664 q -0.58007,0.23438 -1.20117,0.35157 -0.61523,0.11718 -1.2539,0.11718 -1.36524,0 -2.10352,-0.65039 -0.73242,-0.65625 -0.73242,-1.85742 0,-1.02539 0.36328,-1.9043 0.36914,-0.88476 1.07812,-1.57617 0.45704,-0.43359 1.08399,-0.66797 0.63281,-0.23437 1.3418,-0.23437 1.11328,0 1.76953,0.66797 0.66211,0.66797 0.66211,1.79297 0,0.26953 -0.0352,0.58007 -0.0352,0.30469 -0.10547,0.65625 z" />
      <path
         id="path233"
         style="font-style:italic;font-size:12px;font-family:sans-serif;fill:#000000"
         d="m 292.83398,167.31253 0.22852,-1.17773 2.08008,-1.58204 -1.47656,-1.56445 0.22851,-1.05469 2.25586,2.44922 -0.0879,0.48047 -3.22852,2.44922 z m -2.58984,0 0.22852,-1.17773 2.0625,-1.58204 -1.46485,-1.56445 0.2168,-1.05469 2.25586,2.44922 -0.082,0.48047 -3.2168,2.44922 z" />
    </g>
    <g
       id="text50"
       style="font-weight:bold;font-size:15px;font-family:sans-serif;fill:#000000">
      <path
         id="path236"
         style="font-weight:bold;font-size:15px;font-family:sans-serif;fill:#000000"
         d="m 225.54883,184.29152 q -0.77637,0.40283 -1.61865,0.60791 -0.84229,0.20508 -1.75782,0.20508 -2.73193,0 -4.32861,-1.52344 -1.59668,-1.53076 -1.59668,-4.14551 0,-2.62207 1.59668,-4.14551 1.59668,-1.53076 4.32861,-1.53076 0.91553,0 1.75782,0.20508 0.84228,0.20508 1.61865,0.60791 l 0,2.26318 q -0.78369,-0.53466 -1.54541,-0.78369 -0.76172,-0.24902 -1.60401,-0.24902 -1.50879,0 -2.37304,0.9668 -0.86426,0.96679 -0.86426,2.66601 0,1.6919 0.86426,2.65869 0.86425,0.9668 2.37304,0.9668 0.84229,0 1.60401,-0.24902 0.76172,-0.24903 1.54541,-0.78369 l 0,2.26318 z" />
      <path
         id="path238"
         style="font-weight:bold;font-size:15px;font-family:sans-serif;fill:#000000"
         d="m 231.6792,178.36623 q -0.87158,0 -1.33301,0.62988 -0.4541,0.62256 -0.4541,1.80176 0,1.1792 0.4541,1.80908 0.46143,0.62256 1.33301,0.62256 0.85693,0 1.31103,-0.62256 0.45411,-0.62988 0.45411,-1.80908 0,-1.1792 -0.45411,-1.80176 -0.4541,-0.62988 -1.31103,-0.62988 z m 0,-1.875 q 2.1167,0 3.30322,1.14257 1.19385,1.14258 1.19385,3.16407 0,2.02148 -1.19385,3.16406 -1.18652,1.14258 -3.30322,1.14258 -2.12402,0 -3.3252,-1.14258 -1.19384,-1.14258 -1.19384,-3.16406 0,-2.02149 1.19384,-3.16407 1.20118,-1.14257 3.3252,-1.14257 z" />
      <path
         id="path240"
         style="font-weight:bold;font-size:15px;font-family:sans-serif;fill:#000000"
         d="m 245.69043,178.05128 q 0.49805,-0.76171 1.1792,-1.15722 0.68848,-0.40283 1.50879,-0.40283 1.41357,0 2.15332,0.87158 0.73974,0.87158 0.73974,2.53418 l 0,4.99512 -2.63671,0 0,-4.27735 q 0.007,-0.0952 0.007,-0.19775 0.007,-0.10254 0.007,-0.29297 0,-0.87158 -0.25634,-1.25977 -0.25635,-0.3955 -0.82764,-0.3955 -0.74707,0 -1.15723,0.61523 -0.40283,0.61523 -0.41748,1.77978 l 0,4.02833 -2.63672,0 0,-4.27735 q 0,-1.3623 -0.23437,-1.75049 -0.23438,-0.3955 -0.83496,-0.3955 -0.7544,0 -1.16455,0.62255 -0.41016,0.61524 -0.41016,1.76514 l 0,4.03565 -2.63672,0 0,-8.20313 2.63672,0 0,1.20117 q 0.4834,-0.6958 1.10596,-1.04736 0.62988,-0.35156 1.38428,-0.35156 0.8496,0 1.50146,0.41015 0.65186,0.41016 0.98877,1.1499 z" />
      <path
         id="path242"
         style="font-weight:bold;font-size:15px;font-family:sans-serif;fill:#000000"
         d="m 261.33496,178.05128 q 0.49805,-0.76171 1.1792,-1.15722 0.68848,-0.40283 1.50879,-0.40283 1.41357,0 2.15332,0.87158 0.73975,0.87158 0.73975,2.53418 l 0,4.99512 -2.63672,0 0,-4.27735 q 0.007,-0.0952 0.007,-0.19775 0.007,-0.10254 0.007,-0.29297 0,-0.87158 -0.25635,-1.25977 -0.25635,-0.3955 -0.82764,-0.3955 -0.74707,0 -1.15723,0.61523 -0.40283,0.61523 -0.41748,1.77978 l 0,4.02833 -2.63671,0 0,-4.27735 q 0,-1.3623 -0.23438,-1.75049 -0.23437,-0.3955 -0.83496,-0.3955 -0.7544,0 -1.16455,0.62255 -0.41016,0.61524 -0.41016,1.76514 l 0,4.03565 -2.63672,0 0,-8.20313 2.63672,0 0,1.20117 q 0.4834,-0.6958 1.10596,-1.04736 0.62988,-0.35156 1.38428,-0.35156 0.84961,0 1.50146,0.41015 0.65186,0.41016 0.98877,1.1499 z" />
      <path
         id="path244"
         style="font-weight:bold;font-size:15px;font-family:sans-serif;fill:#000000"
         d="m 273.05371,181.2007 q -0.82031,0 -1.23779,0.27832 -0.41016,0.27832 -0.41016,0.82031 0,0.49805 0.32959,0.78369 0.33692,0.27832 0.93018,0.27832 0.73974,0 1.24511,-0.52734 0.50538,-0.53467 0.50538,-1.33301 l 0,-0.30029 -1.36231,0 z m 4.00635,-0.98877 0,4.68018 -2.64404,0 0,-1.21583 q -0.52735,0.74708 -1.18653,1.09131 -0.65918,0.33692 -1.604,0.33692 -1.27442,0 -2.07276,-0.73975 -0.79101,-0.74707 -0.79101,-1.93359 0,-1.44287 0.98877,-2.1167 0.99609,-0.67383 3.12012,-0.67383 l 1.54541,0 0,-0.20508 q 0,-0.62256 -0.49073,-0.9082 -0.49072,-0.29297 -1.53076,-0.29297 -0.84228,0 -1.56738,0.16846 -0.7251,0.16845 -1.34766,0.50537 l 0,-1.99951 q 0.84229,-0.20508 1.6919,-0.30762 0.84961,-0.10986 1.69922,-0.10986 2.21923,0 3.20068,0.8789 0.98877,0.87158 0.98877,2.8418 z" />
      <path
         id="path246"
         style="font-weight:bold;font-size:15px;font-family:sans-serif;fill:#000000"
         d="m 287.76074,179.89699 0,4.99512 -2.63672,0 0,-0.81299 0,-3.01026 q 0,-1.06201 -0.0513,-1.46484 -0.0439,-0.40283 -0.16113,-0.59326 -0.15381,-0.25635 -0.41748,-0.39551 -0.26367,-0.14648 -0.60059,-0.14648 -0.82031,0 -1.28906,0.6372 -0.46875,0.62989 -0.46875,1.75049 l 0,4.03565 -2.62207,0 0,-8.20313 2.62207,0 0,1.20117 q 0.59326,-0.71777 1.25977,-1.05469 0.6665,-0.34423 1.47217,-0.34423 1.42089,0 2.15332,0.87158 0.73974,0.87158 0.73974,2.53418 z" />
      <path
         id="path248"
         style="font-weight:bold;font-size:15px;font-family:sans-serif;fill:#000000"
         d="m 295.78809,177.89015 0,-4.39453 2.63671,0 0,11.39649 -2.63671,0 0,-1.18653 q -0.542,0.7251 -1.19385,1.06201 -0.65186,0.33692 -1.50879,0.33692 -1.51611,0 -2.49024,-1.20117 -0.97412,-1.2085 -0.97412,-3.10547 0,-1.89698 0.97412,-3.09815 0.97413,-1.20849 2.49024,-1.20849 0.84961,0 1.50146,0.34423 0.65918,0.33692 1.20118,1.05469 z m -1.72852,5.31006 q 0.84229,0 1.28174,-0.61523 0.44678,-0.61524 0.44678,-1.78711 0,-1.17188 -0.44678,-1.78711 -0.43945,-0.61524 -1.28174,-0.61524 -0.83496,0 -1.28174,0.61524 -0.43945,0.61523 -0.43945,1.78711 0,1.17187 0.43945,1.78711 0.44678,0.61523 1.28174,0.61523 z" />
      <path
         id="path250"
         style="font-weight:bold;font-size:15px;font-family:sans-serif;fill:#000000"
         d="m 301.45703,182.94386 2.49024,0 0,-7.06787 -2.55616,0.52735 0,-1.91895 2.54151,-0.52734 2.68066,0 0,8.98681 2.49024,0 0,1.94825 -7.64649,0 0,-1.94825 z" />
    </g>
    <path
       id="line52"
       d="m 182.5,193.4297 138,0"
       style="stroke:#a80036;stroke-width:1.5" />
    <g
       id="text54"
       style="font-size:17px;font-family:'Ubuntu Mono';fill:#000000">
      <path
         id="path254"
         style="font-size:17px;font-family:'Ubuntu Mono';fill:#000000"
         d="m 190.237,211.5397 0,-6.715 -1.666,0 0,-1.173 1.666,0 0,-0.714 q 0,-0.918 0.255,-1.513 0.255,-0.612 0.663,-0.986 0.425,-0.374 0.969,-0.527 0.561,-0.153 1.173,-0.153 0.612,0 1.224,0.136 0.629,0.136 1.173,0.323 l -0.255,1.207 q -0.374,-0.187 -0.935,-0.323 -0.561,-0.136 -1.139,-0.136 -0.357,0 -0.68,0.102 -0.306,0.085 -0.544,0.323 -0.238,0.221 -0.374,0.612 -0.136,0.374 -0.136,0.952 l 0,0.697 3.179,0 0,1.173 -3.179,0 0,6.715 -1.394,0 z" />
      <path
         id="path256"
         style="font-size:17px;font-family:'Ubuntu Mono';fill:#000000"
         d="m 203.293,211.3187 q -0.459,0.119 -1.224,0.255 -0.748,0.136 -1.768,0.136 -0.901,0 -1.496,-0.255 -0.595,-0.272 -0.969,-0.748 -0.374,-0.493 -0.527,-1.156 -0.153,-0.663 -0.153,-1.462 l 0,-4.437 1.394,0 0,4.131 q 0,1.462 0.425,2.074 0.442,0.612 1.462,0.612 0.221,0 0.442,-0.017 0.238,-0.017 0.442,-0.034 0.204,-0.034 0.357,-0.051 0.153,-0.034 0.204,-0.051 l 0,-6.664 1.411,0 0,7.667 z" />
      <path
         id="path258"
         style="font-size:17px;font-family:'Ubuntu Mono';fill:#000000"
         d="m 205.707,203.8727 q 0.765,-0.187 1.513,-0.289 0.765,-0.102 1.428,-0.102 1.581,0 2.38,0.816 0.816,0.816 0.816,2.618 l 0,4.624 -1.394,0 0,-4.369 q 0,-0.765 -0.136,-1.241 -0.136,-0.476 -0.391,-0.731 -0.238,-0.272 -0.595,-0.374 -0.34,-0.102 -0.748,-0.102 -0.34,0 -0.731,0.051 -0.374,0.034 -0.731,0.102 l 0,6.664 -1.411,0 0,-7.667 z" />
      <path
         id="path260"
         style="font-size:17px;font-family:'Ubuntu Mono';fill:#000000"
         d="m 213.833,207.6127 q 0,-1.071 0.34,-1.853 0.34,-0.782 0.935,-1.292 0.595,-0.51 1.377,-0.748 0.799,-0.255 1.7,-0.255 0.578,0 1.139,0.085 0.578,0.068 1.224,0.272 l -0.323,1.207 q -0.561,-0.204 -1.037,-0.255 -0.459,-0.068 -0.935,-0.068 -0.612,0 -1.156,0.17 -0.544,0.153 -0.952,0.51 -0.391,0.34 -0.629,0.901 -0.238,0.544 -0.238,1.326 0,0.748 0.221,1.292 0.221,0.527 0.612,0.884 0.408,0.34 0.969,0.51 0.561,0.17 1.241,0.17 0.544,0 1.037,-0.051 0.51,-0.068 1.105,-0.272 l 0.204,1.173 q -0.595,0.221 -1.207,0.306 -0.612,0.102 -1.326,0.102 -0.952,0 -1.751,-0.255 -0.782,-0.272 -1.36,-0.782 -0.561,-0.51 -0.884,-1.275 -0.306,-0.782 -0.306,-1.802 z" />
      <path
         id="path262"
         style="font-size:17px;font-family:'Ubuntu Mono';fill:#000000"
         d="m 225.631,203.6517 3.332,0 0,1.173 -3.332,0 0,3.672 q 0,0.595 0.085,0.969 0.085,0.374 0.272,0.612 0.204,0.221 0.51,0.306 0.306,0.085 0.748,0.085 0.612,0 0.986,-0.102 0.374,-0.102 0.714,-0.272 l 0.204,1.19 q -0.238,0.102 -0.765,0.272 -0.51,0.17 -1.275,0.17 -0.884,0 -1.445,-0.204 -0.561,-0.204 -0.884,-0.612 -0.306,-0.408 -0.425,-1.003 -0.119,-0.612 -0.119,-1.411 l 0,-3.672 -1.666,0 0,-1.173 1.666,0 0,-2.21 1.394,-0.238 0,2.448 z" />
      <path
         id="path264"
         style="font-size:17px;font-family:'Ubuntu Mono';fill:#000000"
         d="m 233.553,202.4277 q -0.442,0 -0.765,-0.306 -0.323,-0.306 -0.323,-0.833 0,-0.527 0.323,-0.833 0.323,-0.306 0.765,-0.306 0.459,0 0.765,0.306 0.323,0.306 0.323,0.833 0,0.527 -0.323,0.833 -0.306,0.306 -0.765,0.306 z m -0.357,2.397 -2.278,0 0,-1.173 3.672,0 0,4.845 q 0,1.173 0.323,1.581 0.323,0.391 0.969,0.391 0.493,0 0.901,-0.119 0.425,-0.119 0.663,-0.255 l 0.204,1.19 q -0.102,0.051 -0.289,0.136 -0.187,0.068 -0.442,0.136 -0.238,0.068 -0.544,0.119 -0.289,0.051 -0.612,0.051 -0.748,0 -1.241,-0.204 -0.493,-0.204 -0.799,-0.612 -0.289,-0.408 -0.408,-1.003 -0.119,-0.612 -0.119,-1.411 l 0,-3.672 z" />
      <path
         id="path266"
         style="font-size:17px;font-family:'Ubuntu Mono';fill:#000000"
         d="m 246.32,207.5957 q 0,0.935 -0.272,1.7 -0.255,0.748 -0.731,1.292 -0.476,0.544 -1.139,0.85 -0.663,0.289 -1.445,0.289 -0.765,0 -1.428,-0.289 -0.646,-0.306 -1.122,-0.85 -0.476,-0.544 -0.748,-1.292 -0.255,-0.765 -0.255,-1.7 0,-0.935 0.255,-1.7 0.272,-0.765 0.748,-1.292 0.476,-0.544 1.122,-0.833 0.663,-0.306 1.428,-0.306 0.782,0 1.445,0.306 0.663,0.289 1.139,0.833 0.476,0.527 0.731,1.292 0.272,0.765 0.272,1.7 z m -1.445,0 q 0,-1.343 -0.578,-2.108 -0.578,-0.782 -1.564,-0.782 -0.969,0 -1.547,0.782 -0.561,0.765 -0.561,2.108 0,1.326 0.561,2.108 0.578,0.765 1.547,0.765 0.986,0 1.564,-0.765 0.578,-0.782 0.578,-2.108 z" />
      <path
         id="path268"
         style="font-size:17px;font-family:'Ubuntu Mono';fill:#000000"
         d="m 248.207,203.8727 q 0.765,-0.187 1.513,-0.289 0.765,-0.102 1.428,-0.102 1.581,0 2.38,0.816 0.816,0.816 0.816,2.618 l 0,4.624 -1.394,0 0,-4.369 q 0,-0.765 -0.136,-1.241 -0.136,-0.476 -0.391,-0.731 -0.238,-0.272 -0.595,-0.374 -0.34,-0.102 -0.748,-0.102 -0.34,0 -0.731,0.051 -0.374,0.034 -0.731,0.102 l 0,6.664 -1.411,0 0,-7.667 z" />
      <path
         id="path270"
         style="font-size:17px;font-family:'Ubuntu Mono';fill:#000000"
         d="m 262.368,211.5397 -0.629,-2.754 -4.046,0 -0.612,2.754 -1.428,0 q 0.289,-1.122 0.646,-2.431 0.357,-1.309 0.765,-2.686 0.425,-1.377 0.884,-2.754 0.459,-1.394 0.969,-2.652 l 1.734,0 q 0.493,1.258 0.935,2.652 0.459,1.377 0.85,2.754 0.408,1.377 0.765,2.686 0.357,1.309 0.646,2.431 l -1.479,0 z m -2.635,-9.299 q -0.391,1.071 -0.85,2.482 -0.459,1.411 -0.867,2.907 l 3.4,0 q -0.391,-1.53 -0.85,-2.941 -0.442,-1.428 -0.833,-2.448 z" />
      <path
         id="path272"
         style="font-size:17px;font-family:'Ubuntu Mono';fill:#000000"
         d="m 270.528,200.6427 q -1.581,1.224 -2.414,2.822 -0.833,1.598 -0.833,3.485 0,0.952 0.187,1.802 0.204,0.85 0.595,1.632 0.408,0.782 1.02,1.513 0.629,0.731 1.479,1.462 l -0.765,1.02 q -1.955,-1.445 -2.924,-3.349 -0.952,-1.921 -0.952,-4.046 0,-2.108 0.969,-4.029 0.969,-1.921 2.907,-3.332 l 0.748,1.02 -0.017,0 z" />
      <path
         id="path274"
         style="font-size:17px;font-family:'Ubuntu Mono';fill:#000000"
         d="m 274.455,213.3587 q 1.581,-1.224 2.414,-2.822 0.85,-1.598 0.85,-3.485 0,-0.952 -0.204,-1.802 -0.187,-0.85 -0.595,-1.632 -0.408,-0.782 -1.037,-1.513 -0.612,-0.731 -1.462,-1.462 l 0.765,-1.02 q 1.955,1.445 2.907,3.366 0.969,1.904 0.969,4.029 0,1.054 -0.255,2.074 -0.238,1.02 -0.731,1.972 -0.476,0.935 -1.207,1.768 -0.714,0.85 -1.683,1.547 l -0.748,-1.02 0.017,0 z" />
    </g>
    <g
       id="text56"
       style="font-size:17px;font-family:'Ubuntu Mono';fill:#000000">
      <path
         id="path277"
         style="font-size:17px;font-family:'Ubuntu Mono';fill:#000000"
         d="m 190.237,228.5396 0,-6.715 -1.666,0 0,-1.173 1.666,0 0,-0.714 q 0,-0.918 0.255,-1.513 0.255,-0.612 0.663,-0.986 0.425,-0.374 0.969,-0.527 0.561,-0.153 1.173,-0.153 0.612,0 1.224,0.136 0.629,0.136 1.173,0.323 l -0.255,1.207 q -0.374,-0.187 -0.935,-0.323 -0.561,-0.136 -1.139,-0.136 -0.357,0 -0.68,0.102 -0.306,0.085 -0.544,0.323 -0.238,0.221 -0.374,0.612 -0.136,0.374 -0.136,0.952 l 0,0.697 3.179,0 0,1.173 -3.179,0 0,6.715 -1.394,0 z" />
      <path
         id="path279"
         style="font-size:17px;font-family:'Ubuntu Mono';fill:#000000"
         d="m 203.293,228.3186 q -0.459,0.119 -1.224,0.255 -0.748,0.136 -1.768,0.136 -0.901,0 -1.496,-0.255 -0.595,-0.272 -0.969,-0.748 -0.374,-0.493 -0.527,-1.156 -0.153,-0.663 -0.153,-1.462 l 0,-4.437 1.394,0 0,4.131 q 0,1.462 0.425,2.074 0.442,0.612 1.462,0.612 0.221,0 0.442,-0.017 0.238,-0.017 0.442,-0.034 0.204,-0.034 0.357,-0.051 0.153,-0.034 0.204,-0.051 l 0,-6.664 1.411,0 0,7.667 z" />
      <path
         id="path281"
         style="font-size:17px;font-family:'Ubuntu Mono';fill:#000000"
         d="m 205.707,220.8726 q 0.765,-0.187 1.513,-0.289 0.765,-0.102 1.428,-0.102 1.581,0 2.38,0.816 0.816,0.816 0.816,2.618 l 0,4.624 -1.394,0 0,-4.369 q 0,-0.765 -0.136,-1.241 -0.136,-0.476 -0.391,-0.731 -0.238,-0.272 -0.595,-0.374 -0.34,-0.102 -0.748,-0.102 -0.34,0 -0.731,0.051 -0.374,0.034 -0.731,0.102 l 0,6.664 -1.411,0 0,-7.667 z" />
      <path
         id="path283"
         style="font-size:17px;font-family:'Ubuntu Mono';fill:#000000"
         d="m 213.833,224.6126 q 0,-1.071 0.34,-1.853 0.34,-0.782 0.935,-1.292 0.595,-0.51 1.377,-0.748 0.799,-0.255 1.7,-0.255 0.578,0 1.139,0.085 0.578,0.068 1.224,0.272 l -0.323,1.207 q -0.561,-0.204 -1.037,-0.255 -0.459,-0.068 -0.935,-0.068 -0.612,0 -1.156,0.17 -0.544,0.153 -0.952,0.51 -0.391,0.34 -0.629,0.901 -0.238,0.544 -0.238,1.326 0,0.748 0.221,1.292 0.221,0.527 0.612,0.884 0.408,0.34 0.969,0.51 0.561,0.17 1.241,0.17 0.544,0 1.037,-0.051 0.51,-0.068 1.105,-0.272 l 0.204,1.173 q -0.595,0.221 -1.207,0.306 -0.612,0.102 -1.326,0.102 -0.952,0 -1.751,-0.255 -0.782,-0.272 -1.36,-0.782 -0.561,-0.51 -0.884,-1.275 -0.306,-0.782 -0.306,-1.802 z" />
      <path
         id="path285"
         style="font-size:17px;font-family:'Ubuntu Mono';fill:#000000"
         d="m 225.631,220.6516 3.332,0 0,1.173 -3.332,0 0,3.672 q 0,0.595 0.085,0.969 0.085,0.374 0.272,0.612 0.204,0.221 0.51,0.306 0.306,0.085 0.748,0.085 0.612,0 0.986,-0.102 0.374,-0.102 0.714,-0.272 l 0.204,1.19 q -0.238,0.102 -0.765,0.272 -0.51,0.17 -1.275,0.17 -0.884,0 -1.445,-0.204 -0.561,-0.204 -0.884,-0.612 -0.306,-0.408 -0.425,-1.003 -0.119,-0.612 -0.119,-1.411 l 0,-3.672 -1.666,0 0,-1.173 1.666,0 0,-2.21 1.394,-0.238 0,2.448 z" />
      <path
         id="path287"
         style="font-size:17px;font-family:'Ubuntu Mono';fill:#000000"
         d="m 233.553,219.4276 q -0.442,0 -0.765,-0.306 -0.323,-0.306 -0.323,-0.833 0,-0.527 0.323,-0.833 0.323,-0.306 0.765,-0.306 0.459,0 0.765,0.306 0.323,0.306 0.323,0.833 0,0.527 -0.323,0.833 -0.306,0.306 -0.765,0.306 z m -0.357,2.397 -2.278,0 0,-1.173 3.672,0 0,4.845 q 0,1.173 0.323,1.581 0.323,0.391 0.969,0.391 0.493,0 0.901,-0.119 0.425,-0.119 0.663,-0.255 l 0.204,1.19 q -0.102,0.051 -0.289,0.136 -0.187,0.068 -0.442,0.136 -0.238,0.068 -0.544,0.119 -0.289,0.051 -0.612,0.051 -0.748,0 -1.241,-0.204 -0.493,-0.204 -0.799,-0.612 -0.289,-0.408 -0.408,-1.003 -0.119,-0.612 -0.119,-1.411 l 0,-3.672 z" />
      <path
         id="path289"
         style="font-size:17px;font-family:'Ubuntu Mono';fill:#000000"
         d="m 246.32,224.5956 q 0,0.935 -0.272,1.7 -0.255,0.748 -0.731,1.292 -0.476,0.544 -1.139,0.85 -0.663,0.289 -1.445,0.289 -0.765,0 -1.428,-0.289 -0.646,-0.306 -1.122,-0.85 -0.476,-0.544 -0.748,-1.292 -0.255,-0.765 -0.255,-1.7 0,-0.935 0.255,-1.7 0.272,-0.765 0.748,-1.292 0.476,-0.544 1.122,-0.833 0.663,-0.306 1.428,-0.306 0.782,0 1.445,0.306 0.663,0.289 1.139,0.833 0.476,0.527 0.731,1.292 0.272,0.765 0.272,1.7 z m -1.445,0 q 0,-1.343 -0.578,-2.108 -0.578,-0.782 -1.564,-0.782 -0.969,0 -1.547,0.782 -0.561,0.765 -0.561,2.108 0,1.326 0.561,2.108 0.578,0.765 1.547,0.765 0.986,0 1.564,-0.765 0.578,-0.782 0.578,-2.108 z" />
      <path
         id="path291"
         style="font-size:17px;font-family:'Ubuntu Mono';fill:#000000"
         d="m 248.207,220.8726 q 0.765,-0.187 1.513,-0.289 0.765,-0.102 1.428,-0.102 1.581,0 2.38,0.816 0.816,0.816 0.816,2.618 l 0,4.624 -1.394,0 0,-4.369 q 0,-0.765 -0.136,-1.241 -0.136,-0.476 -0.391,-0.731 -0.238,-0.272 -0.595,-0.374 -0.34,-0.102 -0.748,-0.102 -0.34,0 -0.731,0.051 -0.374,0.034 -0.731,0.102 l 0,6.664 -1.411,0 0,-7.667 z" />
      <path
         id="path293"
         style="font-size:17px;font-family:'Ubuntu Mono';fill:#000000"
         d="m 258.968,228.6246 q -0.255,0 -0.595,-0.017 -0.34,-0.017 -0.68,-0.051 -0.34,-0.017 -0.68,-0.068 -0.34,-0.051 -0.595,-0.119 l 0,-10.2 q 0.255,-0.068 0.578,-0.119 0.34,-0.051 0.68,-0.068 0.357,-0.034 0.68,-0.051 0.34,-0.017 0.612,-0.017 0.782,0 1.462,0.136 0.68,0.136 1.173,0.459 0.51,0.323 0.782,0.85 0.289,0.527 0.289,1.309 0,0.374 -0.119,0.731 -0.119,0.34 -0.34,0.646 -0.204,0.306 -0.493,0.544 -0.272,0.221 -0.595,0.34 0.867,0.238 1.445,0.884 0.595,0.629 0.595,1.649 0,1.564 -1.003,2.363 -1.003,0.799 -3.196,0.799 z m -1.156,-4.998 0,3.757 q 0.034,0.017 0.374,0.051 0.357,0.017 0.884,0.017 0.527,0 1.003,-0.085 0.493,-0.085 0.867,-0.306 0.374,-0.238 0.595,-0.612 0.238,-0.374 0.238,-0.969 0,-0.527 -0.221,-0.884 -0.204,-0.357 -0.561,-0.561 -0.34,-0.221 -0.799,-0.306 -0.459,-0.102 -0.952,-0.102 l -1.428,0 z m 0,-1.156 1.105,0 q 0.425,0 0.85,-0.085 0.425,-0.085 0.765,-0.272 0.34,-0.187 0.544,-0.51 0.204,-0.323 0.204,-0.816 0,-0.459 -0.187,-0.782 -0.187,-0.323 -0.493,-0.527 -0.306,-0.204 -0.714,-0.289 -0.391,-0.085 -0.833,-0.085 -0.442,0 -0.782,0.017 -0.323,0 -0.459,0.034 l 0,3.315 z" />
      <path
         id="path295"
         style="font-size:17px;font-family:'Ubuntu Mono';fill:#000000"
         d="m 270.528,217.6426 q -1.581,1.224 -2.414,2.822 -0.833,1.598 -0.833,3.485 0,0.952 0.187,1.802 0.204,0.85 0.595,1.632 0.408,0.782 1.02,1.513 0.629,0.731 1.479,1.462 l -0.765,1.02 q -1.955,-1.445 -2.924,-3.349 -0.952,-1.921 -0.952,-4.046 0,-2.108 0.969,-4.029 0.969,-1.921 2.907,-3.332 l 0.748,1.02 -0.017,0 z" />
      <path
         id="path297"
         style="font-size:17px;font-family:'Ubuntu Mono';fill:#000000"
         d="m 274.455,230.3586 q 1.581,-1.224 2.414,-2.822 0.85,-1.598 0.85,-3.485 0,-0.952 -0.204,-1.802 -0.187,-0.85 -0.595,-1.632 -0.408,-0.782 -1.037,-1.513 -0.612,-0.731 -1.462,-1.462 l 0.765,-1.02 q 1.955,1.445 2.907,3.366 0.969,1.904 0.969,4.029 0,1.054 -0.255,2.074 -0.238,1.02 -0.731,1.972 -0.476,0.935 -1.207,1.768 -0.714,0.85 -1.683,1.547 l -0.748,-1.02 0.017,0 z" />
    </g>
    <!--class  Command2  -->
    <path
       id=" Command2  "
       d="m 356.5,152 140,0 0,83.4296 -140,0 z"
       style="fill:#fefece;stroke:#a80036;stroke-width:1.5;filter:url(#f6tki9um3zqs5)" />
    <path
       id="ellipse59"
       d="m 382.5,172.7148 a 11,11 0 0 1 -11,11 11,11 0 0 1 -11,-11 11,11 0 0 1 11,-11 11,11 0 0 1 11,11 z"
       style="fill:#add1b2;stroke:#a80036;stroke-width:1" />
    <path
       id="path61"
       d="m 374.5,177.7148 q -0.6094,0.5 -1.2656,0.75 -0.6563,0.25 -1.3906,0.25 -2.6094,0 -3.9766,-1.539 -1.3672,-1.5391 -1.3672,-4.461 0,-2.9218 1.3672,-4.4609 1.3672,-1.5391 3.9766,-1.5391 0.7343,0 1.4062,0.25 0.6719,0.25 1.25,0.75 l 0,3 q -0.6094,-1.0312 -1.1875,-1.5156 -0.5781,-0.4844 -1.1875,-0.4844 -1.2969,0 -1.9609,1.0079 -0.6641,1.0078 -0.6641,2.9921 0,1.9844 0.6641,2.9922 0.664,1.0078 1.9609,1.0078 0.6094,0 1.1875,-0.4843 0.5781,-0.4844 1.1875,-1.5157 l 0,3 z" />
    <g
       id="text63"
       style="font-style:italic;font-size:12px;font-family:sans-serif;fill:#000000">
      <path
         id="path302"
         style="font-style:italic;font-size:12px;font-family:sans-serif;fill:#000000"
         d="m 408.55469,161.93362 -0.22852,1.17774 -2.07422,1.58203 1.47657,1.55859 -0.2168,1.06055 -2.26758,-2.44922 0.0937,-0.48047 3.2168,-2.44922 z m 2.60742,0 -0.22852,1.17774 -2.08007,1.58203 1.47656,1.55859 -0.2168,1.06055 -2.26758,-2.44922 0.0996,-0.48047 3.2168,-2.44922 z" />
      <path
         id="path304"
         style="font-style:italic;font-size:12px;font-family:sans-serif;fill:#000000"
         d="m 418.33984,161.82816 -0.21679,1.0664 q -0.38672,-0.28125 -0.82618,-0.42187 -0.43359,-0.14063 -0.90234,-0.14063 -0.51562,0 -0.98437,0.18164 -0.46289,0.18164 -0.7793,0.51563 -0.50391,0.50976 -0.7793,1.19531 -0.27539,0.68555 -0.27539,1.41797 0,0.88476 0.43945,1.31836 0.44532,0.43359 1.34766,0.43359 0.44531,0 0.94336,-0.13476 0.50391,-0.13477 1.04883,-0.4043 l -0.20508,1.06641 q -0.46875,0.19335 -0.9668,0.2871 -0.49218,0.0996 -1.01367,0.0996 -1.30664,0 -2.00976,-0.65039 -0.70313,-0.65625 -0.70313,-1.86914 0,-1.01953 0.36328,-1.875 0.36914,-0.86133 1.08985,-1.54687 0.49218,-0.46875 1.15429,-0.70899 0.66211,-0.24023 1.44727,-0.24023 0.45703,0 0.9082,0.10547 0.45117,0.0996 0.91992,0.30469 z" />
      <path
         id="path306"
         style="font-style:italic;font-size:12px;font-family:sans-serif;fill:#000000"
         d="m 421.5625,168.30862 q -1.1543,0 -1.82813,-0.70898 -0.66796,-0.71484 -0.66796,-1.94531 0,-0.71485 0.22851,-1.45313 0.23438,-0.74414 0.60352,-1.24804 0.58008,-0.78516 1.29492,-1.16016 0.71484,-0.375 1.61719,-0.375 1.11914,0 1.80468,0.69726 0.69141,0.69727 0.69141,1.82227 0,0.7793 -0.22852,1.55273 -0.22851,0.77344 -0.59765,1.28321 -0.57422,0.78515 -1.28906,1.16015 -0.71485,0.375 -1.62891,0.375 z m -1.37695,-2.68945 q 0,0.89063 0.36914,1.33594 0.375,0.43945 1.13086,0.43945 1.08398,0 1.79297,-0.94336 0.71484,-0.94922 0.71484,-2.40234 0,-0.84961 -0.38086,-1.2832 -0.38086,-0.4336 -1.11914,-0.4336 -0.60938,0 -1.08399,0.28711 -0.4746,0.28125 -0.8496,0.86133 -0.2754,0.43359 -0.42774,0.99023 -0.14648,0.55664 -0.14648,1.14844 z" />
      <path
         id="path308"
         style="font-style:italic;font-size:12px;font-family:sans-serif;fill:#000000"
         d="m 432.53711,164.17776 -0.76758,3.96094 -1.08398,0 0.76757,-3.91992 q 0.0527,-0.27539 0.082,-0.48633 0.0293,-0.21094 0.0293,-0.33398 0,-0.49219 -0.31054,-0.76758 -0.31055,-0.27539 -0.86719,-0.27539 -0.86719,0 -1.49414,0.58008 -0.62696,0.57422 -0.82031,1.56445 l -0.72071,3.63867 -1.07812,0 1.27148,-6.5625 1.07813,0 -0.2168,1.03125 q 0.45117,-0.56836 1.08398,-0.8789 0.63282,-0.31055 1.33008,-0.31055 0.86719,0 1.3418,0.46875 0.48047,0.46875 0.48047,1.31836 0,0.21094 -0.0293,0.45117 -0.0234,0.24023 -0.0762,0.52148 z" />
      <path
         id="path310"
         style="font-style:italic;font-size:12px;font-family:sans-serif;fill:#000000"
         d="m 439.90234,161.82816 -0.21679,1.0664 q -0.38672,-0.28125 -0.82618,-0.42187 -0.43359,-0.14063 -0.90234,-0.14063 -0.51562,0 -0.98437,0.18164 -0.46289,0.18164 -0.7793,0.51563 -0.50391,0.50976 -0.7793,1.19531 -0.27539,0.68555 -0.27539,1.41797 0,0.88476 0.43945,1.31836 0.44532,0.43359 1.34766,0.43359 0.44531,0 0.94336,-0.13476 0.50391,-0.13477 1.04883,-0.4043 l -0.20508,1.06641 q -0.46875,0.19335 -0.9668,0.2871 -0.49218,0.0996 -1.01367,0.0996 -1.30664,0 -2.00976,-0.65039 -0.70313,-0.65625 -0.70313,-1.86914 0,-1.01953 0.36328,-1.875 0.36914,-0.86133 1.08985,-1.54687 0.49218,-0.46875 1.15429,-0.70899 0.66211,-0.24023 1.44727,-0.24023 0.45703,0 0.9082,0.10547 0.45117,0.0996 0.91992,0.30469 z" />
      <path
         id="path312"
         style="font-style:italic;font-size:12px;font-family:sans-serif;fill:#000000"
         d="m 445.42773,162.5723 q -0.16406,-0.0879 -0.375,-0.13477 -0.21093,-0.0469 -0.45117,-0.0469 -0.86133,0 -1.50586,0.65625 -0.64453,0.65039 -0.85547,1.74609 l -0.66211,3.3457 -1.07812,0 1.2832,-6.5625 1.07813,0 -0.20508,1.01953 q 0.42773,-0.56836 1.01953,-0.87304 0.59766,-0.30469 1.27149,-0.30469 0.17578,0 0.3457,0.0234 0.16992,0.0176 0.33984,0.0644 l -0.20508,1.06641 z" />
      <path
         id="path314"
         style="font-style:italic;font-size:12px;font-family:sans-serif;fill:#000000"
         d="m 450.79492,164.27151 q 0.0176,-0.0937 0.0234,-0.19335 0.0117,-0.0996 0.0117,-0.19922 0,-0.71485 -0.42188,-1.13086 -0.41601,-0.41602 -1.13672,-0.41602 -0.80273,0 -1.41796,0.50977 -0.61524,0.5039 -0.93165,1.43554 l 3.87305,-0.006 z m 0.9375,0.84375 -5.01562,0 q -0.0352,0.22266 -0.0469,0.35157 -0.0117,0.1289 -0.0117,0.22265 0,0.81446 0.49805,1.25977 0.50391,0.44531 1.41797,0.44531 0.70312,0 1.33008,-0.1582 0.62695,-0.1582 1.16601,-0.46289 l -0.20508,1.0664 q -0.58007,0.23438 -1.20117,0.35157 -0.61523,0.11718 -1.2539,0.11718 -1.36524,0 -2.10352,-0.65039 -0.73242,-0.65625 -0.73242,-1.85742 0,-1.02539 0.36328,-1.9043 0.36914,-0.88476 1.07812,-1.57617 0.45704,-0.43359 1.08399,-0.66797 0.63281,-0.23437 1.3418,-0.23437 1.11328,0 1.76953,0.66797 0.66211,0.66797 0.66211,1.79297 0,0.26953 -0.0352,0.58007 -0.0352,0.30469 -0.10547,0.65625 z" />
      <path
         id="path316"
         style="font-style:italic;font-size:12px;font-family:sans-serif;fill:#000000"
         d="m 457.48047,161.5762 -0.16406,0.83789 -2.15039,0 -0.69727,3.5625 q -0.0352,0.19922 -0.0527,0.33399 -0.0176,0.13476 -0.0176,0.21093 0,0.375 0.22265,0.54493 0.22852,0.16992 0.72657,0.16992 l 1.08984,0 -0.18164,0.90234 -1.03125,0 q -0.96094,0 -1.43555,-0.375 -0.46875,-0.375 -0.46875,-1.13672 0,-0.13476 0.0176,-0.29297 0.0176,-0.16406 0.0527,-0.35742 l 0.69727,-3.5625 -0.91406,0 0.16992,-0.83789 0.89648,0 0.36329,-1.86328 1.07812,0 -0.35742,1.86328 2.15625,0 z" />
      <path
         id="path318"
         style="font-style:italic;font-size:12px;font-family:sans-serif;fill:#000000"
         d="m 462.88867,164.27151 q 0.0176,-0.0937 0.0234,-0.19335 0.0117,-0.0996 0.0117,-0.19922 0,-0.71485 -0.42188,-1.13086 -0.41601,-0.41602 -1.13672,-0.41602 -0.80273,0 -1.41796,0.50977 -0.61524,0.5039 -0.93165,1.43554 l 3.87305,-0.006 z m 0.9375,0.84375 -5.01562,0 q -0.0352,0.22266 -0.0469,0.35157 -0.0117,0.1289 -0.0117,0.22265 0,0.81446 0.49805,1.25977 0.50391,0.44531 1.41797,0.44531 0.70312,0 1.33008,-0.1582 0.62695,-0.1582 1.16601,-0.46289 l -0.20508,1.0664 q -0.58007,0.23438 -1.20117,0.35157 -0.61523,0.11718 -1.2539,0.11718 -1.36524,0 -2.10352,-0.65039 -0.73242,-0.65625 -0.73242,-1.85742 0,-1.02539 0.36328,-1.9043 0.36914,-0.88476 1.07812,-1.57617 0.45704,-0.43359 1.08399,-0.66797 0.63281,-0.23437 1.3418,-0.23437 1.11328,0 1.76953,0.66797 0.66211,0.66797 0.66211,1.79297 0,0.26953 -0.0352,0.58007 -0.0352,0.30469 -0.10547,0.65625 z" />
      <path
         id="path320"
         style="font-style:italic;font-size:12px;font-family:sans-serif;fill:#000000"
         d="m 467.83398,167.31253 0.22852,-1.17773 2.08008,-1.58204 -1.47656,-1.56445 0.22851,-1.05469 2.25586,2.44922 -0.0879,0.48047 -3.22852,2.44922 z m -2.58984,0 0.22852,-1.17773 2.0625,-1.58204 -1.46485,-1.56445 0.2168,-1.05469 2.25586,2.44922 -0.082,0.48047 -3.2168,2.44922 z" />
    </g>
    <g
       id="text65"
       style="font-weight:bold;font-size:15px;font-family:sans-serif;fill:#000000">
      <path
         id="path323"
         style="font-weight:bold;font-size:15px;font-family:sans-serif;fill:#000000"
         d="m 400.54883,184.29152 q -0.77637,0.40283 -1.61865,0.60791 -0.84229,0.20508 -1.75782,0.20508 -2.73193,0 -4.32861,-1.52344 -1.59668,-1.53076 -1.59668,-4.14551 0,-2.62207 1.59668,-4.14551 1.59668,-1.53076 4.32861,-1.53076 0.91553,0 1.75782,0.20508 0.84228,0.20508 1.61865,0.60791 l 0,2.26318 q -0.78369,-0.53466 -1.54541,-0.78369 -0.76172,-0.24902 -1.60401,-0.24902 -1.50879,0 -2.37304,0.9668 -0.86426,0.96679 -0.86426,2.66601 0,1.6919 0.86426,2.65869 0.86425,0.9668 2.37304,0.9668 0.84229,0 1.60401,-0.24902 0.76172,-0.24903 1.54541,-0.78369 l 0,2.26318 z" />
      <path
         id="path325"
         style="font-weight:bold;font-size:15px;font-family:sans-serif;fill:#000000"
         d="m 406.6792,178.36623 q -0.87158,0 -1.33301,0.62988 -0.4541,0.62256 -0.4541,1.80176 0,1.1792 0.4541,1.80908 0.46143,0.62256 1.33301,0.62256 0.85693,0 1.31103,-0.62256 0.45411,-0.62988 0.45411,-1.80908 0,-1.1792 -0.45411,-1.80176 -0.4541,-0.62988 -1.31103,-0.62988 z m 0,-1.875 q 2.1167,0 3.30322,1.14257 1.19385,1.14258 1.19385,3.16407 0,2.02148 -1.19385,3.16406 -1.18652,1.14258 -3.30322,1.14258 -2.12402,0 -3.3252,-1.14258 -1.19384,-1.14258 -1.19384,-3.16406 0,-2.02149 1.19384,-3.16407 1.20118,-1.14257 3.3252,-1.14257 z" />
      <path
         id="path327"
         style="font-weight:bold;font-size:15px;font-family:sans-serif;fill:#000000"
         d="m 420.69043,178.05128 q 0.49805,-0.76171 1.1792,-1.15722 0.68848,-0.40283 1.50879,-0.40283 1.41357,0 2.15332,0.87158 0.73974,0.87158 0.73974,2.53418 l 0,4.99512 -2.63671,0 0,-4.27735 q 0.007,-0.0952 0.007,-0.19775 0.007,-0.10254 0.007,-0.29297 0,-0.87158 -0.25634,-1.25977 -0.25635,-0.3955 -0.82764,-0.3955 -0.74707,0 -1.15723,0.61523 -0.40283,0.61523 -0.41748,1.77978 l 0,4.02833 -2.63672,0 0,-4.27735 q 0,-1.3623 -0.23437,-1.75049 -0.23438,-0.3955 -0.83496,-0.3955 -0.7544,0 -1.16455,0.62255 -0.41016,0.61524 -0.41016,1.76514 l 0,4.03565 -2.63672,0 0,-8.20313 2.63672,0 0,1.20117 q 0.4834,-0.6958 1.10596,-1.04736 0.62988,-0.35156 1.38428,-0.35156 0.8496,0 1.50146,0.41015 0.65186,0.41016 0.98877,1.1499 z" />
      <path
         id="path329"
         style="font-weight:bold;font-size:15px;font-family:sans-serif;fill:#000000"
         d="m 436.33496,178.05128 q 0.49805,-0.76171 1.1792,-1.15722 0.68848,-0.40283 1.50879,-0.40283 1.41357,0 2.15332,0.87158 0.73975,0.87158 0.73975,2.53418 l 0,4.99512 -2.63672,0 0,-4.27735 q 0.007,-0.0952 0.007,-0.19775 0.007,-0.10254 0.007,-0.29297 0,-0.87158 -0.25635,-1.25977 -0.25635,-0.3955 -0.82764,-0.3955 -0.74707,0 -1.15723,0.61523 -0.40283,0.61523 -0.41748,1.77978 l 0,4.02833 -2.63671,0 0,-4.27735 q 0,-1.3623 -0.23438,-1.75049 -0.23437,-0.3955 -0.83496,-0.3955 -0.7544,0 -1.16455,0.62255 -0.41016,0.61524 -0.41016,1.76514 l 0,4.03565 -2.63672,0 0,-8.20313 2.63672,0 0,1.20117 q 0.4834,-0.6958 1.10596,-1.04736 0.62988,-0.35156 1.38428,-0.35156 0.84961,0 1.50146,0.41015 0.65186,0.41016 0.98877,1.1499 z" />
      <path
         id="path331"
         style="font-weight:bold;font-size:15px;font-family:sans-serif;fill:#000000"
         d="m 448.05371,181.2007 q -0.82031,0 -1.23779,0.27832 -0.41016,0.27832 -0.41016,0.82031 0,0.49805 0.32959,0.78369 0.33692,0.27832 0.93018,0.27832 0.73974,0 1.24511,-0.52734 0.50538,-0.53467 0.50538,-1.33301 l 0,-0.30029 -1.36231,0 z m 4.00635,-0.98877 0,4.68018 -2.64404,0 0,-1.21583 q -0.52735,0.74708 -1.18653,1.09131 -0.65918,0.33692 -1.604,0.33692 -1.27442,0 -2.07276,-0.73975 -0.79101,-0.74707 -0.79101,-1.93359 0,-1.44287 0.98877,-2.1167 0.99609,-0.67383 3.12012,-0.67383 l 1.54541,0 0,-0.20508 q 0,-0.62256 -0.49073,-0.9082 -0.49072,-0.29297 -1.53076,-0.29297 -0.84228,0 -1.56738,0.16846 -0.7251,0.16845 -1.34766,0.50537 l 0,-1.99951 q 0.84229,-0.20508 1.6919,-0.30762 0.84961,-0.10986 1.69922,-0.10986 2.21923,0 3.20068,0.8789 0.98877,0.87158 0.98877,2.8418 z" />
      <path
         id="path333"
         style="font-weight:bold;font-size:15px;font-family:sans-serif;fill:#000000"
         d="m 462.76074,179.89699 0,4.99512 -2.63672,0 0,-0.81299 0,-3.01026 q 0,-1.06201 -0.0513,-1.46484 -0.0439,-0.40283 -0.16113,-0.59326 -0.15381,-0.25635 -0.41748,-0.39551 -0.26367,-0.14648 -0.60059,-0.14648 -0.82031,0 -1.28906,0.6372 -0.46875,0.62989 -0.46875,1.75049 l 0,4.03565 -2.62207,0 0,-8.20313 2.62207,0 0,1.20117 q 0.59326,-0.71777 1.25977,-1.05469 0.6665,-0.34423 1.47217,-0.34423 1.42089,0 2.15332,0.87158 0.73974,0.87158 0.73974,2.53418 z" />
      <path
         id="path335"
         style="font-weight:bold;font-size:15px;font-family:sans-serif;fill:#000000"
         d="m 470.78809,177.89015 0,-4.39453 2.63671,0 0,11.39649 -2.63671,0 0,-1.18653 q -0.542,0.7251 -1.19385,1.06201 -0.65186,0.33692 -1.50879,0.33692 -1.51611,0 -2.49024,-1.20117 -0.97412,-1.2085 -0.97412,-3.10547 0,-1.89698 0.97412,-3.09815 0.97413,-1.20849 2.49024,-1.20849 0.84961,0 1.50146,0.34423 0.65918,0.33692 1.20118,1.05469 z m -1.72852,5.31006 q 0.84229,0 1.28174,-0.61523 0.44678,-0.61524 0.44678,-1.78711 0,-1.17188 -0.44678,-1.78711 -0.43945,-0.61524 -1.28174,-0.61524 -0.83496,0 -1.28174,0.61524 -0.43945,0.61523 -0.43945,1.78711 0,1.17187 0.43945,1.78711 0.44678,0.61523 1.28174,0.61523 z" />
      <path
         id="path337"
         style="font-weight:bold;font-size:15px;font-family:sans-serif;fill:#000000"
         d="m 479.02051,182.81935 4.81201,0 0,2.07276 -7.94678,0 0,-2.07276 3.9917,-3.52295 q 0.53467,-0.4834 0.79102,-0.94482 0.25634,-0.46143 0.25634,-0.95947 0,-0.76905 -0.52001,-1.2378 -0.5127,-0.46875 -1.36963,-0.46875 -0.65918,0 -1.44287,0.28565 -0.7837,0.27832 -1.67725,0.83496 l 0,-2.40235 q 0.95215,-0.31494 1.88232,-0.47607 0.93018,-0.16846 1.82373,-0.16846 1.96289,0 3.04688,0.86426 1.09131,0.86426 1.09131,2.40967 0,0.89355 -0.46143,1.66992 -0.46142,0.76904 -1.94092,2.06543 l -2.33642,2.05078 z" />
    </g>
    <path
       id="line67"
       d="m 357.5,193.4297 138,0"
       style="stroke:#a80036;stroke-width:1.5" />
    <g
       id="text69"
       style="font-size:17px;font-family:'Ubuntu Mono';fill:#000000">
      <path
         id="path341"
         style="font-size:17px;font-family:'Ubuntu Mono';fill:#000000"
         d="m 365.237,211.5397 0,-6.715 -1.666,0 0,-1.173 1.666,0 0,-0.714 q 0,-0.918 0.255,-1.513 0.255,-0.612 0.663,-0.986 0.425,-0.374 0.969,-0.527 0.561,-0.153 1.173,-0.153 0.612,0 1.224,0.136 0.629,0.136 1.173,0.323 l -0.255,1.207 q -0.374,-0.187 -0.935,-0.323 -0.561,-0.136 -1.139,-0.136 -0.357,0 -0.68,0.102 -0.306,0.085 -0.544,0.323 -0.238,0.221 -0.374,0.612 -0.136,0.374 -0.136,0.952 l 0,0.697 3.179,0 0,1.173 -3.179,0 0,6.715 -1.394,0 z" />
      <path
         id="path343"
         style="font-size:17px;font-family:'Ubuntu Mono';fill:#000000"
         d="m 378.293,211.3187 q -0.459,0.119 -1.224,0.255 -0.748,0.136 -1.768,0.136 -0.901,0 -1.496,-0.255 -0.595,-0.272 -0.969,-0.748 -0.374,-0.493 -0.527,-1.156 -0.153,-0.663 -0.153,-1.462 l 0,-4.437 1.394,0 0,4.131 q 0,1.462 0.425,2.074 0.442,0.612 1.462,0.612 0.221,0 0.442,-0.017 0.238,-0.017 0.442,-0.034 0.204,-0.034 0.357,-0.051 0.153,-0.034 0.204,-0.051 l 0,-6.664 1.411,0 0,7.667 z" />
      <path
         id="path345"
         style="font-size:17px;font-family:'Ubuntu Mono';fill:#000000"
         d="m 380.707,203.8727 q 0.765,-0.187 1.513,-0.289 0.765,-0.102 1.428,-0.102 1.581,0 2.38,0.816 0.816,0.816 0.816,2.618 l 0,4.624 -1.394,0 0,-4.369 q 0,-0.765 -0.136,-1.241 -0.136,-0.476 -0.391,-0.731 -0.238,-0.272 -0.595,-0.374 -0.34,-0.102 -0.748,-0.102 -0.34,0 -0.731,0.051 -0.374,0.034 -0.731,0.102 l 0,6.664 -1.411,0 0,-7.667 z" />
      <path
         id="path347"
         style="font-size:17px;font-family:'Ubuntu Mono';fill:#000000"
         d="m 388.833,207.6127 q 0,-1.071 0.34,-1.853 0.34,-0.782 0.935,-1.292 0.595,-0.51 1.377,-0.748 0.799,-0.255 1.7,-0.255 0.578,0 1.139,0.085 0.578,0.068 1.224,0.272 l -0.323,1.207 q -0.561,-0.204 -1.037,-0.255 -0.459,-0.068 -0.935,-0.068 -0.612,0 -1.156,0.17 -0.544,0.153 -0.952,0.51 -0.391,0.34 -0.629,0.901 -0.238,0.544 -0.238,1.326 0,0.748 0.221,1.292 0.221,0.527 0.612,0.884 0.408,0.34 0.969,0.51 0.561,0.17 1.241,0.17 0.544,0 1.037,-0.051 0.51,-0.068 1.105,-0.272 l 0.204,1.173 q -0.595,0.221 -1.207,0.306 -0.612,0.102 -1.326,0.102 -0.952,0 -1.751,-0.255 -0.782,-0.272 -1.36,-0.782 -0.561,-0.51 -0.884,-1.275 -0.306,-0.782 -0.306,-1.802 z" />
      <path
         id="path349"
         style="font-size:17px;font-family:'Ubuntu Mono';fill:#000000"
         d="m 400.631,203.6517 3.332,0 0,1.173 -3.332,0 0,3.672 q 0,0.595 0.085,0.969 0.085,0.374 0.272,0.612 0.204,0.221 0.51,0.306 0.306,0.085 0.748,0.085 0.612,0 0.986,-0.102 0.374,-0.102 0.714,-0.272 l 0.204,1.19 q -0.238,0.102 -0.765,0.272 -0.51,0.17 -1.275,0.17 -0.884,0 -1.445,-0.204 -0.561,-0.204 -0.884,-0.612 -0.306,-0.408 -0.425,-1.003 -0.119,-0.612 -0.119,-1.411 l 0,-3.672 -1.666,0 0,-1.173 1.666,0 0,-2.21 1.394,-0.238 0,2.448 z" />
      <path
         id="path351"
         style="font-size:17px;font-family:'Ubuntu Mono';fill:#000000"
         d="m 408.553,202.4277 q -0.442,0 -0.765,-0.306 -0.323,-0.306 -0.323,-0.833 0,-0.527 0.323,-0.833 0.323,-0.306 0.765,-0.306 0.459,0 0.765,0.306 0.323,0.306 0.323,0.833 0,0.527 -0.323,0.833 -0.306,0.306 -0.765,0.306 z m -0.357,2.397 -2.278,0 0,-1.173 3.672,0 0,4.845 q 0,1.173 0.323,1.581 0.323,0.391 0.969,0.391 0.493,0 0.901,-0.119 0.425,-0.119 0.663,-0.255 l 0.204,1.19 q -0.102,0.051 -0.289,0.136 -0.187,0.068 -0.442,0.136 -0.238,0.068 -0.544,0.119 -0.289,0.051 -0.612,0.051 -0.748,0 -1.241,-0.204 -0.493,-0.204 -0.799,-0.612 -0.289,-0.408 -0.408,-1.003 -0.119,-0.612 -0.119,-1.411 l 0,-3.672 z" />
      <path
         id="path353"
         style="font-size:17px;font-family:'Ubuntu Mono';fill:#000000"
         d="m 421.32,207.5957 q 0,0.935 -0.272,1.7 -0.255,0.748 -0.731,1.292 -0.476,0.544 -1.139,0.85 -0.663,0.289 -1.445,0.289 -0.765,0 -1.428,-0.289 -0.646,-0.306 -1.122,-0.85 -0.476,-0.544 -0.748,-1.292 -0.255,-0.765 -0.255,-1.7 0,-0.935 0.255,-1.7 0.272,-0.765 0.748,-1.292 0.476,-0.544 1.122,-0.833 0.663,-0.306 1.428,-0.306 0.782,0 1.445,0.306 0.663,0.289 1.139,0.833 0.476,0.527 0.731,1.292 0.272,0.765 0.272,1.7 z m -1.445,0 q 0,-1.343 -0.578,-2.108 -0.578,-0.782 -1.564,-0.782 -0.969,0 -1.547,0.782 -0.561,0.765 -0.561,2.108 0,1.326 0.561,2.108 0.578,0.765 1.547,0.765 0.986,0 1.564,-0.765 0.578,-0.782 0.578,-2.108 z" />
      <path
         id="path355"
         style="font-size:17px;font-family:'Ubuntu Mono';fill:#000000"
         d="m 423.207,203.8727 q 0.765,-0.187 1.513,-0.289 0.765,-0.102 1.428,-0.102 1.581,0 2.38,0.816 0.816,0.816 0.816,2.618 l 0,4.624 -1.394,0 0,-4.369 q 0,-0.765 -0.136,-1.241 -0.136,-0.476 -0.391,-0.731 -0.238,-0.272 -0.595,-0.374 -0.34,-0.102 -0.748,-0.102 -0.34,0 -0.731,0.051 -0.374,0.034 -0.731,0.102 l 0,6.664 -1.411,0 0,-7.667 z" />
      <path
         id="path357"
         style="font-size:17px;font-family:'Ubuntu Mono';fill:#000000"
         d="m 437.028,211.5397 q -0.187,-0.459 -0.442,-1.037 -0.255,-0.578 -0.544,-1.19 -0.289,-0.612 -0.629,-1.224 -0.323,-0.612 -0.68,-1.139 -0.595,0.952 -1.19,2.193 -0.595,1.224 -1.105,2.397 l -1.513,0 q 0.561,-1.258 1.309,-2.72 0.748,-1.479 1.598,-2.839 l -2.737,-4.964 1.547,0 2.057,4.029 2.21,-4.029 1.513,0 -2.788,4.913 q 0.816,1.326 1.581,2.754 0.765,1.428 1.36,2.856 l -1.547,0 z" />
      <path
         id="path359"
         style="font-size:17px;font-family:'Ubuntu Mono';fill:#000000"
         d="m 445.528,200.6427 q -1.581,1.224 -2.414,2.822 -0.833,1.598 -0.833,3.485 0,0.952 0.187,1.802 0.204,0.85 0.595,1.632 0.408,0.782 1.02,1.513 0.629,0.731 1.479,1.462 l -0.765,1.02 q -1.955,-1.445 -2.924,-3.349 -0.952,-1.921 -0.952,-4.046 0,-2.108 0.969,-4.029 0.969,-1.921 2.907,-3.332 l 0.748,1.02 -0.017,0 z" />
      <path
         id="path361"
         style="font-size:17px;font-family:'Ubuntu Mono';fill:#000000"
         d="m 449.455,213.3587 q 1.581,-1.224 2.414,-2.822 0.85,-1.598 0.85,-3.485 0,-0.952 -0.204,-1.802 -0.187,-0.85 -0.595,-1.632 -0.408,-0.782 -1.037,-1.513 -0.612,-0.731 -1.462,-1.462 l 0.765,-1.02 q 1.955,1.445 2.907,3.366 0.969,1.904 0.969,4.029 0,1.054 -0.255,2.074 -0.238,1.02 -0.731,1.972 -0.476,0.935 -1.207,1.768 -0.714,0.85 -1.683,1.547 l -0.748,-1.02 0.017,0 z" />
    </g>
    <g
       id="text71"
       style="font-size:17px;font-family:'Ubuntu Mono';fill:#000000">
      <path
         id="path364"
         style="font-size:17px;font-family:'Ubuntu Mono';fill:#000000"
         d="m 365.237,228.5396 0,-6.715 -1.666,0 0,-1.173 1.666,0 0,-0.714 q 0,-0.918 0.255,-1.513 0.255,-0.612 0.663,-0.986 0.425,-0.374 0.969,-0.527 0.561,-0.153 1.173,-0.153 0.612,0 1.224,0.136 0.629,0.136 1.173,0.323 l -0.255,1.207 q -0.374,-0.187 -0.935,-0.323 -0.561,-0.136 -1.139,-0.136 -0.357,0 -0.68,0.102 -0.306,0.085 -0.544,0.323 -0.238,0.221 -0.374,0.612 -0.136,0.374 -0.136,0.952 l 0,0.697 3.179,0 0,1.173 -3.179,0 0,6.715 -1.394,0 z" />
      <path
         id="path366"
         style="font-size:17px;font-family:'Ubuntu Mono';fill:#000000"
         d="m 378.293,228.3186 q -0.459,0.119 -1.224,0.255 -0.748,0.136 -1.768,0.136 -0.901,0 -1.496,-0.255 -0.595,-0.272 -0.969,-0.748 -0.374,-0.493 -0.527,-1.156 -0.153,-0.663 -0.153,-1.462 l 0,-4.437 1.394,0 0,4.131 q 0,1.462 0.425,2.074 0.442,0.612 1.462,0.612 0.221,0 0.442,-0.017 0.238,-0.017 0.442,-0.034 0.204,-0.034 0.357,-0.051 0.153,-0.034 0.204,-0.051 l 0,-6.664 1.411,0 0,7.667 z" />
      <path
         id="path368"
         style="font-size:17px;font-family:'Ubuntu Mono';fill:#000000"
         d="m 380.707,220.8726 q 0.765,-0.187 1.513,-0.289 0.765,-0.102 1.428,-0.102 1.581,0 2.38,0.816 0.816,0.816 0.816,2.618 l 0,4.624 -1.394,0 0,-4.369 q 0,-0.765 -0.136,-1.241 -0.136,-0.476 -0.391,-0.731 -0.238,-0.272 -0.595,-0.374 -0.34,-0.102 -0.748,-0.102 -0.34,0 -0.731,0.051 -0.374,0.034 -0.731,0.102 l 0,6.664 -1.411,0 0,-7.667 z" />
      <path
         id="path370"
         style="font-size:17px;font-family:'Ubuntu Mono';fill:#000000"
         d="m 388.833,224.6126 q 0,-1.071 0.34,-1.853 0.34,-0.782 0.935,-1.292 0.595,-0.51 1.377,-0.748 0.799,-0.255 1.7,-0.255 0.578,0 1.139,0.085 0.578,0.068 1.224,0.272 l -0.323,1.207 q -0.561,-0.204 -1.037,-0.255 -0.459,-0.068 -0.935,-0.068 -0.612,0 -1.156,0.17 -0.544,0.153 -0.952,0.51 -0.391,0.34 -0.629,0.901 -0.238,0.544 -0.238,1.326 0,0.748 0.221,1.292 0.221,0.527 0.612,0.884 0.408,0.34 0.969,0.51 0.561,0.17 1.241,0.17 0.544,0 1.037,-0.051 0.51,-0.068 1.105,-0.272 l 0.204,1.173 q -0.595,0.221 -1.207,0.306 -0.612,0.102 -1.326,0.102 -0.952,0 -1.751,-0.255 -0.782,-0.272 -1.36,-0.782 -0.561,-0.51 -0.884,-1.275 -0.306,-0.782 -0.306,-1.802 z" />
      <path
         id="path372"
         style="font-size:17px;font-family:'Ubuntu Mono';fill:#000000"
         d="m 400.631,220.6516 3.332,0 0,1.173 -3.332,0 0,3.672 q 0,0.595 0.085,0.969 0.085,0.374 0.272,0.612 0.204,0.221 0.51,0.306 0.306,0.085 0.748,0.085 0.612,0 0.986,-0.102 0.374,-0.102 0.714,-0.272 l 0.204,1.19 q -0.238,0.102 -0.765,0.272 -0.51,0.17 -1.275,0.17 -0.884,0 -1.445,-0.204 -0.561,-0.204 -0.884,-0.612 -0.306,-0.408 -0.425,-1.003 -0.119,-0.612 -0.119,-1.411 l 0,-3.672 -1.666,0 0,-1.173 1.666,0 0,-2.21 1.394,-0.238 0,2.448 z" />
      <path
         id="path374"
         style="font-size:17px;font-family:'Ubuntu Mono';fill:#000000"
         d="m 408.553,219.4276 q -0.442,0 -0.765,-0.306 -0.323,-0.306 -0.323,-0.833 0,-0.527 0.323,-0.833 0.323,-0.306 0.765,-0.306 0.459,0 0.765,0.306 0.323,0.306 0.323,0.833 0,0.527 -0.323,0.833 -0.306,0.306 -0.765,0.306 z m -0.357,2.397 -2.278,0 0,-1.173 3.672,0 0,4.845 q 0,1.173 0.323,1.581 0.323,0.391 0.969,0.391 0.493,0 0.901,-0.119 0.425,-0.119 0.663,-0.255 l 0.204,1.19 q -0.102,0.051 -0.289,0.136 -0.187,0.068 -0.442,0.136 -0.238,0.068 -0.544,0.119 -0.289,0.051 -0.612,0.051 -0.748,0 -1.241,-0.204 -0.493,-0.204 -0.799,-0.612 -0.289,-0.408 -0.408,-1.003 -0.119,-0.612 -0.119,-1.411 l 0,-3.672 z" />
      <path
         id="path376"
         style="font-size:17px;font-family:'Ubuntu Mono';fill:#000000"
         d="m 421.32,224.5956 q 0,0.935 -0.272,1.7 -0.255,0.748 -0.731,1.292 -0.476,0.544 -1.139,0.85 -0.663,0.289 -1.445,0.289 -0.765,0 -1.428,-0.289 -0.646,-0.306 -1.122,-0.85 -0.476,-0.544 -0.748,-1.292 -0.255,-0.765 -0.255,-1.7 0,-0.935 0.255,-1.7 0.272,-0.765 0.748,-1.292 0.476,-0.544 1.122,-0.833 0.663,-0.306 1.428,-0.306 0.782,0 1.445,0.306 0.663,0.289 1.139,0.833 0.476,0.527 0.731,1.292 0.272,0.765 0.272,1.7 z m -1.445,0 q 0,-1.343 -0.578,-2.108 -0.578,-0.782 -1.564,-0.782 -0.969,0 -1.547,0.782 -0.561,0.765 -0.561,2.108 0,1.326 0.561,2.108 0.578,0.765 1.547,0.765 0.986,0 1.564,-0.765 0.578,-0.782 0.578,-2.108 z" />
      <path
         id="path378"
         style="font-size:17px;font-family:'Ubuntu Mono';fill:#000000"
         d="m 423.207,220.8726 q 0.765,-0.187 1.513,-0.289 0.765,-0.102 1.428,-0.102 1.581,0 2.38,0.816 0.816,0.816 0.816,2.618 l 0,4.624 -1.394,0 0,-4.369 q 0,-0.765 -0.136,-1.241 -0.136,-0.476 -0.391,-0.731 -0.238,-0.272 -0.595,-0.374 -0.34,-0.102 -0.748,-0.102 -0.34,0 -0.731,0.051 -0.374,0.034 -0.731,0.102 l 0,6.664 -1.411,0 0,-7.667 z" />
      <path
         id="path380"
         style="font-size:17px;font-family:'Ubuntu Mono';fill:#000000"
         d="m 434.07,228.5396 0,-3.91 q -1.037,-1.7 -1.887,-3.315 -0.833,-1.615 -1.462,-3.298 l 1.564,0 q 0.493,1.428 1.122,2.737 0.646,1.292 1.377,2.669 0.782,-1.445 1.377,-2.737 0.612,-1.309 1.105,-2.669 l 1.53,0 q -0.646,1.666 -1.479,3.247 -0.833,1.581 -1.853,3.332 l 0,3.944 -1.394,0 z" />
      <path
         id="path382"
         style="font-size:17px;font-family:'Ubuntu Mono';fill:#000000"
         d="m 445.528,217.6426 q -1.581,1.224 -2.414,2.822 -0.833,1.598 -0.833,3.485 0,0.952 0.187,1.802 0.204,0.85 0.595,1.632 0.408,0.782 1.02,1.513 0.629,0.731 1.479,1.462 l -0.765,1.02 q -1.955,-1.445 -2.924,-3.349 -0.952,-1.921 -0.952,-4.046 0,-2.108 0.969,-4.029 0.969,-1.921 2.907,-3.332 l 0.748,1.02 -0.017,0 z" />
      <path
         id="path384"
         style="font-size:17px;font-family:'Ubuntu Mono';fill:#000000"
         d="m 449.455,230.3586 q 1.581,-1.224 2.414,-2.822 0.85,-1.598 0.85,-3.485 0,-0.952 -0.204,-1.802 -0.187,-0.85 -0.595,-1.632 -0.408,-0.782 -1.037,-1.513 -0.612,-0.731 -1.462,-1.462 l 0.765,-1.02 q 1.955,1.445 2.907,3.366 0.969,1.904 0.969,4.029 0,1.054 -0.255,2.074 -0.238,1.02 -0.731,1.972 -0.476,0.935 -1.207,1.768 -0.714,0.85 -1.683,1.547 l -0.748,-1.02 0.017,0 z" />
    </g>
    <!--link CMD to  Command1  -->
    <path
       style="fill:none;stroke:#a80036;stroke-width:1"
       id="CMD- Command1  "
       d="m 314.089,91.504 c -11.774,18.999 -25.723,41.508 -37.462,60.45" />
    <path
       id="polygon74"
       d="m 320.185,94.955 -11.9,-7.375 0,0 16.486,-13.312 z"
       style="fill:none;stroke:#a80036;stroke-width:1" />
    <!--link CMD to  Command2  -->
    <path
       style="fill:none;stroke:#a80036;stroke-width:1"
       id="CMD- Command2  "
       d="m 364.622,91.504 c 11.64,18.999 25.431,41.508 37.036,60.45" />
    <path
       id="polygon77"
       d="m 370.479,87.664 -11.938,7.314 0,0 -4.479,-20.71 z"
       style="fill:none;stroke:#a80036;stroke-width:1" />
    <!--link FC to CMD-->
    <path
       style="fill:none;stroke:#a80036;stroke-width:1;stroke-dasharray:7, 7"
       id="FC-CMD"
       d="m 177.195,49.5 c 29.655,0 62.552,0 90.933,0" />
    <path
       id="polygon80"
       d="m 268.373,49.5 -4,4 9,-4 0,0 -9,-4 z"
       style="fill:#a80036;stroke:#a80036;stroke-width:1" />
    <g
       id="text82"
       style="font-size:13px;font-family:sans-serif;fill:#000000" />
    <!--
@startuml

skinparam Class {
    FontStyle bold
    FontSize 15
    AttributeFontSize 17
    AttributeFontName Ubuntu Mono
}

class " FrontController  " as FC <<servlet>> {
    doGet()
    doPost()
}

abstract class " Command  " as CMD <<abstract>>

class " Command1  " <<concrete>> extends CMD {
    functionA()
    functionB()
}

class " Command2  " <<concrete>> extends CMD {
    functionX()
    functionY()
}

FC .right.> CMD : "               "

hide fields

@enduml

PlantUML version 1.2017.15(Mon Jul 03 13:45:34 BRT 2017)
(GPL source distribution)
Java Runtime: OpenJDK Runtime Environment
JVM: OpenJDK 64-Bit Server VM
Java Version: 1.8.0_152-release-915-b11
Operating System: Linux
OS Version: 4.4.0-96-generic
Default Encoding: UTF-8
Language: pt
Country: BR
-->
  </g>
</svg>
