<?xml version="1.0" encoding="UTF-8" standalone="no"?>
<svg
   xmlns:dc="http://purl.org/dc/elements/1.1/"
   xmlns:cc="http://creativecommons.org/ns#"
   xmlns:rdf="http://www.w3.org/1999/02/22-rdf-syntax-ns#"
   xmlns:svg="http://www.w3.org/2000/svg"
   xmlns="http://www.w3.org/2000/svg"
   id="svg2"
   zoomAndPan="magnify"
   width="419px"
   viewBox="0 0 419 234"
   version="1.1"
   style="width:419px;height:234px;"
   preserveAspectRatio="none"
   height="234px"
   contentStyleType="text/css"
   contentScriptType="application/ecmascript">
  <metadata
     id="metadata75">
    <rdf:RDF>
      <cc:Work
         rdf:about="">
        <dc:format>image/svg+xml</dc:format>
        <dc:type
           rdf:resource="http://purl.org/dc/dcmitype/StillImage" />
      </cc:Work>
    </rdf:RDF>
  </metadata>
  <defs
     id="defs4">
    <filter
       y="-1"
       x="-1"
       width="300%"
       id="f5bw7q36g3d1e"
       height="300%">
      <feGaussianBlur
         id="feGaussianBlur7"
         stdDeviation="2.0"
         result="blurOut" />
      <feColorMatrix
         id="feColorMatrix9"
         values="0 0 0 0 0 0 0 0 0 0 0 0 0 0 0 0 0 0 .4 0"
         type="matrix"
         result="blurOut2"
         in="blurOut" />
      <feOffset
         id="feOffset11"
         result="blurOut3"
         in="blurOut2"
         dy="4.0"
         dx="4.0" />
      <feBlend
         id="feBlend13"
         mode="normal"
         in2="blurOut3"
         in="SourceGraphic" />
    </filter>
  </defs>
  <g
     id="g15">
    <path
       id="rect17"
       d="m 214,117.2969 10,0 0,87.3984 -10,0 z"
       style="fill:#ffffff;stroke:#a80036;stroke-width:1;filter:url(#f5bw7q36g3d1e)" />
    <path
       id="rect19"
       d="m 354,146.4297 10,0 0,29.1328 -10,0 z"
       style="fill:#ffffff;stroke:#a80036;stroke-width:1;filter:url(#f5bw7q36g3d1e)" />
    <path
       id="line21"
       d="M 35,86.296898 35,222.82809"
       style="stroke:#a80036;stroke-width:1;stroke-dasharray:5, 5" />
    <path
       id="line23"
       d="m 218.5,86.296898 0,136.531192"
       style="stroke:#a80036;stroke-width:1;stroke-dasharray:5, 5" />
    <path
       id="line25"
       d="m 358.5,86.296898 0,136.531192"
       style="stroke:#a80036;stroke-width:1;stroke-dasharray:5, 5" />
    <g
       id="text27"
       style="font-size:14px;font-family:sans-serif;fill:#000000">
      <path
         id="path83"
         style="font-size:14px;font-family:sans-serif;fill:#000000"
         d="m 17.016602,73.57518 0,1.456055 q -0.697266,-0.649414 -1.490235,-0.970703 -0.786133,-0.321289 -1.674804,-0.321289 -1.75,0 -2.679688,1.073242 -0.929687,1.066406 -0.929687,3.089843 0,2.016602 0.929687,3.089844 0.929688,1.066406 2.679688,1.066406 0.888671,0 1.674804,-0.321289 0.792969,-0.321289 1.490235,-0.970703 l 0,1.442383 q -0.72461,0.492188 -1.538086,0.738281 -0.806641,0.246094 -1.708985,0.246094 -2.317383,0 -3.65039,-1.415039 -1.3330082,-1.421875 -1.3330082,-3.875977 0,-2.460937 1.3330082,-3.875976 1.333007,-1.421875 3.65039,-1.421875 0.916016,0 1.722657,0.246094 0.813476,0.239257 1.524414,0.724609 z" />
      <path
         id="path85"
         style="font-size:14px;font-family:sans-serif;fill:#000000"
         d="m 19.108398,72.358383 1.257813,0 0,10.636719 -1.257813,0 0,-10.636719 z" />
      <path
         id="path87"
         style="font-size:14px;font-family:sans-serif;fill:#000000"
         d="m 22.991211,75.338852 1.257812,0 0,7.65625 -1.257812,0 0,-7.65625 z m 0,-2.980469 1.257812,0 0,1.592774 -1.257812,0 0,-1.592774 z" />
      <path
         id="path89"
         style="font-size:14px;font-family:sans-serif;fill:#000000"
         d="m 33.422852,78.852524 0,0.615234 -5.783204,0 q 0.08203,1.298828 0.779297,1.982422 0.704102,0.676758 1.955078,0.676758 0.72461,0 1.401368,-0.177735 0.683593,-0.177734 1.353515,-0.533203 l 0,1.189453 q -0.676758,0.28711 -1.387695,0.4375 -0.710938,0.150391 -1.442383,0.150391 -1.832031,0 -2.905273,-1.066406 -1.066407,-1.066406 -1.066407,-2.884766 0,-1.879883 1.011719,-2.980469 1.018555,-1.107421 2.741211,-1.107421 1.544922,0 2.44043,0.998046 0.902344,0.991211 0.902344,2.700196 z m -1.257813,-0.369141 q -0.01367,-1.032226 -0.581055,-1.647461 -0.560547,-0.615234 -1.490234,-0.615234 -1.052734,0 -1.688477,0.594726 -0.628906,0.594727 -0.724609,1.674805 l 4.484375,-0.0068 z" />
      <path
         id="path91"
         style="font-size:14px;font-family:sans-serif;fill:#000000"
         d="m 41.851562,78.374008 0,4.621094 -1.257812,0 0,-4.580078 q 0,-1.086914 -0.423828,-1.626953 -0.423828,-0.540039 -1.271485,-0.540039 -1.018554,0 -1.606445,0.649414 -0.58789,0.649414 -0.58789,1.770507 l 0,4.327149 -1.264649,0 0,-7.65625 1.264649,0 0,1.189453 q 0.451171,-0.69043 1.05957,-1.032227 0.615234,-0.341796 1.415039,-0.341796 1.319336,0 1.996094,0.820312 0.676757,0.813477 0.676757,2.399414 z" />
      <path
         id="path93"
         style="font-size:14px;font-family:sans-serif;fill:#000000"
         d="m 45.618164,73.165024 0,2.173828 2.59082,0 0,0.977539 -2.59082,0 0,4.15625 q 0,0.936523 0.25293,1.203125 0.259765,0.266602 1.045898,0.266602 l 1.291992,0 0,1.052734 -1.291992,0 q -1.456055,0 -2.009765,-0.540039 -0.553711,-0.546875 -0.553711,-1.982422 l 0,-4.15625 -0.922852,0 0,-0.977539 0.922852,0 0,-2.173828 1.264648,0 z" />
      <path
         id="path95"
         style="font-size:14px;font-family:sans-serif;fill:#000000"
         d="m 56.418945,78.852524 0,0.615234 -5.783203,0 q 0.08203,1.298828 0.779297,1.982422 0.704102,0.676758 1.955078,0.676758 0.72461,0 1.401367,-0.177735 Q 55.455078,81.771469 56.125,81.416 l 0,1.189453 q -0.676758,0.28711 -1.387695,0.4375 -0.710938,0.150391 -1.442383,0.150391 -1.832031,0 -2.905274,-1.066406 -1.066406,-1.066406 -1.066406,-2.884766 0,-1.879883 1.011719,-2.980469 1.018555,-1.107421 2.741211,-1.107421 1.544922,0 2.44043,0.998046 0.902343,0.991211 0.902343,2.700196 z m -1.257812,-0.369141 q -0.01367,-1.032226 -0.581055,-1.647461 -0.560547,-0.615234 -1.490234,-0.615234 -1.052735,0 -1.688477,0.594726 -0.628906,0.594727 -0.724609,1.674805 l 4.484375,-0.0068 z" />
    </g>
    <path
       id="ellipse29"
       d="m 43,13 a 8,8 0 0 1 -8,8 8,8 0 0 1 -8,-8 8,8 0 0 1 8,-8 8,8 0 0 1 8,8 z"
       style="fill:#fefece;stroke:#a80036;stroke-width:2;filter:url(#f5bw7q36g3d1e)" />
    <path
       id="path31"
       style="fill:#fefece;stroke:#a80036;stroke-width:2;filter:url(#f5bw7q36g3d1e)"
       d="m 35,21 0,27 M 22,29 48,29 M 35,48 22,63 M 35,48 48,63" />
    <g
       id="text33"
       style="font-size:14px;font-family:sans-serif;fill:#000000">
      <path
         id="path99"
         style="font-size:14px;font-family:sans-serif;fill:#000000"
         d="m 165.87402,72.789047 5.86524,0 0,1.16211 -4.48438,0 0,3.007812 4.04688,0 0,1.162109 -4.04688,0 0,4.874024 -1.38086,0 0,-10.206055 z" />
      <path
         id="path101"
         style="font-size:14px;font-family:sans-serif;fill:#000000"
         d="m 177.31055,76.514633 q -0.21192,-0.123047 -0.46485,-0.177734 -0.24609,-0.06152 -0.54687,-0.06152 -1.06641,0 -1.64063,0.697266 -0.56738,0.69043 -0.56738,1.989258 l 0,4.033203 -1.26465,0 0,-7.65625 1.26465,0 0,1.189453 q 0.39648,-0.697266 1.03223,-1.032227 0.63574,-0.341796 1.54492,-0.341796 0.12988,0 0.28711,0.02051 0.15722,0.01367 0.34863,0.04785 l 0.007,1.291992 z" />
      <path
         id="path103"
         style="font-size:14px;font-family:sans-serif;fill:#000000"
         d="m 181.30957,76.220688 q -1.01172,0 -1.59961,0.792969 -0.58789,0.786132 -0.58789,2.160156 0,1.374023 0.58105,2.166992 0.5879,0.786133 1.60645,0.786133 1.00488,0 1.59277,-0.792969 0.58789,-0.792969 0.58789,-2.160156 0,-1.360352 -0.58789,-2.15332 -0.58789,-0.799805 -1.59277,-0.799805 z m 0,-1.066406 q 1.64063,0 2.57715,1.066406 0.93652,1.066406 0.93652,2.953125 0,1.879883 -0.93652,2.953125 -0.93652,1.066406 -2.57715,1.066406 -1.64746,0 -2.58398,-1.066406 -0.92969,-1.073242 -0.92969,-2.953125 0,-1.886719 0.92969,-2.953125 0.93652,-1.066406 2.58398,-1.066406 z" />
      <path
         id="path105"
         style="font-size:14px;font-family:sans-serif;fill:#000000"
         d="m 193.26562,78.374008 0,4.621094 -1.25781,0 0,-4.580078 q 0,-1.086914 -0.42383,-1.626953 -0.42382,-0.540039 -1.27148,-0.540039 -1.01855,0 -1.60645,0.649414 -0.58789,0.649414 -0.58789,1.770507 l 0,4.327149 -1.26464,0 0,-7.65625 1.26464,0 0,1.189453 q 0.45118,-0.69043 1.05957,-1.032227 0.61524,-0.341796 1.41504,-0.341796 1.31934,0 1.9961,0.820312 0.67675,0.813477 0.67675,2.399414 z" />
      <path
         id="path107"
         style="font-size:14px;font-family:sans-serif;fill:#000000"
         d="m 197.03223,73.165024 0,2.173828 2.59082,0 0,0.977539 -2.59082,0 0,4.15625 q 0,0.936523 0.25293,1.203125 0.25976,0.266602 1.04589,0.266602 l 1.292,0 0,1.052734 -1.292,0 q -1.45605,0 -2.00976,-0.540039 -0.55371,-0.546875 -0.55371,-1.982422 l 0,-4.15625 -0.92285,0 0,-0.977539 0.92285,0 0,-2.173828 1.26465,0 z" />
      <path
         id="path109"
         style="font-size:14px;font-family:sans-serif;fill:#000000"
         d="m 208.98145,73.57518 0,1.456055 q -0.69727,-0.649414 -1.49024,-0.970703 -0.78613,-0.321289 -1.6748,-0.321289 -1.75,0 -2.67969,1.073242 -0.92969,1.066406 -0.92969,3.089843 0,2.016602 0.92969,3.089844 0.92969,1.066406 2.67969,1.066406 0.88867,0 1.6748,-0.321289 0.79297,-0.321289 1.49024,-0.970703 l 0,1.442383 q -0.72461,0.492188 -1.53809,0.738281 -0.80664,0.246094 -1.70899,0.246094 -2.31738,0 -3.65039,-1.415039 -1.333,-1.421875 -1.333,-3.875977 0,-2.460937 1.333,-3.875976 1.33301,-1.421875 3.65039,-1.421875 0.91602,0 1.72266,0.246094 0.81348,0.239257 1.52442,0.724609 z" />
      <path
         id="path111"
         style="font-size:14px;font-family:sans-serif;fill:#000000"
         d="m 214.04004,76.220688 q -1.01172,0 -1.59961,0.792969 -0.58789,0.786132 -0.58789,2.160156 0,1.374023 0.58105,2.166992 0.58789,0.786133 1.60645,0.786133 1.00488,0 1.59277,-0.792969 0.58789,-0.792969 0.58789,-2.160156 0,-1.360352 -0.58789,-2.15332 -0.58789,-0.799805 -1.59277,-0.799805 z m 0,-1.066406 q 1.64062,0 2.57715,1.066406 0.93652,1.066406 0.93652,2.953125 0,1.879883 -0.93652,2.953125 -0.93653,1.066406 -2.57715,1.066406 -1.64746,0 -2.58399,-1.066406 -0.92968,-1.073242 -0.92968,-2.953125 0,-1.886719 0.92968,-2.953125 0.93653,-1.066406 2.58399,-1.066406 z" />
      <path
         id="path113"
         style="font-size:14px;font-family:sans-serif;fill:#000000"
         d="m 225.99609,78.374008 0,4.621094 -1.25781,0 0,-4.580078 q 0,-1.086914 -0.42383,-1.626953 -0.42383,-0.540039 -1.27148,-0.540039 -1.01856,0 -1.60645,0.649414 -0.58789,0.649414 -0.58789,1.770507 l 0,4.327149 -1.26465,0 0,-7.65625 1.26465,0 0,1.189453 q 0.45117,-0.69043 1.05957,-1.032227 0.61524,-0.341796 1.41504,-0.341796 1.31934,0 1.9961,0.820312 0.67675,0.813477 0.67675,2.399414 z" />
      <path
         id="path115"
         style="font-size:14px;font-family:sans-serif;fill:#000000"
         d="m 229.7627,73.165024 0,2.173828 2.59082,0 0,0.977539 -2.59082,0 0,4.15625 q 0,0.936523 0.25292,1.203125 0.25977,0.266602 1.0459,0.266602 l 1.292,0 0,1.052734 -1.292,0 q -1.45605,0 -2.00976,-0.540039 -0.55371,-0.546875 -0.55371,-1.982422 l 0,-4.15625 -0.92285,0 0,-0.977539 0.92285,0 0,-2.173828 1.26465,0 z" />
      <path
         id="path117"
         style="font-size:14px;font-family:sans-serif;fill:#000000"
         d="m 238.45117,76.514633 q -0.21191,-0.123047 -0.46484,-0.177734 -0.2461,-0.06152 -0.54688,-0.06152 -1.0664,0 -1.64062,0.697266 -0.56738,0.69043 -0.56738,1.989258 l 0,4.033203 -1.26465,0 0,-7.65625 1.26465,0 0,1.189453 q 0.39648,-0.697266 1.03222,-1.032227 0.63574,-0.341796 1.54492,-0.341796 0.12989,0 0.28711,0.02051 0.15723,0.01367 0.34864,0.04785 l 0.007,1.291992 z" />
      <path
         id="path119"
         style="font-size:14px;font-family:sans-serif;fill:#000000"
         d="m 242.4502,76.220688 q -1.01172,0 -1.59961,0.792969 -0.58789,0.786132 -0.58789,2.160156 0,1.374023 0.58105,2.166992 0.58789,0.786133 1.60645,0.786133 1.00488,0 1.59277,-0.792969 0.58789,-0.792969 0.58789,-2.160156 0,-1.360352 -0.58789,-2.15332 -0.58789,-0.799805 -1.59277,-0.799805 z m 0,-1.066406 q 1.64062,0 2.57714,1.066406 0.93653,1.066406 0.93653,2.953125 0,1.879883 -0.93653,2.953125 -0.93652,1.066406 -2.57714,1.066406 -1.64747,0 -2.58399,-1.066406 -0.92969,-1.073242 -0.92969,-2.953125 0,-1.886719 0.92969,-2.953125 0.93652,-1.066406 2.58399,-1.066406 z" />
      <path
         id="path121"
         style="font-size:14px;font-family:sans-serif;fill:#000000"
         d="m 248.04199,72.358383 1.25781,0 0,10.636719 -1.25781,0 0,-10.636719 z" />
      <path
         id="path123"
         style="font-size:14px;font-family:sans-serif;fill:#000000"
         d="m 251.9248,72.358383 1.25782,0 0,10.636719 -1.25782,0 0,-10.636719 z" />
      <path
         id="path125"
         style="font-size:14px;font-family:sans-serif;fill:#000000"
         d="m 262.35645,78.852524 0,0.615234 -5.78321,0 q 0.082,1.298828 0.7793,1.982422 0.7041,0.676758 1.95508,0.676758 0.72461,0 1.40136,-0.177735 0.6836,-0.177734 1.35352,-0.533203 l 0,1.189453 q -0.67676,0.28711 -1.3877,0.4375 -0.71093,0.150391 -1.44238,0.150391 -1.83203,0 -2.90527,-1.066406 -1.06641,-1.066406 -1.06641,-2.884766 0,-1.879883 1.01172,-2.980469 1.01856,-1.107421 2.74121,-1.107421 1.54492,0 2.44043,0.998046 0.90235,0.991211 0.90235,2.700196 z m -1.25782,-0.369141 q -0.0137,-1.032226 -0.58105,-1.647461 -0.56055,-0.615234 -1.49024,-0.615234 -1.05273,0 -1.68847,0.594726 -0.62891,0.594727 -0.72461,1.674805 l 4.48437,-0.0068 z" />
      <path
         id="path127"
         style="font-size:14px;font-family:sans-serif;fill:#000000"
         d="m 268.85742,76.514633 q -0.21191,-0.123047 -0.46484,-0.177734 -0.2461,-0.06152 -0.54688,-0.06152 -1.0664,0 -1.64062,0.697266 -0.56738,0.69043 -0.56738,1.989258 l 0,4.033203 -1.26465,0 0,-7.65625 1.26465,0 0,1.189453 q 0.39648,-0.697266 1.03222,-1.032227 0.63574,-0.341796 1.54492,-0.341796 0.12989,0 0.28711,0.02051 0.15723,0.01367 0.34864,0.04785 l 0.007,1.291992 z" />
    </g>
    <path
       id="ellipse35"
       d="M 231,54 A 12,12 0 0 1 219,66 12,12 0 0 1 207,54 12,12 0 0 1 219,42 12,12 0 0 1 231,54 Z"
       style="fill:#fefece;stroke:#a80036;stroke-width:2;filter:url(#f5bw7q36g3d1e)" />
    <path
       id="polygon37"
       d="m 219,42 2,5 -6,-5 0,0 6,-5 z"
       style="fill:#a80036;stroke:#a80036;stroke-width:1" />
    <path
       id="rect39"
       d="m 305.5,34.703098 103,0 0,46.5938 -103,0 z"
       style="fill:#fefece;stroke:#a80036;stroke-width:1.5;filter:url(#f5bw7q36g3d1e)" />
    <g
       id="text41"
       style="font-style:italic;font-size:14px;font-family:sans-serif;fill:#000000">
      <path
         id="path133"
         style="font-style:italic;font-size:14px;font-family:sans-serif;fill:#000000"
         d="m 317.23047,48.46384 -0.2666,1.374024 -2.41992,1.845703 1.72265,1.818359 -0.25293,1.237305 -2.64551,-2.857422 0.10938,-0.560547 3.75293,-2.857422 z m 3.04199,0 -0.2666,1.374024 -2.42676,1.845703 1.72266,1.818359 -0.25293,1.237305 -2.64551,-2.857422 0.11621,-0.560547 3.75293,-2.857422 z" />
      <path
         id="path135"
         style="font-style:italic;font-size:14px;font-family:sans-serif;fill:#000000"
         d="m 330.86816,46.283176 -0.28027,1.456055 q -0.65625,-0.663086 -1.39453,-0.984375 -0.73145,-0.321289 -1.58594,-0.321289 -1.16894,0 -2.05762,0.560547 -0.88183,0.560547 -1.52441,1.708984 -0.41016,0.738282 -0.62891,1.56543 -0.21191,0.820312 -0.21191,1.654297 0,1.394531 0.71777,2.125976 0.72461,0.731446 2.09864,0.731446 0.95019,0 1.82519,-0.300782 0.875,-0.307617 1.70215,-0.916015 l -0.32129,1.633789 q -0.81348,0.348633 -1.64746,0.526367 -0.82715,0.177734 -1.66113,0.177734 -1.96192,0 -3.06934,-1.066406 -1.10058,-1.066406 -1.10058,-2.966797 0,-1.216797 0.41699,-2.392578 0.42383,-1.175781 1.20996,-2.146484 0.83398,-1.032227 1.90039,-1.524414 1.07324,-0.492188 2.49512,-0.492188 0.875,0 1.65429,0.246094 0.78614,0.239258 1.46289,0.724609 z" />
      <path
         id="path137"
         style="font-style:italic;font-size:14px;font-family:sans-serif;fill:#000000"
         d="m 334.48437,55.90134 q -1.34667,0 -2.13281,-0.827148 -0.77929,-0.833984 -0.77929,-2.269531 0,-0.833985 0.2666,-1.695313 0.27343,-0.868164 0.7041,-1.456054 0.67676,-0.916016 1.51074,-1.353516 0.83399,-0.4375 1.88672,-0.4375 1.30566,0 2.10547,0.813477 0.80664,0.813476 0.80664,2.125976 0,0.90918 -0.2666,1.811524 -0.2666,0.902343 -0.69727,1.49707 -0.66992,0.916015 -1.5039,1.353515 -0.83399,0.4375 -1.9004,0.4375 z m -1.60644,-3.137695 q 0,1.039063 0.43066,1.558594 0.4375,0.512695 1.31934,0.512695 1.26465,0 2.0918,-1.100586 0.83398,-1.107422 0.83398,-2.802734 0,-0.991211 -0.44434,-1.49707 -0.44433,-0.50586 -1.30566,-0.50586 -0.71094,0 -1.26465,0.334961 -0.55371,0.328125 -0.99121,1.004883 -0.32129,0.505859 -0.49902,1.155273 -0.1709,0.649414 -0.1709,1.339844 z" />
      <path
         id="path139"
         style="font-style:italic;font-size:14px;font-family:sans-serif;fill:#000000"
         d="m 352.05957,51.082005 -0.89551,4.621093 -1.25781,0 0.88184,-4.580078 q 0.0547,-0.293945 0.082,-0.505859 0.0273,-0.211914 0.0273,-0.362305 0,-0.615234 -0.3418,-0.957031 -0.34179,-0.341797 -0.95703,-0.341797 -0.91601,0 -1.63379,0.69043 -0.71777,0.683593 -0.92968,1.784179 l -0.84082,4.272461 -1.25782,0 0.89551,-4.580078 q 0.0547,-0.25293 0.082,-0.464844 0.0274,-0.21875 0.0274,-0.389648 0,-0.62207 -0.3418,-0.963867 -0.3418,-0.348633 -0.94336,-0.348633 -0.92969,0 -1.64746,0.69043 -0.71777,0.683593 -0.92969,1.784179 l -0.84082,4.272461 -1.25781,0 1.49707,-7.65625 1.25781,0 -0.23926,1.189453 q 0.5127,-0.669921 1.19629,-1.018554 0.69043,-0.355469 1.47657,-0.355469 0.83398,0 1.36718,0.4375 0.54004,0.4375 0.64942,1.216797 0.57422,-0.806641 1.32617,-1.230469 0.75879,-0.423828 1.59961,-0.423828 0.98437,0 1.51758,0.567383 0.54004,0.567383 0.54004,1.606445 0,0.225586 -0.0274,0.499024 -0.0273,0.266601 -0.082,0.546875 z" />
      <path
         id="path141"
         style="font-style:italic;font-size:14px;font-family:sans-serif;fill:#000000"
         d="m 365.7041,51.082005 -0.89551,4.621093 -1.25781,0 0.88184,-4.580078 q 0.0547,-0.293945 0.082,-0.505859 0.0273,-0.211914 0.0273,-0.362305 0,-0.615234 -0.34179,-0.957031 -0.3418,-0.341797 -0.95704,-0.341797 -0.91601,0 -1.63379,0.69043 -0.71777,0.683593 -0.92968,1.784179 l -0.84082,4.272461 -1.25782,0 0.89551,-4.580078 q 0.0547,-0.25293 0.082,-0.464844 0.0274,-0.21875 0.0274,-0.389648 0,-0.62207 -0.3418,-0.963867 -0.3418,-0.348633 -0.94336,-0.348633 -0.92969,0 -1.64746,0.69043 -0.71777,0.683593 -0.92969,1.784179 l -0.84082,4.272461 -1.25781,0 1.49707,-7.65625 1.25781,0 -0.23926,1.189453 q 0.5127,-0.669921 1.19629,-1.018554 0.69043,-0.355469 1.47657,-0.355469 0.83398,0 1.36718,0.4375 0.54004,0.4375 0.64942,1.216797 0.57422,-0.806641 1.32617,-1.230469 0.75879,-0.423828 1.59961,-0.423828 0.98437,0 1.51758,0.567383 0.54004,0.567383 0.54004,1.606445 0,0.225586 -0.0274,0.499024 -0.0273,0.266601 -0.082,0.546875 z" />
      <path
         id="path143"
         style="font-style:italic;font-size:14px;font-family:sans-serif;fill:#000000"
         d="m 374.29687,51.334934 -0.85449,4.368164 -1.25781,0 0.23242,-1.162109 q -0.55371,0.683594 -1.26465,1.025391 -0.7041,0.33496 -1.57226,0.33496 -0.97754,0 -1.60645,-0.594726 -0.62207,-0.601563 -0.62207,-1.538086 0,-1.339844 1.06641,-2.119141 1.07324,-0.779297 2.95312,-0.779297 l 1.75,0 0.0684,-0.33496 q 0.0137,-0.05469 0.0205,-0.116211 0.007,-0.06836 0.007,-0.205079 0,-0.608398 -0.49903,-0.943359 -0.49218,-0.341797 -1.38769,-0.341797 -0.61524,0 -1.26465,0.157227 -0.64258,0.157226 -1.32617,0.471679 l 0.21875,-1.162109 q 0.71094,-0.266601 1.38769,-0.396484 0.6836,-0.136719 1.31934,-0.136719 1.35351,0 2.05762,0.587891 0.71093,0.58789 0.71093,1.708984 0,0.225586 -0.0342,0.533203 -0.0342,0.300781 -0.10254,0.642578 z m -1.36035,0.519531 -1.25781,0 q -1.54492,0 -2.29004,0.416993 -0.73828,0.410156 -0.73828,1.27832 0,0.601562 0.37598,0.943359 0.38281,0.341797 1.05273,0.341797 1.02539,0 1.79102,-0.731445 0.76562,-0.738281 1.01172,-1.96875 l 0.0547,-0.280274 z" />
      <path
         id="path145"
         style="font-style:italic;font-size:14px;font-family:sans-serif;fill:#000000"
         d="m 383.16309,51.082005 -0.89551,4.621093 -1.26465,0 0.89551,-4.573242 q 0.0615,-0.321289 0.0957,-0.567383 0.0342,-0.246093 0.0342,-0.389648 0,-0.574219 -0.3623,-0.895508 -0.36231,-0.321289 -1.01172,-0.321289 -1.01172,0 -1.74317,0.676758 -0.73144,0.669922 -0.95703,1.825195 l -0.84082,4.245117 -1.25781,0 1.4834,-7.65625 1.25781,0 -0.25293,1.203125 q 0.52637,-0.663086 1.26465,-1.02539 0.73828,-0.362305 1.55176,-0.362305 1.01171,0 1.56543,0.546875 0.56054,0.546875 0.56054,1.538086 0,0.246094 -0.0342,0.526367 -0.0273,0.280274 -0.0889,0.608399 z" />
      <path
         id="path147"
         style="font-style:italic;font-size:14px;font-family:sans-serif;fill:#000000"
         d="m 390.10156,54.554661 q -0.50586,0.663086 -1.19629,1.004883 -0.69043,0.341796 -1.53125,0.341796 -1.14843,0 -1.81836,-0.779296 -0.66308,-0.786133 -0.66308,-2.146485 0,-1.134765 0.40332,-2.160156 0.40332,-1.032227 1.16894,-1.845703 0.50586,-0.540039 1.14161,-0.820313 0.63574,-0.287109 1.333,-0.287109 0.73828,0 1.29883,0.355469 0.56738,0.355468 0.875,1.018554 l 0.82031,-4.169921 1.26465,0 -2.07129,10.636718 -1.26465,0 0.23926,-1.148437 z m -3.90332,-1.804688 q 0,0.991211 0.44434,1.544922 0.45117,0.553711 1.24414,0.553711 0.58789,0 1.08691,-0.280273 0.50586,-0.28711 0.88867,-0.840821 0.40332,-0.574218 0.63575,-1.326172 0.23242,-0.751953 0.23242,-1.483398 0,-0.950195 -0.45117,-1.483398 -0.44434,-0.533204 -1.23047,-0.533204 -0.59473,0 -1.10742,0.280274 -0.5127,0.280273 -0.875,0.806641 -0.39649,0.567382 -0.63575,1.319335 -0.23242,0.751954 -0.23242,1.442383 z" />
      <path
         id="path149"
         style="font-style:italic;font-size:14px;font-family:sans-serif;fill:#000000"
         d="m 397.02637,54.739231 0.2666,-1.374023 2.42676,-1.845703 -1.72266,-1.825196 0.2666,-1.230469 2.63184,2.857422 -0.10254,0.560547 -3.7666,2.857422 z m -3.02149,0 0.2666,-1.374023 2.40625,-1.845703 -1.70898,-1.825196 0.25293,-1.230469 2.63184,2.857422 -0.0957,0.560547 -3.75293,2.857422 z" />
    </g>
    <g
       id="text43"
       style="font-size:14px;font-family:sans-serif;fill:#000000">
      <path
         id="path152"
         style="font-size:14px;font-family:sans-serif;fill:#000000"
         d="m 337.87402,61.793945 1.38086,0 0,4.183594 5.01758,0 0,-4.183594 1.38086,0 0,10.206055 -1.38086,0 0,-4.860352 -5.01758,0 0,4.860352 -1.38086,0 0,-10.206055 z" />
      <path
         id="path154"
         style="font-size:14px;font-family:sans-serif;fill:#000000"
         d="m 351.31348,65.225586 q -1.01172,0 -1.59961,0.792969 -0.58789,0.786132 -0.58789,2.160156 0,1.374023 0.58105,2.166992 0.58789,0.786133 1.60645,0.786133 1.00488,0 1.59277,-0.792969 0.58789,-0.792969 0.58789,-2.160156 0,-1.360352 -0.58789,-2.15332 -0.58789,-0.799805 -1.59277,-0.799805 z m 0,-1.066406 q 1.64062,0 2.57714,1.066406 0.93653,1.066406 0.93653,2.953125 0,1.879883 -0.93653,2.953125 -0.93652,1.066406 -2.57714,1.066406 -1.64746,0 -2.58399,-1.066406 -0.92969,-1.073242 -0.92969,-2.953125 0,-1.886719 0.92969,-2.953125 0.93653,-1.066406 2.58399,-1.066406 z" />
      <path
         id="path156"
         style="font-size:14px;font-family:sans-serif;fill:#000000"
         d="m 362.86621,65.813477 q 0.47168,-0.847657 1.12793,-1.250977 0.65625,-0.40332 1.54492,-0.40332 1.19629,0 1.84571,0.84082 0.64941,0.833984 0.64941,2.378906 l 0,4.621094 -1.26465,0 0,-4.580078 q 0,-1.100586 -0.38965,-1.633789 -0.38965,-0.533203 -1.18945,-0.533203 -0.97754,0 -1.54492,0.649414 -0.56739,0.649414 -0.56739,1.770508 l 0,4.327148 -1.26464,0 0,-4.580078 q 0,-1.107422 -0.38965,-1.633789 -0.38965,-0.533203 -1.20313,-0.533203 -0.96386,0 -1.53125,0.65625 -0.56738,0.649414 -0.56738,1.763672 l 0,4.327148 -1.26465,0 0,-7.65625 1.26465,0 0,1.189453 q 0.43066,-0.704101 1.03223,-1.039062 0.60156,-0.334961 1.42871,-0.334961 0.83398,0 1.41504,0.423828 0.58789,0.423828 0.86816,1.230469 z" />
      <path
         id="path158"
         style="font-size:14px;font-family:sans-serif;fill:#000000"
         d="m 377.09863,67.857422 0,0.615234 -5.7832,0 q 0.082,1.298828 0.7793,1.982422 0.7041,0.676758 1.95507,0.676758 0.72461,0 1.40137,-0.177734 0.6836,-0.177735 1.35352,-0.533204 l 0,1.189454 q -0.67676,0.287109 -1.3877,0.4375 -0.71094,0.15039 -1.44238,0.15039 -1.83203,0 -2.90527,-1.066406 -1.06641,-1.066406 -1.06641,-2.884766 0,-1.879883 1.01172,-2.980468 1.01855,-1.107422 2.74121,-1.107422 1.54492,0 2.44043,0.998047 0.90234,0.99121 0.90234,2.700195 z m -1.25781,-0.369141 q -0.0137,-1.032226 -0.58105,-1.647461 -0.56055,-0.615234 -1.49024,-0.615234 -1.05273,0 -1.68848,0.594726 -0.6289,0.594727 -0.7246,1.674805 l 4.48437,-0.0068 z" />
    </g>
    <path
       id="rect45"
       d="m 214,117.2969 10,0 0,87.3984 -10,0 z"
       style="fill:#ffffff;stroke:#a80036;stroke-width:1;filter:url(#f5bw7q36g3d1e)" />
    <path
       id="rect47"
       d="m 354,146.4297 10,0 0,29.1328 -10,0 z"
       style="fill:#ffffff;stroke:#a80036;stroke-width:1;filter:url(#f5bw7q36g3d1e)" />
    <path
       id="polygon49"
       d="m 202,121.2969 4,-4 -4,-4 10,4 z"
       style="fill:#a80036;stroke:#a80036;stroke-width:1" />
    <path
       id="line51"
       d="m 35,117.2969 173,0"
       style="stroke:#a80036;stroke-width:1" />
    <g
       id="text53"
       style="font-size:13px;font-family:monospace;fill:#000000">
      <path
         id="path165"
         style="font-size:13px;font-family:monospace;fill:#000000"
         d="m 46.341797,109.81839 -1.206055,0 0,-0.97754 q 0,-0.62207 0.19043,-1.05371 0.196777,-0.43799 0.72998,-0.9585 l 0.571289,-0.56494 q 0.393555,-0.37451 0.539551,-0.65381 0.152344,-0.27929 0.152344,-0.59033 0,-0.56494 -0.418945,-0.91406 -0.412598,-0.34912 -1.104493,-0.34912 -0.495117,0 -1.060058,0.22217 -0.564942,0.21582 -1.187012,0.64746 l 0,-1.19336 q 0.59668,-0.36182 1.199707,-0.53955 0.609375,-0.17774 1.269531,-0.17774 1.180664,0 1.878907,0.60938 0.704589,0.60937 0.704589,1.63135 0,0.48242 -0.21582,0.90136 -0.209472,0.4126 -0.806152,0.99658 l -0.558594,0.5459 q -0.437988,0.41895 -0.558594,0.68555 -0.120605,0.2666 -0.120605,0.65381 l 0,0.29834 0,0.78076 z m -1.250488,0.93311 1.288574,0 0,1.6123 -1.288574,0 0,-1.6123 z" />
      <path
         id="path167"
         style="font-size:13px;font-family:monospace;fill:#000000"
         d="m 56.555176,112.00198 q -0.469727,0.27295 -0.971192,0.40625 -0.495117,0.13965 -1.015625,0.13965 -1.65039,0 -2.583496,-0.99023 -0.926758,-0.99024 -0.926758,-2.74219 0,-1.75195 0.926758,-2.74219 0.933106,-0.99023 2.583496,-0.99023 0.514161,0 1.00293,0.1333 0.48877,0.1333 0.983887,0.4126 l 0,1.22509 q -0.463379,-0.41259 -0.933106,-0.59668 -0.463379,-0.18408 -1.053711,-0.18408 -1.098144,0 -1.688476,0.71094 -0.590332,0.71094 -0.590332,2.03125 0,1.31397 0.590332,2.03125 0.596679,0.71094 1.688476,0.71094 0.609375,0 1.091797,-0.18408 0.482422,-0.19043 0.89502,-0.58399 l 0,1.2124 z" />
      <path
         id="path169"
         style="font-size:13px;font-family:monospace;fill:#000000"
         d="m 61.550781,106.07327 q -0.888672,0 -1.345703,0.6919 -0.457031,0.69189 -0.457031,2.05029 0,1.35205 0.457031,2.05029 0.457031,0.6919 1.345703,0.6919 0.89502,0 1.352051,-0.6919 0.457031,-0.69824 0.457031,-2.05029 0,-1.3584 -0.457031,-2.05029 -0.457031,-0.6919 -1.352051,-0.6919 z m 0,-0.99023 q 1.479004,0 2.259766,0.95849 0.787109,0.9585 0.787109,2.77393 0,1.82178 -0.780761,2.78027 -0.780762,0.95215 -2.266114,0.95215 -1.479004,0 -2.259765,-0.95215 -0.780762,-0.95849 -0.780762,-2.78027 0,-1.81543 0.780762,-2.77393 0.780761,-0.95849 2.259765,-0.95849 z" />
      <path
         id="path171"
         style="font-size:13px;font-family:monospace;fill:#000000"
         d="m 69.751953,105.97806 q 0.21582,-0.45703 0.545899,-0.67285 0.336425,-0.22217 0.806152,-0.22217 0.856933,0 1.206055,0.6665 0.355468,0.66016 0.355468,2.49463 l 0,4.11963 -1.066406,0 0,-4.06885 q 0,-1.50439 -0.171387,-1.86621 -0.165039,-0.36816 -0.609375,-0.36816 -0.507812,0 -0.698242,0.39355 -0.184082,0.38721 -0.184082,1.84082 l 0,4.06885 -1.066406,0 0,-4.06885 q 0,-1.52344 -0.184082,-1.8789 -0.177735,-0.35547 -0.647461,-0.35547 -0.463379,0 -0.647461,0.39355 -0.177734,0.38721 -0.177734,1.84082 l 0,4.06885 -1.060059,0 0,-7.10937 1.060059,0 0,0.60937 q 0.209472,-0.38086 0.520507,-0.57764 0.317383,-0.20312 0.717286,-0.20312 0.482421,0 0.799804,0.22217 0.323731,0.22216 0.501465,0.67285 z" />
      <path
         id="path173"
         style="font-size:13px;font-family:monospace;fill:#000000"
         d="m 77.572266,105.97806 q 0.21582,-0.45703 0.545898,-0.67285 0.336426,-0.22217 0.806152,-0.22217 0.856934,0 1.206055,0.6665 0.355469,0.66016 0.355469,2.49463 l 0,4.11963 -1.066406,0 0,-4.06885 q 0,-1.50439 -0.171387,-1.86621 -0.165039,-0.36816 -0.609375,-0.36816 -0.507813,0 -0.698242,0.39355 -0.184082,0.38721 -0.184082,1.84082 l 0,4.06885 -1.066407,0 0,-4.06885 q 0,-1.52344 -0.184082,-1.8789 -0.177734,-0.35547 -0.647461,-0.35547 -0.463378,0 -0.647461,0.39355 -0.177734,0.38721 -0.177734,1.84082 l 0,4.06885 -1.060058,0 0,-7.10937 1.060058,0 0,0.60937 q 0.209473,-0.38086 0.520508,-0.57764 0.317383,-0.20312 0.717285,-0.20312 0.482422,0 0.799805,0.22217 0.32373,0.22216 0.501465,0.67285 z" />
      <path
         id="path175"
         style="font-size:13px;font-family:monospace;fill:#000000"
         d="m 85.557617,108.79007 -0.387207,0 q -1.021973,0 -1.54248,0.36182 -0.51416,0.35546 -0.51416,1.0664 0,0.64112 0.387207,0.99658 0.387207,0.35547 1.072753,0.35547 0.964844,0 1.51709,-0.6665 0.552246,-0.67285 0.558594,-1.85352 l 0,-0.26025 -1.091797,0 z m 2.266113,-0.48242 0,4.05615 -1.174316,0 0,-1.05371 q -0.374512,0.63476 -0.945801,0.93945 -0.564941,0.29834 -1.377441,0.29834 -1.085449,0 -1.73291,-0.60937 -0.647461,-0.61573 -0.647461,-1.64405 0,-1.18701 0.793457,-1.80273 0.799804,-0.61572 2.342285,-0.61572 l 1.567871,0 0,-0.18408 q -0.0063,-0.85059 -0.431641,-1.23145 -0.425293,-0.38721 -1.358398,-0.38721 -0.59668,0 -1.206055,0.17139 -0.609375,0.17139 -1.187011,0.50146 l 0,-1.16796 q 0.647461,-0.24756 1.237793,-0.36817 0.596679,-0.12695 1.155273,-0.12695 0.882324,0 1.504395,0.26025 0.628417,0.26026 1.015625,0.78076 0.24121,0.31739 0.342773,0.78711 0.101562,0.46338 0.101562,1.39649 z" />
      <path
         id="path177"
         style="font-size:13px;font-family:monospace;fill:#000000"
         d="m 95.593262,107.95853 0,4.40527 -1.174317,0 0,-4.40527 q 0,-0.9585 -0.336425,-1.40918 -0.336426,-0.45069 -1.053711,-0.45069 -0.818848,0 -1.263184,0.58399 -0.437988,0.57763 -0.437988,1.66308 l 0,4.01807 -1.167969,0 0,-7.10937 1.167969,0 0,1.0664 q 0.311035,-0.60937 0.844238,-0.92041 0.533203,-0.31738 1.263184,-0.31738 1.085449,0 1.618652,0.71728 0.539551,0.71094 0.539551,2.15821 z" />
      <path
         id="path179"
         style="font-size:13px;font-family:monospace;fill:#000000"
         d="m 102.18848,106.16214 0,-3.67529 1.16797,0 0,9.87695 -1.16797,0 0,-0.89502 q -0.292,0.52686 -0.78077,0.80615 -0.48242,0.27295 -1.11718,0.27295 -1.288577,0 -2.031253,-0.99658 -0.736328,-1.00293 -0.736328,-2.76123 0,-1.73291 0.742676,-2.7168 0.742676,-0.99023 2.024905,-0.99023 0.64111,0 1.12988,0.2793 0.48877,0.27294 0.76807,0.7998 z m -3.434085,2.65332 q 0,1.3584 0.43164,2.05029 0.431641,0.6919 1.275875,0.6919 0.84424,0 1.28223,-0.69824 0.44434,-0.69825 0.44434,-2.04395 0,-1.35205 -0.44434,-2.04395 -0.43799,-0.69824 -1.28223,-0.69824 -0.844234,0 -1.275875,0.6919 -0.43164,0.69189 -0.43164,2.05029 z" />
      <path
         id="path181"
         style="font-size:13px;font-family:monospace;fill:#000000"
         d="m 105.12109,109.03763 6.70948,0 0,1.0918 -6.70948,0 0,-1.0918 z m 0,-2.57715 6.70948,0 0,1.0791 -6.70948,0 0,-1.0791 z" />
      <path
         id="path183"
         style="font-size:13px;font-family:monospace;fill:#000000"
         d="m 113.25244,102.88675 1.28858,0 0,3.88476 3.51025,0 0,-3.88476 1.28857,0 0,9.47705 -1.28857,0 0,-4.51318 -3.51025,0 0,4.51318 -1.28858,0 0,-9.47705 z" />
      <path
         id="path185"
         style="font-size:13px;font-family:monospace;fill:#000000"
         d="m 124.11328,106.07327 q -0.88867,0 -1.3457,0.6919 -0.45703,0.69189 -0.45703,2.05029 0,1.35205 0.45703,2.05029 0.45703,0.6919 1.3457,0.6919 0.89502,0 1.35205,-0.6919 0.45703,-0.69824 0.45703,-2.05029 0,-1.3584 -0.45703,-2.05029 -0.45703,-0.6919 -1.35205,-0.6919 z m 0,-0.99023 q 1.47901,0 2.25977,0.95849 0.78711,0.9585 0.78711,2.77393 0,1.82178 -0.78077,2.78027 -0.78076,0.95215 -2.26611,0.95215 -1.479,0 -2.25976,-0.95215 -0.78077,-0.95849 -0.78077,-2.78027 0,-1.81543 0.78077,-2.77393 0.78076,-0.95849 2.25976,-0.95849 z" />
      <path
         id="path187"
         style="font-size:13px;font-family:monospace;fill:#000000"
         d="m 132.31445,105.97806 q 0.21582,-0.45703 0.5459,-0.67285 0.33643,-0.22217 0.80615,-0.22217 0.85694,0 1.20606,0.6665 0.35547,0.66016 0.35547,2.49463 l 0,4.11963 -1.06641,0 0,-4.06885 q 0,-1.50439 -0.17139,-1.86621 -0.16503,-0.36816 -0.60937,-0.36816 -0.50781,0 -0.69824,0.39355 -0.18408,0.38721 -0.18408,1.84082 l 0,4.06885 -1.06641,0 0,-4.06885 q 0,-1.52344 -0.18408,-1.8789 -0.17774,-0.35547 -0.64746,-0.35547 -0.46338,0 -0.64747,0.39355 -0.17773,0.38721 -0.17773,1.84082 l 0,4.06885 -1.06006,0 0,-7.10937 1.06006,0 0,0.60937 q 0.20947,-0.38086 0.52051,-0.57764 0.31738,-0.20312 0.71728,-0.20312 0.48243,0 0.79981,0.22217 0.32373,0.22216 0.50146,0.67285 z" />
      <path
         id="path189"
         style="font-size:13px;font-family:monospace;fill:#000000"
         d="m 142.90234,108.51712 0,0.57129 -5.05908,0 0,0.0381 q 0,1.16162 0.60303,1.79638 0.60937,0.63477 1.71387,0.63477 0.55859,0 1.16796,-0.17774 0.60938,-0.17773 1.30127,-0.53955 l 0,1.16162 q -0.6665,0.27295 -1.28857,0.40625 -0.61572,0.13965 -1.19336,0.13965 -1.65674,0 -2.58984,-0.99023 -0.93311,-0.99658 -0.93311,-2.74219 0,-1.70117 0.91406,-2.7168 0.91407,-1.01562 2.4375,-1.01562 1.3584,0 2.13916,0.92041 0.78711,0.92041 0.78711,2.51367 z m -1.16797,-0.34277 q -0.0254,-1.02832 -0.48876,-1.56153 -0.45704,-0.53955 -1.32032,-0.53955 -0.84424,0 -1.39013,0.5586 -0.5459,0.55859 -0.64746,1.54882 l 3.84667,-0.006 z" />
      <path
         id="path191"
         style="font-size:13px;font-family:monospace;fill:#000000"
         d="m 146.76807,105.61624 1.59961,0 0,1.92334 -1.59961,0 0,-1.92334 z m 0,4.81152 1.59961,0 0,1.93604 -1.59961,0 0,-1.93604 z" />
      <path
         id="path193"
         style="font-size:13px;font-family:monospace;fill:#000000"
         d="m 157.66064,105.50198 0,1.14258 q -0.50146,-0.29199 -1.00927,-0.43799 -0.50782,-0.14599 -1.03467,-0.14599 -0.79346,0 -1.18701,0.26025 -0.38721,0.25391 -0.38721,0.78076 0,0.47608 0.29199,0.71094 0.29199,0.23486 1.45362,0.45703 l 0.46972,0.0889 q 0.86963,0.16504 1.31397,0.66016 0.45068,0.49511 0.45068,1.28857 0,1.05371 -0.74902,1.65039 -0.74903,0.59033 -2.08203,0.59033 -0.52686,0 -1.1045,-0.11426 -0.57763,-0.10791 -1.25048,-0.33007 l 0,-1.20606 q 0.6538,0.33643 1.25048,0.50781 0.59668,0.16504 1.12989,0.16504 0.77441,0 1.1997,-0.31103 0.4253,-0.31738 0.4253,-0.88233 0,-0.8125 -1.55518,-1.12353 l -0.0508,-0.0127 -0.43799,-0.0889 q -1.00928,-0.19678 -1.47265,-0.66016 -0.46338,-0.46973 -0.46338,-1.27588 0,-1.02197 0.69189,-1.57422 0.6919,-0.55859 1.97412,-0.55859 0.57129,0 1.09815,0.10791 0.52685,0.10156 1.03466,0.31103 z" />
      <path
         id="path195"
         style="font-size:13px;font-family:monospace;fill:#000000"
         d="m 163.21484,106.07327 q -0.88867,0 -1.3457,0.6919 -0.45703,0.69189 -0.45703,2.05029 0,1.35205 0.45703,2.05029 0.45703,0.6919 1.3457,0.6919 0.89502,0 1.35205,-0.6919 0.45704,-0.69824 0.45704,-2.05029 0,-1.3584 -0.45704,-2.05029 -0.45703,-0.6919 -1.35205,-0.6919 z m 0,-0.99023 q 1.47901,0 2.25977,0.95849 0.78711,0.9585 0.78711,2.77393 0,1.82178 -0.78076,2.78027 -0.78076,0.95215 -2.26612,0.95215 -1.479,0 -2.25976,-0.95215 -0.78076,-0.95849 -0.78076,-2.78027 0,-1.81543 0.78076,-2.77393 0.78076,-0.95849 2.25976,-0.95849 z" />
      <path
         id="path197"
         style="font-size:13px;font-family:monospace;fill:#000000"
         d="m 172.95215,108.81546 q 0,-1.3584 -0.43164,-2.05029 -0.43164,-0.6919 -1.27588,-0.6919 -0.85059,0 -1.28858,0.69824 -0.43798,0.6919 -0.43798,2.04395 0,1.3457 0.43798,2.04395 0.43799,0.69824 1.28858,0.69824 0.84424,0 1.27588,-0.6919 0.43164,-0.69189 0.43164,-2.05029 z m -3.43408,-2.65332 q 0.27929,-0.52051 0.76806,-0.7998 0.49512,-0.2793 1.14258,-0.2793 1.28223,0 2.01856,0.99023 0.73632,0.98389 0.73632,2.7168 0,1.7583 -0.74267,2.76123 -0.73633,0.99658 -2.0249,0.99658 -0.63477,0 -1.12354,-0.27295 -0.48242,-0.27929 -0.77441,-0.80615 l 0,0.89502 -1.16797,0 0,-9.87695 1.16797,0 0,3.67529 z" />
      <path
         id="path199"
         style="font-size:13px;font-family:monospace;fill:#000000"
         d="m 182.27686,106.72073 q -0.37452,-0.29199 -0.76172,-0.42529 -0.38721,-0.1333 -0.85059,-0.1333 -1.0918,0 -1.66943,0.68555 -0.57764,0.68554 -0.57764,1.98047 l 0,3.53564 -1.17432,0 0,-7.10937 1.17432,0 0,1.39013 q 0.29199,-0.75537 0.89502,-1.15527 0.60937,-0.40625 1.44092,-0.40625 0.43164,0 0.80615,0.10791 0.37451,0.10791 0.71729,0.33642 l 0,1.19336 z" />
      <path
         id="path201"
         style="font-size:13px;font-family:monospace;fill:#000000"
         d="m 189.82422,108.51712 0,0.57129 -5.05908,0 0,0.0381 q 0,1.16162 0.60302,1.79638 0.60938,0.63477 1.71387,0.63477 0.55859,0 1.16797,-0.17774 0.60937,-0.17773 1.30127,-0.53955 l 0,1.16162 q -0.6665,0.27295 -1.28857,0.40625 -0.61573,0.13965 -1.19336,0.13965 -1.65674,0 -2.58985,-0.99023 -0.9331,-0.99658 -0.9331,-2.74219 0,-1.70117 0.91406,-2.7168 0.91406,-1.01562 2.4375,-1.01562 1.3584,0 2.13916,0.92041 0.78711,0.92041 0.78711,2.51367 z m -1.16797,-0.34277 q -0.0254,-1.02832 -0.48877,-1.56153 -0.45703,-0.53955 -1.32031,-0.53955 -0.84424,0 -1.39014,0.5586 -0.5459,0.55859 -0.64746,1.54882 l 3.84668,-0.006 z" />
    </g>
    <path
       id="polygon55"
       d="m 342,150.4297 4,-4 -4,-4 10,4 z"
       style="fill:#a80036;stroke:#a80036;stroke-width:1" />
    <path
       id="line57"
       d="m 224,146.4297 124,0"
       style="stroke:#a80036;stroke-width:1" />
    <g
       id="text59"
       style="font-size:13px;font-family:monospace;fill:#000000">
      <path
         id="path206"
         style="font-size:13px;font-family:monospace;fill:#000000"
         d="m 245.17627,134.63478 0,1.14258 q -0.50147,-0.29199 -1.00928,-0.43799 -0.50781,-0.146 -1.03467,-0.146 -0.79345,0 -1.18701,0.26026 -0.3872,0.2539 -0.3872,0.78076 0,0.47607 0.29199,0.71094 0.29199,0.23486 1.45361,0.45703 l 0.46973,0.0889 q 0.86963,0.16504 1.31396,0.66015 0.45069,0.49512 0.45069,1.28858 0,1.05371 -0.74903,1.65039 -0.74902,0.59033 -2.08203,0.59033 -0.52685,0 -1.10449,-0.11426 -0.57764,-0.10791 -1.25049,-0.33008 l 0,-1.20605 q 0.65381,0.33642 1.25049,0.50781 0.59668,0.16504 1.12988,0.16504 0.77442,0 1.19971,-0.31103 0.42529,-0.31739 0.42529,-0.88233 0,-0.8125 -1.55517,-1.12353 l -0.0508,-0.0127 -0.43798,-0.0889 q -1.00928,-0.19677 -1.47266,-0.66015 -0.46338,-0.46973 -0.46338,-1.27588 0,-1.02197 0.6919,-1.57422 0.69189,-0.55859 1.97412,-0.55859 0.57129,0 1.09814,0.10791 0.52686,0.10156 1.03467,0.31103 z" />
      <path
         id="path208"
         style="font-size:13px;font-family:monospace;fill:#000000"
         d="m 250.73047,135.20607 q -0.88867,0 -1.3457,0.69189 -0.45704,0.6919 -0.45704,2.0503 0,1.35205 0.45704,2.05029 0.45703,0.69189 1.3457,0.69189 0.89502,0 1.35205,-0.69189 0.45703,-0.69824 0.45703,-2.05029 0,-1.3584 -0.45703,-2.0503 -0.45703,-0.69189 -1.35205,-0.69189 z m 0,-0.99023 q 1.479,0 2.25976,0.95849 0.78711,0.9585 0.78711,2.77393 0,1.82177 -0.78076,2.78027 -0.78076,0.95215 -2.26611,0.95215 -1.47901,0 -2.25977,-0.95215 -0.78076,-0.9585 -0.78076,-2.78027 0,-1.81543 0.78076,-2.77393 0.78076,-0.95849 2.25977,-0.95849 z" />
      <path
         id="path210"
         style="font-size:13px;font-family:monospace;fill:#000000"
         d="m 260.46777,137.94826 q 0,-1.3584 -0.43164,-2.0503 -0.43164,-0.69189 -1.27588,-0.69189 -0.85058,0 -1.28857,0.69824 -0.43799,0.6919 -0.43799,2.04395 0,1.3457 0.43799,2.04394 0.43799,0.69824 1.28857,0.69824 0.84424,0 1.27588,-0.69189 0.43164,-0.69189 0.43164,-2.05029 z m -3.43408,-2.65332 q 0.2793,-0.52051 0.76807,-0.79981 0.49511,-0.27929 1.14258,-0.27929 1.28222,0 2.01855,0.99023 0.73633,0.98389 0.73633,2.7168 0,1.7583 -0.74268,2.76123 -0.73633,0.99658 -2.0249,0.99658 -0.63477,0 -1.12353,-0.27295 -0.48243,-0.2793 -0.77442,-0.80615 l 0,0.89502 -1.16797,0 0,-9.87696 1.16797,0 0,3.6753 z" />
      <path
         id="path212"
         style="font-size:13px;font-family:monospace;fill:#000000"
         d="m 269.79248,135.85353 q -0.37451,-0.29199 -0.76172,-0.42529 -0.38721,-0.1333 -0.85058,-0.1333 -1.0918,0 -1.66944,0.68554 -0.57763,0.68555 -0.57763,1.98047 l 0,3.53565 -1.17432,0 0,-7.10938 1.17432,0 0,1.39014 q 0.29199,-0.75537 0.89501,-1.15527 0.60938,-0.40625 1.44092,-0.40625 0.43164,0 0.80616,0.10791 0.37451,0.10791 0.71728,0.33642 l 0,1.19336 z" />
      <path
         id="path214"
         style="font-size:13px;font-family:monospace;fill:#000000"
         d="m 277.33984,137.64992 0,0.57129 -5.05908,0 0,0.0381 q 0,1.16162 0.60303,1.79639 0.60937,0.63476 1.71387,0.63476 0.55859,0 1.16796,-0.17773 0.60938,-0.17773 1.30127,-0.53955 l 0,1.16162 q -0.6665,0.27295 -1.28857,0.40625 -0.61572,0.13965 -1.19336,0.13965 -1.65674,0 -2.58984,-0.99024 -0.93311,-0.99658 -0.93311,-2.74218 0,-1.70117 0.91406,-2.7168 0.91407,-1.01562 2.4375,-1.01562 1.3584,0 2.13916,0.92041 0.78711,0.92041 0.78711,2.51367 z m -1.16797,-0.34278 q -0.0254,-1.02832 -0.48876,-1.56152 -0.45704,-0.53955 -1.32032,-0.53955 -0.84424,0 -1.39013,0.55859 -0.5459,0.5586 -0.64746,1.54883 l 3.84667,-0.006 z" />
      <path
         id="path216"
         style="font-size:13px;font-family:monospace;fill:#000000"
         d="m 283.71924,131.63234 q -0.84424,1.44727 -1.26319,2.88818 -0.41259,1.43457 -0.41259,2.89453 0,1.45362 0.41259,2.89454 0.41895,1.44091 1.26319,2.90087 l -1.01563,0 q -0.95849,-1.51074 -1.42822,-2.93896 -0.46973,-1.43457 -0.46973,-2.85645 0,-1.41552 0.46973,-2.85009 0.46973,-1.43457 1.42822,-2.93262 l 1.01563,0 z" />
      <path
         id="path218"
         style="font-size:13px;font-family:monospace;fill:#000000"
         d="m 288.13086,131.63234 1.01562,0 q 0.9585,1.49805 1.42823,2.93262 0.46972,1.43457 0.46972,2.85009 0,1.42823 -0.46972,2.8628 -0.46973,1.43457 -1.42823,2.93261 l -1.01562,0 q 0.84424,-1.47265 1.25684,-2.91357 0.41894,-1.44092 0.41894,-2.88184 0,-1.44726 -0.41894,-2.88818 -0.4126,-1.44092 -1.25684,-2.89453 z" />
    </g>
    <path
       id="polygon61"
       d="m 235,179.5625 -4,-4 4,-4 -10,4 z"
       style="fill:#a80036;stroke:#a80036;stroke-width:1" />
    <path
       id="line63"
       d="m 229,175.5625 129,0"
       style="stroke:#a80036;stroke-width:1;stroke-dasharray:2, 2" />
    <g
       id="text65"
       style="font-style:italic;font-size:13px;font-family:sans-serif;fill:#000000">
      <path
         id="path223"
         style="font-style:italic;font-size:13px;font-family:sans-serif;fill:#000000"
         d="m 248.27539,162.20605 -0.64746,3.36426 1.65039,0 q 0.97119,0 1.56787,-0.5332 0.60303,-0.53955 0.60303,-1.40283 0,-0.6919 -0.40625,-1.06006 -0.3999,-0.36817 -1.15527,-0.36817 l -1.61231,0 z m 2.35498,3.87207 q 0.40625,0.0952 0.67285,0.46973 0.27295,0.37451 0.62842,1.4917 l 0.80615,2.58984 -1.35205,0 -0.74267,-2.43115 q -0.28565,-0.93945 -0.66016,-1.25683 -0.37451,-0.31739 -1.14893,-0.31739 l -1.41552,0 -0.78076,4.00537 -1.28858,0 1.84717,-9.47705 2.88818,0 q 1.31397,0 2.01221,0.59668 0.70459,0.59034 0.70459,1.70752 0,0.99024 -0.59668,1.71387 -0.59668,0.72363 -1.57422,0.90771 z" />
      <path
         id="path225"
         style="font-style:italic;font-size:13px;font-family:sans-serif;fill:#000000"
         d="m 260.2915,166.43994 q 0.019,-0.10156 0.0254,-0.20947 0.0127,-0.10791 0.0127,-0.21582 0,-0.77442 -0.45703,-1.2251 -0.45069,-0.45068 -1.23145,-0.45068 -0.86963,0 -1.53613,0.55224 -0.6665,0.5459 -1.00928,1.55518 l 4.1958,-0.006 z m 1.01563,0.91406 -5.43359,0 q -0.0381,0.24121 -0.0508,0.38086 -0.0127,0.13965 -0.0127,0.24121 0,0.88233 0.53955,1.36475 0.5459,0.48242 1.53613,0.48242 0.76172,0 1.44092,-0.17138 0.6792,-0.17139 1.26318,-0.50147 l -0.22216,1.15527 q -0.62842,0.25391 -1.30127,0.38086 -0.66651,0.12696 -1.3584,0.12696 -1.47901,0 -2.27881,-0.70459 -0.79346,-0.71094 -0.79346,-2.01221 0,-1.11084 0.39356,-2.06299 0.3999,-0.95849 1.16797,-1.70752 0.49511,-0.46972 1.17431,-0.72363 0.68555,-0.25391 1.45362,-0.25391 1.20605,0 1.91699,0.72364 0.71728,0.72363 0.71728,1.94238 0,0.29199 -0.0381,0.62842 -0.0381,0.33007 -0.11426,0.71093 z" />
      <path
         id="path227"
         style="font-style:italic;font-size:13px;font-family:sans-serif;fill:#000000"
         d="m 268.53711,163.72949 -0.22217,1.10449 q -0.46338,-0.2539 -0.97754,-0.38086 -0.51416,-0.12695 -1.06006,-0.12695 -0.92041,0 -1.45361,0.31738 -0.52686,0.31104 -0.52686,0.85059 0,0.62842 1.23145,0.96484 0.0952,0.0254 0.13965,0.0381 l 0.37451,0.11426 q 1.16797,0.32373 1.55518,0.6792 0.39355,0.35547 0.39355,0.97119 0,1.12988 -0.90137,1.84082 -0.89502,0.71094 -2.34863,0.71094 -0.56494,0 -1.18701,-0.10791 -0.62207,-0.10791 -1.37109,-0.33643 l 0.22851,-1.20605 q 0.64111,0.33007 1.26318,0.50146 0.62207,0.17139 1.19336,0.17139 0.85694,0 1.39014,-0.36817 0.53955,-0.36816 0.53955,-0.9331 0,-0.60938 -1.40918,-0.98389 l -0.1206,-0.0317 -0.39991,-0.10156 q -0.88867,-0.23486 -1.30127,-0.61572 -0.41259,-0.38721 -0.41259,-0.98389 0,-1.13623 0.85058,-1.80273 0.85694,-0.66651 2.32324,-0.66651 0.57764,0 1.12354,0.0952 0.55225,0.0952 1.08545,0.28564 z" />
      <path
         id="path229"
         style="font-style:italic;font-size:13px;font-family:sans-serif;fill:#000000"
         d="m 275.26562,166.24951 q 0,-0.9331 -0.40625,-1.42822 -0.40625,-0.49512 -1.16796,-0.49512 -0.52051,0 -0.99659,0.2666 -0.46972,0.2666 -0.83789,0.77442 -0.36181,0.50146 -0.57763,1.2124 -0.21582,0.71094 -0.21582,1.40918 0,0.88867 0.40625,1.37109 0.40625,0.47608 1.15527,0.47608 0.55225,0 1.02197,-0.26026 0.47608,-0.26025 0.8125,-0.75537 0.36182,-0.52051 0.58399,-1.2251 0.22216,-0.70459 0.22216,-1.3457 z m -3.61816,-1.65039 q 0.46973,-0.61572 1.10449,-0.9331 0.64112,-0.31739 1.42188,-0.31739 1.09179,0 1.69482,0.71729 0.60303,0.71094 0.60303,1.99951 0,1.05371 -0.37451,2.01221 -0.37451,0.95215 -1.0791,1.70752 -0.46973,0.50146 -1.06006,0.76806 -0.59033,0.26026 -1.24414,0.26026 -0.75537,0 -1.26953,-0.31104 -0.51416,-0.31738 -0.76807,-0.93945 l -0.72998,3.77051 -1.16797,0 1.91064,-9.81348 1.16797,0 -0.20947,1.0791 z" />
      <path
         id="path231"
         style="font-style:italic;font-size:13px;font-family:sans-serif;fill:#000000"
         d="m 280.36914,170.81348 q -1.25049,0 -1.98047,-0.76807 -0.72363,-0.77441 -0.72363,-2.10742 0,-0.77442 0.24756,-1.57422 0.2539,-0.80615 0.65381,-1.35205 0.62841,-0.85059 1.40283,-1.25684 0.77441,-0.40625 1.75195,-0.40625 1.2124,0 1.95508,0.75537 0.74902,0.75537 0.74902,1.97412 0,0.84424 -0.24756,1.68213 -0.24755,0.83789 -0.64746,1.39014 -0.62207,0.85059 -1.39648,1.25684 -0.77442,0.40625 -1.76465,0.40625 z m -1.4917,-2.91358 q 0,0.96485 0.3999,1.44727 0.40625,0.47607 1.2251,0.47607 1.17432,0 1.94238,-1.02197 0.77442,-1.02832 0.77442,-2.60254 0,-0.92041 -0.4126,-1.39014 -0.4126,-0.46972 -1.2124,-0.46972 -0.66016,0 -1.17432,0.31103 -0.51416,0.30469 -0.92041,0.93311 -0.29834,0.46972 -0.46338,1.07275 -0.15869,0.60303 -0.15869,1.24414 z" />
      <path
         id="path233"
         style="font-style:italic;font-size:13px;font-family:sans-serif;fill:#000000"
         d="m 291.51562,163.72949 -0.22216,1.10449 q -0.46338,-0.2539 -0.97754,-0.38086 -0.51416,-0.12695 -1.06006,-0.12695 -0.92041,0 -1.45361,0.31738 -0.52686,0.31104 -0.52686,0.85059 0,0.62842 1.23145,0.96484 0.0952,0.0254 0.13964,0.0381 l 0.37452,0.11426 q 1.16796,0.32373 1.55517,0.6792 0.39356,0.35547 0.39356,0.97119 0,1.12988 -0.90137,1.84082 -0.89502,0.71094 -2.34863,0.71094 -0.56494,0 -1.18702,-0.10791 -0.62207,-0.10791 -1.37109,-0.33643 l 0.22852,-1.20605 q 0.64111,0.33007 1.26318,0.50146 0.62207,0.17139 1.19336,0.17139 0.85693,0 1.39014,-0.36817 0.53955,-0.36816 0.53955,-0.9331 0,-0.60938 -1.40918,-0.98389 l -0.12061,-0.0317 -0.3999,-0.10156 q -0.88867,-0.23486 -1.30127,-0.61572 -0.4126,-0.38721 -0.4126,-0.98389 0,-1.13623 0.85059,-1.80273 0.85693,-0.66651 2.32324,-0.66651 0.57764,0 1.12354,0.0952 0.55224,0.0952 1.08544,0.28564 z" />
      <path
         id="path235"
         style="font-style:italic;font-size:13px;font-family:sans-serif;fill:#000000"
         d="m 297.29199,163.52002 -0.17773,0.90771 -2.32959,0 -0.75537,3.85938 q -0.0381,0.21582 -0.0571,0.36182 -0.019,0.14599 -0.019,0.22851 0,0.40625 0.24122,0.59033 0.24755,0.18409 0.78711,0.18409 l 1.18066,0 -0.19678,0.97753 -1.11719,0 q -1.04101,0 -1.55517,-0.40625 -0.50781,-0.40625 -0.50781,-1.23144 0,-0.146 0.019,-0.31738 0.019,-0.17774 0.0571,-0.38721 l 0.75537,-3.85938 -0.99024,0 0.18409,-0.90771 0.97119,0 0.39355,-2.01856 1.16797,0 -0.38721,2.01856 2.33594,0 z" />
      <path
         id="path237"
         style="font-style:italic;font-size:13px;font-family:sans-serif;fill:#000000"
         d="m 303.88086,166.57324 -0.79346,4.05615 -1.16797,0 0.21582,-1.0791 q -0.51416,0.63477 -1.17431,0.95215 -0.65381,0.31104 -1.45996,0.31104 -0.90772,0 -1.4917,-0.55225 -0.57764,-0.55859 -0.57764,-1.42822 0,-1.24414 0.99023,-1.96778 0.99659,-0.72363 2.74219,-0.72363 l 1.625,0 0.0635,-0.31103 q 0.0127,-0.0508 0.019,-0.10791 0.006,-0.0635 0.006,-0.19043 0,-0.56494 -0.46338,-0.87598 -0.45703,-0.31738 -1.28857,-0.31738 -0.57129,0 -1.17432,0.14599 -0.59668,0.146 -1.23145,0.43799 l 0.20313,-1.0791 q 0.66016,-0.24756 1.28857,-0.36816 0.63477,-0.12696 1.2251,-0.12696 1.25684,0 1.91065,0.5459 0.66015,0.5459 0.66015,1.58692 0,0.20947 -0.0317,0.49511 -0.0317,0.2793 -0.0952,0.59668 z m -1.26318,0.48242 -1.16797,0 q -1.43457,0 -2.12647,0.38721 -0.68554,0.38086 -0.68554,1.18701 0,0.5586 0.34912,0.87598 0.35547,0.31738 0.97754,0.31738 0.95214,0 1.66308,-0.6792 0.71094,-0.68554 0.93945,-1.82812 l 0.0508,-0.26026 z" />
      <path
         id="path239"
         style="font-style:italic;font-size:13px;font-family:sans-serif;fill:#000000"
         d="m 311.20605,161.15234 1.28858,0 -0.75537,3.88477 4.65283,0 0.75537,-3.88477 1.28858,0 -1.84717,9.47705 -1.28858,0 0.88233,-4.51318 -4.65283,0 -0.88233,4.51318 -1.28857,0 1.84716,-9.47705 z" />
      <path
         id="path241"
         style="font-style:italic;font-size:13px;font-family:sans-serif;fill:#000000"
         d="m 319.55322,161.15234 8.01709,0 -0.20312,1.07911 -3.3833,0 -1.625,8.39794 -1.28858,0 1.625,-8.39794 -3.35156,0 0.20947,-1.07911 z" />
      <path
         id="path243"
         style="font-style:italic;font-size:13px;font-family:sans-serif;fill:#000000"
         d="m 327.50049,161.15234 8.01709,0 -0.20313,1.07911 -3.3833,0 -1.625,8.39794 -1.28857,0 1.625,-8.39794 -3.35156,0 0.20947,-1.07911 z" />
      <path
         id="path245"
         style="font-style:italic;font-size:13px;font-family:sans-serif;fill:#000000"
         d="m 336.87598,161.15234 2.96435,0 q 1.29492,0 1.97412,0.60303 0.6792,0.60303 0.6792,1.76465 0,1.56152 -1.00293,2.43115 -1.00293,0.86963 -2.81836,0.86963 l -1.6123,0 -0.74268,3.80859 -1.28857,0 1.84717,-9.47705 z m 1.0791,1.05371 -0.68555,3.56104 1.61231,0 q 1.09179,0 1.67578,-0.55859 0.58398,-0.5586 0.58398,-1.59961 0,-0.66651 -0.3999,-1.03467 -0.39356,-0.36817 -1.11084,-0.36817 l -1.67578,0 z" />
    </g>
    <path
       id="polygon67"
       d="m 46,208.6953 -4,-4 4,-4 -10,4 z"
       style="fill:#a80036;stroke:#a80036;stroke-width:1" />
    <path
       id="line69"
       d="m 40,204.6953 178,0"
       style="stroke:#a80036;stroke-width:1;stroke-dasharray:2, 2" />
    <g
       id="text71"
       style="font-style:italic;font-size:13px;font-family:sans-serif;fill:#000000">
      <path
         id="path250"
         style="font-style:italic;font-size:13px;font-family:sans-serif;fill:#000000"
         d="m 59.275391,191.33887 -0.647461,3.36425 1.65039,0 q 0.971192,0 1.567871,-0.5332 0.603028,-0.53955 0.603028,-1.40283 0,-0.69189 -0.40625,-1.06006 -0.399903,-0.36816 -1.155274,-0.36816 l -1.612304,0 z m 2.35498,3.87207 q 0.40625,0.0952 0.672852,0.46972 0.272949,0.37452 0.628418,1.4917 l 0.806152,2.58985 -1.352051,0 -0.742676,-2.43116 q -0.285644,-0.93945 -0.660156,-1.25683 -0.374512,-0.31738 -1.148926,-0.31738 l -1.415527,0 -0.780762,4.00537 -1.288574,0 1.847168,-9.47705 2.888184,0 q 1.313964,0 2.012207,0.59668 0.70459,0.59033 0.70459,1.70752 0,0.99023 -0.59668,1.71386 -0.59668,0.72364 -1.574219,0.90772 z" />
      <path
         id="path252"
         style="font-style:italic;font-size:13px;font-family:sans-serif;fill:#000000"
         d="m 71.291504,195.57275 q 0.01904,-0.10156 0.02539,-0.20947 0.01269,-0.10791 0.01269,-0.21582 0,-0.77441 -0.457031,-1.2251 -0.450684,-0.45068 -1.231446,-0.45068 -0.869629,0 -1.536133,0.55225 -0.666503,0.54589 -1.009277,1.55517 l 4.195801,-0.006 z m 1.015625,0.91407 -5.433594,0 q -0.03809,0.24121 -0.05078,0.38086 -0.0127,0.13964 -0.0127,0.24121 0,0.88232 0.53955,1.36474 0.545899,0.48242 1.536133,0.48242 0.761719,0 1.440918,-0.17138 0.679199,-0.17139 1.263184,-0.50147 l -0.222168,1.15528 q -0.628418,0.2539 -1.30127,0.38086 -0.666504,0.12695 -1.358398,0.12695 -1.479004,0 -2.278809,-0.70459 -0.793457,-0.71094 -0.793457,-2.01221 0,-1.11084 0.393555,-2.06299 0.399902,-0.95849 1.167969,-1.70752 0.495117,-0.46972 1.174316,-0.72363 0.685547,-0.2539 1.453613,-0.2539 1.206055,0 1.916992,0.72363 0.717286,0.72363 0.717286,1.94238 0,0.29199 -0.03809,0.62842 -0.03809,0.33008 -0.114258,0.71094 z" />
      <path
         id="path254"
         style="font-style:italic;font-size:13px;font-family:sans-serif;fill:#000000"
         d="m 79.537109,192.8623 -0.222168,1.1045 q -0.463379,-0.25391 -0.977539,-0.38086 -0.51416,-0.12696 -1.060058,-0.12696 -0.92041,0 -1.453614,0.31739 -0.526855,0.31103 -0.526855,0.85058 0,0.62842 1.231445,0.96485 0.09522,0.0254 0.139649,0.0381 l 0.374511,0.11426 q 1.167969,0.32373 1.555176,0.6792 0.393555,0.35547 0.393555,0.97119 0,1.12988 -0.901367,1.84082 -0.89502,0.71094 -2.348633,0.71094 -0.564941,0 -1.187012,-0.10791 -0.62207,-0.10791 -1.371094,-0.33643 l 0.228516,-1.20605 q 0.641113,0.33008 1.263184,0.50146 0.62207,0.17139 1.193359,0.17139 0.856934,0 1.390137,-0.36816 0.539551,-0.36817 0.539551,-0.93311 0,-0.60937 -1.40918,-0.98389 l -0.120606,-0.0317 -0.399902,-0.10157 q -0.888672,-0.23486 -1.301269,-0.61572 -0.412598,-0.38721 -0.412598,-0.98389 0,-1.13623 0.850586,-1.80273 0.856933,-0.6665 2.323242,-0.6665 0.577637,0 1.123535,0.0952 0.552246,0.0952 1.085449,0.28564 z" />
      <path
         id="path256"
         style="font-style:italic;font-size:13px;font-family:sans-serif;fill:#000000"
         d="m 86.265625,195.38232 q 0,-0.9331 -0.40625,-1.42822 -0.40625,-0.49512 -1.167969,-0.49512 -0.520508,0 -0.996582,0.26661 -0.469726,0.2666 -0.83789,0.77441 -0.361817,0.50146 -0.577637,1.2124 -0.21582,0.71094 -0.21582,1.40918 0,0.88867 0.40625,1.3711 0.40625,0.47607 1.155273,0.47607 0.552246,0 1.021973,-0.26025 0.476074,-0.26026 0.8125,-0.75538 0.361816,-0.5205 0.583984,-1.22509 0.222168,-0.70459 0.222168,-1.34571 z m -3.618164,-1.65039 q 0.469726,-0.61572 1.104492,-0.9331 0.641113,-0.31738 1.421875,-0.31738 1.091797,0 1.694824,0.71728 0.603028,0.71094 0.603028,1.99951 0,1.05371 -0.374512,2.01221 -0.374512,0.95215 -1.079102,1.70752 -0.469726,0.50146 -1.060058,0.76807 -0.590332,0.26025 -1.244141,0.26025 -0.755371,0 -1.269531,-0.31104 -0.51416,-0.31738 -0.768066,-0.93945 l -0.729981,3.77051 -1.167969,0 1.910645,-9.81348 1.167969,0 -0.209473,1.0791 z" />
      <path
         id="path258"
         style="font-style:italic;font-size:13px;font-family:sans-serif;fill:#000000"
         d="m 91.369141,199.94629 q -1.250489,0 -1.980469,-0.76807 -0.723633,-0.77441 -0.723633,-2.10742 0,-0.77441 0.247559,-1.57422 0.253906,-0.80615 0.653808,-1.35205 0.628418,-0.85058 1.402832,-1.25683 0.774414,-0.40625 1.751953,-0.40625 1.212403,0 1.955079,0.75537 0.749023,0.75537 0.749023,1.97412 0,0.84424 -0.247559,1.68213 -0.247558,0.83789 -0.647461,1.39013 -0.62207,0.85059 -1.396484,1.25684 -0.774414,0.40625 -1.764648,0.40625 z m -1.4917,-2.91358 q 0,0.96485 0.399903,1.44727 0.40625,0.47607 1.225097,0.47607 1.174317,0 1.942383,-1.02197 0.774414,-1.02832 0.774414,-2.60254 0,-0.92041 -0.412597,-1.39013 -0.412598,-0.46973 -1.212403,-0.46973 -0.660156,0 -1.174316,0.31103 -0.51416,0.30469 -0.92041,0.93311 -0.29834,0.46973 -0.463379,1.07275 -0.158692,0.60303 -0.158692,1.24414 z" />
      <path
         id="path260"
         style="font-style:italic;font-size:13px;font-family:sans-serif;fill:#000000"
         d="m 102.51563,192.8623 -0.22217,1.1045 q -0.46338,-0.25391 -0.97754,-0.38086 -0.51416,-0.12696 -1.06006,-0.12696 -0.920411,0 -1.453614,0.31739 -0.526855,0.31103 -0.526855,0.85058 0,0.62842 1.231445,0.96485 0.09521,0.0254 0.139648,0.0381 l 0.374516,0.11426 q 1.16796,0.32373 1.55517,0.6792 0.39356,0.35547 0.39356,0.97119 0,1.12988 -0.90137,1.84082 -0.89502,0.71094 -2.348633,0.71094 -0.564942,0 -1.187012,-0.10791 -0.62207,-0.10791 -1.371094,-0.33643 l 0.228516,-1.20605 q 0.641113,0.33008 1.263183,0.50146 0.622071,0.17139 1.19336,0.17139 0.856933,0 1.39014,-0.36816 0.53955,-0.36817 0.53955,-0.93311 0,-0.60937 -1.409183,-0.98389 l -0.120605,-0.0317 -0.399902,-0.10157 q -0.888672,-0.23486 -1.30127,-0.61572 -0.412598,-0.38721 -0.412598,-0.98389 0,-1.13623 0.850586,-1.80273 0.856934,-0.6665 2.323242,-0.6665 0.57764,0 1.12354,0.0952 0.55224,0.0952 1.08545,0.28564 z" />
      <path
         id="path262"
         style="font-style:italic;font-size:13px;font-family:sans-serif;fill:#000000"
         d="m 108.29199,192.65283 -0.17773,0.90772 -2.32959,0 -0.75537,3.85937 q -0.0381,0.21582 -0.0571,0.36182 -0.019,0.14599 -0.019,0.22851 0,0.40625 0.24121,0.59034 0.24755,0.18408 0.78711,0.18408 l 1.18066,0 -0.19678,0.97754 -1.11719,0 q -1.04101,0 -1.55517,-0.40625 -0.50781,-0.40625 -0.50781,-1.23145 0,-0.14599 0.019,-0.31738 0.019,-0.17774 0.0571,-0.38721 l 0.75537,-3.85937 -0.99024,0 0.18409,-0.90772 0.97119,0 0.39355,-2.01855 1.16797,0 -0.38721,2.01855 2.33594,0 z" />
      <path
         id="path264"
         style="font-style:italic;font-size:13px;font-family:sans-serif;fill:#000000"
         d="m 114.88086,195.70605 -0.79346,4.05616 -1.16797,0 0.21582,-1.0791 q -0.51416,0.63476 -1.17431,0.95214 -0.65381,0.31104 -1.45996,0.31104 -0.90772,0 -1.4917,-0.55225 -0.57764,-0.55859 -0.57764,-1.42822 0,-1.24414 0.99024,-1.96777 0.99658,-0.72364 2.74218,-0.72364 l 1.625,0 0.0635,-0.31103 q 0.0127,-0.0508 0.019,-0.10791 0.006,-0.0635 0.006,-0.19043 0,-0.56494 -0.46338,-0.87598 -0.45703,-0.31738 -1.28857,-0.31738 -0.57129,0 -1.17432,0.146 -0.59668,0.14599 -1.23145,0.43798 l 0.20313,-1.0791 q 0.66016,-0.24756 1.28857,-0.36816 0.63477,-0.12695 1.2251,-0.12695 1.25684,0 1.91065,0.54589 0.66015,0.5459 0.66015,1.58692 0,0.20947 -0.0317,0.49511 -0.0317,0.2793 -0.0952,0.59668 z m -1.26318,0.48243 -1.16797,0 q -1.43457,0 -2.12647,0.3872 -0.68554,0.38086 -0.68554,1.18702 0,0.55859 0.34912,0.87597 0.35547,0.31738 0.97754,0.31738 0.95214,0 1.66308,-0.67919 0.71094,-0.68555 0.93945,-1.82813 l 0.0508,-0.26025 z" />
      <path
         id="path266"
         style="font-style:italic;font-size:13px;font-family:sans-serif;fill:#000000"
         d="m 122.20605,190.28516 1.28858,0 -0.75537,3.88476 4.65283,0 0.75537,-3.88476 1.28858,0 -1.84717,9.47705 -1.28858,0 0.88233,-4.51319 -4.65283,0 -0.88233,4.51319 -1.28857,0 1.84716,-9.47705 z" />
      <path
         id="path268"
         style="font-style:italic;font-size:13px;font-family:sans-serif;fill:#000000"
         d="m 130.55322,190.28516 8.01709,0 -0.20312,1.0791 -3.3833,0 -1.625,8.39795 -1.28858,0 1.625,-8.39795 -3.35156,0 0.20947,-1.0791 z" />
      <path
         id="path270"
         style="font-style:italic;font-size:13px;font-family:sans-serif;fill:#000000"
         d="m 138.50049,190.28516 8.01709,0 -0.20313,1.0791 -3.3833,0 -1.625,8.39795 -1.28857,0 1.625,-8.39795 -3.35156,0 0.20947,-1.0791 z" />
      <path
         id="path272"
         style="font-style:italic;font-size:13px;font-family:sans-serif;fill:#000000"
         d="m 147.87598,190.28516 2.96435,0 q 1.29492,0 1.97412,0.60302 0.6792,0.60303 0.6792,1.76465 0,1.56153 -1.00293,2.43115 -1.00293,0.86963 -2.81836,0.86963 l -1.6123,0 -0.74268,3.8086 -1.28857,0 1.84717,-9.47705 z m 1.0791,1.05371 -0.68555,3.56103 1.61231,0 q 1.09179,0 1.67578,-0.55859 0.58398,-0.5586 0.58398,-1.59961 0,-0.6665 -0.3999,-1.03467 -0.39356,-0.36816 -1.11084,-0.36816 l -1.67578,0 z" />
    </g>
    <!--
@startuml

actor Cliente
control FrontController
participant Home <<Command>>

Cliente -> FrontController: ""?command=Home:sobre ""
activate FrontController

FrontController ->  Home: "" sobre() ""
activate Home
FrontController <- - Home: // Resposta HTTP //
deactivate Home

Cliente <- - FrontController: // Resposta HTTP //
deactivate FrontController

hide footbox

@enduml

PlantUML version 1.2017.15(Mon Jul 03 13:45:34 BRT 2017)
(GPL source distribution)
Java Runtime: OpenJDK Runtime Environment
JVM: OpenJDK 64-Bit Server VM
Java Version: 1.8.0_152-release-915-b11
Operating System: Linux
OS Version: 4.4.0-96-generic
Default Encoding: UTF-8
Language: pt
Country: BR
-->
  </g>
</svg>
