<?xml version="1.0" standalone="yes"?>

<svg version="1.1" viewBox="0.0 0.0 699.3517060367454 423.98162729658793" fill="none" stroke="none" stroke-linecap="square" stroke-miterlimit="10" xmlns="http://www.w3.org/2000/svg" xmlns:xlink="http://www.w3.org/1999/xlink"><clipPath id="p.0"><path d="m0 0l699.3517 0l0 423.98163l-699.3517 0l0 -423.98163z" clip-rule="nonzero"></path></clipPath><g clip-path="url(#p.0)"><path fill="#000000" fill-opacity="0.0" d="m0 0l699.3517 0l0 423.98163l-699.3517 0z" fill-rule="evenodd"></path><path fill="#000000" fill-opacity="0.0" d="m11.298556 33.508446l136.0 0l0 262.67715l-136.0 0z" fill-rule="evenodd"></path><path fill="#000000" fill-opacity="0.0" d="m11.298556 40.007675l125.79527 0l0 210.83464l-125.79527 0z" fill-rule="evenodd"></path><path stroke="#000000" stroke-width="1.0" stroke-linejoin="round" stroke-linecap="butt" d="m11.298556 40.007675l125.79527 0l0 210.83464l-125.79527 0z" fill-rule="evenodd"></path><path fill="#000000" fill-opacity="0.0" d="m11.298556 40.007133l125.79527 0l0 83.30708l-125.79527 0z" fill-rule="evenodd"></path><path stroke="#000000" stroke-width="1.0" stroke-linejoin="round" stroke-linecap="butt" d="m11.298556 40.007133l125.79527 0l0 83.30708l-125.79527 0z" fill-rule="evenodd"></path><path fill="#000000" fill-opacity="0.0" d="m11.298556 123.31422l125.79527 0l0 43.338585l-125.79527 0z" fill-rule="evenodd"></path><path stroke="#000000" stroke-width="1.0" stroke-linejoin="round" stroke-linecap="butt" d="m11.298556 123.31422l125.79527 0l0 43.338585l-125.79527 0z" fill-rule="evenodd"></path><path fill="#000000" d="m65.50088 150.8435l-1.46875 0l0 -10.140625l-3.2656212 0l0 -1.28125l7.984371 0l0 1.28125l-3.25 0l0 10.140625zm9.6171875 -10.3125q-0.84375 0 -1.53125 0.328125q-0.671875 0.3125 -1.15625 0.90625q-0.46875 0.59375 -0.734375 1.453125q-0.265625 0.84375 -0.265625 1.90625q0 1.109375 0.234375 1.96875q0.234375 0.84375 0.6875 1.4375q0.46875 0.578125 1.15625 0.890625q0.6875 0.296875 1.609375 0.296875q0.6875 0 1.3125 -0.125q0.625 -0.140625 1.234375 -0.328125l0 1.265625q-0.296875 0.125 -0.609375 0.21875q-0.296875 0.078125 -0.640625 0.140625q-0.328125 0.0625 -0.703125 0.078125q-0.375 0.03125 -0.84375 0.03125q-1.28125 0 -2.21875 -0.421875q-0.9375 -0.421875 -1.546875 -1.1875q-0.609375 -0.78125 -0.90625 -1.859375q-0.296875 -1.09375 -0.296875 -2.421875q0 -1.296875 0.328125 -2.375q0.34375 -1.078125 1.0 -1.84375q0.671875 -0.78125 1.640625 -1.203125q0.984375 -0.4375 2.25 -0.4375q0.84375 0 1.609375 0.171875q0.765625 0.171875 1.375 0.5l-0.609375 1.21875q-0.484375 -0.25 -1.0625 -0.421875q-0.578125 -0.1875 -1.3125 -0.1875zm11.8515625 2.234375q0 0.703125 -0.21875 1.359375q-0.21875 0.65625 -0.71875 1.171875q-0.484375 0.5 -1.296875 0.796875q-0.796875 0.296875 -1.984375 0.296875l-1.171875 0l0 4.453125l-1.453125 0l0 -11.421875l2.828125 0q1.046875 0 1.796875 0.21875q0.765625 0.21875 1.25 0.65625q0.5 0.421875 0.734375 1.046875q0.234375 0.625 0.234375 1.421875zm-5.390625 2.390625l1.0 0q0.734375 0 1.265625 -0.125q0.546875 -0.125 0.90625 -0.390625q0.359375 -0.28125 0.53125 -0.71875q0.1875 -0.453125 0.1875 -1.078125q0 -1.109375 -0.640625 -1.640625q-0.640625 -0.546875 -2.0 -0.546875l-1.25 0l0 4.5z" fill-rule="nonzero"></path><path fill="#000000" fill-opacity="0.0" d="m11.298556 166.6528l125.79527 0l0 43.338577l-125.79527 0z" fill-rule="evenodd"></path><path stroke="#000000" stroke-width="1.0" stroke-linejoin="round" stroke-linecap="butt" d="m11.298556 166.6528l125.79527 0l0 43.338577l-125.79527 0z" fill-rule="evenodd"></path><path fill="#000000" d="m71.65713 194.1821l-4.140625 0l0 -0.796875l1.34375 -0.328125l0 -9.1875l-1.34375 -0.3125l0 -0.796875l4.140625 0l0 0.796875l-1.34375 0.3125l0 9.1875l1.34375 0.328125l0 0.796875zm9.046875 -8.078125q0 0.703125 -0.21875 1.359375q-0.21875 0.65625 -0.71875 1.171875q-0.484375 0.5 -1.296875 0.796875q-0.796875 0.296875 -1.984375 0.296875l-1.171875 0l0 4.453125l-1.453125 0l0 -11.421875l2.828125 0q1.046875 0 1.796875 0.21875q0.765625 0.21875 1.25 0.65625q0.5 0.421875 0.734375 1.046875q0.234375 0.625 0.234375 1.421875zm-5.390625 2.390625l1.0 0q0.734375 0 1.265625 -0.125q0.546875 -0.125 0.90625 -0.390625q0.359375 -0.28125 0.53125 -0.71875q0.1875 -0.453125 0.1875 -1.078125q0 -1.109375 -0.640625 -1.640625q-0.640625 -0.546875 -2.0 -0.546875l-1.25 0l0 4.5z" fill-rule="nonzero"></path><path fill="#cfe2f3" d="m29.999344 83.665924l0 0c0 -9.393188 16.745255 -17.007874 37.401573 -17.007874l0 0c20.656319 0 37.401573 7.614685 37.401573 17.007874l0 0c0 9.393188 -16.745255 17.007874 -37.401573 17.007874l0 0c-20.656319 0 -37.401573 -7.614685 -37.401573 -17.007874z" fill-rule="evenodd"></path><path stroke="#000000" stroke-width="1.0" stroke-linejoin="round" stroke-linecap="butt" d="m29.999344 83.665924l0 0c0 -9.393188 16.745255 -17.007874 37.401573 -17.007874l0 0c20.656319 0 37.401573 7.614685 37.401573 17.007874l0 0c0 9.393188 -16.745255 17.007874 -37.401573 17.007874l0 0c-20.656319 0 -37.401573 -7.614685 -37.401573 -17.007874z" fill-rule="evenodd"></path><path fill="#000000" d="m61.50152 87.40592l-0.96875 0l0 -3.546875l-3.46875 0l0 3.546875l-0.96875 0l0 -7.609375l0.96875 0l0 3.203125l3.46875 0l0 -3.203125l0.96875 0l0 7.609375zm4.284363 0l-0.96875 0l0 -6.75l-2.171875 0l0 -0.859375l5.3125 0l0 0.859375l-2.171875 0l0 6.75zm5.5310516 0l-0.96875 0l0 -6.75l-2.171875 0l0 -0.859375l5.3125 0l0 0.859375l-2.171875 0l0 6.75zm7.8748016 -5.375q0 0.46875 -0.140625 0.90625q-0.140625 0.4375 -0.46875 0.78125q-0.328125 0.328125 -0.875 0.53125q-0.53125 0.203125 -1.328125 0.203125l-0.78125 0l0 2.953125l-0.96875 0l0 -7.609375l1.890625 0q0.6875 0 1.1875 0.15625q0.515625 0.140625 0.84375 0.421875q0.328125 0.28125 0.484375 0.703125q0.15625 0.421875 0.15625 0.953125zm-3.59375 1.59375l0.671875 0q0.484375 0 0.84375 -0.078125q0.359375 -0.09375 0.59375 -0.265625q0.25 -0.1875 0.359375 -0.484375q0.125 -0.296875 0.125 -0.71875q0 -0.734375 -0.4375 -1.09375q-0.421875 -0.359375 -1.328125 -0.359375l-0.828125 0l0 3.0z" fill-rule="nonzero"></path><path fill="#cfe2f3" d="m80.770996 124.34703l0 0c0 -3.6529083 3.6874847 -6.614174 8.236221 -6.614174l0 0c4.5487366 0 8.236221 2.9612656 8.236221 6.614174l0 0c0 3.6529007 -3.6874847 6.6141663 -8.236221 6.6141663l0 0c-4.5487366 0 -8.236221 -2.9612656 -8.236221 -6.6141663z" fill-rule="evenodd"></path><path stroke="#000000" stroke-width="1.0" stroke-linejoin="round" stroke-linecap="butt" d="m80.770996 124.34703l0 0c0 -3.6529083 3.6874847 -6.614174 8.236221 -6.614174l0 0c4.5487366 0 8.236221 2.9612656 8.236221 6.614174l0 0c0 3.6529007 -3.6874847 6.6141663 -8.236221 6.6141663l0 0c-4.5487366 0 -8.236221 -2.9612656 -8.236221 -6.6141663z" fill-rule="evenodd"></path><path fill="#000000" fill-opacity="0.0" d="m67.40092 100.6738l15.779526 18.992126" fill-rule="evenodd"></path><path stroke="#000000" stroke-width="1.0" stroke-linejoin="round" stroke-linecap="butt" d="m67.40092 100.6738l15.779526 18.992126" fill-rule="evenodd"></path><path fill="#000000" fill-opacity="0.0" d="m11.298556 209.99138l125.79527 0l0 40.850403l-125.79527 0z" fill-rule="evenodd"></path><path stroke="#000000" stroke-width="1.0" stroke-linejoin="round" stroke-linecap="butt" d="m11.298556 209.99138l125.79527 0l0 40.850403l-125.79527 0z" fill-rule="evenodd"></path><path fill="#000000" d="m53.672756 228.19846q0 0.703125 -0.21875 1.359375q-0.21875 0.65625 -0.71875 1.171875q-0.484375 0.5 -1.296875 0.796875q-0.796875 0.296875 -1.984375 0.296875l-1.171875 0l0 4.453125l-1.453125 0l0 -11.421875l2.828125 0q1.046875 0 1.796875 0.21875q0.765625 0.21875 1.25 0.65625q0.5 0.421875 0.734375 1.046875q0.234375 0.625 0.234375 1.421875zm-5.390625 2.390625l1.0 0q0.734375 0 1.265625 -0.125q0.546875 -0.125 0.90625 -0.390625q0.359375 -0.28125 0.53125 -0.71875q0.1875 -0.453125 0.1875 -1.078125q0 -1.109375 -0.640625 -1.640625q-0.640625 -0.546875 -2.0 -0.546875l-1.25 0l0 4.5zm12.921875 5.6875l0 -5.53125q0 -1.015625 -0.40625 -1.515625q-0.40625 -0.515625 -1.28125 -0.515625q-0.640625 0 -1.078125 0.203125q-0.421875 0.203125 -0.6875 0.609375q-0.25 0.390625 -0.375 0.96875q-0.109375 0.578125 -0.109375 1.328125l0 4.453125l-1.421875 0l0 -12.15625l1.421875 0l0 3.609375l-0.0625 1.125l0.078125 0q0.203125 -0.34375 0.46875 -0.578125q0.265625 -0.25 0.578125 -0.40625q0.328125 -0.171875 0.6875 -0.25q0.359375 -0.078125 0.734375 -0.078125q1.4375 0 2.15625 0.75q0.71875 0.734375 0.71875 2.375l0 5.609375l-1.421875 0zm2.78125 -8.578125l1.4843712 0l1.671875 4.78125q0.109375 0.3125 0.21875 0.65625q0.125 0.34375 0.21875 0.6875q0.09375 0.34375 0.15625 0.671875q0.078125 0.3125 0.109375 0.59375l0.046875 0q0.046875 -0.203125 0.125 -0.53125q0.09375 -0.34375 0.1875 -0.71875q0.109375 -0.375 0.21875 -0.734375q0.125 -0.375 0.203125 -0.640625l1.5625 -4.765625l1.46875 0l-3.390625 9.703125q-0.21875 0.625 -0.484375 1.125q-0.25 0.515625 -0.59375 0.859375q-0.328125 0.359375 -0.78125 0.546875q-0.453125 0.1875 -1.078125 0.1875q-0.40625 0 -0.703125 -0.046875q-0.296875 -0.03125 -0.5 -0.078125l0 -1.140625q0.15625 0.046875 0.40625 0.0625q0.25 0.03125 0.53125 0.03125q0.375 0 0.640625 -0.09375q0.28125 -0.078125 0.484375 -0.25q0.203125 -0.171875 0.34375 -0.421875q0.140625 -0.25 0.265625 -0.578125l0.4375 -1.25l-3.2499962 -8.65625zm14.242184 6.21875q0 0.625 -0.234375 1.09375q-0.21875 0.46875 -0.65625 0.796875q-0.421875 0.3125 -1.03125 0.46875q-0.59375 0.15625 -1.34375 0.15625q-0.84375 0 -1.453125 -0.140625q-0.609375 -0.140625 -1.078125 -0.40625l0 -1.296875q0.25 0.125 0.546875 0.25q0.296875 0.125 0.625 0.21875q0.328125 0.09375 0.671875 0.15625q0.34375 0.046875 0.6875 0.046875q0.515625 0 0.859375 -0.078125q0.359375 -0.09375 0.578125 -0.25q0.234375 -0.15625 0.328125 -0.390625q0.109375 -0.234375 0.109375 -0.515625q0 -0.234375 -0.078125 -0.421875q-0.078125 -0.203125 -0.296875 -0.390625q-0.203125 -0.203125 -0.5625 -0.390625q-0.359375 -0.203125 -0.921875 -0.4375q-0.5625 -0.25 -1.015625 -0.484375q-0.4375 -0.234375 -0.75 -0.515625q-0.3125 -0.296875 -0.484375 -0.671875q-0.171875 -0.375 -0.171875 -0.90625q0 -0.546875 0.21875 -0.96875q0.21875 -0.421875 0.609375 -0.703125q0.390625 -0.296875 0.9375 -0.4375q0.546875 -0.15625 1.21875 -0.15625q0.75 0 1.375 0.171875q0.640625 0.15625 1.203125 0.421875l-0.5 1.140625q-0.5 -0.21875 -1.046875 -0.390625q-0.53125 -0.171875 -1.078125 -0.171875q-0.796875 0 -1.1875 0.265625q-0.375 0.265625 -0.375 0.75q0 0.265625 0.078125 0.46875q0.09375 0.203125 0.3125 0.390625q0.21875 0.171875 0.578125 0.359375q0.375 0.1875 0.921875 0.40625q0.5625 0.234375 1.0 0.46875q0.453125 0.234375 0.765625 0.53125q0.3125 0.296875 0.46875 0.671875q0.171875 0.375 0.171875 0.890625zm3.5 2.359375l-1.421875 0l0 -8.578125l1.421875 0l0 8.578125zm-1.53125 -10.90625q0 -0.46875 0.234375 -0.671875q0.25 -0.21875 0.59375 -0.21875q0.171875 0 0.328125 0.0625q0.15625 0.046875 0.265625 0.15625q0.109375 0.109375 0.171875 0.28125q0.078125 0.15625 0.078125 0.390625q0 0.453125 -0.25 0.6875q-0.25 0.21875 -0.59375 0.21875q-0.34375 0 -0.59375 -0.21875q-0.234375 -0.21875 -0.234375 -0.6875zm7.53125 11.0625q-0.78125 0 -1.46875 -0.25q-0.6875 -0.25 -1.203125 -0.78125q-0.5 -0.53125 -0.796875 -1.359375q-0.28125 -0.84375 -0.28125 -2.015625q0 -1.21875 0.296875 -2.078125q0.296875 -0.859375 0.8125 -1.390625q0.515625 -0.53125 1.203125 -0.765625q0.703125 -0.25 1.5 -0.25q0.609375 0 1.1875 0.140625q0.59375 0.125 0.984375 0.3125l-0.421875 1.203125q-0.1875 -0.078125 -0.40625 -0.140625q-0.21875 -0.078125 -0.453125 -0.140625q-0.234375 -0.0625 -0.46875 -0.09375q-0.21875 -0.03125 -0.421875 -0.03125q-1.21875 0 -1.78125 0.78125q-0.5625 0.78125 -0.5625 2.4375q0 1.65625 0.5625 2.421875q0.5625 0.75 1.71875 0.75q0.640625 0 1.140625 -0.140625q0.515625 -0.140625 0.9375 -0.34375l0 1.265625q-0.421875 0.234375 -0.90625 0.34375q-0.46875 0.125 -1.171875 0.125zm8.96875 -0.15625l-0.296875 -1.1875l-0.0625 0q-0.25 0.34375 -0.515625 0.609375q-0.25 0.25 -0.5625 0.421875q-0.296875 0.15625 -0.671875 0.234375q-0.375 0.078125 -0.875 0.078125q-0.53125 0 -0.984375 -0.15625q-0.453125 -0.15625 -0.796875 -0.46875q-0.328125 -0.3125 -0.515625 -0.796875q-0.1875 -0.484375 -0.1875 -1.140625q0 -1.28125 0.90625 -1.96875q0.90625 -0.6875 2.75 -0.75l1.4375 -0.046875l0 -0.546875q0 -0.515625 -0.125 -0.859375q-0.109375 -0.359375 -0.328125 -0.578125q-0.203125 -0.21875 -0.53125 -0.3125q-0.3125 -0.09375 -0.71875 -0.09375q-0.640625 0 -1.203125 0.1875q-0.5625 0.1875 -1.078125 0.453125l-0.5 -1.0625q0.578125 -0.3125 1.28125 -0.53125q0.71875 -0.21875 1.5 -0.21875q0.796875 0 1.375 0.15625q0.59375 0.15625 0.96875 0.515625q0.375 0.34375 0.5625 0.890625q0.1875 0.53125 0.1875 1.296875l0 5.875l-1.015625 0zm-2.609375 -1.0q0.46875 0 0.875 -0.140625q0.40625 -0.15625 0.703125 -0.453125q0.296875 -0.296875 0.46875 -0.75q0.171875 -0.46875 0.171875 -1.078125l0 -0.78125l-1.125 0.0625q-0.703125 0.03125 -1.1875 0.15625q-0.46875 0.125 -0.75 0.34375q-0.28125 0.21875 -0.40625 0.546875q-0.125 0.3125 -0.125 0.703125q0 0.71875 0.375 1.0625q0.375 0.328125 1.0 0.328125zm7.6796875 1.0l-1.421875 0l0 -12.15625l1.421875 0l0 12.15625z" fill-rule="nonzero"></path><path fill="#000000" fill-opacity="0.0" d="m4.4967194 10.716227l139.40158 0l0 27.999998l-139.40158 0z" fill-rule="evenodd"></path><path fill="#000000" d="m59.291256 26.232475q-0.78125 0 -1.46875 -0.25q-0.6875 -0.25 -1.203125 -0.78125q-0.5 -0.53125 -0.796875 -1.359375q-0.28125 -0.84375 -0.28125 -2.015625q0 -1.21875 0.296875 -2.078125q0.296875 -0.859375 0.8125 -1.390625q0.515625 -0.53125 1.203125 -0.765625q0.703125 -0.25 1.5 -0.25q0.609375 0 1.1875 0.140625q0.59375 0.125 0.984375 0.3125l-0.421875 1.203125q-0.1875 -0.078125 -0.40625 -0.140625q-0.21875 -0.078125 -0.453125 -0.140625q-0.234375 -0.0625 -0.46875 -0.09375q-0.21875 -0.03125 -0.421875 -0.03125q-1.21875 0 -1.78125 0.78125q-0.5625 0.78125 -0.5625 2.4375q0 1.65625 0.5625 2.421875q0.5625 0.75 1.71875 0.75q0.640625 0 1.140625 -0.140625q0.515625 -0.140625 0.9375 -0.34375l0 1.265625q-0.421875 0.234375 -0.90625 0.34375q-0.46875 0.125 -1.171875 0.125zm5.546871 -0.15625l-1.4218712 0l0 -12.156249l1.4218712 0l0 12.156249zm4.1406326 0l-1.4218826 0l0 -8.578125l1.4218826 0l0 8.578125zm-1.5312576 -10.906249q0 -0.46875 0.234375 -0.671875q0.25 -0.21875 0.59375 -0.21875q0.171875 0 0.32813263 0.0625q0.15625 0.046875 0.265625 0.15625q0.109375 0.109375 0.171875 0.28125q0.078125 0.15625 0.078125 0.390625q0 0.453125 -0.25 0.6875q-0.25 0.21874905 -0.5937576 0.21874905q-0.34375 0 -0.59375 -0.21874905q-0.234375 -0.21875 -0.234375 -0.6875zm7.6406326 11.062499q-0.859375 0 -1.578125 -0.28125q-0.703125 -0.296875 -1.21875 -0.84375q-0.5 -0.5625 -0.78125 -1.375q-0.28125 -0.828125 -0.28125 -1.890625q0 -1.0625 0.25 -1.890625q0.265625 -0.84375 0.734375 -1.421875q0.46875 -0.578125 1.109375 -0.875q0.65625 -0.3125 1.453125 -0.3125q0.765625 0 1.375 0.28125q0.625 0.265625 1.046875 0.78125q0.4375 0.5 0.671875 1.203125q0.234375 0.703125 0.234375 1.5625l0 0.890625l-5.40625 0q0.03125 1.5 0.625 2.21875q0.609375 0.703125 1.78125 0.703125q0.40625 0 0.734375 -0.03125q0.34375 -0.046875 0.65625 -0.109375q0.328125 -0.078125 0.625 -0.1875q0.296875 -0.125 0.59375 -0.265625l0 1.265625q-0.3125 0.15625 -0.609375 0.265625q-0.296875 0.109375 -0.625 0.171875q-0.3125 0.078125 -0.65625 0.109375q-0.328125 0.03125 -0.734375 0.03125zm-0.34375 -7.71875q-0.890625 0 -1.421875 0.609375q-0.515625 0.609375 -0.59375 1.78125l3.84375 0q0 -0.53125 -0.109375 -0.96875q-0.109375 -0.453125 -0.328125 -0.765625q-0.21875 -0.3125 -0.5625 -0.484375q-0.34375 -0.171875 -0.828125 -0.171875zm10.875 7.5625l0 -5.53125q0 -1.015625 -0.40625 -1.515625q-0.40625 -0.515625 -1.28125 -0.515625q-0.640625 0 -1.078125 0.203125q-0.421875 0.203125 -0.6875 0.609375q-0.25 0.390625 -0.375 0.96875q-0.109375 0.578125 -0.109375 1.328125l0 4.453125l-1.421875 0l0 -8.578125l1.15625 0l0.203125 1.15625l0.078125 0q0.203125 -0.34375 0.46875 -0.578125q0.265625 -0.25 0.578125 -0.40625q0.328125 -0.171875 0.6875 -0.25q0.359375 -0.078125 0.734375 -0.078125q1.4375 0 2.15625 0.75q0.71875 0.734375 0.71875 2.375l0 5.609375l-1.421875 0zm6.65625 -1.015625q0.140625 0 0.3125 -0.015625q0.1875 -0.015625 0.34375 -0.03125q0.171875 -0.03125 0.296875 -0.0625q0.140625 -0.03125 0.21875 -0.046875l0 1.078125q-0.109375 0.046875 -0.265625 0.09375q-0.15625 0.046875 -0.34375 0.078125q-0.1875 0.046875 -0.390625 0.0625q-0.203125 0.015625 -0.390625 0.015625q-0.484375 0 -0.90625 -0.125q-0.40625 -0.125 -0.71875 -0.421875q-0.296875 -0.3125 -0.46875 -0.828125q-0.171875 -0.53125 -0.171875 -1.3125l0 -4.984375l-1.203125 0l0 -0.625l1.203125 -0.609375l0.609375 -1.796874l0.828125 0l0 1.968749l2.15625 0l0 1.0625l-2.15625 0l0 4.984375q0 0.75 0.234375 1.140625q0.25 0.375 0.8125 0.375z" fill-rule="nonzero"></path><path fill="#000000" fill-opacity="0.0" d="m560.4954 29.497946l136.0 0l0 262.67715l-136.0 0z" fill-rule="evenodd"></path><path fill="#000000" fill-opacity="0.0" d="m560.4954 40.007675l125.79529 0l0 210.83464l-125.79529 0z" fill-rule="evenodd"></path><path stroke="#000000" stroke-width="1.0" stroke-linejoin="round" stroke-linecap="butt" d="m560.4954 40.007675l125.79529 0l0 210.83464l-125.79529 0z" fill-rule="evenodd"></path><path fill="#000000" fill-opacity="0.0" d="m560.4954 40.007133l125.79529 0l0 83.30708l-125.79529 0z" fill-rule="evenodd"></path><path stroke="#000000" stroke-width="1.0" stroke-linejoin="round" stroke-linecap="butt" d="m560.4954 40.007133l125.79529 0l0 83.30708l-125.79529 0z" fill-rule="evenodd"></path><path fill="#000000" fill-opacity="0.0" d="m560.4954 123.31422l125.79529 0l0 43.338585l-125.79529 0z" fill-rule="evenodd"></path><path stroke="#000000" stroke-width="1.0" stroke-linejoin="round" stroke-linecap="butt" d="m560.4954 123.31422l125.79529 0l0 43.338585l-125.79529 0z" fill-rule="evenodd"></path><path fill="#000000" d="m614.69775 150.8435l-1.46875 0l0 -10.140625l-3.265625 0l0 -1.28125l7.984375 0l0 1.28125l-3.25 0l0 10.140625zm9.6171875 -10.3125q-0.84375 0 -1.53125 0.328125q-0.671875 0.3125 -1.15625 0.90625q-0.46875 0.59375 -0.734375 1.453125q-0.265625 0.84375 -0.265625 1.90625q0 1.109375 0.234375 1.96875q0.234375 0.84375 0.6875 1.4375q0.46875 0.578125 1.15625 0.890625q0.6875 0.296875 1.609375 0.296875q0.6875 0 1.3125 -0.125q0.625 -0.140625 1.234375 -0.328125l0 1.265625q-0.296875 0.125 -0.609375 0.21875q-0.296875 0.078125 -0.640625 0.140625q-0.328125 0.0625 -0.703125 0.078125q-0.375 0.03125 -0.84375 0.03125q-1.28125 0 -2.21875 -0.421875q-0.9375 -0.421875 -1.546875 -1.1875q-0.609375 -0.78125 -0.90625 -1.859375q-0.296875 -1.09375 -0.296875 -2.421875q0 -1.296875 0.328125 -2.375q0.34375 -1.078125 1.0 -1.84375q0.671875 -0.78125 1.640625 -1.203125q0.984375 -0.4375 2.25 -0.4375q0.84375 0 1.609375 0.171875q0.765625 0.171875 1.375 0.5l-0.609375 1.21875q-0.484375 -0.25 -1.0625 -0.421875q-0.578125 -0.1875 -1.3125 -0.1875zm11.8515625 2.234375q0 0.703125 -0.21875 1.359375q-0.21875 0.65625 -0.71875 1.171875q-0.484375 0.5 -1.296875 0.796875q-0.796875 0.296875 -1.984375 0.296875l-1.171875 0l0 4.453125l-1.453125 0l0 -11.421875l2.828125 0q1.046875 0 1.796875 0.21875q0.765625 0.21875 1.25 0.65625q0.5 0.421875 0.734375 1.046875q0.234375 0.625 0.234375 1.421875zm-5.390625 2.390625l1.0 0q0.734375 0 1.265625 -0.125q0.546875 -0.125 0.90625 -0.390625q0.359375 -0.28125 0.53125 -0.71875q0.1875 -0.453125 0.1875 -1.078125q0 -1.109375 -0.640625 -1.640625q-0.640625 -0.546875 -2.0 -0.546875l-1.25 0l0 4.5z" fill-rule="nonzero"></path><path fill="#000000" fill-opacity="0.0" d="m560.4954 166.6528l125.79529 0l0 43.338577l-125.79529 0z" fill-rule="evenodd"></path><path stroke="#000000" stroke-width="1.0" stroke-linejoin="round" stroke-linecap="butt" d="m560.4954 166.6528l125.79529 0l0 43.338577l-125.79529 0z" fill-rule="evenodd"></path><path fill="#000000" d="m620.854 194.1821l-4.140625 0l0 -0.796875l1.34375 -0.328125l0 -9.1875l-1.34375 -0.3125l0 -0.796875l4.140625 0l0 0.796875l-1.34375 0.3125l0 9.1875l1.34375 0.328125l0 0.796875zm9.046875 -8.078125q0 0.703125 -0.21875 1.359375q-0.21875 0.65625 -0.71875 1.171875q-0.484375 0.5 -1.296875 0.796875q-0.796875 0.296875 -1.984375 0.296875l-1.171875 0l0 4.453125l-1.453125 0l0 -11.421875l2.828125 0q1.046875 0 1.796875 0.21875q0.765625 0.21875 1.25 0.65625q0.5 0.421875 0.734375 1.046875q0.234375 0.625 0.234375 1.421875zm-5.390625 2.390625l1.0 0q0.734375 0 1.265625 -0.125q0.546875 -0.125 0.90625 -0.390625q0.359375 -0.28125 0.53125 -0.71875q0.1875 -0.453125 0.1875 -1.078125q0 -1.109375 -0.640625 -1.640625q-0.640625 -0.546875 -2.0 -0.546875l-1.25 0l0 4.5z" fill-rule="nonzero"></path><path fill="#cfe2f3" d="m579.19617 79.655426l0 0c0 -9.393188 16.7453 -17.007874 37.40161 -17.007874l0 0c20.656311 0 37.40155 7.614685 37.40155 17.007874l0 0c0 9.393188 -16.74524 17.007874 -37.40155 17.007874l0 0c-20.656311 0 -37.40161 -7.614685 -37.40161 -17.007874z" fill-rule="evenodd"></path><path stroke="#000000" stroke-width="1.0" stroke-linejoin="round" stroke-linecap="butt" d="m579.19617 79.655426l0 0c0 -9.393188 16.7453 -17.007874 37.40161 -17.007874l0 0c20.656311 0 37.40155 7.614685 37.40155 17.007874l0 0c0 9.393188 -16.74524 17.007874 -37.40155 17.007874l0 0c-20.656311 0 -37.40161 -7.614685 -37.40161 -17.007874z" fill-rule="evenodd"></path><path fill="#000000" d="m610.69836 83.395424l-0.96875 0l0 -3.546875l-3.46875 0l0 3.546875l-0.96875 0l0 -7.609375l0.96875 0l0 3.203125l3.46875 0l0 -3.203125l0.96875 0l0 7.609375zm4.284363 0l-0.96875 0l0 -6.75l-2.171875 0l0 -0.859375l5.3125 0l0 0.859375l-2.171875 0l0 6.75zm5.531067 0l-0.96875 0l0 -6.75l-2.171875 0l0 -0.859375l5.3125 0l0 0.859375l-2.171875 0l0 6.75zm7.874817 -5.375q0 0.46875 -0.140625 0.90625q-0.140625 0.4375 -0.46875 0.78125q-0.328125 0.328125 -0.875 0.53125q-0.53125 0.203125 -1.328125 0.203125l-0.78125 0l0 2.953125l-0.96875 0l0 -7.609375l1.890625 0q0.6875 0 1.1875 0.15625q0.515625 0.140625 0.84375 0.421875q0.328125 0.28125 0.484375 0.703125q0.15625 0.421875 0.15625 0.953125zm-3.59375 1.59375l0.671875 0q0.484375 0 0.84375 -0.078125q0.359375 -0.09375 0.59375 -0.265625q0.25 -0.1875 0.359375 -0.484375q0.125 -0.296875 0.125 -0.71875q0 -0.734375 -0.4375 -1.09375q-0.421875 -0.359375 -1.328125 -0.359375l-0.828125 0l0 3.0z" fill-rule="nonzero"></path><path fill="#cfe2f3" d="m597.4954 122.34047l0 0c0 -3.6529083 3.687439 -6.614174 8.236206 -6.614174l0 0c4.548767 0 8.236206 2.9612656 8.236206 6.614174l0 0c0 3.6529007 -3.687439 6.6141663 -8.236206 6.6141663l0 0c-4.548767 0 -8.236206 -2.9612656 -8.236206 -6.6141663z" fill-rule="evenodd"></path><path stroke="#000000" stroke-width="1.0" stroke-linejoin="round" stroke-linecap="butt" d="m597.4954 122.34047l0 0c0 -3.6529083 3.687439 -6.614174 8.236206 -6.614174l0 0c4.548767 0 8.236206 2.9612656 8.236206 6.614174l0 0c0 3.6529007 -3.687439 6.6141663 -8.236206 6.6141663l0 0c-4.548767 0 -8.236206 -2.9612656 -8.236206 -6.6141663z" fill-rule="evenodd"></path><path fill="#000000" fill-opacity="0.0" d="m560.4954 209.99138l125.79529 0l0 40.850403l-125.79529 0z" fill-rule="evenodd"></path><path stroke="#000000" stroke-width="1.0" stroke-linejoin="round" stroke-linecap="butt" d="m560.4954 209.99138l125.79529 0l0 40.850403l-125.79529 0z" fill-rule="evenodd"></path><path fill="#000000" d="m602.8696 228.19846q0 0.703125 -0.21875 1.359375q-0.21875 0.65625 -0.71875 1.171875q-0.484375 0.5 -1.296875 0.796875q-0.796875 0.296875 -1.984375 0.296875l-1.171875 0l0 4.453125l-1.453125 0l0 -11.421875l2.828125 0q1.046875 0 1.796875 0.21875q0.765625 0.21875 1.25 0.65625q0.5 0.421875 0.734375 1.046875q0.234375 0.625 0.234375 1.421875zm-5.390625 2.390625l1.0 0q0.734375 0 1.265625 -0.125q0.546875 -0.125 0.90625 -0.390625q0.359375 -0.28125 0.53125 -0.71875q0.1875 -0.453125 0.1875 -1.078125q0 -1.109375 -0.640625 -1.640625q-0.640625 -0.546875 -2.0 -0.546875l-1.25 0l0 4.5zm12.921875 5.6875l0 -5.53125q0 -1.015625 -0.40625 -1.515625q-0.40625 -0.515625 -1.28125 -0.515625q-0.640625 0 -1.078125 0.203125q-0.421875 0.203125 -0.6875 0.609375q-0.25 0.390625 -0.375 0.96875q-0.109375 0.578125 -0.109375 1.328125l0 4.453125l-1.421875 0l0 -12.15625l1.421875 0l0 3.609375l-0.0625 1.125l0.078125 0q0.203125 -0.34375 0.46875 -0.578125q0.265625 -0.25 0.578125 -0.40625q0.328125 -0.171875 0.6875 -0.25q0.359375 -0.078125 0.734375 -0.078125q1.4375 0 2.15625 0.75q0.71875 0.734375 0.71875 2.375l0 5.609375l-1.421875 0zm2.78125 -8.578125l1.484375 0l1.671875 4.78125q0.109375 0.3125 0.21875 0.65625q0.125 0.34375 0.21875 0.6875q0.09375 0.34375 0.15625 0.671875q0.078125 0.3125 0.109375 0.59375l0.046875 0q0.046875 -0.203125 0.125 -0.53125q0.09375 -0.34375 0.1875 -0.71875q0.109375 -0.375 0.21875 -0.734375q0.125 -0.375 0.203125 -0.640625l1.5625 -4.765625l1.46875 0l-3.390625 9.703125q-0.21875 0.625 -0.484375 1.125q-0.25 0.515625 -0.59375 0.859375q-0.328125 0.359375 -0.78125 0.546875q-0.453125 0.1875 -1.078125 0.1875q-0.40625 0 -0.703125 -0.046875q-0.296875 -0.03125 -0.5 -0.078125l0 -1.140625q0.15625 0.046875 0.40625 0.0625q0.25 0.03125 0.53125 0.03125q0.375 0 0.640625 -0.09375q0.28125 -0.078125 0.484375 -0.25q0.203125 -0.171875 0.34375 -0.421875q0.140625 -0.25 0.265625 -0.578125l0.4375 -1.25l-3.25 -8.65625zm14.2421875 6.21875q0 0.625 -0.234375 1.09375q-0.21875 0.46875 -0.65625 0.796875q-0.421875 0.3125 -1.03125 0.46875q-0.59375 0.15625 -1.34375 0.15625q-0.84375 0 -1.453125 -0.140625q-0.609375 -0.140625 -1.078125 -0.40625l0 -1.296875q0.25 0.125 0.546875 0.25q0.296875 0.125 0.625 0.21875q0.328125 0.09375 0.671875 0.15625q0.34375 0.046875 0.6875 0.046875q0.515625 0 0.859375 -0.078125q0.359375 -0.09375 0.578125 -0.25q0.234375 -0.15625 0.328125 -0.390625q0.109375 -0.234375 0.109375 -0.515625q0 -0.234375 -0.078125 -0.421875q-0.078125 -0.203125 -0.296875 -0.390625q-0.203125 -0.203125 -0.5625 -0.390625q-0.359375 -0.203125 -0.921875 -0.4375q-0.5625 -0.25 -1.015625 -0.484375q-0.4375 -0.234375 -0.75 -0.515625q-0.3125 -0.296875 -0.484375 -0.671875q-0.171875 -0.375 -0.171875 -0.90625q0 -0.546875 0.21875 -0.96875q0.21875 -0.421875 0.609375 -0.703125q0.390625 -0.296875 0.9375 -0.4375q0.546875 -0.15625 1.21875 -0.15625q0.75 0 1.375 0.171875q0.640625 0.15625 1.203125 0.421875l-0.5 1.140625q-0.5 -0.21875 -1.046875 -0.390625q-0.53125 -0.171875 -1.078125 -0.171875q-0.796875 0 -1.1875 0.265625q-0.375 0.265625 -0.375 0.75q0 0.265625 0.078125 0.46875q0.09375 0.203125 0.3125 0.390625q0.21875 0.171875 0.578125 0.359375q0.375 0.1875 0.921875 0.40625q0.5625 0.234375 1.0 0.46875q0.453125 0.234375 0.765625 0.53125q0.3125 0.296875 0.46875 0.671875q0.171875 0.375 0.171875 0.890625zm3.5 2.359375l-1.421875 0l0 -8.578125l1.421875 0l0 8.578125zm-1.53125 -10.90625q0 -0.46875 0.234375 -0.671875q0.25 -0.21875 0.59375 -0.21875q0.171875 0 0.328125 0.0625q0.15625 0.046875 0.265625 0.15625q0.109375 0.109375 0.171875 0.28125q0.078125 0.15625 0.078125 0.390625q0 0.453125 -0.25 0.6875q-0.25 0.21875 -0.59375 0.21875q-0.34375 0 -0.59375 -0.21875q-0.234375 -0.21875 -0.234375 -0.6875zm7.53125 11.0625q-0.78125 0 -1.46875 -0.25q-0.6875 -0.25 -1.203125 -0.78125q-0.5 -0.53125 -0.796875 -1.359375q-0.28125 -0.84375 -0.28125 -2.015625q0 -1.21875 0.296875 -2.078125q0.296875 -0.859375 0.8125 -1.390625q0.515625 -0.53125 1.203125 -0.765625q0.703125 -0.25 1.5 -0.25q0.609375 0 1.1875 0.140625q0.59375 0.125 0.984375 0.3125l-0.421875 1.203125q-0.1875 -0.078125 -0.40625 -0.140625q-0.21875 -0.078125 -0.453125 -0.140625q-0.234375 -0.0625 -0.46875 -0.09375q-0.21875 -0.03125 -0.421875 -0.03125q-1.21875 0 -1.78125 0.78125q-0.5625 0.78125 -0.5625 2.4375q0 1.65625 0.5625 2.421875q0.5625 0.75 1.71875 0.75q0.640625 0 1.140625 -0.140625q0.515625 -0.140625 0.9375 -0.34375l0 1.265625q-0.421875 0.234375 -0.90625 0.34375q-0.46875 0.125 -1.171875 0.125zm8.96875 -0.15625l-0.296875 -1.1875l-0.0625 0q-0.25 0.34375 -0.515625 0.609375q-0.25 0.25 -0.5625 0.421875q-0.296875 0.15625 -0.671875 0.234375q-0.375 0.078125 -0.875 0.078125q-0.53125 0 -0.984375 -0.15625q-0.453125 -0.15625 -0.796875 -0.46875q-0.328125 -0.3125 -0.515625 -0.796875q-0.1875 -0.484375 -0.1875 -1.140625q0 -1.28125 0.90625 -1.96875q0.90625 -0.6875 2.75 -0.75l1.4375 -0.046875l0 -0.546875q0 -0.515625 -0.125 -0.859375q-0.109375 -0.359375 -0.328125 -0.578125q-0.203125 -0.21875 -0.53125 -0.3125q-0.3125 -0.09375 -0.71875 -0.09375q-0.640625 0 -1.203125 0.1875q-0.5625 0.1875 -1.078125 0.453125l-0.5 -1.0625q0.578125 -0.3125 1.28125 -0.53125q0.71875 -0.21875 1.5 -0.21875q0.796875 0 1.375 0.15625q0.59375 0.15625 0.96875 0.515625q0.375 0.34375 0.5625 0.890625q0.1875 0.53125 0.1875 1.296875l0 5.875l-1.015625 0zm-2.609375 -1.0q0.46875 0 0.875 -0.140625q0.40625 -0.15625 0.703125 -0.453125q0.296875 -0.296875 0.46875 -0.75q0.171875 -0.46875 0.171875 -1.078125l0 -0.78125l-1.125 0.0625q-0.703125 0.03125 -1.1875 0.15625q-0.46875 0.125 -0.75 0.34375q-0.28125 0.21875 -0.40625 0.546875q-0.125 0.3125 -0.125 0.703125q0 0.71875 0.375 1.0625q0.375 0.328125 1.0 0.328125zm7.6796875 1.0l-1.421875 0l0 -12.15625l1.421875 0l0 12.15625z" fill-rule="nonzero"></path><path fill="#000000" fill-opacity="0.0" d="m553.69354 10.703103l139.40161 0l0 28.0l-139.40161 0z" fill-rule="evenodd"></path><path fill="#000000" d="m607.5076 23.703728q0 0.625 -0.234375 1.09375q-0.21875 0.46875 -0.65625 0.796875q-0.421875 0.3125 -1.03125 0.46875q-0.59375 0.15625 -1.34375 0.15625q-0.84375 0 -1.453125 -0.140625q-0.609375 -0.140625 -1.078125 -0.40625l0 -1.296875q0.25 0.125 0.546875 0.25q0.296875 0.125 0.625 0.21875q0.328125 0.09375 0.671875 0.15625q0.34375 0.046875 0.6875 0.046875q0.515625 0 0.859375 -0.078125q0.359375 -0.09375 0.578125 -0.25q0.234375 -0.15625 0.328125 -0.390625q0.109375 -0.234375 0.109375 -0.515625q0 -0.234375 -0.078125 -0.421875q-0.078125 -0.203125 -0.296875 -0.390625q-0.203125 -0.203125 -0.5625 -0.390625q-0.359375 -0.203125 -0.921875 -0.4375q-0.5625 -0.25 -1.015625 -0.484375q-0.4375 -0.234375 -0.75 -0.515625q-0.3125 -0.296875 -0.484375 -0.671875q-0.171875 -0.375 -0.171875 -0.90625q0 -0.546875 0.21875 -0.96875q0.21875 -0.421875 0.609375 -0.703125q0.390625 -0.296875 0.9375 -0.4375q0.546875 -0.15625 1.21875 -0.15625q0.75 0 1.375 0.171875q0.640625 0.15625 1.203125 0.421875l-0.5 1.140625q-0.5 -0.21875 -1.046875 -0.390625q-0.53125 -0.171875 -1.078125 -0.171875q-0.796875 0 -1.1875 0.265625q-0.375 0.265625 -0.375 0.75q0 0.265625 0.078125 0.46875q0.09375 0.203125 0.3125 0.390625q0.21875 0.171875 0.578125 0.359375q0.375 0.1875 0.921875 0.40625q0.5625 0.234375 1.0 0.46875q0.453125 0.234375 0.765625 0.53125q0.3125 0.296875 0.46875 0.671875q0.171875 0.375 0.171875 0.890625zm5.46875 2.515625q-0.859375 0 -1.578125 -0.28125q-0.703125 -0.296875 -1.21875 -0.84375q-0.5 -0.5625 -0.78125 -1.375q-0.28125 -0.828125 -0.28125 -1.890625q0 -1.0625 0.25 -1.890625q0.265625 -0.84375 0.734375 -1.421875q0.46875 -0.578125 1.109375 -0.875q0.65625 -0.3125 1.453125 -0.3125q0.765625 0 1.375 0.28125q0.625 0.265625 1.046875 0.78125q0.4375 0.5 0.671875 1.203125q0.234375 0.703125 0.234375 1.5625l0 0.890625l-5.40625 0q0.03125 1.5 0.625 2.21875q0.609375 0.703125 1.78125 0.703125q0.40625 0 0.734375 -0.03125q0.34375 -0.046875 0.65625 -0.109375q0.328125 -0.078125 0.625 -0.1875q0.296875 -0.125 0.59375 -0.265625l0 1.265625q-0.3125 0.15625 -0.609375 0.265625q-0.296875 0.109375 -0.625 0.171875q-0.3125 0.078125 -0.65625 0.109375q-0.328125 0.03125 -0.734375 0.03125zm-0.34375 -7.71875q-0.890625 0 -1.421875 0.609375q-0.515625 0.609375 -0.59375 1.78125l3.84375 0q0 -0.53125 -0.109375 -0.96875q-0.109375 -0.453125 -0.328125 -0.765625q-0.21875 -0.3125 -0.5625 -0.484375q-0.34375 -0.171875 -0.828125 -0.171875zm9.234375 -1.171875q0.21875 0 0.5 0.015625q0.28125 0.015625 0.484375 0.0625l-0.1875 1.3125q-0.21875 -0.046875 -0.453125 -0.0625q-0.21875 -0.03125 -0.421875 -0.03125q-0.5 0 -0.90625 0.203125q-0.40625 0.1875 -0.703125 0.5625q-0.28125 0.375 -0.453125 0.890625q-0.15625 0.515625 -0.15625 1.15625l0 4.625l-1.421875 0l0 -8.578125l1.15625 0l0.171875 1.5625l0.0625 0q0.203125 -0.328125 0.421875 -0.640625q0.21875 -0.3125 0.5 -0.546875q0.28125 -0.25 0.625 -0.390625q0.34375 -0.140625 0.78125 -0.140625zm4.2421875 8.734375l-2.9375 -8.578125l1.46875 0l1.5625 4.765625q0.078125 0.265625 0.1875 0.671875q0.125 0.40625 0.234375 0.828125q0.125 0.421875 0.21875 0.796875q0.109375 0.375 0.140625 0.5625l0.046875 0q0.046875 -0.1875 0.140625 -0.5625q0.09375 -0.375 0.203125 -0.796875q0.125 -0.421875 0.234375 -0.828125q0.125 -0.40625 0.203125 -0.671875l1.5625 -4.765625l1.46875 0l-2.9375 8.578125l-1.796875 0zm9.4765625 0.15625q-0.859375 0 -1.578125 -0.28125q-0.703125 -0.296875 -1.21875 -0.84375q-0.5 -0.5625 -0.78125 -1.375q-0.28125 -0.828125 -0.28125 -1.890625q0 -1.0625 0.25 -1.890625q0.265625 -0.84375 0.734375 -1.421875q0.46875 -0.578125 1.109375 -0.875q0.65625 -0.3125 1.453125 -0.3125q0.765625 0 1.375 0.28125q0.625 0.265625 1.046875 0.78125q0.4375 0.5 0.671875 1.203125q0.234375 0.703125 0.234375 1.5625l0 0.890625l-5.40625 0q0.03125 1.5 0.625 2.21875q0.609375 0.703125 1.78125 0.703125q0.40625 0 0.734375 -0.03125q0.34375 -0.046875 0.65625 -0.109375q0.328125 -0.078125 0.625 -0.1875q0.296875 -0.125 0.59375 -0.265625l0 1.265625q-0.3125 0.15625 -0.609375 0.265625q-0.296875 0.109375 -0.625 0.171875q-0.3125 0.078125 -0.65625 0.109375q-0.328125 0.03125 -0.734375 0.03125zm-0.34375 -7.71875q-0.890625 0 -1.421875 0.609375q-0.515625 0.609375 -0.59375 1.78125l3.84375 0q0 -0.53125 -0.109375 -0.96875q-0.109375 -0.453125 -0.328125 -0.765625q-0.21875 -0.3125 -0.5625 -0.484375q-0.34375 -0.171875 -0.828125 -0.171875zm9.234375 -1.171875q0.21875 0 0.5 0.015625q0.28125 0.015625 0.484375 0.0625l-0.1875 1.3125q-0.21875 -0.046875 -0.453125 -0.0625q-0.21875 -0.03125 -0.421875 -0.03125q-0.5 0 -0.90625 0.203125q-0.40625 0.1875 -0.703125 0.5625q-0.28125 0.375 -0.453125 0.890625q-0.15625 0.515625 -0.15625 1.15625l0 4.625l-1.421875 0l0 -8.578125l1.15625 0l0.171875 1.5625l0.0625 0q0.203125 -0.328125 0.421875 -0.640625q0.21875 -0.3125 0.5 -0.546875q0.28125 -0.25 0.625 -0.390625q0.34375 -0.140625 0.78125 -0.140625z" fill-rule="nonzero"></path><path fill="#000000" fill-opacity="0.0" d="m616.5978 96.6633l-10.86615 19.055122" fill-rule="evenodd"></path><path stroke="#000000" stroke-width="1.0" stroke-linejoin="round" stroke-linecap="butt" d="m616.5978 96.6633l-10.86615 19.055122" fill-rule="evenodd"></path><path fill="#000000" fill-opacity="0.0" d="m74.1962 250.84178l0 93.19685l166.92914 0" fill-rule="evenodd"></path><path stroke="#674ea7" stroke-width="2.0" stroke-linejoin="round" stroke-linecap="butt" d="m74.1962 250.84178l0 93.19685l166.92914 0" fill-rule="evenodd"></path><path fill="#000000" fill-opacity="0.0" d="m623.39307 250.84178l0 93.19685l-164.66144 0" fill-rule="evenodd"></path><path stroke="#674ea7" stroke-width="2.0" stroke-linejoin="round" stroke-linecap="butt" d="m623.39307 250.84178l0 93.19685l-164.66144 0" fill-rule="evenodd"></path><path fill="#cfe2f3" d="m260.16776 321.28485l0 0c-1.7614136 -10.970947 4.0216064 -21.831512 14.895111 -27.973175c10.873505 -6.1416626 24.930481 -6.487274 36.206085 -0.8902283l0 0c3.9941406 -6.3789673 11.304626 -10.783203 19.720123 -11.880493c8.415527 -1.0973206 16.947632 1.2411804 23.015564 6.308136l0 0c3.4024963 -5.7835693 10.083405 -9.669403 17.671936 -10.278595c7.5885315 -0.6091614 15.010742 2.1445007 19.632874 7.283905l0 0c6.1471252 -6.1305847 15.927368 -8.7118225 25.108734 -6.62677c9.1813965 2.085022 16.114868 8.4618225 17.800262 16.371124l0 0c7.5312805 1.7411194 13.804657 6.167267 17.19934 12.134857c3.3946838 5.96756 3.5776062 12.891205 0.5015259 18.982025l0 0c7.416107 8.180664 9.15094 19.081299 4.557068 28.633972c-4.5939026 9.552673 -14.826294 16.322205 -26.878662 17.782349c-0.08496094 8.965515 -5.886322 17.19217 -15.16803 21.509064c-9.281708 4.316864 -20.59439 4.0498657 -29.577606 -0.6980896c-3.8263855 10.737762 -14.596344 18.63852 -27.65689 20.288818c-13.060547 1.6503296 -26.070312 -3.2456665 -33.40857 -12.572662c-8.995178 4.5973206 -19.788666 5.9216614 -29.945618 3.6742554c-10.156982 -2.2473755 -18.821869 -7.8771667 -24.04007 -15.619385l0 0c-9.191956 0.9116516 -18.079285 -3.1246948 -22.251266 -10.1058655c-4.171982 -6.98114 -2.7404938 -15.420959 3.5840302 -21.130829l0 0c-8.199448 -4.0902405 -12.383316 -12.206696 -10.369858 -20.116913c2.0134735 -7.910187 9.76799 -13.821686 19.219894 -14.651886z" fill-rule="evenodd"></path><path fill="#000000" fill-opacity="0.0" d="m251.13602 356.4765l0 0c3.8693542 1.9302063 8.339355 2.8057861 12.809845 2.5091858m5.855377 28.72818c1.9224854 -0.19067383 3.8068542 -0.5944519 5.6045837 -1.2008972m48.378418 13.145508c-1.3521423 -1.7185669 -2.4842224 -3.5550232 -3.3769531 -5.4780884m64.44473 -2.2383728l0 0c0.69763184 -1.9576416 1.1495972 -3.9725037 1.3484497 -6.0109253m43.395508 -14.799286c0.0904541 -9.545197 -6.3061523 -18.284851 -16.442291 -22.465057m38.763702 -23.950256c-1.64151 3.2503357 -4.147461 6.1336365 -7.3213806 8.423859m-10.37796 -39.541595l0 0c0.2796631 1.312561 0.40911865 2.6448364 0.38650513 3.9783936m-43.2948 -13.722351l0 0c-1.5333862 1.5292664 -2.7967224 3.2382202 -3.7506104 5.0736084m-33.554535 -2.0795898l0 0c-0.8171692 1.3890381 -1.4273987 2.8588562 -1.8165894 4.375641m-40.91974 1.1968384l0 0c2.3858948 1.1843567 4.5932007 2.6098328 6.5733643 4.245117m-57.67389 24.618439l0 0c0.24276733 1.512085 0.6263428 3.0055237 1.1471558 4.466339" fill-rule="evenodd"></path><path stroke="#000000" stroke-width="1.0" stroke-linejoin="round" stroke-linecap="butt" d="m260.16776 321.28485l0 0c-1.7614136 -10.970947 4.0216064 -21.831512 14.895111 -27.973175c10.873505 -6.1416626 24.930481 -6.487274 36.206085 -0.8902283l0 0c3.9941406 -6.3789673 11.304626 -10.783203 19.720123 -11.880493c8.415527 -1.0973206 16.947632 1.2411804 23.015564 6.308136l0 0c3.4024963 -5.7835693 10.083405 -9.669403 17.671936 -10.278595c7.5885315 -0.6091614 15.010742 2.1445007 19.632874 7.283905l0 0c6.1471252 -6.1305847 15.927368 -8.7118225 25.108734 -6.62677c9.1813965 2.085022 16.114868 8.4618225 17.800262 16.371124l0 0c7.5312805 1.7411194 13.804657 6.167267 17.19934 12.134857c3.3946838 5.96756 3.5776062 12.891205 0.5015259 18.982025l0 0c7.416107 8.180664 9.15094 19.081299 4.557068 28.633972c-4.5939026 9.552673 -14.826294 16.322205 -26.878662 17.782349c-0.08496094 8.965515 -5.886322 17.19217 -15.16803 21.509064c-9.281708 4.316864 -20.59439 4.0498657 -29.577606 -0.6980896c-3.8263855 10.737762 -14.596344 18.63852 -27.65689 20.288818c-13.060547 1.6503296 -26.070312 -3.2456665 -33.40857 -12.572662c-8.995178 4.5973206 -19.788666 5.9216614 -29.945618 3.6742554c-10.156982 -2.2473755 -18.821869 -7.8771667 -24.04007 -15.619385l0 0c-9.191956 0.9116516 -18.079285 -3.1246948 -22.251266 -10.1058655c-4.171982 -6.98114 -2.7404938 -15.420959 3.5840302 -21.130829l0 0c-8.199448 -4.0902405 -12.383316 -12.206696 -10.369858 -20.116913c2.0134735 -7.910187 9.76799 -13.821686 19.219894 -14.651886z" fill-rule="evenodd"></path><path stroke="#000000" stroke-width="1.0" stroke-linejoin="round" stroke-linecap="butt" d="m251.13602 356.4765l0 0c3.8693542 1.9302063 8.339355 2.8057861 12.809845 2.5091858m5.855377 28.72818c1.9224854 -0.19067383 3.8068542 -0.5944519 5.6045837 -1.2008972m48.378418 13.145508c-1.3521423 -1.7185669 -2.4842224 -3.5550232 -3.3769531 -5.4780884m64.44473 -2.2383728l0 0c0.69763184 -1.9576416 1.1495972 -3.9725037 1.3484497 -6.0109253m43.395508 -14.799286c0.0904541 -9.545197 -6.3061523 -18.284851 -16.442291 -22.465057m38.763702 -23.950256c-1.64151 3.2503357 -4.147461 6.1336365 -7.3213806 8.423859m-10.37796 -39.541595l0 0c0.2796631 1.312561 0.40911865 2.6448364 0.38650513 3.9783936m-43.2948 -13.722351l0 0c-1.5333862 1.5292664 -2.7967224 3.2382202 -3.7506104 5.0736084m-33.554535 -2.0795898l0 0c-0.8171692 1.3890381 -1.4273987 2.8588562 -1.8165894 4.375641m-40.91974 1.1968384l0 0c2.3858948 1.1843567 4.5932007 2.6098328 6.5733643 4.245117m-57.67389 24.618439l0 0c0.24276733 1.512085 0.6263428 3.0055237 1.1471558 4.466339" fill-rule="evenodd"></path><path fill="#000000" d="m312.01 347.81558l0 -13.359375l1.765625 0l0 13.359375l-1.765625 0zm4.683319 0l0 -9.671875l1.46875 0l0 1.375q1.0625 -1.59375 3.078125 -1.59375q0.875 0 1.609375 0.3125q0.734375 0.3125 1.09375 0.828125q0.375 0.5 0.515625 1.203125q0.09375 0.453125 0.09375 1.59375l0 5.953125l-1.640625 0l0 -5.890625q0 -1.0 -0.203125 -1.484375q-0.1875 -0.5 -0.671875 -0.796875q-0.484375 -0.296875 -1.140625 -0.296875q-1.046875 0 -1.8125 0.671875q-0.75 0.65625 -0.75 2.515625l0 5.28125l-1.640625 0zm13.953827 -1.46875l0.234375 1.453125q-0.6875 0.140625 -1.234375 0.140625q-0.890625 0 -1.390625 -0.28125q-0.484375 -0.28125 -0.6875 -0.734375q-0.203125 -0.46875 -0.203125 -1.9375l0 -5.578125l-1.203125 0l0 -1.265625l1.203125 0l0 -2.390625l1.625 -0.984375l0 3.375l1.65625 0l0 1.265625l-1.65625 0l0 5.671875q0 0.6875 0.078125 0.890625q0.09375 0.203125 0.28125 0.328125q0.203125 0.109375 0.578125 0.109375q0.265625 0 0.71875 -0.0625zm8.230194 -1.640625l1.6875 0.203125q-0.40625 1.484375 -1.484375 2.3125q-1.078125 0.8125 -2.765625 0.8125q-2.125 0 -3.375 -1.296875q-1.234375 -1.3125 -1.234375 -3.671875q0 -2.453125 1.25 -3.796875q1.265625 -1.34375 3.265625 -1.34375q1.9375 0 3.15625 1.328125q1.234375 1.3125 1.234375 3.703125q0 0.15625 0 0.4375l-7.21875 0q0.09375 1.59375 0.90625 2.453125q0.8125 0.84375 2.015625 0.84375q0.90625 0 1.546875 -0.46875q0.640625 -0.484375 1.015625 -1.515625zm-5.390625 -2.65625l5.40625 0q-0.109375 -1.21875 -0.625 -1.828125q-0.78125 -0.953125 -2.03125 -0.953125q-1.125 0 -1.90625 0.765625q-0.765625 0.75 -0.84375 2.015625zm9.125702 5.765625l0 -9.671875l1.46875 0l0 1.46875q0.5625 -1.03125 1.03125 -1.359375q0.484375 -0.328125 1.0625 -0.328125q0.828125 0 1.6875 0.53125l-0.5625 1.515625q-0.609375 -0.359375 -1.203125 -0.359375q-0.546875 0 -0.96875 0.328125q-0.421875 0.328125 -0.609375 0.890625q-0.28125 0.875 -0.28125 1.921875l0 5.0625l-1.625 0zm6.228302 0l0 -9.671875l1.46875 0l0 1.375q1.0625 -1.59375 3.078125 -1.59375q0.875 0 1.609375 0.3125q0.734375 0.3125 1.09375 0.828125q0.375 0.5 0.515625 1.203125q0.09375 0.453125 0.09375 1.59375l0 5.953125l-1.640625 0l0 -5.890625q0 -1.0 -0.203125 -1.484375q-0.1875 -0.5 -0.671875 -0.796875q-0.484375 -0.296875 -1.140625 -0.296875q-1.046875 0 -1.8125 0.671875q-0.75 0.65625 -0.75 2.515625l0 5.28125l-1.640625 0zm17.000732 -3.109375l1.6875 0.203125q-0.40625 1.484375 -1.484375 2.3125q-1.078125 0.8125 -2.765625 0.8125q-2.125 0 -3.375 -1.296875q-1.234375 -1.3125 -1.234375 -3.671875q0 -2.453125 1.25 -3.796875q1.265625 -1.34375 3.265625 -1.34375q1.9375 0 3.15625 1.328125q1.234375 1.3125 1.234375 3.703125q0 0.15625 0 0.4375l-7.21875 0q0.09375 1.59375 0.90625 2.453125q0.8125 0.84375 2.015625 0.84375q0.90625 0 1.546875 -0.46875q0.640625 -0.484375 1.015625 -1.515625zm-5.390625 -2.65625l5.40625 0q-0.109375 -1.21875 -0.625 -1.828125q-0.78125 -0.953125 -2.03125 -0.953125q-1.125 0 -1.90625 0.765625q-0.765625 0.75 -0.84375 2.015625zm12.719452 4.296875l0.234375 1.453125q-0.6875 0.140625 -1.234375 0.140625q-0.890625 0 -1.390625 -0.28125q-0.484375 -0.28125 -0.6875 -0.734375q-0.203125 -0.46875 -0.203125 -1.9375l0 -5.578125l-1.203125 0l0 -1.265625l1.203125 0l0 -2.390625l1.625 -0.984375l0 3.375l1.65625 0l0 1.265625l-1.65625 0l0 5.671875q0 0.6875 0.078125 0.890625q0.09375 0.203125 0.28125 0.328125q0.203125 0.109375 0.578125 0.109375q0.265625 0 0.71875 -0.0625z" fill-rule="nonzero"></path><path fill="#000000" fill-opacity="0.0" d="m137.09383 81.660675l423.4016 0" fill-rule="evenodd"></path><path stroke="#674ea7" stroke-width="2.0" stroke-linejoin="round" stroke-linecap="butt" stroke-dasharray="16.0,6.0" d="m137.09383 81.660675l423.4016 0" fill-rule="evenodd"></path><path fill="#000000" fill-opacity="0.0" d="m137.09383 144.9835l423.4016 0" fill-rule="evenodd"></path><path stroke="#674ea7" stroke-width="2.0" stroke-linejoin="round" stroke-linecap="butt" stroke-dasharray="16.0,6.0" d="m137.09383 144.9835l423.4016 0" fill-rule="evenodd"></path><path fill="#000000" fill-opacity="0.0" d="m137.09383 188.3221l423.4016 0" fill-rule="evenodd"></path><path stroke="#674ea7" stroke-width="2.0" stroke-linejoin="round" stroke-linecap="butt" stroke-dasharray="16.0,6.0" d="m137.09383 188.3221l423.4016 0" fill-rule="evenodd"></path></g></svg>

