<?xml version="1.0" encoding="UTF-8" standalone="no"?>
<svg
   xmlns:dc="http://purl.org/dc/elements/1.1/"
   xmlns:cc="http://creativecommons.org/ns#"
   xmlns:rdf="http://www.w3.org/1999/02/22-rdf-syntax-ns#"
   xmlns:svg="http://www.w3.org/2000/svg"
   xmlns="http://www.w3.org/2000/svg"
   xmlns:xlink="http://www.w3.org/1999/xlink"
   xmlns:sodipodi="http://sodipodi.sourceforge.net/DTD/sodipodi-0.dtd"
   xmlns:inkscape="http://www.inkscape.org/namespaces/inkscape"
   width="275.15302"
   height="234.5369"
   inkscape:version="0.91 r13725"
   sodipodi:docname="compilador-jsp.svg"
   version="1.1"
   viewBox="0 0 275.15302 234.5369"
   id="svg304">
  <metadata
     id="metadata306">
    <rdf:RDF>
      <cc:Work
         rdf:about="">
        <dc:format>image/svg+xml</dc:format>
        <dc:type
           rdf:resource="http://purl.org/dc/dcmitype/StillImage" />
        <dc:title />
      </cc:Work>
    </rdf:RDF>
  </metadata>
  <defs
     id="defs308">
    <marker
       style="overflow:visible"
       orient="auto"
       inkscape:stockid="Arrow2Mend"
       inkscape:isstock="true"
       overflow="visible"
       id="marker13956">
      <path
         style="fill:#000000;fill-opacity:1;fill-rule:evenodd;stroke:#000000;stroke-width:0.625;stroke-linejoin:round;stroke-opacity:1"
         id="path13958"
         inkscape:connector-curvature="0"
         d="M 8.7186,4.0337 -2.2074,0.016 8.7186,-4.0017 c -1.7455,2.3721 -1.7354,5.6175 -6e-7,8.0354 z"
         transform="scale(-0.6,-0.6)" />
    </marker>
    <marker
       id="marker11137"
       overflow="visible"
       inkscape:isstock="true"
       inkscape:stockid="Arrow2Mend"
       orient="auto"
       style="overflow:visible">
      <path
         transform="scale(-0.6,-0.6)"
         d="M 8.7186,4.0337 -2.2074,0.016 8.7186,-4.0017 c -1.7455,2.3721 -1.7354,5.6175 -6e-7,8.0354 z"
         inkscape:connector-curvature="0"
         id="path11139"
         style="fill:#000000;fill-opacity:1;fill-rule:evenodd;stroke:#000000;stroke-width:0.625;stroke-linejoin:round;stroke-opacity:1" />
    </marker>
    <marker
       style="overflow:visible"
       orient="auto"
       inkscape:stockid="Arrow2Mend"
       inkscape:isstock="true"
       overflow="visible"
       id="marker9854"
       inkscape:collect="always">
      <path
         style="fill:#000000;fill-opacity:1;fill-rule:evenodd;stroke:#000000;stroke-width:0.625;stroke-linejoin:round;stroke-opacity:1"
         id="path9856"
         inkscape:connector-curvature="0"
         d="M 8.7186,4.0337 -2.2074,0.016 8.7186,-4.0017 c -1.7455,2.3721 -1.7354,5.6175 -6e-7,8.0354 z"
         transform="scale(-0.6,-0.6)" />
    </marker>
    <marker
       id="Arrow2Mstart"
       overflow="visible"
       inkscape:isstock="true"
       inkscape:stockid="Arrow2Mstart"
       orient="auto"
       style="overflow:visible"
       inkscape:collect="always">
      <path
         transform="scale(0.6,0.6)"
         d="M 8.7186,4.0337 -2.2074,0.016 8.7186,-4.0017 c -1.7455,2.3721 -1.7354,5.6175 -6e-7,8.0354 z"
         inkscape:connector-curvature="0"
         id="path317"
         style="fill:#000000;fill-opacity:1;fill-rule:evenodd;stroke:#000000;stroke-width:0.625;stroke-linejoin:round;stroke-opacity:1" />
    </marker>
    <marker
       id="Arrow2Mend"
       overflow="visible"
       inkscape:isstock="true"
       inkscape:stockid="Arrow2Mend"
       orient="auto"
       style="overflow:visible"
       inkscape:collect="always">
      <path
         transform="scale(-0.6,-0.6)"
         d="M 8.7186,4.0337 -2.2074,0.016 8.7186,-4.0017 c -1.7455,2.3721 -1.7354,5.6175 -6e-7,8.0354 z"
         inkscape:connector-curvature="0"
         id="path320"
         style="fill:#000000;fill-opacity:1;fill-rule:evenodd;stroke:#000000;stroke-width:0.625;stroke-linejoin:round;stroke-opacity:1" />
    </marker>
    <linearGradient
       id="linearGradient5518">
      <stop
         stop-color="#969696"
         offset="0"
         id="stop323" />
      <stop
         stop-color="#969696"
         stop-opacity="0"
         offset="1"
         id="stop325" />
    </linearGradient>
    <linearGradient
       id="linearGradient4726"
       inkscape:collect="always">
      <stop
         stop-color="#fff"
         offset="0"
         id="stop328" />
      <stop
         stop-color="#fff"
         stop-opacity="0"
         offset="1"
         id="stop330" />
    </linearGradient>
    <linearGradient
       id="linearGradient3338">
      <stop
         stop-color="#282828"
         offset="0"
         id="stop333" />
      <stop
         stop-color="#3c3c3c"
         offset="1"
         id="stop335" />
    </linearGradient>
    <linearGradient
       id="linearGradient4439"
       x1="44.037998"
       x2="92.038002"
       y1="120.69"
       y2="121.81"
       gradientTransform="matrix(1.0883,0,0,1.0883,-3.7475,-14.2)"
       gradientUnits="userSpaceOnUse"
       inkscape:collect="always">
      <stop
         offset="0"
         id="stop339" />
      <stop
         stop-color="#959595"
         offset=".45918"
         id="stop341" />
      <stop
         stop-color="#545454"
         offset=".70238"
         id="stop343" />
      <stop
         offset="1"
         id="stop345" />
    </linearGradient>
    <linearGradient
       id="linearGradient4442"
       x1="36.912998"
       x2="89.163002"
       y1="121.81"
       y2="121.81"
       gradientTransform="matrix(1.0883,0,0,1.0883,-3.7475,-14.2)"
       gradientUnits="userSpaceOnUse"
       inkscape:collect="always">
      <stop
         stop-color="#d4d2d1"
         offset="0"
         id="stop348" />
      <stop
         stop-color="#141414"
         offset=".30499"
         id="stop350" />
      <stop
         offset=".70238"
         id="stop352" />
      <stop
         stop-color="#c4c1c0"
         offset="1"
         id="stop354" />
    </linearGradient>
    <linearGradient
       id="linearGradient4416"
       x1="229.03999"
       x2="-9.2804003"
       y1="191.13"
       y2="-29.826"
       gradientUnits="userSpaceOnUse"
       inkscape:collect="always">
      <stop
         stop-color="#6b0c0c"
         offset="0"
         id="stop357" />
      <stop
         stop-color="#862c0f"
         offset=".34998"
         id="stop359" />
      <stop
         stop-color="#a14c13"
         offset=".69996"
         id="stop361" />
      <stop
         stop-color="#ed9c65"
         offset="1"
         id="stop363" />
    </linearGradient>
    <linearGradient
       id="linearGradient4460"
       x1="17.718"
       x2="239.96001"
       y1="102.33"
       y2="102.33"
       gradientTransform="matrix(0.57579,0,0,0.47806,-7.1841,6.7097)"
       gradientUnits="userSpaceOnUse"
       inkscape:collect="always">
      <stop
         stop-color="#d5d5d1"
         offset="0"
         id="stop366" />
      <stop
         stop-color="#e2e2e1"
         offset=".5"
         id="stop368" />
      <stop
         stop-color="#d0d0cb"
         offset="1"
         id="stop370" />
    </linearGradient>
    <linearGradient
       id="linearGradient4345"
       inkscape:collect="always">
      <stop
         stop-color="#656565"
         offset="0"
         id="stop373" />
      <stop
         stop-color="#656565"
         stop-opacity="0"
         offset="1"
         id="stop375" />
    </linearGradient>
    <filter
       id="filter3384"
       x="-0.024755999"
       y="-0.78600001"
       width="1.0495"
       height="2.572"
       inkscape:collect="always"
       style="color-interpolation-filters:sRGB">
      <feGaussianBlur
         inkscape:collect="always"
         stdDeviation="2.2471568"
         id="feGaussianBlur378" />
    </filter>
    <filter
       id="filter3362"
       x="-0.88924998"
       y="-0.029348001"
       width="2.7785001"
       height="1.0587"
       inkscape:collect="always"
       style="color-interpolation-filters:sRGB">
      <feGaussianBlur
         inkscape:collect="always"
         stdDeviation="2.1186219"
         id="feGaussianBlur381" />
    </filter>
    <filter
       id="filter3631"
       x="-0.43797001"
       y="-0.22813"
       width="1.8759"
       height="1.4563"
       inkscape:collect="always"
       style="color-interpolation-filters:sRGB">
      <feGaussianBlur
         inkscape:collect="always"
         stdDeviation="2.4122631"
         id="feGaussianBlur384" />
    </filter>
    <filter
       id="filter4281"
       x="-0.0189"
       y="-0.37788001"
       width="1.0378"
       height="1.7558"
       inkscape:collect="always"
       style="color-interpolation-filters:sRGB">
      <feGaussianBlur
         inkscape:collect="always"
         stdDeviation="0.42624116"
         id="feGaussianBlur387" />
    </filter>
    <linearGradient
       id="linearGradient6901"
       x1="-95.203003"
       x2="-95.002998"
       y1="83.581001"
       y2="32.535"
       gradientTransform="matrix(0.99817,0,0.21094,0.46411,148.39,93.209)"
       gradientUnits="userSpaceOnUse"
       inkscape:collect="always">
      <stop
         stop-color="#515151"
         offset="0"
         id="stop390" />
      <stop
         stop-color="#d2d2d2"
         offset=".17119"
         id="stop392" />
      <stop
         stop-color="#f0f0f0"
         offset=".90193"
         id="stop394" />
      <stop
         stop-color="#fff"
         offset="1"
         id="stop396" />
    </linearGradient>
    <style
       type="text/css"
       id="style431"><![CDATA[
    .str3 {stroke:white;stroke-width:552.199}
    .str0 {stroke:white;stroke-width:770.074}
    .str1 {stroke:white;stroke-width:770.074}
    .str2 {stroke:white;stroke-width:770.074}
    .fil3 {fill:none}
    .fil1 {fill:#00AFEF}
    .fil0 {fill:#E6E7E8}
    .fil2 {fill:white}
    .fil4 {fill:white;fill-rule:nonzero}
   ]]></style>
    <style
       type="text/css"
       id="style433"><![CDATA[
    .fil2 {fill:none}
    .fil1 {fill:black}
    .fil0 {fill:black;fill-rule:nonzero}
   ]]></style>
    <linearGradient
       id="A">
      <stop
         stop-color="#2e3436"
         id="K-6" />
      <stop
         stop-opacity="0"
         stop-color="#2e3436"
         offset="1"
         id="L-7" />
    </linearGradient>
    <radialGradient
       inkscape:collect="always"
       xlink:href="#A"
       id="radialGradient4538"
       gradientUnits="userSpaceOnUse"
       gradientTransform="matrix(1,0,0,0.1150442,0,39.202918)"
       cx="25.02"
       cy="44.299999"
       r="16.726999" />
    <linearGradient
       inkscape:collect="always"
       xlink:href="#linearGradient4726"
       id="linearGradient4540"
       gradientUnits="userSpaceOnUse"
       gradientTransform="matrix(0.9538134,0,0,0.9538134,-4.6118356,-1.3412107)"
       y1="5.4559999"
       x2="0"
       y2="47.844002" />
    <linearGradient
       inkscape:collect="always"
       xlink:href="#linearGradient4726"
       id="linearGradient4542"
       gradientUnits="userSpaceOnUse"
       gradientTransform="matrix(0.9538125,0,0,0.9538125,1.1090313,1.0887358)"
       x1="0.1"
       y1="-28.1"
       x2="21.09"
       y2="25.219999" />
    <linearGradient
       inkscape:collect="always"
       xlink:href="#linearGradient4460"
       id="linearGradient14891"
       gradientUnits="userSpaceOnUse"
       gradientTransform="matrix(0.57579,0,0,0.47806,-7.1841,6.7097)"
       x1="17.718"
       y1="102.33"
       x2="239.96001"
       y2="102.33" />
    <linearGradient
       inkscape:collect="always"
       xlink:href="#linearGradient4416"
       id="linearGradient14893"
       gradientUnits="userSpaceOnUse"
       x1="229.03999"
       y1="191.13"
       x2="-9.2804003"
       y2="-29.826" />
    <linearGradient
       inkscape:collect="always"
       xlink:href="#linearGradient4442"
       id="linearGradient14895"
       gradientUnits="userSpaceOnUse"
       gradientTransform="matrix(1.0883,0,0,1.0883,-3.7475,-14.2)"
       x1="36.912998"
       y1="121.81"
       x2="89.163002"
       y2="121.81" />
    <linearGradient
       inkscape:collect="always"
       xlink:href="#linearGradient4439"
       id="linearGradient14897"
       gradientUnits="userSpaceOnUse"
       gradientTransform="matrix(1.0883,0,0,1.0883,-3.7475,-14.2)"
       x1="44.037998"
       y1="120.69"
       x2="92.038002"
       y2="121.81" />
    <linearGradient
       inkscape:collect="always"
       xlink:href="#linearGradient4345"
       id="linearGradient14899"
       gradientUnits="userSpaceOnUse"
       x1="81.683998"
       y1="99.397003"
       x2="83.625"
       y2="104.07" />
    <linearGradient
       inkscape:collect="always"
       xlink:href="#linearGradient4345"
       id="linearGradient14901"
       gradientUnits="userSpaceOnUse"
       x1="81.683998"
       y1="99.397003"
       x2="83.625"
       y2="104.07" />
    <linearGradient
       inkscape:collect="always"
       xlink:href="#linearGradient4345"
       id="linearGradient14903"
       gradientUnits="userSpaceOnUse"
       x1="81.683998"
       y1="99.397003"
       x2="83.625"
       y2="104.07" />
    <linearGradient
       inkscape:collect="always"
       xlink:href="#linearGradient4345"
       id="linearGradient14905"
       gradientUnits="userSpaceOnUse"
       x1="81.683998"
       y1="99.397003"
       x2="83.625"
       y2="104.07" />
    <linearGradient
       inkscape:collect="always"
       xlink:href="#linearGradient4345"
       id="linearGradient14907"
       gradientUnits="userSpaceOnUse"
       x1="81.683998"
       y1="99.397003"
       x2="83.625"
       y2="104.07" />
    <linearGradient
       inkscape:collect="always"
       xlink:href="#linearGradient4345"
       id="linearGradient14909"
       gradientUnits="userSpaceOnUse"
       x1="81.683998"
       y1="99.397003"
       x2="83.625"
       y2="104.07" />
    <linearGradient
       inkscape:collect="always"
       xlink:href="#linearGradient6901"
       id="linearGradient14911"
       gradientUnits="userSpaceOnUse"
       gradientTransform="matrix(0.99817,0,0.21094,0.46411,148.39,93.209)"
       x1="-95.203003"
       y1="83.581001"
       x2="-95.002998"
       y2="32.535" />
    <linearGradient
       inkscape:collect="always"
       xlink:href="#linearGradient3338"
       id="linearGradient14913"
       gradientUnits="userSpaceOnUse"
       gradientTransform="matrix(0.99818,0,-0.046875,0.46411,167.38,90.814)"
       x1="-109.44"
       y1="50.298"
       x2="-108.6"
       y2="77.927002" />
    <linearGradient
       inkscape:collect="always"
       xlink:href="#linearGradient3338"
       id="linearGradient14915"
       gradientUnits="userSpaceOnUse"
       gradientTransform="matrix(0.99818,0,0.06057,0.46411,147.22,90.896)"
       x1="-57.401001"
       y1="77.516998"
       x2="-67.255997"
       y2="68.514" />
    <linearGradient
       inkscape:collect="always"
       xlink:href="#linearGradient3338"
       id="linearGradient14917"
       gradientUnits="userSpaceOnUse"
       gradientTransform="matrix(0.99747,0,0.082937,0.48069,151.65,44.715)"
       x1="-51.480999"
       y1="144.45"
       x2="-53.701"
       y2="171.14999" />
    <linearGradient
       inkscape:collect="always"
       xlink:href="#linearGradient3338"
       id="linearGradient14919"
       gradientUnits="userSpaceOnUse"
       gradientTransform="matrix(0.99818,0,-0.089697,0.46411,168.93,92.216)"
       x1="-150.24001"
       y1="45.547001"
       x2="-150.24001"
       y2="38.034" />
    <linearGradient
       inkscape:collect="always"
       xlink:href="#linearGradient3338"
       id="linearGradient14921"
       gradientUnits="userSpaceOnUse"
       gradientTransform="matrix(0.81942,0,-0.038481,0.32956,140.16,93.294)"
       x1="-109.44"
       y1="50.298"
       x2="-108.6"
       y2="77.927002" />
    <linearGradient
       inkscape:collect="always"
       xlink:href="#linearGradient3338"
       id="linearGradient14923"
       gradientUnits="userSpaceOnUse"
       gradientTransform="matrix(0.99818,0,0.06057,0.46411,185.31,47.822)"
       x1="-100.71"
       y1="154.86"
       x2="-110.82"
       y2="145.00999" />
    <linearGradient
       inkscape:collect="always"
       xlink:href="#linearGradient3338"
       id="linearGradient14925"
       gradientUnits="userSpaceOnUse"
       gradientTransform="matrix(0.97478,0,0.032574,0.24844,186.04,74.421)"
       x1="-100.71"
       y1="154.86"
       x2="-110.82"
       y2="145.00999" />
    <linearGradient
       inkscape:collect="always"
       xlink:href="#linearGradient4726"
       id="linearGradient14927"
       gradientUnits="userSpaceOnUse"
       x1="-52.061001"
       y1="40.248001"
       x2="-52.061001"
       y2="44.313999" />
    <linearGradient
       inkscape:collect="always"
       xlink:href="#linearGradient4726"
       id="linearGradient14929"
       gradientUnits="userSpaceOnUse"
       x1="-52.061001"
       y1="40.248001"
       x2="-52.061001"
       y2="44.313999" />
    <linearGradient
       inkscape:collect="always"
       xlink:href="#linearGradient4726"
       id="linearGradient14931"
       gradientUnits="userSpaceOnUse"
       x1="-52.061001"
       y1="40.248001"
       x2="-52.061001"
       y2="44.313999" />
    <linearGradient
       inkscape:collect="always"
       xlink:href="#linearGradient5518"
       id="linearGradient14933"
       gradientUnits="userSpaceOnUse"
       gradientTransform="matrix(1.0173,0,0,1.0173,-0.41891,-2.2794)"
       x1="53.917"
       y1="125.93"
       x2="-19.922001"
       y2="125.93" />
    <linearGradient
       inkscape:collect="always"
       xlink:href="#linearGradient5518"
       id="linearGradient14935"
       gradientUnits="userSpaceOnUse"
       gradientTransform="matrix(0.99633,0,0,0.78685,0.21923,24.407)"
       x1="49.410999"
       y1="125.69"
       x2="-20.098"
       y2="125.93" />
    <linearGradient
       inkscape:collect="always"
       xlink:href="#linearGradient5518"
       id="linearGradient14937"
       gradientUnits="userSpaceOnUse"
       gradientTransform="matrix(-0.99633,0,0,0.78685,89.57,22.069)"
       x1="42.683998"
       y1="125.69"
       x2="105.62"
       y2="125.69" />
    <linearGradient
       inkscape:collect="always"
       xlink:href="#linearGradient5518"
       id="linearGradient14939"
       gradientUnits="userSpaceOnUse"
       gradientTransform="matrix(0.9851,0,0,0.78685,1.1053,19.833)"
       x1="48.358002"
       y1="125.69"
       x2="-20.098"
       y2="125.93" />
    <linearGradient
       inkscape:collect="always"
       xlink:href="#linearGradient5518"
       id="linearGradient14941"
       gradientUnits="userSpaceOnUse"
       gradientTransform="matrix(-0.99913,0,0,0.784,89.606,18.052)"
       x1="40.539001"
       y1="125.69"
       x2="105.62"
       y2="125.69" />
    <linearGradient
       inkscape:collect="always"
       xlink:href="#linearGradient5518"
       id="linearGradient14943"
       gradientUnits="userSpaceOnUse"
       gradientTransform="matrix(-0.95006,0,0,0.78736,87.008,13.386)"
       x1="71.108002"
       y1="125.11"
       x2="81.583"
       y2="125.69" />
    <linearGradient
       inkscape:collect="always"
       xlink:href="#linearGradient5518"
       id="linearGradient14945"
       gradientUnits="userSpaceOnUse"
       gradientTransform="matrix(-0.94472,0,0.098593,0.78028,83.143,14.443)"
       x1="71.108002"
       y1="125.11"
       x2="81.583"
       y2="125.69" />
    <linearGradient
       inkscape:collect="always"
       xlink:href="#linearGradient5518"
       id="linearGradient14947"
       gradientUnits="userSpaceOnUse"
       gradientTransform="matrix(-0.94472,0,0.098593,0.78028,102.34,14.443)"
       x1="71.108002"
       y1="125.11"
       x2="81.583"
       y2="125.69" />
    <linearGradient
       inkscape:collect="always"
       xlink:href="#linearGradient5518"
       id="linearGradient14949"
       gradientUnits="userSpaceOnUse"
       gradientTransform="matrix(-1.0935,0,0.21482,0.78028,118.39,14.443)"
       x1="71.108002"
       y1="125.11"
       x2="81.583"
       y2="125.69" />
    <linearGradient
       inkscape:collect="always"
       xlink:href="#linearGradient5518"
       id="linearGradient14951"
       gradientUnits="userSpaceOnUse"
       gradientTransform="matrix(-1.2251,0,0.24067,0.78736,141.56,13.563)"
       x1="71.108002"
       y1="125.11"
       x2="81.583"
       y2="125.69" />
    <linearGradient
       inkscape:collect="always"
       xlink:href="#linearGradient5518"
       id="linearGradient14953"
       gradientUnits="userSpaceOnUse"
       gradientTransform="matrix(-1.2251,0,0.24067,0.78736,142.46,19.936)"
       x1="71.108002"
       y1="125.11"
       x2="81.583"
       y2="125.69" />
    <linearGradient
       inkscape:collect="always"
       xlink:href="#linearGradient5518"
       id="linearGradient14955"
       gradientUnits="userSpaceOnUse"
       gradientTransform="matrix(-1.2251,0,0.24067,0.78736,142.19,17.871)"
       x1="71.108002"
       y1="125.11"
       x2="81.583"
       y2="125.69" />
    <linearGradient
       inkscape:collect="always"
       xlink:href="#linearGradient5518"
       id="linearGradient14957"
       gradientUnits="userSpaceOnUse"
       gradientTransform="matrix(-1.2741,0,0.2503,0.78736,145.92,27.18)"
       x1="71.108002"
       y1="125.11"
       x2="81.583"
       y2="125.69" />
    <linearGradient
       inkscape:collect="always"
       xlink:href="#linearGradient5518"
       id="linearGradient14959"
       gradientUnits="userSpaceOnUse"
       gradientTransform="matrix(-0.95006,0,0.18254,0.78736,139.4,24.622)"
       x1="74.684998"
       y1="125.01"
       x2="81.583"
       y2="125.69" />
    <linearGradient
       inkscape:collect="always"
       xlink:href="#linearGradient5518"
       id="linearGradient14961"
       gradientUnits="userSpaceOnUse"
       gradientTransform="matrix(-1.4281,0,0.28055,0.78736,176.16,27.18)"
       x1="71.108002"
       y1="125.11"
       x2="81.583"
       y2="125.69" />
    <linearGradient
       inkscape:collect="always"
       xlink:href="#linearGradient5518"
       id="linearGradient14963"
       gradientUnits="userSpaceOnUse"
       gradientTransform="matrix(-1.2251,0,0.24067,0.78736,163.02,24.811)"
       x1="71.108002"
       y1="125.11"
       x2="81.583"
       y2="125.69" />
    <linearGradient
       inkscape:collect="always"
       xlink:href="#linearGradient5518"
       id="linearGradient14965"
       gradientUnits="userSpaceOnUse"
       gradientTransform="matrix(-1.2432,0,0.24424,0.78736,168.59,22.366)"
       x1="71.108002"
       y1="125.11"
       x2="84.456001"
       y2="125.59" />
    <linearGradient
       inkscape:collect="always"
       xlink:href="#linearGradient5518"
       id="linearGradient14967"
       gradientUnits="userSpaceOnUse"
       gradientTransform="matrix(-1.1706,0,0.22997,0.78736,164.72,18.14)"
       x1="71.108002"
       y1="125.11"
       x2="85.942001"
       y2="125.59" />
    <linearGradient
       inkscape:collect="always"
       xlink:href="#linearGradient5518"
       id="linearGradient14969"
       gradientUnits="userSpaceOnUse"
       gradientTransform="matrix(-1.1425,0,0.22446,0.78736,158.43,20.135)"
       x1="71.108002"
       y1="125.11"
       x2="81.583"
       y2="125.69" />
  </defs>
  <sodipodi:namedview
     bordercolor="#666666"
     borderopacity="1"
     fit-margin-bottom="0"
     fit-margin-left="0"
     fit-margin-right="0"
     fit-margin-top="0"
     gridtolerance="10"
     guidetolerance="10"
     inkscape:current-layer="g9760"
     inkscape:cx="83.746646"
     inkscape:cy="49.049351"
     inkscape:pageopacity="0"
     inkscape:pageshadow="2"
     inkscape:snap-global="false"
     inkscape:window-height="700"
     inkscape:window-maximized="1"
     inkscape:window-width="1366"
     inkscape:window-x="0"
     inkscape:window-y="0"
     inkscape:zoom="3.4379218"
     objecttolerance="10"
     pagecolor="#ffffff"
     showgrid="false"
     id="namedview448" />
  <rect
     x="145.57901"
     y="48.428761"
     width="128.57401"
     height="165.18616"
     ry="18.227642"
     id="rect638"
     style="fill:#f9e7e7;stroke:#aa0000;stroke-width:2;stroke-miterlimit:4;stroke-dasharray:none" />
  <path
     style="fill:none;stroke:#000000;stroke-width:1.20000005;stroke-linecap:square;stroke-miterlimit:4;stroke-dasharray:1.20000005, 3.60000014;stroke-dashoffset:0;marker-end:url(#marker9854)"
     id="path9852"
     sodipodi:nodetypes="cc"
     inkscape:connector-curvature="0"
     d="M 55.236862,59.541006 166.04612,93.377711" />
  <text
     x="170.20242"
     y="69.620422"
     font-size="10.429px"
     letter-spacing="0px"
     word-spacing="0px"
     style="font-size:10.4289999px;line-height:125%;font-family:sans-serif;letter-spacing:0px;word-spacing:0px;fill:#000000;stroke-width:1px"
     sodipodi:linespacing="125%"
     xml:space="preserve"
     id="text640"><tspan
       x="170.20242"
       y="69.620422"
       font-size="11.25px"
       font-weight="bold"
       sodipodi:role="line"
       id="tspan642"
       style="font-weight:bold;font-size:11.25px;font-family:Arial;fill:#000000">Container Web</tspan></text>
  <path
     style="fill:none;stroke:#000000;stroke-width:1;stroke-linecap:square;stroke-miterlimit:4;stroke-dasharray:none;marker-end:url(#marker13956)"
     id="path13954"
     sodipodi:nodetypes="cc"
     inkscape:connector-curvature="0"
     d="m 209.85451,114.23294 0,42.63556" />
  <g
     transform="matrix(0.77134302,0,0,0.77134294,-13.075241,-128.32743)"
     id="g8957">
    <rect
       style="fill:#fafec1;stroke:#000000;stroke-width:1.5"
       ry="8.7441998"
       height="41.640999"
       width="108.26"
       y="275.34"
       x="234.89999"
       id="rect8959" />
    <text
       sodipodi:linespacing="125%"
       xml:space="preserve"
       style="font-size:13.75px;line-height:125%;font-family:Arial;text-align:end;letter-spacing:0px;word-spacing:0px;text-anchor:middle;fill:#000000;stroke-width:1px"
       word-spacing="0px"
       text-align="end"
       letter-spacing="0px"
       font-size="13.75px"
       y="292.63763"
       x="309.53259"
       id="text8961"><tspan
         style="text-align:center"
         text-align="center"
         y="292.63763"
         x="309.53259"
         id="tspan8963">Página</tspan><tspan
         style="text-align:center"
         text-align="center"
         y="309.82513"
         x="309.53259"
         id="tspan8965">JSP</tspan></text>
    <g
       transform="matrix(0.4753,0,0,0.4753,144.19,200.9)"
       id="g10294">
      <ellipse
         style="fill:#ffffff"
         ry="32.870998"
         rx="33.341"
         cy="200.42999"
         cx="245.60001"
         id="path10292" />
      <g
         style="fill:#00498f"
         transform="translate(210.1,164.93)"
         id="g10261">
        <g
           id="g10263">
          <path
             inkscape:connector-curvature="0"
             d="m 35.1,47.1 c -3.2,0 -5.8,2.4 -5.8,5.6 0,0.6 0.1,1.4 0.3,1.4 l 11,0 c 0.2,0 0.3,-0.8 0.3,-1.4 0,-3.3 -2.6,-5.6 -5.8,-5.6 z"
             class="st1"
             id="path10265"
             style="fill:#00498f" />
          <path
             inkscape:connector-curvature="0"
             d="M 35.5,0 C 15.9,0 0,15.9 0,35.5 0,55.1 15.9,71 35.5,71 55.1,71 71,55.1 71,35.5 71,15.9 55.1,0 35.5,0 Z m 20.4,56.1 -42,0 0,-42 42,0 0,42 z"
             class="st1"
             id="path10267"
             style="fill:#00498f" />
        </g>
        <circle
           r="2.9000001"
           cy="30.799999"
           cx="43.5"
           class="st1"
           id="circle10269"
           style="fill:#00498f" />
        <g
           id="g10271">
          <path
             inkscape:connector-curvature="0"
             d="m 15.9,16.1 0,38 2,0 0,-2.6 c 0,-0.8 1,-1.4 1.8,-1.5 l 2.5,-0.2 c 0.3,-1.1 0.7,-2.1 1.3,-3.1 L 22.2,45 c -0.5,-0.6 -0.4,-1.4 0.1,-2 l 2.5,-2.5 c 0.5,-0.5 1.4,-0.6 2,-0.1 l 1.6,1.2 c 1,-0.6 2.1,-1.2 3.3,-1.5 l 0.2,-2.3 C 32,37 32.6,36.1 33.4,36.1 l 3.5,0 c 0.8,0 1.4,1 1.5,1.7 l 0.2,2.4 c 1.1,0.3 2.2,0.8 3.2,1.4 l 1.6,-1.2 c 0.6,-0.5 1.4,-0.4 2,0.1 l 2.5,2.5 c 0.5,0.5 0.6,1.4 0.1,2 l -1.3,1.6 c 0.5,1 1,2 1.2,3.1 l 1.9,0.2 c 0.8,0.1 1.1,0.7 1.1,1.5 l 0,2.8 3,0 0,-38 -38,0 z m 18.4,16.8 -0.9,0.9 c -0.5,0.5 -1.2,0.5 -1.7,0.1 L 31,33.3 c -0.6,0.3 -1.2,0.6 -1.8,0.7 l -0.1,0.9 C 29,35.6 28.4,36 27.8,36 l -1.3,0 c -0.6,0 -1.2,-0.5 -1.2,-1.1 l -0.1,-1 c -0.6,-0.2 -1.1,-0.4 -1.7,-0.7 l -0.8,0.6 C 22.2,34.2 21.5,34.1 21,33.7 L 20.1,32.8 C 19.6,32.3 19.6,31.6 20,31.1 l 0.6,-0.7 C 20.3,29.9 20.1,29.3 19.9,28.8 L 19,28.7 c -0.6,-0.1 -1.1,-0.6 -1.1,-1.3 l 0,-1.3 c 0,-0.6 0.5,-1.2 1.1,-1.2 l 0.9,-0.1 c 0.2,-0.6 0.4,-1.2 0.7,-1.8 l -0.5,-0.7 c -0.4,-0.5 -0.3,-1.2 0.1,-1.7 l 0.9,-0.9 c 0.5,-0.5 1.2,-0.5 1.7,-0.1 l 0.6,0.5 c 0.6,-0.3 1.2,-0.6 1.9,-0.8 l 0.1,-0.8 c 0.1,-0.6 0.6,-1.1 1.3,-1.1 l 1.3,0 c 0.6,0 1.2,0.5 1.2,1.1 l 0.1,0.8 c 0.6,0.2 1.3,0.5 1.8,0.8 l 0.6,-0.5 c 0.5,-0.4 1.2,-0.3 1.7,0.1 l 0.9,0.9 c 0.5,0.5 0.5,1.2 0.1,1.7 L 34,23 c 0.3,0.6 0.5,1.2 0.7,1.8 l 0.8,0.1 c 0.6,0.1 1.1,0.6 1.1,1.3 l 0,1.3 c 0,0.6 -0.5,1.2 -1.1,1.2 l -0.8,0.1 c -0.2,0.6 -0.4,1.2 -0.8,1.8 l 0.5,0.7 c 0.4,0.4 0.4,1.1 -0.1,1.6 z m 17.3,-1.4 c 0,0.6 -0.4,1 -1,1.1 l -0.7,0.1 c -0.2,0.5 -0.4,1.1 -0.7,1.5 l 0.5,0.6 c 0.3,0.4 0.3,1.1 -0.1,1.5 L 48.8,37 c -0.4,0.4 -1,0.4 -1.5,0.1 l -0.6,-0.5 c -0.5,0.3 -1,0.5 -1.6,0.6 L 45,38 c -0.1,0.6 -0.5,1 -1.1,1 l -1.1,0 c -0.6,0 -1,-0.4 -1.1,-1 L 41.6,37.2 40.1,36.6 39.5,37 c -0.4,0.3 -1.1,0.3 -1.5,-0.1 l -0.8,-0.8 c -0.4,-0.4 -0.4,-1 -0.1,-1.5 l 0.5,-0.7 C 37.3,33.4 37.2,33 37,32.5 l -0.8,-0.1 c -0.6,-0.1 -1,-0.5 -1,-1.1 l 0,-1.1 c 0,-0.6 0.4,-1 1,-1.1 L 37,29 c 0.1,-0.5 0.4,-1.1 0.6,-1.5 l -0.5,-0.6 c -0.3,-0.4 -0.3,-1.1 0.1,-1.5 L 38,24.6 c 0.4,-0.4 1,-0.4 1.5,-0.1 l 0.6,0.5 c 0.5,-0.3 1.1,-0.5 1.7,-0.7 l 0.1,-0.7 c 0.1,-0.6 0.5,-1 1.1,-1 l 1.1,0 c 0.6,0 1,0.4 1.1,1 l 0.1,0.7 c 0.6,0.2 1.1,0.4 1.6,0.7 l 0.5,-0.4 c 0.4,-0.3 1.1,-0.3 1.5,0.1 l 0.8,0.8 c 0.4,0.4 0.4,1 0.1,1.5 l -0.4,0.5 c 0.3,0.5 0.5,1 0.6,1.5 l 0.7,0.1 c 0.6,0.1 1,0.5 1,1.1 l -0.1,1.3 z"
             class="st1"
             id="path10273"
             style="fill:#00498f" />
          <circle
             r="3.3"
             cy="26.6"
             cx="27.299999"
             class="st1"
             id="circle10275"
             style="fill:#00498f" />
        </g>
      </g>
    </g>
  </g>
  <g
     transform="matrix(0.75119738,0,0,0.75119822,-13.562231,-48.016734)"
     id="g8925"
     inkscape:tile-cx="216.46838"
     inkscape:tile-cy="65.380317"
     inkscape:tile-w="69.703844"
     inkscape:tile-h="32.280644"
     inkscape:tile-x0="181.61645"
     inkscape:tile-y0="49.239995">
    <rect
       style="fill:#fafec1;stroke:#000000;stroke-width:1.33120644;stroke-miterlimit:4;stroke-dasharray:none"
       ry="8.7441998"
       height="41.640999"
       width="91.459"
       y="275.34"
       x="251.7"
       id="rect8927" />
    <g
       id="g9943"
       transform="matrix(0.67925156,0,0,0.6792516,254.4642,279.23687)">
      <path
         id="1"
         transform="matrix(1,0,0,1.8336849,-1.0167561,-37.496634)"
         d="m 41.743937,44.299297 a 16.727181,1.9243659 0 1 1 -33.4543614,0 16.727181,1.9243659 0 1 1 33.4543614,0 z"
         inkscape:connector-curvature="0"
         style="opacity:0.6;fill:url(#radialGradient4538)" />
      <path
         id="2"
         d="m 17.5,2.5625 a 0.24280127,0.24280127 0 0 0 -0.0625,0.03125 l -0.03125,0 -0.09375,0 c -0.06515,-10e-8 -0.107347,0.032236 -0.15625,0.0625 A 0.24280127,0.24280127 0 0 0 17.125,2.6875 c -0.0068,0.00525 -0.02549,-0.00516 -0.03125,0 -0.0086,0.00773 -0.0253,0.02426 -0.03125,0.03125 0.005,-0.00484 -0.01162,-0.023108 0,-0.03125 -0.04669,-0.00105 -0.142164,0.0107 -0.21875,0.03125 -0.01066,0.00286 -0.02034,-0.00355 -0.03125,0 l -0.03125,0 a 0.24280127,0.24280127 0 0 0 -0.0625,0.03125 0.24280127,0.24280127 0 0 0 -0.125,0.0625 c -0.0032,0.00241 -0.0216,0.02364 -0.03125,0.03125 -0.02085,0.012267 -0.03986,0.047863 -0.0625,0.0625 -0.05801,0.037508 -0.11997,0.064864 -0.1875,0.125 -0.01318,0.011734 -0.01778,0.018423 -0.03125,0.03125 -0.340488,0.2063247 -0.555662,0.4744054 -0.6875,0.65625 A 0.24280127,0.24280127 0 0 0 15.5625,3.75 c -0.151407,0.2365739 -0.359516,0.5951725 -0.40625,1.0625 -0.02071,0.1553123 -0.0052,0.2638056 0,0.34375 4.71e-4,0.00727 -3.19e-4,0.024868 0,0.03125 -0.0035,0.016283 -0.0061,0.060479 0,0.125 10e-4,0.010422 -0.0011,0.021607 0,0.03125 l 0.03125,0 c -6.09e-4,0.00975 9e-6,0.024791 0,0.03125 -1.8e-5,0.012917 -5.51e-4,0.019936 0,0.03125 0.0011,0.022629 -0.0022,0.041486 0,0.0625 0.0011,0.010507 -0.002,0.018332 0,0.03125 10e-4,0.00646 -0.0041,0.015352 0,0.03125 l 0.03125,0.125 a 0.24280127,0.24280127 0 0 0 0.03125,0 0.24280127,0.24280127 0 0 0 0,0.03125 0.24280127,0.24280127 0 0 0 0,0.03125 0.24280127,0.24280127 0 0 0 0,0.03125 0.24280127,0.24280127 0 0 0 0.03125,0 0.24280127,0.24280127 0 0 0 0,0.03125 0.24280127,0.24280127 0 0 0 0,0.03125 0.24280127,0.24280127 0 0 0 0,0.03125 0.24280127,0.24280127 0 0 0 0.03125,0.03125 0.24280127,0.24280127 0 0 0 0,0.03125 0.24280127,0.24280127 0 0 0 0.03125,0.03125 0.24280127,0.24280127 0 0 0 0,0.03125 c 0.0012,0.00353 0.03003,-0.00351 0.03125,0 A 0.24280127,0.24280127 0 0 0 15.375,6 c 0.01042,0.028323 0.01898,0.058697 0.03125,0.09375 0.07358,0.1635084 0.108966,0.2388849 0.15625,0.3125 0.0057,0.00894 0.02523,0.022649 0.03125,0.03125 0.101924,0.2367679 0.216529,0.5547386 0.375,0.875 0.0048,0.00963 -0.0048,0.021574 0,0.03125 a 0.24280127,0.24280127 0 0 0 0,0.03125 C 15.97585,7.38897 15.9928,7.392198 16,7.40625 a 0.24280127,0.24280127 0 0 0 0,0.03125 c 2.244725,4.237028 4.419921,8.519188 6.75,12.71875 0.212801,0.370088 0.400362,0.613222 0.5,0.8125 A 0.24280127,0.24280127 0 0 0 23.25,21 c 0.187549,0.34548 0.448537,0.656916 0.59375,0.8125 0.14288,0.190508 0.269683,0.323435 0.53125,0.46875 a 0.24280127,0.24280127 0 0 0 0.03125,0 c 0.312346,0.151135 0.686652,0.264314 1.0625,0.3125 a 0.24280127,0.24280127 0 0 0 0.03125,0 c 0.408091,0 0.777196,-0.180144 1.1875,-0.3125 a 0.24280127,0.24280127 0 0 0 0.03125,0 c 0.446949,-0.167606 0.68056,-0.552733 0.875,-0.8125 0.01477,-0.01231 0.01987,-0.02 0.03125,-0.03125 0.0588,-0.05814 0.08299,-0.123944 0.125,-0.1875 0.05014,-0.07586 0.107293,-0.144465 0.1875,-0.25 a 0.24280127,0.24280127 0 0 0 0.03125,-0.03125 c 0.155627,-0.245727 0.578245,-0.804321 0.90625,-1.3125 0.218935,-0.364891 0.435608,-0.738098 0.65625,-1.125 1.972682,1.623534 3.3125,3.916599 3.3125,6.65625 10e-7,4.92192 -3.917348,8.84375 -8.84375,8.84375 -4.921775,0 -8.84375,-3.921973 -8.84375,-8.84375 0,-2.021607 0.648423,-3.818967 1.8125,-5.3125 0.347618,-0.453415 0.609904,-1.12566 0.5,-1.875 -0.09805,-0.686354 -0.429701,-1.230592 -0.9375,-1.625 -1.824719,-1.354989 -3.349515,-2.429791 -5.1875,-3.78125 -0.830071,-0.616624 -1.9360249,-0.574963 -2.75,-0.0625 -0.015653,0.0099 -0.047062,-0.01023 -0.0625,0 A 0.24280127,0.24280127 0 0 0 8.5,12.5625 a 0.24280127,0.24280127 0 0 0 -0.0625,0.03125 0.24280127,0.24280127 0 0 0 -0.03125,0 C 8.1973946,12.742932 8.0606927,12.889104 7.9375,13.03125 5.3972182,16.40613 3.75,20.619528 3.75,25.1875 c 0,11.136922 9.113078,20.25 20.25,20.25 11.141379,0 20.25,-9.113143 20.25,-20.25 C 44.25,18.374208 40.726172,12.491235 35.5625,8.875 35.708032,8.6545416 35.887728,8.4254245 36,8.25 c 0.209528,-0.349216 0.415099,-0.6241697 0.59375,-0.90625 0.05212,-0.099283 0.09249,-0.2058938 0.125,-0.28125 0.03251,-0.075356 0.07797,-0.1507831 0.0625,-0.125 0.01297,-0.021212 1.23e-4,-0.062842 0,-0.0625 A 0.24280127,0.24280127 0 0 0 36.8125,6.84375 c 0.002,-0.00739 -6.3e-4,-0.027506 0,-0.03125 0.0067,-0.011287 -5.5e-5,-0.031117 0,-0.03125 0.0043,-0.00735 -0.0065,-0.020197 0,-0.03125 0.0093,-0.012825 0.02615,0.010032 0.03125,0 0.0015,-0.00787 -0.0011,-0.021298 0,-0.03125 0.0064,-0.00918 -0.0059,-0.021947 0,-0.03125 0.0036,-0.012828 0.02919,-0.020952 0.03125,-0.03125 0.01704,-0.030641 0.02831,-0.083942 0.03125,-0.09375 0.01363,-0.014667 0.02365,-0.023055 0.03125,-0.03125 3.5e-5,-1.9e-4 -2e-6,-0.031155 0,-0.03125 0.0022,-0.00677 -0.0016,-0.026351 0,-0.03125 0.0068,-0.017892 0.03119,-0.030992 0.03125,-0.03125 1e-4,-4.304e-4 -7.73e-4,-0.022707 0,-0.03125 0.0031,-0.034173 3.93e-4,-0.055527 0,-0.0625 -7.87e-4,-0.013946 0,-0.016788 0,-0.03125 0.02559,-0.036476 0.07281,-0.020317 0.09375,-0.125 a 0.24280127,0.24280127 0 0 0 0,-0.03125 c 0.01718,-0.1145132 0.0039,-0.1958858 0,-0.21875 -5.6e-4,-0.00327 0,-0.03125 0,-0.03125 C 37.08806,5.854418 37.13146,5.816633 37.125,5.6875 37.119896,5.279411 36.993911,4.8744612 36.8125,4.53125 36.632378,4.1994479 36.372803,3.8970215 36.03125,3.6875 36.020607,3.6798981 36.010589,3.6640534 36,3.65625 35.910249,3.590107 35.804171,3.5249004 35.6875,3.46875 35.659678,3.4473478 35.65814,3.4492344 35.625,3.4375 35.54925,3.410678 35.494714,3.406981 35.46875,3.40625 c -0.0049,-1.371e-4 -0.03039,-7.1e-5 -0.03125,0 C 35.4363,3.4063446 35.39881,3.375 35.40625,3.375 35.39004,3.362349 35.3639,3.385132 35.34375,3.375 35.31856,3.362335 35.30483,3.349495 35.28125,3.34375 35.267101,3.3403033 35.261083,3.3125 35.25,3.3125 l -0.0625,0 C 35.09162,3.274211 34.988146,3.21875 34.84375,3.21875 c -0.0448,-3e-7 -0.02335,-3.534e-4 -0.03125,0 A 0.24280127,0.24280127 0 0 0 34.65625,3.1875 l -0.1875,0 c -0.0092,-0.00146 -0.02196,0.00138 -0.03125,0 C 34.128456,3.14161 33.781025,3.13586 33.40625,3.09375 a 0.24280127,0.24280127 0 0 0 -0.03125,0 C 32.567722,3.0483973 31.554036,3.0137943 30.5,2.96875 29.438127,2.9233707 28.353842,2.9194572 27.5625,2.875 c -0.35697,10e-8 -0.660762,-0.0625 -0.96875,-0.0625 l -0.3125,0 -0.03125,0 -0.09375,0 c 0.02284,0 -0.02761,0.00522 -0.09375,0 -0.06614,-0.00522 -0.167218,-0.022317 -0.28125,-0.03125 -0.228064,-0.017867 -0.558941,-0.039832 -0.9375,-0.0625 -0.799287,0 -1.89112,-0.017591 -2.9375,-0.0625 C 20.865166,2.611181 19.861679,2.5625 19.03125,2.5625 l -1.03125,0 -0.4375,0 a 0.24280127,0.24280127 0 0 0 -0.0625,0 z"
         inkscape:connector-curvature="0"
         style="fill:#a64a00" />
      <path
         id="3"
         transform="matrix(0.9538125,0,0,0.9538125,-4.6097646,-1.4369155)"
         d="m 23.09375,5.34375 c -0.146471,0.02842 -0.20554,0.077011 -0.25,0.09375 -0.122938,0.046291 -0.161443,0.059657 -0.3125,0.15625 -0.257908,0.1649268 -0.349918,0.3478701 -0.40625,0.4375 -0.05185,0.082497 -0.202672,0.1961617 -0.25,0.59375 -0.01624,0.136321 0.0033,0.3491169 0,0.3125 0.0088,0.098206 0.03631,0.17185 0.0625,0.25 0.01309,0.039075 0.01918,0.098331 0.03125,0.125 0.005,0.041753 -0.03199,-0.038662 0.03125,0.125 0.05073,0.1312833 0.105612,0.234065 0.15625,0.34375 0.126864,0.2747965 0.285726,0.6053135 0.46875,0.96875 0.378885,0.7523643 0.862561,1.681547 1.375,2.65625 0.51356,0.976837 1.06646,1.971881 1.46875,2.71875 0.201145,0.373434 0.348296,0.684023 0.46875,0.90625 0.120454,0.222227 0.243795,0.481552 0.1875,0.375 -0.0407,-0.07703 0.02274,-0.01709 0.03125,0 0.0085,0.01709 0.01528,0.03057 0.03125,0.0625 0.03193,0.06386 0.06693,0.166629 0.125,0.28125 0.116136,0.229242 0.270738,0.529423 0.46875,0.90625 0.387311,0.737075 0.920187,1.742717 1.4375,2.71875 0.512844,0.967601 1.027374,1.94545 1.4375,2.6875 0.205054,0.371012 0.361217,0.674188 0.5,0.90625 0.09399,0.157162 0.181789,0.290051 0.21875,0.34375 -0.03003,-0.04363 0.01409,0.02832 0.125,0.15625 0.110987,0.128017 0.112937,0.09967 0.15625,0.125 0.01964,0.02101 0.03936,0.04081 0.0625,0.0625 0.01291,0.0032 0.09069,0.06075 0.09375,0.0625 0.05865,0.04654 0.09785,0.09628 0.15625,0.125 0.03042,0.01496 0.312856,0.144536 0.625,0.15625 0.357432,0.01342 0.651598,-0.131165 0.75,-0.1875 0.266908,-0.152809 0.653673,-0.52421 0.1875,-0.15625 C 32.429073,23.7369 32.46529,23.808341 32.75,23.5 c 0.264674,-0.286634 0.275603,-0.37682 0.15625,-0.21875 0.02933,-0.03885 0.185573,-0.233496 0.34375,-0.46875 0.237195,-0.352776 0.509749,-0.784995 0.84375,-1.3125 0.431928,-0.682166 0.928928,-1.484908 1.40625,-2.25 2.916547,1.83308 4.90625,4.956113 4.90625,8.65625 -10e-7,5.769159 -4.665147,10.40625 -10.4375,10.40625 -5.772354,-2e-6 -10.40625,-4.633898 -10.40625,-10.40625 -1e-6,-2.376914 0.832008,-4.543793 2.1875,-6.3125 0.215703,-0.28166 0.336133,-0.678306 0.28125,-1.0625 -0.05345,-0.374148 -0.294792,-0.709091 -0.59375,-0.9375 l 0.03125,-0.03125 c -0.01156,-0.0086 -0.01979,0.0085 -0.03125,0 -1.337999,-0.996002 -2.046015,-1.507791 -2.375,-1.75 -0.0857,-0.06309 -0.148086,-0.09846 -0.21875,-0.15625 0.0025,0.0027 -0.01499,-0.01461 -0.03125,-0.03125 C 18.8044,17.6167 18.8061,17.6159 18.78125,17.59375 18.77645,17.58945 18.76177,17.57117 18.75,17.5625 18.73256,17.55027 18.71816,17.51645 18.6875,17.5 c -0.0067,-0.0052 -0.01741,-0.02219 -0.03125,-0.03125 -0.08147,-0.05671 -0.09988,-0.04746 -0.125,-0.0625 -0.0069,-0.0031 -0.03252,-4.68e-4 -0.03125,0 -0.02461,-0.01454 -0.06324,-0.04852 -0.125,-0.09375 -0.339944,-0.248964 -0.992547,-0.746493 -2.34375,-1.75 a 0.972394,0.972394 0 0 0 -0.03125,0 c -0.590909,-0.433847 -1.531621,-0.295436 -1.96875,0.28125 -2.526714,3.347742 -4.125,7.513833 -4.125,12.0625 0,11.06524 8.997248,20.0625 20.0625,20.0625 11.065216,-2e-6 20.09375,-8.994774 20.09375,-20.0625 10e-7,-7.142537 -3.864633,-13.257251 -9.5,-16.78125 0.347681,-0.554922 0.727877,-1.128687 1,-1.5625 0.228394,-0.3641029 0.45633,-0.6816331 0.625,-0.96875 0.112459,-0.1914333 0.178929,-0.3580949 0.1875,-0.375 C 42.36154,8.245293 42.40895,8.159869 42.46875,8 c -0.0045,0.012082 0.0017,-0.036351 0,-0.03125 C 42.48979,7.927443 42.50918,7.8241289 42.53125,7.75 42.55921,7.656104 42.59258,7.5743066 42.59375,7.46875 42.59625,7.240609 42.59035,7.0391893 42.4375,6.75 42.269611,6.4322445 41.937283,6.2284996 41.96875,6.25 41.94691,6.235079 41.98533,6.24873 41.71875,6.125 41.589373,6.064946 41.41753,6.0172899 41.46875,6.03125 41.370926,6.0045876 41.330475,6.0013958 41.25,6 41.09604,5.9759672 40.987137,5.9789945 40.875,5.96875 40.65472,5.9486258 40.268028,5.9010358 39.8125,5.875 38.961568,5.8263652 37.873797,5.793267 36.78125,5.75 35.670484,5.706011 34.550848,5.684259 33.71875,5.65625 33.302006,5.642222 32.96671,5.636814 32.71875,5.625 32.59477,5.61909 32.474539,5.59735 32.40625,5.59375 c -0.06829,-0.0036 -0.0097,0.00433 -0.125,0 -0.150934,-0.00567 -2.306825,-0.079598 -4.5,-0.15625 -1.094643,-0.038258 -2.15218,-0.078986 -3,-0.09375 -0.429762,-0.00748 -0.830629,-0.00437 -1.09375,0 -0.07291,0.00121 -0.131489,-0.017099 -0.34375,0 0.205152,-0.016522 0.03221,-0.054758 -0.25,0 z"
         inkscape:connector-curvature="0"
         style="fill:#f57900" />
      <path
         id="4"
         d="m 17.53125,4.28125 c -0.06314,0 -0.11566,0.0625 -0.15625,0.0625 -0.05412,1e-7 -0.07958,0.048649 -0.15625,0.09375 C 17.105999,4.5277019 17.054121,4.5660481 17,4.65625 c -0.05412,0.090202 -0.138209,0.1771973 -0.15625,0.3125 -0.009,0.090202 0,0.1875 0,0.1875 0.0045,0.045101 0.01772,0.1423991 0.03125,0.1875 1e-6,-2e-7 0.0174,-0.010303 0.0625,0.125 0.03608,0.090202 0.07539,0.1771972 0.125,0.3125 0.108243,0.2255047 0.261606,0.5280437 0.4375,0.84375 0.360806,0.7216147 0.82541,1.646631 1.3125,2.59375 0.48709,0.902019 0.991643,1.840885 1.375,2.5625 0.189424,0.360807 0.351487,0.663346 0.46875,0.84375 0.112751,0.225504 0.20554,0.375 0.1875,0.375 0.009,0.0451 0.04446,0.04865 0.0625,0.09375 0.02706,0.0451 0.07088,0.114696 0.125,0.25 0.108242,0.180403 0.252587,0.514192 0.4375,0.875 0.374337,0.676514 0.85215,1.615381 1.34375,2.5625 0.487092,0.902018 0.987132,1.854736 1.375,2.53125 0.189424,0.360808 0.342468,0.680746 0.46875,0.90625 0.07216,0.0902 0.173649,0.173649 0.21875,0.21875 0.0045,0.0451 0.03963,0.0799 0.09375,0.125 0.08118,0.0902 0.111469,0.09375 0.125,0.09375 0.01353,0 0.0045,0.0625 0,0.0625 0.03608,0.0451 0.04865,0.04865 0.09375,0.09375 0.04059,1e-6 0.203617,0.0625 0.375,0.0625 0.193936,0 0.347619,-0.0174 0.40625,-0.0625 0.117261,-0.0902 0.242583,-0.229052 0.09375,-0.09375 -0.009,1e-6 0.01676,-0.0035 0.125,-0.09375 0.117261,-0.135303 0.14304,-0.232601 0.125,-0.1875 0.05412,-0.0902 0.159478,-0.225847 0.28125,-0.40625 0.216485,-0.360807 0.496794,-0.753891 0.8125,-1.25 0.51866,-0.811817 1.096999,-1.816732 1.65625,-2.71875 3.238247,1.804035 5.46875,5.18737 5.46875,9.15625 -10e-7,5.818017 -4.735462,10.5 -10.5625,10.5 -5.827039,0 -10.5,-4.681982 -10.5,-10.5 0,-2.43545 0.825453,-4.602213 2.1875,-6.40625 0.121773,-0.135303 0.18782,-0.368245 0.15625,-0.59375 -0.02706,-0.225504 -0.141115,-0.409798 -0.3125,-0.5 -1.758935,-1.307925 -3.419545,-2.504574 -5.1875,-3.8125 C 9.9877735,13.680745 9.4935449,13.715544 9.25,14.03125 6.9092626,17.143213 5.4375,20.979264 5.4375,25.21875 5.4375002,35.411556 13.739863,43.75 23.96875,43.75 34.202147,43.75 42.5625,35.411557 42.5625,25.21875 42.562499,18.40851 38.80128,12.514665 33.3125,9.3125 33.749976,8.6359858 34.192993,7.8849608 34.53125,7.34375 34.756754,6.9829427 34.980677,6.7255046 35.125,6.5 c 0.08118,-0.1804036 0.12919,-0.2847982 0.15625,-0.375 0.009,1e-7 0.03093,-0.034798 0.0625,-0.125 -0.0045,-2e-7 0.01772,-0.048649 0.03125,-0.09375 -0.02255,0.045101 0.0087,0.058952 0.03125,-0.03125 0.01353,-0.045101 0,-0.097298 0,-0.1875 0,-0.090202 0.02319,-0.2084473 -0.0625,-0.34375 C 35.258059,5.1633462 35.076031,5.0625 35.0625,5.0625 35.026419,5.0173991 35.041232,5.013851 34.9375,4.96875 34.865338,4.9236491 34.78125,4.892399 34.78125,4.9375 c -0.05863,-0.045101 -0.08441,-0.045101 -0.125,0 -0.0451,-0.045101 -0.09407,0 -0.0625,0 C 34.508058,4.8923988 34.407212,4.875 34.3125,4.875 34.077977,4.8298991 33.749658,4.78125 33.34375,4.78125 32.540955,4.7361491 31.483842,4.7013508 30.4375,4.65625 29.386649,4.6111489 28.329536,4.6076009 27.53125,4.5625 c -0.401397,-2e-7 -0.729715,0 -0.96875,0 -0.117263,-0.045101 -0.213598,-0.03125 -0.28125,-0.03125 -0.06314,1e-7 -0.08441,0 -0.125,0 C 26.079579,4.5312501 23.967682,4.4201009 21.875,4.375 20.828659,4.3298989 19.798287,4.28125 19,4.28125 c -0.401398,-0.045101 -0.725205,0 -0.96875,0 -0.103732,0 -0.217468,-0.045101 -0.34375,0 0.0451,0 -0.02997,-0.045101 -0.15625,0 z"
         inkscape:connector-curvature="0"
         style="opacity:0.8;fill:none;stroke:url(#linearGradient4540);stroke-width:0.954" />
      <path
         id="5"
         d="m 17.710677,3.6594879 c -0.04961,0 -0.162363,0 -0.297665,0.045101 -0.139813,0 -0.198444,0.045101 -0.239036,0.090202 -0.117262,0.045101 -0.153343,0.045101 -0.297665,0.1353028 -0.248055,0.1353027 -0.333747,0.3157064 -0.387868,0.4059082 -0.04961,0.090202 -0.193935,0.1804037 -0.239035,0.586312 -0.01353,0.1353027 0.0045,0.3157063 0,0.2706054 0.01353,0.1353027 0.05412,0.3157064 0.0902,0.3608073 0.0045,0.045101 -0.03157,-0.045101 0.02706,0.1353028 0.04961,0.1353027 0.103732,0.2255045 0.148833,0.3157063 0.121773,0.2706055 0.275116,0.586312 0.451009,0.947119 0.360807,0.7216144 0.820837,1.5785323 1.307927,2.5256514 0.491599,0.9471189 1.01928,1.8942379 1.402638,2.5707529 0.193934,0.360807 0.333747,0.676513 0.446499,0.902017 0.117262,0.180404 0.234525,0.45101 0.180404,0.315706 0.0045,0.0451 0.02706,0 0.02706,0 0.009,0.0451 0.01804,0.0451 0.03157,0.0902 0.03157,0.0451 0.06314,0.135302 0.117263,0.270605 0.112751,0.225504 0.261584,0.49611 0.451008,0.856918 0.365318,0.676513 0.874959,1.668733 1.371068,2.570751 0.248055,0.496111 0.47356,0.902019 0.712594,1.307927 5.439171,-1.488331 11.180517,-2.615853 17.228549,-3.111963 -1.565001,-2.435449 -3.698274,-4.510092 -6.169804,-6.0435229 0.333747,-0.5412107 0.694554,-1.0824215 0.95614,-1.4883298 0.216484,-0.3608072 0.432967,-0.6765132 0.595332,-0.947119 0.108241,-0.1804036 0.171383,-0.3157064 0.175893,-0.3608073 -0.009,0.045101 0.03608,-0.045101 0.0902,-0.1804037 -0.0045,0 0.0045,-0.045101 0,-0.045101 0.0451,-0.090202 0.117262,-0.2706055 0.121773,-0.4510092 0,-0.2255045 -0.0045,-0.4059082 -0.148834,-0.7216145 -0.162363,-0.2706055 -0.47807,-0.4961101 -0.451009,-0.4510092 -0.01804,-0.045101 0.01804,0 -0.234525,-0.1353027 -0.126282,-0.045101 -0.288646,-0.090202 -0.239035,-0.090202 -0.09471,0 -0.135302,0 -0.211974,0 -0.144323,-0.045101 -0.248054,-0.045101 -0.356297,-0.045101 -0.207465,-0.045101 -0.577292,-0.090202 -1.014771,-0.090202 -0.811816,-0.045101 -1.849137,-0.090202 -2.890969,-0.1353028 -1.059871,-0.045101 -2.124252,-0.045101 -2.918029,-0.090202 -0.396888,0 -0.717104,0 -0.956139,0 -0.117262,-0.045101 -0.230014,-0.045101 -0.297666,-0.045101 -0.06314,0 -0.009,0 -0.117263,0 -0.144322,0 -2.200924,-0.090202 -4.293606,-0.1353028 -1.041831,-0.045101 -2.052092,-0.090202 -2.859398,-0.090202 -0.410419,-0.045101 -0.793776,0 -1.046341,0 -0.06765,0 -0.126283,-0.045101 -0.324727,0 0.03157,0 0.0451,-0.045101 0.05863,-0.045101 z M 9.6601645,13.175781 c -0.3472771,0.0902 -0.6855339,0.270605 -0.8929982,0.541211 -2.3993686,3.157063 -3.9192693,7.125945 -3.9327996,11.410531 3.2337355,-1.48833 6.6343443,-2.931559 10.2243773,-4.194385 0.302176,-0.631412 0.653963,-1.217724 1.073401,-1.758936 0.202955,-0.270605 0.320217,-0.631412 0.266095,-0.992219 -0.05412,-0.360808 -0.270605,-0.721616 -0.568271,-0.947119 -1.294396,-0.947121 -1.94836,-1.398129 -2.264066,-1.668735 -0.08118,-0.0451 -0.139813,-0.0902 -0.207464,-0.135302 0,0 -0.01353,0 -0.03157,-0.0451 -0.0045,0 -0.0045,0 -0.02706,0 -0.0045,0 -0.01804,-0.0451 -0.03157,-0.0451 -0.01804,0 -0.03157,-0.0451 -0.05863,-0.0451 -0.009,0 -0.01804,-0.0451 -0.03157,-0.0451 -0.07667,-0.0451 -0.09471,-0.0451 -0.117262,-0.0451 -0.009,0 -0.03157,0 -0.03157,0 -0.02255,-0.0451 -0.05863,-0.0451 -0.117262,-0.0902 -0.324726,-0.270606 -0.947119,-0.721616 -2.237005,-1.668735 -0.009,0 -0.01804,0 -0.03157,0 -0.279625,-0.225505 -0.635923,-0.315706 -0.9831995,-0.270605 z"
         inkscape:connector-curvature="0"
         style="opacity:0.8;fill:url(#linearGradient4542)" />
    </g>
    <text
       xml:space="preserve"
       style="font-style:normal;font-weight:normal;font-size:19.96811104px;line-height:125%;font-family:sans-serif;letter-spacing:0px;word-spacing:0px;fill:#000000;fill-opacity:1;stroke:none;stroke-width:1px;stroke-linecap:butt;stroke-linejoin:miter;stroke-opacity:1"
       x="311.79828"
       y="292.38986"
       id="text11920"
       sodipodi:linespacing="125%"><tspan
         sodipodi:role="line"
         id="tspan11922"
         x="311.79828"
         y="292.38986"
         style="font-style:normal;font-variant:normal;font-weight:normal;font-stretch:normal;font-size:14.11745358px;font-family:Arial;-inkscape-font-specification:Arial;text-align:center;text-anchor:middle">Servlet</tspan><tspan
         sodipodi:role="line"
         x="311.79828"
         y="310.03668"
         id="tspan11924"
         style="font-style:normal;font-variant:normal;font-weight:normal;font-stretch:normal;font-size:14.11745358px;font-family:Arial;-inkscape-font-specification:Arial;text-align:center;text-anchor:middle">JSP</tspan></text>
  </g>
  <path
     d="m 58.340978,180.0176 116.211332,0"
     inkscape:connector-curvature="0"
     sodipodi:nodetypes="cc"
     id="path622"
     style="fill:none;stroke:#000000;stroke-width:1.20000005;stroke-linecap:square;stroke-miterlimit:4;stroke-dasharray:none;marker-start:url(#Arrow2Mstart)" />
  <path
     d="m 56.09432,169.86079 116.99934,0"
     inkscape:connector-curvature="0"
     sodipodi:nodetypes="cc"
     id="path620"
     style="fill:none;stroke:#000000;stroke-width:1.20000005;stroke-linecap:square;stroke-miterlimit:4;stroke-dasharray:none;marker-end:url(#Arrow2Mend)" />
  <g
     transform="matrix(0.45216,0,0,0.45216,-1.3564699,40.743636)"
     inkscape:label="devices/computer"
     id="g450">
    <rect
       x="26.5"
       y="32.823002"
       width="256"
       height="256"
       display="none"
       inkscape:label="256x256"
       id="rect452"
       style="display:none;fill:#eeeeec" />
    <rect
       x="-35.5"
       y="32.823002"
       width="48"
       height="48"
       display="none"
       inkscape:label="48x48"
       id="rect454"
       style="display:none;fill:#eeeeec" />
    <text
       x="-418.41196"
       y="34.084831"
       display="none"
       font-size="56.115px"
       font-weight="bold"
       style="font-weight:bold;font-size:56.11500168px;line-height:125%;font-family:Myriad;text-indent:0;text-decoration:none;text-decoration-line:none;text-transform:none;block-progression:tb;display:none;fill:#2e3436;stroke-width:5"
       sodipodi:linespacing="125%"
       xml:space="preserve"
       id="text456"><tspan
         x="-418.41196"
         y="34.084831"
         sodipodi:role="line"
         id="tspan458">audio-x-generic</tspan></text>
    <rect
       x="23.171"
       y="25.594"
       width="256"
       height="256"
       display="none"
       inkscape:label="256x256"
       id="rect460"
       style="display:none;fill:#eeeeec" />
    <rect
       x="-38.828999"
       y="25.594"
       width="48"
       height="48"
       display="none"
       inkscape:label="48x48"
       id="rect462"
       style="display:none;fill:#eeeeec" />
    <text
       x="-421.7406"
       y="26.8554"
       display="none"
       font-size="56.115px"
       font-weight="bold"
       style="font-weight:bold;font-size:56.11500168px;line-height:125%;font-family:Myriad;text-indent:0;text-decoration:none;text-decoration-line:none;text-transform:none;block-progression:tb;display:none;fill:#2e3436;stroke-width:5"
       sodipodi:linespacing="125%"
       xml:space="preserve"
       id="text464"><tspan
         x="-421.7406"
         y="26.8554"
         sodipodi:role="line"
         id="tspan466">audio-x-generic</tspan></text>
    <rect
       x="23.424"
       y="25.426001"
       width="256"
       height="256"
       display="none"
       inkscape:label="256x256"
       id="rect468"
       style="display:none;fill:#eeeeec" />
    <rect
       x="-38.576"
       y="25.426001"
       width="48"
       height="48"
       display="none"
       inkscape:label="48x48"
       id="rect470"
       style="display:none;fill:#eeeeec" />
    <text
       x="-421.48834"
       y="26.687218"
       display="none"
       font-size="56.115px"
       font-weight="bold"
       style="font-weight:bold;font-size:56.11500168px;line-height:125%;font-family:Myriad;text-indent:0pt;text-decoration:none;text-decoration-line:none;text-transform:none;display:none;fill:#2e3436;stroke-width:5"
       sodipodi:linespacing="125%"
       xml:space="preserve"
       id="text472"><tspan
         x="-421.48834"
         y="26.687218"
         sodipodi:role="line"
         id="tspan474">audio-x-generic</tspan></text>
    <g
       transform="matrix(0.95028,0,0,0.95028,2.8658,-6.7131)"
       id="g476"
       style="enable-background:new">
      <path
         transform="matrix(1.1167,0,0,1.7279,-5.5809,-94.93)"
         d="m 37.413,124.42 c 0,0 0.62163,1.624 1.125,1.8611 16.014,1.0811 33.196,1.174 51.875,0 0.50337,-0.23709 1.125,-1.8611 1.125,-1.8611 -19.248,1.9522 -36.493,0.72469 -54.125,0 z"
         inkscape:connector-curvature="0"
         sodipodi:nodetypes="ccccc"
         id="path478"
         style="opacity:0.7;fill-rule:evenodd;filter:url(#filter4281);enable-background:new" />
      <path
         d="m 56.766,99.147 19.695,0 0.57928,17.378 c -3.4562,0.52745 -11.14,0.92993 -21.24,-0.1931 l 0.96546,-17.185 z"
         inkscape:connector-curvature="0"
         sodipodi:nodetypes="cccccc"
         id="path480" />
      <rect
         x="3.2479999"
         y="11.522"
         width="127.5"
         height="88.219002"
         rx="2.2456"
         ry="2.2456"
         id="rect482"
         style="fill:url(#linearGradient14891);stroke:#797979;stroke-width:0.49599999;stroke-linecap:round;stroke-dashoffset:1.26170003" />
      <path
         d="m 10.003,13.613 -0.22459,0.22714 -0.8488,0 0,0.67641 0.73387,0 -0.22459,0.22722 -0.28206,0 -0.22722,-0.17239 0,1.1309 -0.28206,0 0,-2.0892 1.3555,0 z m 1.6732,1.862 -0.22459,0.22722 -1.1309,0 -0.22459,-0.22196 0,-1.8673 0.28206,0 0,1.862 1.298,0 z m 1.6374,0.22722 -0.28206,0 0,-0.95847 -0.79134,0 -0.22459,-0.17239 0,1.1309 -0.28206,0 0,-1.8621 0.22459,-0.22714 1.1309,0 0.22459,0.22714 0,1.8621 z m -0.28206,-1.1857 0,-0.67641 -1.0159,0 0,0.67641 1.0159,0 z m 2.348,-0.90356 -0.2246,0.22714 -0.56411,0 0,1.8621 -0.28206,0 0,-1.8621 -0.73388,0 0.22459,-0.22714 1.58,0 z m 1.4612,1.862 -0.22714,0.22722 -1.3555,0 0,-2.0892 0.95847,0 0.22722,0.22714 0,0.45182 -0.22722,0.2246 0.39698,0 0.22714,0.22722 0,0.73125 z m -0.67896,-0.95847 0,-0.67641 -0.62158,0 0,0.67641 0.62158,0 z m 0.39436,0.95847 0,-0.73125 -0.79134,0 -0.22459,-0.17239 0,0.90364 1.0159,0 z m 2.1107,0 -0.22714,0.22722 -1.1282,0 -0.22722,-0.22196 0,-1.8673 0.28206,0 0,1.862 1.0159,0 0,-1.862 0.28461,0 0,1.862 z m 1.8284,0.22722 -0.27951,0 -1.0133,-1.6871 0,1.6871 -0.27943,0 0,-1.8542 0.33689,-0.33952 0.95584,1.6323 0,-1.5278 0.27951,0 0,2.0892 z m 2.0662,-2.0892 -0.22459,0.22714 -0.56411,0 0,1.8621 -0.28206,0 0,-1.8621 -0.73388,0 0.22459,-0.22714 1.58,0 z m 1.4612,1.862 -0.22714,0.22722 -1.1282,0 -0.22722,-0.22196 0,-1.8673 0.28206,0 0,1.862 1.0159,0 0,-1.862 0.28461,0 0,1.862 z"
         inkscape:connector-curvature="0"
         id="path484"
         style="fill:#585954" />
      <path
         transform="matrix(0.57392,0,0,0.4581,-7.1359,7.1006)"
         d="m 27.855469,19.792969 0,165.070311 201.976561,0 0,-165.070311 -201.976561,0 z"
         inkscape:original="M 18.125 10.0625 L 18.125 194.59375 L 239.5625 194.59375 L 239.5625 10.0625 L 18.125 10.0625 z "
         inkscape:radius="-9.7300129"
         sodipodi:type="inkscape:offset"
         id="path486"
         style="fill:url(#linearGradient14893);stroke:#5e1313;stroke-width:1.53260005;stroke-linecap:round;stroke-dashoffset:1.26170003" />
      <path
         transform="matrix(0.40305,0,0,0.47806,-4.1761,6.7097)"
         d="m 19.564,14.13 4.0026,5.1462 0,158.39 -5.718,9.7205 1.7154,-173.25 z"
         inkscape:connector-curvature="0"
         id="path488"
         style="opacity:0.4;fill-rule:evenodd;filter:url(#filter3362)" />
      <path
         transform="matrix(-0.40305,0,0,0.47806,138.18,6.7097)"
         d="m 19.564,14.13 4.0026,5.1462 0,158.39 -5.718,9.7205 1.7154,-173.25 z"
         inkscape:connector-curvature="0"
         id="path490"
         style="opacity:0.4;fill-rule:evenodd;filter:url(#filter3362)" />
      <path
         transform="matrix(0,0.33464,-0.69741,0,137.27,5.3575)"
         d="m 19.564,14.13 4.0026,5.1462 0,158.39 -5.718,9.7205 1.7154,-173.25 z"
         inkscape:connector-curvature="0"
         id="path492"
         style="opacity:0.4;fill:#464646;fill-rule:evenodd;filter:url(#filter3362)" />
      <path
         transform="matrix(0.57551,0,0,0.49943,-7.1477,1.5431)"
         d="m 122.12,197.69 -1.75,25.377 c 4.5914,3.3185 9.0831,7.1438 13.219,-0.0856 l -1.75,-25.292 -9.7188,0 0,-4e-5 z"
         inkscape:connector-curvature="0"
         sodipodi:nodetypes="cccccc"
         id="path494"
         style="opacity:0.5;fill:#cccccc;filter:url(#filter3631)" />
      <path
         transform="matrix(0.57579,0,0,0.47806,-7.1841,6.7097)"
         d="m 19.912,191.57 4.0026,-3.4308 210.99,0.5718 2.859,3.4308 -4.0026,2.859 -212.71,-0.5718 -1.1436,-2.859 z"
         inkscape:connector-curvature="0"
         id="path496"
         style="opacity:0.7;fill:#605f5a;fill-rule:evenodd;filter:url(#filter3384)" />
      <g
         transform="matrix(0.061401,0,0,0.061401,77.128,76.817)"
         id="g498"
         style="fill:#585954">
        <circle
           transform="translate(-210.3,261.44)"
           cx="9.1239996"
           cy="46.903999"
           r="9.1239996"
           id="circle500" />
        <circle
           transform="translate(-210.3,261.44)"
           cx="74.547997"
           cy="84.667"
           r="9.1239996"
           id="circle502" />
        <circle
           transform="translate(-210.3,261.44)"
           cx="74.540001"
           cy="9.1260004"
           r="9.1239996"
           id="circle504" />
        <path
           d="m -157.56,285.77 c 11.361,0 20.787,8.436 22.348,19.373 l 15.632,0 c -0.71,-8.594 -4.273,-16.604 -10.23,-22.921 -3.815,1.943 -8.506,1.98 -12.491,-0.32 -3.988,-2.303 -6.302,-6.387 -6.524,-10.667 -2.831,-0.66 -5.756,-1.002 -8.735,-1.002 -5.704,0 -11.216,1.245 -16.229,3.606 l 7.826,13.555 c 2.599,-1.046 5.435,-1.624 8.403,-1.624 z"
           inkscape:connector-curvature="0"
           id="path506" />
        <path
           d="m -180.14,308.35 c 0,-7.193 3.381,-13.61 8.636,-17.747 l -7.824,-13.553 c -1.835,1.282 -3.571,2.733 -5.188,4.349 -4.528,4.528 -7.775,9.995 -9.562,15.962 3.6,2.332 5.984,6.38 5.984,10.989 0,4.608 -2.384,8.657 -5.984,10.988 1.787,5.967 5.034,11.434 9.562,15.962 1.616,1.616 3.35,3.065 5.184,4.348 l 7.825,-13.554 c -5.254,-4.137 -8.633,-10.554 -8.633,-17.744 z"
           inkscape:connector-curvature="0"
           id="path508" />
        <path
           d="m -135.21,311.54 c -1.557,10.941 -10.985,19.382 -22.349,19.382 -2.97,0 -5.807,-0.578 -8.406,-1.626 l -7.827,13.556 c 5.012,2.362 10.526,3.608 16.232,3.608 2.981,0 5.91,-0.344 8.742,-1.004 0.218,-4.285 2.533,-8.376 6.524,-10.68 3.986,-2.302 8.679,-2.265 12.495,-0.318 5.952,-6.318 9.511,-14.327 10.219,-22.918 l -15.63,0 z"
           inkscape:connector-curvature="0"
           id="path510" />
      </g>
      <path
         d="m 61.002,112.82 13.436,0"
         inkscape:connector-curvature="0"
         id="path512"
         style="opacity:0.85;fill:none;stroke:#000000;stroke-width:1.08829999;stroke-linecap:round" />
      <path
         d="m 36.969,119.8 c 0,0 0.67652,1.3058 1.2243,1.4964 17.428,0.86922 36.126,0.94396 56.455,0 0.54781,-0.19062 1.2243,-1.4964 1.2243,-1.4964 -19.908,-6.8089 -38.949,-6.6164 -58.904,0 l 0,0 z"
         inkscape:connector-curvature="0"
         sodipodi:nodetypes="ccccc"
         id="path514"
         style="fill:url(#linearGradient14895);fill-rule:evenodd;stroke:#000000;stroke-width:1.08829999;stroke-linecap:round;stroke-linejoin:round" />
      <path
         d="m 36.969,119.8 c 0,0 0.67652,1.3058 1.2243,1.4964 17.428,0.86922 36.126,0.94396 56.455,0 0.54781,-0.19062 1.2243,-1.4964 1.2243,-1.4964 -20.947,1.5696 -39.715,0.58267 -58.904,0 z"
         inkscape:connector-curvature="0"
         sodipodi:nodetypes="ccccc"
         id="path516"
         style="fill:url(#linearGradient14897);fill-rule:evenodd;enable-background:new" />
      <g
         transform="matrix(1.0883,0,0,1.0883,6.0745,-14.2)"
         id="g518"
         style="fill:#eeeeee;fill-rule:evenodd;stroke:url(#linearGradient14909);stroke-width:1.29410005;stroke-linecap:round;stroke-linejoin:round">
        <circle
           transform="matrix(0.57413,0,0,0.57413,35.613,42.899)"
           cx="83.625"
           cy="101.25"
           r="2.5"
           id="circle520"
           style="opacity:0.95999995;stroke:url(#linearGradient14899);enable-background:accumulate" />
        <circle
           transform="matrix(0.57413,0,0,0.57413,41.613,42.899)"
           cx="83.625"
           cy="101.25"
           r="2.5"
           id="circle522"
           style="opacity:0.95999995;stroke:url(#linearGradient14901);enable-background:accumulate" />
        <circle
           transform="matrix(0.57413,0,0,0.57413,47.613,42.899)"
           cx="83.625"
           cy="101.25"
           r="2.5"
           id="circle524"
           style="opacity:0.95999995;stroke:url(#linearGradient14903);enable-background:accumulate" />
        <circle
           transform="matrix(0.57413,0,0,0.57413,53.613,42.899)"
           cx="83.625"
           cy="101.25"
           r="2.5"
           id="circle526"
           style="opacity:0.95999995;stroke:url(#linearGradient14905);enable-background:accumulate" />
        <circle
           transform="matrix(0.57413,0,0,0.57413,59.613,42.899)"
           cx="83.625"
           cy="101.25"
           r="2.5"
           id="circle528"
           style="opacity:0.95999995;stroke:url(#linearGradient14907);enable-background:accumulate" />
      </g>
      <text
         x="13.495213"
         y="63.15905"
         font-size="26.081px"
         letter-spacing="0px"
         word-spacing="0px"
         style="font-size:26.08099937px;line-height:125%;font-family:sans-serif;letter-spacing:0px;word-spacing:0px;fill:#d38d5f;stroke-width:1px"
         sodipodi:linespacing="125%"
         xml:space="preserve"
         id="text530"><tspan
           x="13.495213"
           y="63.15905"
           font-weight="bold"
           sodipodi:role="line"
           id="tspan532"
           style="font-weight:bold;font-family:Arial;fill:#d38d5f">Browser</tspan></text>
    </g>
    <path
       d="m 6.3494,110.07 -3.0877,20.186 c -0.081982,0.81171 0.51933,1.4941 1.3352,1.4941 l 6.5487,0 118.26,0 c 0.81583,0 1.4172,-0.68241 1.3352,-1.4941 l -4.5019,-20.186 c -0.57972,-1.1952 -1.4199,-1.4254 -2.6068,-1.4941 l -114.67,0 C 7.68,108.45408 7.0681,109.08977 6.3554,110.07 Z"
       inkscape:connector-curvature="0"
       sodipodi:nodetypes="cccccccccc"
       id="path534"
       style="fill:url(#linearGradient14911);stroke:#4b4b4b;stroke-width:0.509;enable-background:new" />
    <path
       d="m 11.95,114.5 65.984,0 1.7575,12.143 -69.325,0 1.5832,-12.143 z"
       inkscape:connector-curvature="0"
       sodipodi:nodetypes="ccccc"
       id="path536"
       style="fill:url(#linearGradient14913);stroke:#2c2c2c;stroke-width:0.68054998;enable-background:new" />
    <path
       d="m 82.326,123.95 5.1074,0 -0.25008,-2.3942 5.3005,-0.029 0.3434,2.3992 5.055,0.0431 0.70766,2.6664 -15.976,0 -0.28809,-2.6855 0,-2e-5 z"
       inkscape:connector-curvature="0"
       sodipodi:nodetypes="ccccccccc"
       id="path538"
       style="fill:url(#linearGradient14915);stroke:#2c2c2c;stroke-width:0.68063998;enable-background:new" />
    <path
       d="m 100.47,114.5 21.009,0 2.153,12.137 -21.012,0 -2.1498,-12.137 z"
       inkscape:connector-curvature="0"
       sodipodi:nodetypes="ccccc"
       id="path540"
       style="fill:url(#linearGradient14917);stroke:#2c2c2c;stroke-width:0.68553001;enable-background:new" />
    <path
       d="m 13.019,110.1 4.9768,0.17677 -0.51814,2.5042 -4.9768,0 0.51814,-2.681 z"
       inkscape:connector-curvature="0"
       sodipodi:nodetypes="ccccc"
       id="path542"
       style="fill:url(#linearGradient14919);stroke:#2c2c2c;stroke-width:0.68063998;enable-background:new" />
    <path
       d="m 21.805,110.1 -0.50622,2.6773 15.51,0 0.27031,-2.6773 -15.274,0 z m 19.269,0.17678 -0.48148,2.5005 15.373,0 0,-2.6773 -14.891,0.17678 z M 59.68,110.1 l -0.03439,2.6773 17.964,0 -0.4245,-2.509 -17.505,-0.16828 -10e-7,0 z"
       inkscape:connector-curvature="0"
       sodipodi:nodetypes="ccccccccccccccc"
       id="path544"
       style="fill:url(#linearGradient14921);stroke:#2c2c2c;stroke-width:0.68474001;enable-background:new" />
    <path
       d="m 80.837,114.5 15.43,0 0.83068,4.9637 -15.613,0 -0.6478,-4.9637 z"
       inkscape:connector-curvature="0"
       sodipodi:nodetypes="ccccc"
       id="path546"
       style="fill:url(#linearGradient14923);stroke:#2c2c2c;stroke-width:0.68063998;enable-background:new" />
    <path
       d="m 80.193,110.11 15.431,0 0.16928,2.657 -15.251,0 -0.34838,-2.657 z"
       inkscape:connector-curvature="0"
       sodipodi:nodetypes="ccccc"
       id="path548"
       style="fill:url(#linearGradient14925);stroke:#2c2c2c;stroke-width:0.70504999;enable-background:new" />
    <g
       transform="matrix(1.0655,0,0.097566,0.67515,-18.6,77.295)"
       id="g550">
      <g
         transform="translate(161.12,9.1162)"
         id="g552">
        <circle
           transform="matrix(0.82615,0,0,0.82615,-8.6863,5.9254)"
           cx="-52.061001"
           cy="42.280998"
           r="2.0329001"
           id="circle554"
           style="fill:#3bff06;stroke:#1f5000;stroke-width:0.82687002;enable-background:new" />
        <circle
           transform="matrix(0.55884,0,0,0.44004,-22.603,21.768)"
           cx="-52.061001"
           cy="42.280998"
           r="2.0329001"
           id="circle556"
           style="fill:url(#linearGradient14927);enable-background:new" />
      </g>
      <g
         transform="translate(167.12,9.1162)"
         id="g558"
         style="enable-background:new">
        <circle
           transform="matrix(0.82615,0,0,0.82615,-8.6863,5.9254)"
           cx="-52.061001"
           cy="42.280998"
           r="2.0329001"
           id="circle560"
           style="fill:#3bff06;stroke:#1f5000;stroke-width:0.82687002;enable-background:new" />
        <circle
           transform="matrix(0.55884,0,0,0.44004,-22.603,21.768)"
           cx="-52.061001"
           cy="42.280998"
           r="2.0329001"
           id="circle562"
           style="fill:url(#linearGradient14929);enable-background:new" />
      </g>
      <g
         transform="translate(173.12,9.1162)"
         id="g564"
         style="enable-background:new">
        <circle
           transform="matrix(0.82615,0,0,0.82615,-8.6863,5.9254)"
           cx="-52.061001"
           cy="42.280998"
           r="2.0329001"
           id="circle566"
           style="fill:#176e00;stroke:#1f5000;stroke-width:0.82687002;enable-background:new" />
        <circle
           transform="matrix(0.55884,0,0,0.44004,-22.603,21.768)"
           cx="-52.061001"
           cy="42.280998"
           r="2.0329001"
           id="circle568"
           style="fill:url(#linearGradient14931);enable-background:new" />
      </g>
    </g>
    <path
       d="m 10.551,126.42 1.4386,-1.2588 4.8554,0 1.3487,1.3487 0.90915,-1.215 4.0362,0 0.99054,1.356 1.868,-1.4185 4.3346,0 0.77217,1.1558 0.93594,-1.2791 23.828,0 1.6445,1.105 1.0756,-1.1437 3.9336,0 2.2033,1.484 1.2631,-1.5583 5.5251,0 1.2038,1.4556 1.3665,-1.4678 4.2632,0 1.4936,1.6879"
       inkscape:connector-curvature="0"
       sodipodi:nodetypes="cccccccccccccccccccccc"
       id="path570"
       style="fill:url(#linearGradient14933);fill-rule:evenodd" />
    <path
       d="m 10.963,123.57 1.409,-0.59245 4.7554,0 1.321,0.66201 0.89043,-0.5586 3.9531,0 0.97015,0.66764 1.8296,-0.71595 2.4319,0 0.75628,0.51275 1.1757,-0.60812 4.0478,0 0.71243,0.60234 1.3586,-0.61933 2.6569,0.004 0.90673,0.65222 1.4283,-0.66452 2.9112,0.007 0.77719,0.70245 1.7489,-0.69852 2.7202,0.006 c 0,0 0.3322,0.68809 0.71223,0.65311 0.34207,-0.0315 1.4896,-0.6505 1.4896,-0.6505 l 2.6443,0.006 1.6106,0.47349 0.27626,-0.50341 3.8526,0 1.1217,0.76664 1.1076,-0.82413 5.1523,0 1.179,0.7447 1.5975,-0.75409 3.0254,0 1.0363,0.76246 0.90673,-0.76246 1.9272,0 1.4629,0.92436"
       inkscape:connector-curvature="0"
       sodipodi:nodetypes="cccccccccccccccccccccsccccccccccccccc"
       id="path572"
       style="fill:url(#linearGradient14935);fill-rule:evenodd;enable-background:new" />
    <path
       d="m 78.826,121.24 -1.409,-0.59245 -4.7554,0 -1.321,0.662 -0.89043,-0.55859 -3.9531,0 -0.97015,0.66763 -1.8296,-0.71594 -2.4319,0 -0.75628,0.51275 -1.1757,-0.60811 -4.0478,0 -0.71243,0.60232 -1.3586,-0.61931 -2.6569,0.004 -0.90673,0.65221 -1.4283,-0.66451 -2.9112,0.007 -0.77719,0.70243 -1.7489,-0.69852 -2.7202,0.006 c 0,0 -0.3322,0.68807 -0.71223,0.6531 -0.34207,-0.0315 -1.4896,-0.6505 -1.4896,-0.6505 l -2.6443,0.006 -1.6106,0.47347 -0.27626,-0.5034 -3.8526,0 -1.1217,0.76666 -1.1076,-0.82415 -5.1523,0 -1.179,0.74471 -1.5975,-0.75409 -3.0254,0 -1.0363,0.76246 -0.90673,-0.76246 -1.9272,0 -1.4629,0.92436"
       inkscape:connector-curvature="0"
       sodipodi:nodetypes="cccccccccccccccccccccsccccccccccccccc"
       id="path574"
       style="fill:url(#linearGradient14937);fill-rule:evenodd;enable-background:new" />
    <path
       d="m 11.728,119 1.3931,-0.59244 4.7018,0 1.3061,0.662 0.8804,-0.5586 3.9085,0 0.95921,0.66764 1.809,-0.71595 2.4045,0 0.74775,0.51275 1.1625,-0.60812 4.0022,0 0.7044,0.60234 1.3433,-0.61933 2.6269,0.004 0.89651,0.65221 1.4122,-0.6645 2.8784,0.007 0.76843,0.70244 1.7292,-0.69852 2.6895,0.006 c 0,0 0.32845,0.68808 0.70421,0.65309 0.33821,-0.0315 1.4728,-0.6505 1.4728,-0.6505 l 2.6145,0.006 1.5925,0.47349 0.27315,-0.5034 3.8092,0 1.1091,0.76665 1.0951,-0.82414 5.0942,0 1.1657,0.74469 1.5795,-0.75409 2.9913,0 1.0246,0.76246 0.89651,-0.76246 1.9055,0 1.4464,0.92437"
       inkscape:connector-curvature="0"
       sodipodi:nodetypes="cccccccccccccccccccccsccccccccccccccc"
       id="path576"
       style="fill:url(#linearGradient14939);fill-rule:evenodd;enable-background:new" />
    <path
       d="m 78.832,116.86 -1.413,-0.5903 -4.7688,0 -1.3247,0.65961 -0.89294,-0.55657 -3.9642,0 -0.97288,0.66521 -1.8347,-0.71335 -2.4387,0 -0.7584,0.51088 -1.179,-0.6059 -4.0592,0 -0.71443,0.60013 -1.3624,-0.61706 -2.6643,0.004 -0.90928,0.64984 -1.4323,-0.66211 -2.9194,0.007 -0.77938,0.69991 -1.7538,-0.69599 -2.7278,0.006 c 0,0 -0.33313,0.68559 -0.71424,0.65074 -0.34303,-0.0314 -1.4938,-0.64814 -1.4938,-0.64814 l -2.6517,0.006 -1.6152,0.47177 -0.27704,-0.50158 -3.8634,0 -1.1249,0.76385 -1.1107,-0.82114 -5.1667,0 -1.1823,0.74199 -1.602,-0.75135 -3.0339,0 -1.0392,0.7597 -0.90928,-0.7597 -1.9326,0 -1.467,0.92102"
       inkscape:connector-curvature="0"
       sodipodi:nodetypes="cccccccccccccccccccccsccccccccccccccc"
       id="path578"
       style="fill:url(#linearGradient14941);fill-rule:evenodd;enable-background:new" />
    <path
       d="m 78.164,114.76 -0.74435,-0.5903 -4.7688,0 -1.3247,0.65961 -0.89294,-0.55657 -3.9642,0 -0.97288,0.66521 -1.8347,-0.71334 -2.4387,0 -0.7584,0.51088 -1.179,-0.6059 -4.0592,0 -0.71443,0.60014 -1.3624,-0.61707 -2.6643,0.004 -0.90928,0.64985 -1.4323,-0.66211 -2.9194,0.007 -0.77938,0.69988 -1.7538,-0.69597 -2.7278,0.006 c 0,0 -0.33313,0.68557 -0.71424,0.65073 -0.34303,-0.0314 -1.4938,-0.64813 -1.4938,-0.64813 l -2.6517,0.006 -1.6152,0.47176 -0.27704,-0.50157 -3.8634,0 -1.1249,0.76386 -1.1107,-0.82115 -5.1667,0 -1.1823,0.74199 -1.602,-0.75135 -3.0339,0 -1.0392,0.75968 -0.90928,-0.75968 -1.5544,0 -0.3972,0.92101"
       inkscape:connector-curvature="0"
       sodipodi:nodetypes="cccccccccccccccccccccsccccccccccccccc"
       id="path580"
       style="fill:none;stroke:#292929;stroke-width:0.69641;enable-background:new" />
    <path
       d="m 13.194,111.26 -1.1444,1.5513 5.436,0 -0.47684,-1.5513 -3.8148,0 z"
       inkscape:connector-curvature="0"
       sodipodi:nodetypes="ccccc"
       id="path582"
       style="fill:url(#linearGradient14943);fill-rule:evenodd;enable-background:new" />
    <path
       d="m 22.001,111.43 -0.94282,1.5437 3.9653,0 -0.67779,-1.5437 -2.3447,0 z m 4.0343,0 -0.94282,1.5437 3.9998,0 -0.67779,-1.5437 -2.3792,0 z m 4.0688,0 -0.94282,1.5437 3.9653,0 -0.67779,-1.5437 -2.3447,0 z m 4.0343,0 -0.94282,1.5437 3.9653,0 -0.6433,-1.5437 -2.3792,0 z"
       inkscape:connector-curvature="0"
       id="path584"
       style="fill:url(#linearGradient14945);fill-rule:evenodd;enable-background:new" />
    <path
       d="m 41.2,111.43 -0.94282,1.5437 3.9653,0 -0.67779,-1.5437 -2.3447,0 z m 4.0343,0 -0.94282,1.5437 3.9998,0 -0.67779,-1.5437 -2.3792,0 z m 4.0688,0 -0.94282,1.5437 3.9653,0 -0.67779,-1.5437 -2.3447,0 z m 4.0343,0 -0.94282,1.5437 3.9653,0 -0.6433,-1.5437 -2.3792,0 z"
       inkscape:connector-curvature="0"
       id="path586"
       style="fill:url(#linearGradient14947);fill-rule:evenodd;enable-background:new" />
    <path
       d="m 60.132,111.43 -0.89206,1.5437 4.5897,0 -0.98374,-1.5437 -2.7139,0 z m 4.6696,0 -0.89206,1.5437 4.6296,0 -0.98374,-1.5437 -2.7538,0 z m 4.7095,0 -0.89206,1.5437 4.5897,0 -0.98374,-1.5437 -2.7139,0 z m 4.6696,0 -0.89206,1.5437 4.5897,0 -0.94383,-1.5437 -2.7538,0 z"
       inkscape:connector-curvature="0"
       id="path588"
       style="fill:url(#linearGradient14949);fill-rule:evenodd;enable-background:new" />
    <path
       d="m 80.441,112.99 z m 1.0889,-1.5577 -0.99943,1.5577 5.1868,0 -1.1021,-1.5577 -3.0853,0 z m 5.2763,0 -0.99943,1.5577 5.1421,0 -1.1021,-1.5577 -3.0406,0 z m 5.2316,0 -0.99943,1.5577 5.1421,0 -1.0574,-1.5577 -3.0853,0 z"
       inkscape:connector-curvature="0"
       sodipodi:nodetypes="ccccccccccccccccc"
       id="path590"
       style="fill:url(#linearGradient14951);fill-rule:evenodd;enable-background:new" />
    <path
       d="m 81.34,119.36 z m 1.0889,-1.5577 -0.99943,1.5577 5.1868,0 -1.1021,-1.5577 -3.0853,0 z m 5.2763,0 -0.99943,1.5577 5.1421,0 -1.1021,-1.5577 -3.0406,0 z m 5.2316,0 -0.99943,1.5577 5.1421,0 -1.0574,-1.5577 -3.0853,0 z"
       inkscape:connector-curvature="0"
       sodipodi:nodetypes="ccccccccccccccccc"
       id="path592"
       style="fill:url(#linearGradient14953);fill-rule:evenodd;enable-background:new" />
    <path
       d="m 81.07,117.3 z m 1.0889,-1.5577 -0.99943,1.0182 5.1868,0 -1.1021,-1.0182 -3.0853,0 z m 5.2763,0 -0.99943,1.0182 5.1421,0 -1.1021,-1.0182 -3.0406,0 z m 5.2316,0 -0.99943,1.0182 5.1421,0 -1.0574,-1.0182 -3.0853,0 z"
       inkscape:connector-curvature="0"
       sodipodi:nodetypes="ccccccccccccccccc"
       id="path594"
       style="fill:url(#linearGradient14955);fill-rule:evenodd;enable-background:new" />
    <path
       d="m 82.357,126.61 z m 1.1324,-1.5577 -1.0394,1.5577 5.3943,0 -1.1462,-1.5577 -3.2087,0 z m 5.4873,0 -1.0394,1.5577 5.3478,0 -1.1462,-1.5577 -3.1622,0 z m 5.4408,0 -1.0394,1.5577 5.3478,0 -1.0997,-1.5577 -3.2087,0 z"
       inkscape:connector-curvature="0"
       sodipodi:nodetypes="ccccccccccccccccc"
       id="path596"
       style="fill:url(#linearGradient14957);fill-rule:evenodd;enable-background:new" />
    <path
       d="m 88.282,122.5 -0.78477,1.1017 5.436,0 -0.8365,-1.1017 -3.8148,0 z"
       inkscape:connector-curvature="0"
       sodipodi:nodetypes="ccccc"
       id="path598"
       style="fill:url(#linearGradient14959);fill-rule:evenodd;enable-background:new" />
    <path
       d="m 102.76,126.61 z m 1.2692,-1.5577 -1.165,1.5577 9.1932,0 -1.1948,-1.5577 -6.8334,0 z m 9.2974,0 -1.165,1.5577 c 0.80924,0.0899 5.005,0 5.005,0 l -1.2847,-1.5577 -2.5553,0 z m 5.1092,0 -1.165,1.5577 5.994,0 -1.2326,-1.5577 -3.5964,0 z"
       inkscape:connector-curvature="0"
       sodipodi:nodetypes="ccccccccccccccccc"
       id="path600"
       style="fill:url(#linearGradient14961);fill-rule:evenodd;enable-background:new" />
    <path
       d="m 101.9,124.24 z m 1.0888,-1.5577 -0.99944,1.0182 5.1869,0 -1.1021,-1.0182 -3.0853,0 z m 5.2763,0 -0.99942,1.0182 5.1421,0 -1.1021,-1.0182 -3.0406,0 z m 5.2316,0 -0.99944,1.0182 5.1421,0 -1.0574,-1.0182 -3.0853,0 z"
       inkscape:connector-curvature="0"
       sodipodi:nodetypes="ccccccccccccccccc"
       id="path602"
       style="fill:url(#linearGradient14963);fill-rule:evenodd;enable-background:new" />
    <path
       d="m 102.36,120.24 -1.0142,1.0182 5.2182,0 -1.1185,-1.0182 -3.0856,0 z m 5.309,0 -1.0142,1.0182 5.2636,0 -1.1184,-1.0182 -3.1309,0 z m 5.3544,0 -1.0142,1.0182 5.2182,0 -1.1185,-1.0182 -3.0856,0 z m 5.309,0 -1.0142,1.0182 5.2182,0 -1.0731,-1.0182 -3.1309,0 z"
       inkscape:connector-curvature="0"
       sodipodi:nodetypes="cccccccccccccccccccc"
       id="path604"
       style="fill:url(#linearGradient14965);fill-rule:evenodd;enable-background:new" />
    <path
       d="m 102.36,116.01 -0.955,1.0182 4.9135,0 -1.0532,-1.0182 -2.9054,0 z m 4.999,0 -0.95498,1.0182 4.9562,0 -1.0531,-1.0182 -2.9481,0 z m 5.0417,0 -0.95499,1.0182 4.9135,0 -1.0532,-1.0182 -2.9054,0 z m 4.999,0 -0.95499,1.0182 4.9135,0 -1.0104,-1.0182 -2.9481,0 z"
       inkscape:connector-curvature="0"
       sodipodi:nodetypes="cccccccccccccccccccc"
       id="path606"
       style="fill:url(#linearGradient14967);fill-rule:evenodd;enable-background:new" />
    <path
       d="m 101.43,119.56 z m 1.0155,-1.5577 -0.93209,1.0182 4.8373,0 -1.0279,-1.0182 -2.8774,0 z m 4.9207,0 -0.93208,1.0182 4.7956,0 -1.0279,-1.0182 -2.8357,0 z m 4.879,0 -0.93208,1.0182 4.7956,0 -0.98617,-1.0182 -2.8774,0 z"
       inkscape:connector-curvature="0"
       sodipodi:nodetypes="ccccccccccccccccc"
       id="path608"
       style="fill:url(#linearGradient14969);fill-rule:evenodd;enable-background:new" />
    <path
       d="m 80.774,114.97 0.92162,-0.92163 3.3044,0 0.93286,0.93287 0.95534,-0.95534 3.147,0 1.034,1.034 1.034,-1.034 3.192,0 0.94411,0.9441"
       inkscape:connector-curvature="0"
       id="path610"
       style="fill:none;stroke:#292929;stroke-width:0.68054998" />
    <path
       d="m 101.22,114.97 0.92119,-0.92173 3.3028,0 0.93242,0.93298 0.95489,-0.95545 3.1455,0 1.0335,1.0341 1.0335,-1.0341 3.1904,0 0.66179,0.97693 0.71454,-0.93124 2.1838,-0.0355 0.93343,0.97893"
       inkscape:connector-curvature="0"
       sodipodi:nodetypes="ccccccccccccc"
       id="path612"
       style="fill:none;stroke:#292929;stroke-width:0.68043;enable-background:new" />
    <g
       transform="matrix(0.94648,0,0,0.94648,8.4563,-2.4246)"
       id="g614"
       style="enable-background:new" />
    <g
       transform="matrix(0.397,0,0.036353,0.25156,126.61,31.463)"
       id="g616" />
    <g
       transform="matrix(0.99475,0,0,0.99475,0.78723,-1.4762)"
       id="g618"
       style="enable-background:new" />
  </g>
  <use
     x="0"
     y="0"
     xlink:href="#g450"
     id="use5296"
     transform="translate(1.2672014e-7,109.51416)"
     width="100%"
     height="100%" />
  <g
     id="g9760"
     transform="translate(-15.843929,30.476597)">
    <use
       transform="matrix(-0.72364051,0,0,-0.72364051,214.56048,299.68537)"
       x="0"
       y="0"
       xlink:href="#use10269"
       id="use8462"
       width="100%"
       height="100%" />
    <text
       sodipodi:linespacing="125%"
       id="text9586"
       y="180.9231"
       x="118.03828"
       style="font-style:normal;font-weight:normal;font-size:15px;line-height:125%;font-family:sans-serif;letter-spacing:0px;word-spacing:0px;fill:#000000;fill-opacity:1;stroke:none;stroke-width:1px;stroke-linecap:butt;stroke-linejoin:miter;stroke-opacity:1"
       xml:space="preserve"><tspan
         id="tspan9754"
         style="font-style:normal;font-variant:normal;font-weight:normal;font-stretch:normal;font-size:10px;font-family:Arial;-inkscape-font-specification:Arial;text-align:center;text-anchor:middle"
         y="180.9231"
         x="118.03828"
         sodipodi:role="line">As próximas</tspan><tspan
         id="tspan9758"
         style="font-style:normal;font-variant:normal;font-weight:normal;font-stretch:normal;font-size:10px;font-family:Arial;-inkscape-font-specification:Arial;text-align:center;text-anchor:middle"
         y="193.4231"
         x="118.03828"
         sodipodi:role="line">requisições</tspan></text>
  </g>
  <g
     transform="translate(-10.278191,-132.73221)"
     id="g10267">
    <g
       id="use10269"
       style="fill:#000000;stroke:#000000"
       transform="matrix(0.37231936,0,0,0.37231936,59.257569,111.04461)">
      <title
         id="title8410">Squared Balloon</title>
      <rect
         id="rect8412"
         style="stroke:none"
         rx="17"
         height="140"
         width="250"
         y="65"
         x="80" />
      <path
         inkscape:connector-curvature="0"
         id="path8414"
         style="stroke:none"
         d="m 126,199 25,43 30,-43" />
      <rect
         id="rect8416"
         style="fill:#eeeeee;stroke-width:3.5"
         rx="15"
         height="140"
         width="250"
         y="60"
         x="75" />
      <path
         inkscape:connector-curvature="0"
         id="path8418"
         style="fill:#eeeeee;stroke-width:3.5"
         d="m 120,195 25,43 30,-43" />
      <rect
         id="rect8420"
         style="fill:#ffffff;stroke:none"
         rx="10"
         height="125"
         width="235"
         y="65"
         x="80" />
      <path
         inkscape:connector-curvature="0"
         id="path8422"
         style="fill:#ffffff;stroke:none"
         d="m 118,180 25,43 30,-43" />
    </g>
    <text
       xml:space="preserve"
       style="font-style:normal;font-weight:normal;font-size:15px;line-height:125%;font-family:sans-serif;letter-spacing:0px;word-spacing:0px;fill:#000000;fill-opacity:1;stroke:none;stroke-width:1px;stroke-linecap:butt;stroke-linejoin:miter;stroke-opacity:1"
       x="132.2103"
       y="149.07715"
       id="text10271"
       sodipodi:linespacing="125%"><tspan
         sodipodi:role="line"
         x="132.2103"
         y="149.07715"
         style="font-style:normal;font-variant:normal;font-weight:normal;font-stretch:normal;font-size:10px;font-family:Arial;-inkscape-font-specification:Arial;text-align:center;text-anchor:middle"
         id="tspan10275">Primeira requisição</tspan><tspan
         sodipodi:role="line"
         x="132.2103"
         y="161.57715"
         style="font-style:normal;font-variant:normal;font-weight:normal;font-stretch:normal;font-size:10px;font-family:Arial;-inkscape-font-specification:Arial;text-align:center;text-anchor:middle"
         id="tspan14881">depois de criar ou</tspan><tspan
         sodipodi:role="line"
         x="132.2103"
         y="174.07715"
         style="font-style:normal;font-variant:normal;font-weight:normal;font-stretch:normal;font-size:10px;font-family:Arial;-inkscape-font-specification:Arial;text-align:center;text-anchor:middle"
         id="tspan14883">modificar o JSP</tspan></text>
  </g>
  <path
     d="M 176.06249,161.54946 57.472367,68.301859"
     inkscape:connector-curvature="0"
     sodipodi:nodetypes="cc"
     id="path11135"
     style="fill:none;stroke:#000000;stroke-width:1.20000005;stroke-linecap:square;stroke-miterlimit:4;stroke-dasharray:1.20000005, 3.60000014;stroke-dashoffset:0;marker-end:url(#marker11137)" />
  <text
     xml:space="preserve"
     style="font-style:normal;font-weight:normal;font-size:15.00000095px;line-height:125%;font-family:sans-serif;letter-spacing:0px;word-spacing:0px;fill:#000000;fill-opacity:1;stroke:none;stroke-width:1px;stroke-linecap:butt;stroke-linejoin:miter;stroke-opacity:1"
     x="242.49207"
     y="133.22678"
     id="text11920-0"
     sodipodi:linespacing="125%"><tspan
       sodipodi:role="line"
       x="242.49207"
       y="133.22678"
       id="tspan11924-6"
       style="font-style:normal;font-variant:normal;font-weight:normal;font-stretch:normal;font-size:10px;font-family:Arial;-inkscape-font-specification:Arial;text-align:center;text-anchor:middle">Compilação</tspan><tspan
       sodipodi:role="line"
       x="242.49207"
       y="145.72678"
       style="font-style:normal;font-variant:normal;font-weight:normal;font-stretch:normal;font-size:10px;font-family:Arial;-inkscape-font-specification:Arial;text-align:center;text-anchor:middle"
       id="tspan14577">Automática</tspan></text>
</svg>
