<?xml version="1.0" encoding="UTF-8" standalone="no"?><svg xmlns="http://www.w3.org/2000/svg" xmlns:xlink="http://www.w3.org/1999/xlink" contentScriptType="application/ecmascript" contentStyleType="text/css" height="339px" preserveAspectRatio="none" style="width:733px;height:339px;" version="1.1" viewBox="0 0 733 339" width="733px" zoomAndPan="magnify"><defs><filter height="300%" id="fkljui6" width="300%" x="-1" y="-1"><feGaussianBlur result="blurOut" stdDeviation="2.0"/><feColorMatrix in="blurOut" result="blurOut2" type="matrix" values="0 0 0 0 0 0 0 0 0 0 0 0 0 0 0 0 0 0 .4 0"/><feOffset dx="4.0" dy="4.0" in="blurOut2" result="blurOut3"/><feBlend in="SourceGraphic" in2="blurOut3" mode="normal"/></filter></defs><g><!--entity INF051--><rect fill="#FEFFD5" filter="url(#fkljui6)" height="68.2959" style="stroke: #000000; stroke-width: 1.5;" width="112" x="6" y="136"/><text fill="#000000" font-family="Arial" font-size="14" font-weight="bold" lengthAdjust="spacingAndGlyphs" textLength="68" x="28" y="159.3608">Lógica de</text><text fill="#000000" font-family="Arial" font-size="14" font-weight="bold" lengthAdjust="spacingAndGlyphs" textLength="92" x="16" y="175.4595">Programação</text><text fill="#000000" font-family="Arial" font-size="14" lengthAdjust="spacingAndGlyphs" textLength="45" x="39.5" y="191.5581">INF051</text><!--entity INF053--><rect fill="#E6FAD1" filter="url(#fkljui6)" height="68.2959" style="stroke: #000000; stroke-width: 1.5;" width="112" x="153" y="136"/><text fill="#000000" font-family="Arial" font-size="14" font-weight="bold" lengthAdjust="spacingAndGlyphs" textLength="88" x="165" y="159.3608">Introdução a</text><text fill="#000000" font-family="Arial" font-size="14" font-weight="bold" lengthAdjust="spacingAndGlyphs" textLength="92" x="163" y="175.4595">Programação</text><text fill="#000000" font-family="Arial" font-size="14" lengthAdjust="spacingAndGlyphs" textLength="45" x="186.5" y="191.5581">INF053</text><!--entity INF058--><rect fill="#E1C8ED" filter="url(#fkljui6)" height="52.1973" style="stroke: #000000; stroke-width: 1.5;" width="155" x="300.5" y="144"/><text fill="#000000" font-family="Arial" font-size="14" font-weight="bold" lengthAdjust="spacingAndGlyphs" textLength="135" x="310.5" y="167.3608">Estrutura de Dados</text><text fill="#000000" font-family="Arial" font-size="14" lengthAdjust="spacingAndGlyphs" textLength="45" x="355.5" y="183.4595">INF058</text><!--entity INF062--><rect fill="#FFCC83" filter="url(#fkljui6)" height="68.2959" style="stroke: #000000; stroke-width: 1.5;" width="137" x="490.5" y="136"/><text fill="#000000" font-family="Arial" font-size="14" font-weight="bold" lengthAdjust="spacingAndGlyphs" textLength="117" x="500.5" y="159.3608">Programação em</text><text fill="#000000" font-family="Arial" font-size="14" font-weight="bold" lengthAdjust="spacingAndGlyphs" textLength="104" x="507" y="175.4595">Java para WEB</text><text fill="#000000" font-family="Arial" font-size="14" lengthAdjust="spacingAndGlyphs" textLength="45" x="536.5" y="191.5581">INF062</text><!--entity INF055--><rect fill="#FFFFFF" filter="url(#fkljui6)" height="68.2959" style="stroke: #000000; stroke-width: 1.5;" width="118" x="413" y="8"/><text fill="#000000" font-family="Arial" font-size="14" font-weight="bold" lengthAdjust="spacingAndGlyphs" textLength="73" x="435.5" y="31.3608">Projeto de</text><text fill="#000000" font-family="Arial" font-size="14" font-weight="bold" lengthAdjust="spacingAndGlyphs" textLength="98" x="423" y="47.4595">Interface Web</text><text fill="#000000" font-family="Arial" font-size="14" lengthAdjust="spacingAndGlyphs" textLength="45" x="449.5" y="63.5581">INF055</text><!--entity INF057--><rect fill="#FFFFFF" filter="url(#fkljui6)" height="68.2959" style="stroke: #000000; stroke-width: 1.5;" width="160" x="566" y="8"/><text fill="#000000" font-family="Arial" font-size="14" font-weight="bold" lengthAdjust="spacingAndGlyphs" textLength="92" x="600" y="31.3608">Programação</text><text fill="#000000" font-family="Arial" font-size="14" font-weight="bold" lengthAdjust="spacingAndGlyphs" textLength="140" x="576" y="47.4595">Orientada a Objetos</text><text fill="#000000" font-family="Arial" font-size="14" lengthAdjust="spacingAndGlyphs" textLength="45" x="623.5" y="63.5581">INF057</text><!--entity INF056--><rect fill="#FFFFFF" filter="url(#fkljui6)" height="52.1973" style="stroke: #000000; stroke-width: 1.5;" width="142" x="402" y="272"/><text fill="#000000" font-family="Arial" font-size="14" font-weight="bold" lengthAdjust="spacingAndGlyphs" textLength="122" x="412" y="295.3608">Banco de Dados I</text><text fill="#000000" font-family="Arial" font-size="14" lengthAdjust="spacingAndGlyphs" textLength="45" x="450.5" y="311.4595">INF056</text><!--entity INF054--><rect fill="#FFFFFF" filter="url(#fkljui6)" height="68.2959" style="stroke: #000000; stroke-width: 1.5;" width="131" x="579.5" y="264"/><text fill="#000000" font-family="Arial" font-size="14" font-weight="bold" lengthAdjust="spacingAndGlyphs" textLength="67" x="611.5" y="287.3608">Redes de</text><text fill="#000000" font-family="Arial" font-size="14" font-weight="bold" lengthAdjust="spacingAndGlyphs" textLength="111" x="589.5" y="303.4595">Computadores I</text><text fill="#000000" font-family="Arial" font-size="14" lengthAdjust="spacingAndGlyphs" textLength="45" x="622.5" y="319.5581">INF054</text><path d="M118.273,170 C128.031,170 137.789,170 147.547,170 " fill="none" style="stroke: #A80036; stroke-width: 1.0;"/><polygon fill="#A80036" points="152.65,170,143.65,166,147.65,170,143.65,174,152.65,170" style="stroke: #A80036; stroke-width: 1.0;"/><path d="M265.113,170 C275.127,170 285.14,170 295.154,170 " fill="none" style="stroke: #A80036; stroke-width: 1.0;"/><polygon fill="#A80036" points="300.39,170,291.39,166,295.39,170,291.39,174,300.39,170" style="stroke: #A80036; stroke-width: 1.0;"/><path d="M455.773,170 C465.617,170 475.46,170 485.304,170 " fill="none" style="stroke: #A80036; stroke-width: 1.0;"/><polygon fill="#A80036" points="490.451,170,481.451,166,485.451,170,481.451,174,490.451,170" style="stroke: #A80036; stroke-width: 1.0;"/><path d="M494.858,76.105 C506.554,93.044 520.841,113.736 532.961,131.288 " fill="none" style="stroke: #A80036; stroke-width: 1.0; stroke-dasharray: 7.0,7.0;"/><polygon fill="#A80036" points="535.992,135.679,534.1712,125.9999,533.1516,131.5641,527.5874,130.5446,535.992,135.679" style="stroke: #A80036; stroke-width: 1.0;"/><path d="M623.142,76.105 C611.446,93.044 597.159,113.736 585.039,131.288 " fill="none" style="stroke: #A80036; stroke-width: 1.0; stroke-dasharray: 7.0,7.0;"/><polygon fill="#A80036" points="582.008,135.679,590.4126,130.5446,584.8484,131.5641,583.8288,125.9999,582.008,135.679" style="stroke: #A80036; stroke-width: 1.0;"/><path d="M533.479,208.391 C519.548,228.802 502.667,253.5343 490.284,271.6772 " fill="none" style="stroke: #A80036; stroke-width: 1.0; stroke-dasharray: 7.0,7.0;"/><polygon fill="#A80036" points="536.405,204.105,528.0278,209.284,533.5865,208.2349,534.6356,213.7936,536.405,204.105" style="stroke: #A80036; stroke-width: 1.0;"/><path d="M584.587,208.488 C596.549,226.013 610.674,246.7081 622.257,263.6786 " fill="none" style="stroke: #A80036; stroke-width: 1.0; stroke-dasharray: 7.0,7.0;"/><polygon fill="#A80036" points="581.595,204.105,583.3644,213.7936,584.4135,208.2349,589.9722,209.284,581.595,204.105" style="stroke: #A80036; stroke-width: 1.0;"/></g></svg>