<?xml version="1.0" encoding="UTF-8"?>
<svg width="733px" height="339px" style="height:339px;width:733px" contentScriptType="application/ecmascript" contentStyleType="text/css" inkscape:version="0.91 r13725" preserveAspectRatio="none" sodipodi:docname="relacionadas-INF062.svg" version="1.1" viewBox="0 0 733 339" xmlns="http://www.w3.org/2000/svg" xmlns:cc="http://creativecommons.org/ns#" xmlns:dc="http://purl.org/dc/elements/1.1/" xmlns:inkscape="http://www.inkscape.org/namespaces/inkscape" xmlns:rdf="http://www.w3.org/1999/02/22-rdf-syntax-ns#" xmlns:sodipodi="http://sodipodi.sourceforge.net/DTD/sodipodi-0.dtd" zoomAndPan="magnify">
<metadata>
<rdf:RDF>
<cc:Work rdf:about="">
<dc:format>image/svg+xml</dc:format>
<dc:type rdf:resource="http://purl.org/dc/dcmitype/StillImage"/>
</cc:Work>
</rdf:RDF>
</metadata>
<sodipodi:namedview bordercolor="#666666" borderopacity="1" gridtolerance="10" guidetolerance="10" inkscape:current-layer="g3349" inkscape:cx="366.5" inkscape:cy="169.5" inkscape:guide-bbox="true" inkscape:pageopacity="0" inkscape:pageshadow="2" inkscape:window-height="700" inkscape:window-maximized="1" inkscape:window-width="1366" inkscape:window-x="0" inkscape:window-y="0" inkscape:zoom="1.2141883" objecttolerance="10" pagecolor="#ffffff" showgrid="false" showguides="true"/>
<defs>
<filter id="fkljui6" x="-1" y="-1" width="300%" height="300%">
<feGaussianBlur result="blurOut" stdDeviation="2.0"/>
<feColorMatrix in="blurOut" result="blurOut2" values="0 0 0 0 0 0 0 0 0 0 0 0 0 0 0 0 0 0 .4 0"/>
<feOffset dx="4.0" dy="4.0" in="blurOut2" result="blurOut3"/>
<feBlend in="SourceGraphic" in2="blurOut3"/>
</filter>
</defs>
<rect x="6" y="136" width="112" height="68.296" fill="#FEFFD5" filter="url(#fkljui6)" stroke="#000" stroke-width="1.5"/>
<text x="28" y="159.3608" fill="#000000" font-family="Arial" font-size="14" font-weight="bold" lengthAdjust="spacingAndGlyphs" textLength="68">Lógica de</text>
<text x="16" y="175.4595" fill="#000000" font-family="Arial" font-size="14" font-weight="bold" lengthAdjust="spacingAndGlyphs" textLength="92">Programação</text>
<text x="39.5" y="191.5581" fill="#000000" font-family="Arial" font-size="14" lengthAdjust="spacingAndGlyphs" textLength="45">INF051</text>
<rect x="153" y="136" width="112" height="68.296" fill="#E6FAD1" filter="url(#fkljui6)" stroke="#000" stroke-width="1.5"/>
<text x="165" y="159.3608" fill="#000000" font-family="Arial" font-size="14" font-weight="bold" lengthAdjust="spacingAndGlyphs" textLength="88">Introdução a</text>
<text x="163" y="175.4595" fill="#000000" font-family="Arial" font-size="14" font-weight="bold" lengthAdjust="spacingAndGlyphs" textLength="92">Programação</text>
<text x="186.5" y="191.5581" fill="#000000" font-family="Arial" font-size="14" lengthAdjust="spacingAndGlyphs" textLength="45">INF053</text>
<rect x="300.5" y="144" width="155" height="52.197" fill="#E1C8ED" filter="url(#fkljui6)" stroke="#000" stroke-width="1.5"/>
<text x="310.5" y="167.3608" fill="#000000" font-family="Arial" font-size="14" font-weight="bold" lengthAdjust="spacingAndGlyphs" textLength="135">Estrutura de Dados</text>
<text x="355.5" y="183.4595" fill="#000000" font-family="Arial" font-size="14" lengthAdjust="spacingAndGlyphs" textLength="45">INF058</text>
<rect x="490.5" y="136" width="137" height="68.296" fill="#FFCC83" filter="url(#fkljui6)" stroke="#000" stroke-width="1.5"/>
<text x="500.5" y="159.3608" fill="#000000" font-family="Arial" font-size="14" font-weight="bold" lengthAdjust="spacingAndGlyphs" textLength="117">Programação em</text>
<text x="507" y="175.4595" fill="#000000" font-family="Arial" font-size="14" font-weight="bold" lengthAdjust="spacingAndGlyphs" textLength="104">Java para WEB</text>
<text x="536.5" y="191.5581" fill="#000000" font-family="Arial" font-size="14" lengthAdjust="spacingAndGlyphs" textLength="45">INF062</text>
<rect x="413" y="8" width="118" height="68.296" fill="#fff" filter="url(#fkljui6)" stroke="#000" stroke-width="1.5"/>
<text x="435.5" y="31.3608" fill="#000000" font-family="Arial" font-size="14" font-weight="bold" lengthAdjust="spacingAndGlyphs" textLength="73">Projeto de</text>
<text x="423" y="47.4595" fill="#000000" font-family="Arial" font-size="14" font-weight="bold" lengthAdjust="spacingAndGlyphs" textLength="98">Interface Web</text>
<text x="449.5" y="63.5581" fill="#000000" font-family="Arial" font-size="14" lengthAdjust="spacingAndGlyphs" textLength="45">INF055</text>
<rect x="566" y="8" width="160" height="68.296" fill="#fff" filter="url(#fkljui6)" stroke="#000" stroke-width="1.5"/>
<text x="600" y="31.3608" fill="#000000" font-family="Arial" font-size="14" font-weight="bold" lengthAdjust="spacingAndGlyphs" textLength="92">Programação</text>
<text x="576" y="47.4595" fill="#000000" font-family="Arial" font-size="14" font-weight="bold" lengthAdjust="spacingAndGlyphs" textLength="140">Orientada a Objetos</text>
<text x="623.5" y="63.5581" fill="#000000" font-family="Arial" font-size="14" lengthAdjust="spacingAndGlyphs" textLength="45">INF057</text>
<rect x="402" y="272" width="142" height="52.197" fill="#fff" filter="url(#fkljui6)" stroke="#000" stroke-width="1.5"/>
<text x="412" y="295.3608" fill="#000000" font-family="Arial" font-size="14" font-weight="bold" lengthAdjust="spacingAndGlyphs" textLength="122">Banco de Dados I</text>
<text x="450.5" y="311.4595" fill="#000000" font-family="Arial" font-size="14" lengthAdjust="spacingAndGlyphs" textLength="45">INF056</text>
<rect x="579.5" y="264" width="131" height="68.296" fill="#fff" filter="url(#fkljui6)" stroke="#000" stroke-width="1.5"/>
<text x="611.5" y="287.3608" fill="#000000" font-family="Arial" font-size="14" font-weight="bold" lengthAdjust="spacingAndGlyphs" textLength="67">Redes de</text>
<text x="589.5" y="303.4595" fill="#000000" font-family="Arial" font-size="14" font-weight="bold" lengthAdjust="spacingAndGlyphs" textLength="111">Computadores I</text>
<text x="622.5" y="319.5581" fill="#000000" font-family="Arial" font-size="14" lengthAdjust="spacingAndGlyphs" textLength="45">INF054</text>
<g stroke="#A80036">
<path d="m118.27 170h29.274" fill="none"/>
<polygon points="152.65 170 143.65 166 147.65 170 143.65 174" fill="#A80036"/>
</g>
<path d="m265.11 170h30.041" fill="none" stroke="#A80036"/>
<polygon points="300.39 170 291.39 166 295.39 170 291.39 174" fill="#A80036" stroke="#A80036"/>
<path d="m455.77 170h29.531" fill="none" stroke="#A80036"/>
<polygon points="490.45 170 481.45 166 485.45 170 481.45 174" fill="#A80036" stroke="#A80036"/>
<path d="m494.86 76.105c11.696 16.939 25.983 37.631 38.103 55.183" fill="none" stroke="#A80036" stroke-dasharray="7.0,7.0"/>
<polygon points="535.99 135.68 534.17 126 533.15 131.56 527.59 130.54" fill="#A80036" stroke="#A80036"/>
<path d="m623.14 76.105c-11.696 16.939-25.983 37.631-38.103 55.183" fill="none" stroke="#A80036" stroke-dasharray="7.0,7.0"/>
<polygon points="582.01 135.68 590.41 130.54 584.85 131.56 583.83 126" fill="#A80036" stroke="#A80036"/>
<g stroke="#A80036">
<path d="m533.48 208.39c-13.931 20.411-30.812 45.143-43.195 63.286" fill="none" stroke-dasharray="7.0,7.0"/>
<polygon points="536.4 204.1 528.03 209.28 533.59 208.23 534.64 213.79" fill="#A80036"/>
</g>
<path d="m584.59 208.49c11.962 17.525 26.087 38.22 37.67 55.191" fill="none" stroke="#A80036" stroke-dasharray="1,3"/>
<polygon points="581.6 204.1 583.36 213.79 584.41 208.23 589.97 209.28" fill="#A80036" stroke="#A80036"/>
<g transform="translate(2,6)">
<g transform="translate(-86.068 95.271)" stroke="#a80036">
<path d="m98.461 170h49.086" fill="none" inkscape:connector-curvature="0" sodipodi:nodetypes="cc"/>
<polygon points="152.65 170 143.65 166 147.65 170 143.65 174" fill="#a80036"/>
</g>
<text x="78.450447" y="268.57962" fill="#000000" font-family="sans-serif" font-size="15px" letter-spacing="0px" stroke-width="1px" word-spacing="0px" style="line-height:125%" sodipodi:linespacing="125%" xml:space="preserve"><tspan x="78.450447" y="268.57962" font-family="Arial" font-size="12.5px" sodipodi:role="line">Pré-requisito formal</tspan></text>
<g transform="translate(0 .29216)">
<g transform="matrix(.56575 .82458 -.82458 .56575 -68.591 -267.13)" stroke="#a80036">
<path d="m533.48 208.39c-13.931 20.411-16.222 23.878-28.605 42.021" fill="none" stroke-dasharray="7, 7" inkscape:connector-curvature="0" sodipodi:nodetypes="cc"/>
<polygon points="533.59 208.23 534.64 213.79 536.4 204.1 536.4 204.1 528.03 209.28" fill="#a80036"/>
</g>
<text x="78.450447" y="293.92627" fill="#000000" font-family="sans-serif" font-size="15px" letter-spacing="0px" stroke-width="1px" word-spacing="0px" style="line-height:125%" sodipodi:linespacing="125%" xml:space="preserve"><tspan x="78.450447" y="293.92627" font-family="Arial" font-size="12.5px" sodipodi:role="line">Pré-requisito recomendado</tspan></text>
</g>
<g transform="matrix(.56575 .82458 -.82458 .56575 -68.591 -241.2)" stroke="#a80036">
<path d="m533.48 208.39c-13.931 20.411-16.222 23.878-28.605 42.021" fill="none" stroke-dasharray="1, 2.99999999" inkscape:connector-curvature="0" sodipodi:nodetypes="cc"/>
<polygon points="533.59 208.23 534.64 213.79 536.4 204.1 536.4 204.1 528.03 209.28" fill="#a80036"/>
</g>
<text x="78.450447" y="319.85724" fill="#000000" font-family="sans-serif" font-size="15px" letter-spacing="0px" stroke-width="1px" word-spacing="0px" style="line-height:125%" sodipodi:linespacing="125%" xml:space="preserve"><tspan x="78.450447" y="319.85724" font-family="Arial" font-size="12.5px" sodipodi:role="line">Pré-requisito sugerido</tspan></text>
</g>
</svg>
