<?xml version="1.0" encoding="UTF-8"?>
<svg width="84.489mm" height="70.1mm" inkscape:version="0.91 r13725" sodipodi:docname="webapps-dentro-container.svg" version="1.1" viewBox="0 0 299.37 248.39" xmlns="http://www.w3.org/2000/svg" xmlns:cc="http://creativecommons.org/ns#" xmlns:dc="http://purl.org/dc/elements/1.1/" xmlns:inkscape="http://www.inkscape.org/namespaces/inkscape" xmlns:rdf="http://www.w3.org/1999/02/22-rdf-syntax-ns#" xmlns:sodipodi="http://sodipodi.sourceforge.net/DTD/sodipodi-0.dtd" xmlns:xlink="http://www.w3.org/1999/xlink">
<sodipodi:namedview bordercolor="#666666" borderopacity="1.0" fit-margin-bottom="0" fit-margin-left="0" fit-margin-right="0" fit-margin-top="0" inkscape:current-layer="layer1" inkscape:cx="149.68503" inkscape:cy="124.19342" inkscape:document-units="px" inkscape:pageopacity="0.0" inkscape:pageshadow="2" inkscape:window-height="700" inkscape:window-maximized="1" inkscape:window-width="1366" inkscape:window-x="0" inkscape:window-y="0" inkscape:zoom="2.0774047" pagecolor="#ffffff" showgrid="false"/>
<metadata>
<rdf:RDF>
<cc:Work rdf:about="">
<dc:format>image/svg+xml</dc:format>
<dc:type rdf:resource="http://purl.org/dc/dcmitype/StillImage"/>
<dc:title/>
</cc:Work>
</rdf:RDF>
</metadata>
<g transform="translate(11.977 -696.85)" inkscape:groupmode="layer" inkscape:label="Camada 1">
<rect x="-10.477" y="698.35" width="296.37" height="245.39" ry="27.069" fill="#f9e7e7" stroke="#a00" stroke-width="3"/>
<text x="89.14859" y="717.25922" fill="#000000" font-family="sans-serif" font-size="12.855px" letter-spacing="0px" stroke-width="1px" word-spacing="0px" style="line-height:125%" sodipodi:linespacing="125%" xml:space="preserve"><tspan x="89.14859" y="717.25922" fill="#000000" font-family="Arial" font-size="13.75px" font-weight="bold" sodipodi:role="line">Container Web</tspan></text>
<g transform="translate(0 -2.2291)">
<circle cx="42.838" cy="774.02" r="39.231" fill="#e3dedb" stroke="#6c5d53" stroke-width="2.5"/>
<g id="g8624" transform="matrix(.67312 0 0 .67312 -109.79 714.34)">
<g id="g8314" transform="matrix(6.6457 0 0 6.6457 175.85 47.077)" clip-rule="evenodd" fill-rule="evenodd" image-rendering="optimizeQuality" shape-rendering="geometricPrecision" inkscape:tile-cx="219.82372" inkscape:tile-cy="90.446077" inkscape:tile-h="42.965149" inkscape:tile-w="35.288657" inkscape:tile-x0="202.17939" inkscape:tile-y0="68.963502">
<path transform="matrix(.011111 0 0 .011111 .93778 1.9873)" d="m400.38 15.473v314.91c0 8.6201-6.9396 15.56-15.56 15.56h-323.96c-8.6201 0-15.56-6.9396-15.56-15.56v-403.68c0-8.6201 6.9396-15.56 15.56-15.56h235.19" fill="#fff" fill-rule="nonzero" inkscape:connector-curvature="0"/>
<path class="fil0" d="m1.6067 0.91333h2.5546c0.022264 0 0.042398 0.009098 0.056902 0.023776l1.2251 1.2251 3.9e-6 -3.9e-6c0.015622 0.015618 0.023429 0.036095 0.023429 0.056567h4e-6v3.4479c0 0.067917-0.027724 0.1296-0.072394 0.17427-0.044669 0.044669-0.10635 0.072394-0.17427 0.072394h-3.6133c-0.067917 0-0.1296-0.027724-0.17427-0.072394-0.044669-0.044669-0.072394-0.10635-0.072394-0.17427v-4.5067c0-0.067917 0.027724-0.1296 0.072394-0.17427 0.044669-0.044669 0.10635-0.072394 0.17427-0.072394zm2.5214 0.16h-2.5214c-0.023748 0-0.045402 0.00978-0.061146 0.02552-0.015744 0.015744-0.02552 0.037398-0.02552 0.061146v4.5067c0 0.023748 0.00978 0.045402 0.02552 0.061146 0.015744 0.015744 0.037398 0.02552 0.061146 0.02552h3.6133c0.023748 0 0.045402-0.00978 0.061146-0.02552 0.015744-0.015744 0.02552-0.037398 0.02552-0.061146v-3.4148l-1.1786-1.1786z" fill-rule="nonzero" inkscape:connector-curvature="0"/>
<path class="fil0" d="m5.3794 2.2984-1.2151-0.00355v-0.079689l-2.323e-4 0.08c-0.044181-1.26e-4 -0.079894-0.036051-0.079768-0.080232 7.9e-6 -0.00223 1.103e-4 -0.00443 2.953e-4 -0.00661l-0.00309-1.2148h-3.11e-4c-1.103e-4 -0.044181 0.035614-0.080094 0.079795-0.080205 0.022386-5.512e-5 0.042646 0.009091 0.057205 0.023874l1.225 1.225 3.9e-6 -3.9e-6c0.03124 0.03124 0.03124 0.081894 0 0.11313-0.017457 0.017457-0.04098 0.025157-0.063787 0.023102z" fill-rule="nonzero" inkscape:connector-curvature="0"/>
<path class="fil1" d="m4.7967 4.6603h-2.7667c-0.067917 0-0.1296 0.027724-0.17427 0.072394-0.044669 0.044669-0.072394 0.10635-0.072394 0.17427v0.87528h0.16 2.94 0.16v-0.87528c0-0.067917-0.027724-0.1296-0.072394-0.17427-0.044669-0.04467-0.10635-0.072394-0.17427-0.072394zm-2.2362 0.73148v-0.42553h0.13269v0.41709c0 0.054457-0.00491 0.096488-0.014421 0.12579-0.012882 0.03835-0.036201 0.069181-0.070102 0.092346-0.033902 0.023315-0.078539 0.034819-0.13392 0.034819-0.065039 0-0.11505-0.018098-0.15018-0.05461-0.034973-0.036354-0.052768-0.089736-0.052922-0.16015l0.12533-0.014421c0.00154 0.037736 0.00706 0.064429 0.016567 0.080075 0.014421 0.023622 0.036354 0.035437 0.065653 0.035437 0.029606 0 0.050622-0.00844 0.062894-0.025465 0.012272-0.016874 0.018409-0.052004 0.018409-0.10539zm0.20724 0.23332 0.25663-0.65885h0.14067l0.26384 0.65885h-0.14481l-0.057524-0.14972h-0.26339l-0.054303 0.14972h-0.14113zm0.83142 0-0.23547-0.65885h0.14435l0.16659 0.48765 0.16138-0.48765h0.14113l-0.23593 0.65885h-0.14204zm0.31063 0 0.25663-0.65885h0.14067l0.26384 0.65885h-0.14481l-0.057524-0.14972h-0.26339l-0.054303 0.14972h-0.14113z" inkscape:connector-curvature="0"/>
<polygon class="fil1" points="3.093 5.091 3.0041 5.3356 3.1838 5.3356"/>
<polygon class="fil1" points="4.1461 5.3356 4.3259 5.3356 4.2351 5.091"/>
</g>
<use transform="translate(18.81 12.599)" width="100%" height="100%" inkscape:tiled-clone-of="#g8314" xlink:href="#g8314"/>
<use transform="translate(37.619 25.197)" width="100%" height="100%" inkscape:tiled-clone-of="#g8314" xlink:href="#g8314"/>
<use transform="translate(56.429 37.796)" width="100%" height="100%" inkscape:tiled-clone-of="#g8314" xlink:href="#g8314"/>
</g>
<text x="20.591236" y="827.52228" fill="#000000" font-family="'Comic Sans MS'" font-size="13.898px" letter-spacing="0px" stroke-width="1px" word-spacing="0px" style="line-height:125%" sodipodi:linespacing="125%" xml:space="preserve"><tspan x="20.591236" y="827.52228" font-family="'Comic Sans MS'" font-size="11.581px" sodipodi:role="line">AppLoja</tspan></text>
</g>
<g transform="translate(-8.7875 -2)">
<circle cx="147.38" cy="773.56" r="39.231" fill="#ffe6d5" stroke="#a40" stroke-width="2.5"/>
<use transform="translate(104.54 -.45813)" width="100%" height="100%" xlink:href="#g8624"/>
<text x="125.13645" y="827.52228" fill="#000000" font-family="'Comic Sans MS'" font-size="13.898px" letter-spacing="0px" stroke-width="1px" word-spacing="0px" style="line-height:125%" sodipodi:linespacing="125%" xml:space="preserve"><tspan x="125.13645" y="827.52228" font-family="'Comic Sans MS'" font-size="11.581px" sodipodi:role="line">AppSite</tspan></text>
</g>
<g transform="translate(86.965 -2)">
<circle cx="147.38" cy="773.56" r="39.231" fill="#f6ffd5" stroke="#8a0" stroke-width="2.5"/>
<use transform="translate(104.54 -.45813)" width="100%" height="100%" xlink:href="#g8624"/>
<text x="125.43333" y="827.52228" fill="#000000" font-family="'Comic Sans MS'" font-size="13.898px" letter-spacing="0px" stroke-width="1px" word-spacing="0px" style="line-height:125%" sodipodi:linespacing="125%" xml:space="preserve"><tspan x="125.43333" y="827.52228" font-family="'Comic Sans MS'" font-size="11.581px" sodipodi:role="line">AppBlog</tspan></text>
</g>
<g transform="translate(-2.8819)">
<g transform="translate(-56.664 102.32)">
<circle cx="147.38" cy="773.56" r="39.231" fill="#d7eef4" stroke="#2c89a0" stroke-width="2.5"/>
<use transform="translate(104.54 -.45813)" width="100%" height="100%" xlink:href="#g8624"/>
<text x="147.241" y="827.52228" fill="#000000" font-family="'Comic Sans MS'" font-size="13.898px" letter-spacing="0px" stroke-width="1px" text-align="center" text-anchor="middle" word-spacing="0px" style="line-height:125%" sodipodi:linespacing="125%" xml:space="preserve"><tspan x="147.241" y="827.52228" font-family="'Comic Sans MS'" font-size="11.581px" text-align="center" text-anchor="middle" sodipodi:role="line">AppFarmacia</tspan></text>
</g>
<g transform="translate(43.089 102.32)">
<circle cx="147.38" cy="773.56" r="39.231" fill="#e3d7f4" stroke="#5a2ca0" stroke-width="2.5"/>
<use transform="translate(104.54 -.45813)" width="100%" height="100%" xlink:href="#g8624"/>
<text x="147.10605" y="827.52228" fill="#000000" font-family="'Comic Sans MS'" font-size="13.898px" letter-spacing="0px" stroke-width="1px" text-align="center" text-anchor="middle" word-spacing="0px" style="line-height:125%" sodipodi:linespacing="125%" xml:space="preserve"><tspan x="147.10605" y="827.52228" font-family="'Comic Sans MS'" font-size="11.581px" text-align="center" text-anchor="middle" sodipodi:role="line">AppContabil</tspan></text>
</g>
</g>
</g>
</svg>
