<?xml version="1.0" encoding="UTF-8"?>
<svg width="563.16" height="343.64" inkscape:version="0.91 r13725" sodipodi:docname="glassfish.svg" version="1.1" xmlns="http://www.w3.org/2000/svg" xmlns:cc="http://creativecommons.org/ns#" xmlns:dc="http://purl.org/dc/elements/1.1/" xmlns:inkscape="http://www.inkscape.org/namespaces/inkscape" xmlns:rdf="http://www.w3.org/1999/02/22-rdf-syntax-ns#" xmlns:sodipodi="http://sodipodi.sourceforge.net/DTD/sodipodi-0.dtd" xmlns:xlink="http://www.w3.org/1999/xlink">
<sodipodi:namedview bordercolor="#666666" borderopacity="1.0" fit-margin-bottom="0" fit-margin-left="0" fit-margin-right="0" fit-margin-top="0" inkscape:current-layer="layer1" inkscape:cx="248.09655" inkscape:cy="192.66373" inkscape:document-units="px" inkscape:pageopacity="0.0" inkscape:pageshadow="2" inkscape:window-height="700" inkscape:window-maximized="1" inkscape:window-width="1366" inkscape:window-x="0" inkscape:window-y="0" inkscape:zoom="1.1764992" pagecolor="#ffffff" showgrid="false"/>
<metadata>
<rdf:RDF>
<cc:Work rdf:about="">
<dc:format>image/svg+xml</dc:format>
<dc:type rdf:resource="http://purl.org/dc/dcmitype/StillImage"/>
<dc:title/>
</cc:Work>
</rdf:RDF>
</metadata>
<g transform="translate(16.652 -337.06)" inkscape:groupmode="layer" inkscape:label="Layer 1">
<g transform="matrix(2.6598 0 0 2.6598 137.83 -1524.6)">
<path d="m75.779 705.64-3.5938 2.8438c-1.9731 1.5782-4.6736 3.55-6 4.375s-2.2607 1.9022-2.0938 2.4062c0.16695 0.50404 4.2925 1.9818 9.1875 3.2812 8.2 2.1768 24.192 8.9646 23.281 9.875-0.21552 0.21551-5.0379-0.95882-10.719-2.5938-18.102-5.2096-27.145-6.2683-47.969-5.6875-15.486 0.43195-20.175 0.91844-28.094 3-19.455 5.1143-38.795 15.641-50 27.219-3.025 3.1258-6.7784 6.5072-8.3438 7.5-3.344 0.79512-4.4194 0.15744-5.5625-0.4375-0.4565-0.28213-0.76276-0.65269-0.9375-1.125-0.38148 1.3791-0.80008 2.6024-1.25 3.5938 0.50461-0.10704 1.0288-0.14054 1.5625-0.15625 1.7018-0.0501 3.4316 0.3073 4.4375 0.75l4.375 3.2188c18.434 13.618 28.379 18.391 38.719 18.562 5.419 0.0901 7.2911-0.34744 11.219-2.6562 2.2672-1.3328 4.4992-3.0499 5.375-4.0938 0.12511-0.14913 0.21499-0.28784 0.28125-0.40625 0.57792-1.0327 1.1202-1.339 1.4688-1.1562 8.3057-2.1337 22.953 0.19169 46 8.3125 0.019 7e-3 0.0435-7e-3 0.0625 0 4.601 0.14013 11.542 2.1565 20.844 6.0625 1.3599 0.57105 1.75 0.24535 1.75-1.4688 0-5.2231 6.0985-12.087 11.438-13.625v-0.0312c9.1926-5.2471 20.478-6.4304 30.5-6.6875l-0.4375-0.1563 4.4375-0.3125c6.6198-0.47257 12.428 2.1871 17.25 7.9062 2.2778 2.7014 4.5048 4.9062 4.9688 4.9062 1.3915 0 0.96498-6.1277-1.125-16.094-1.5618-7.4474-1.8306-11.497-1.3438-19.5 0.38069-6.2577 0.23671-10.341-0.375-10.719-0.54317-0.3357-4.5583 0.24946-8.9062 1.2812-11.928 2.8305-17.406 3.4822-17.406 2.0938 0-0.0712 0.0621-0.17216 0.15625-0.28125-5.9128 2.0422-14.479-1.05-18.219-4.625-3.9857-3.8102-2.0022-9.2632-3.9375-13.281-5e-3 1.2572-0.23118 1.2419-1.75-0.0625-0.9625-0.82661-3.9477-2.1117-6.6562-2.8438-3.351-0.90564-6.1478-2.5686-8.75-5.25l-3.8438-3.9375z" fill="#f2f2f2" inkscape:connector-curvature="0" sodipodi:nodetypes="ccssssssssccccsccsssscscsscccccssssssscscsscc"/>
<path d="m24.403 753.61c-0.36222-7.2875-0.92527-14.938-1.2512-17-0.33741-2.1351-0.18027-3.75 0.3649-3.75 0.96957 0 3.5827 5.4196 4.8216 10 0.37192 1.375 1.3677 3.2875 2.2129 4.25 1.3852 1.5775 1.3736 1.9303-0.11828 3.5787-0.91025 1.0058-1.6575 3.3683-1.6606 5.25-7e-3 4.1926-1.7933 10.921-2.8996 10.921-0.44615 0-1.1075-5.9625-1.4698-13.25zm12.95 8.0634c-0.22587-0.72236-0.64666-7.0844-0.9351-14.138-0.44253-10.822-0.30925-12.646 0.85346-11.681 0.75783 0.62895 1.676 2.575 2.0403 4.3244 0.36434 1.7495 1.3398 4.2486 2.1677 5.5535 1.1253 1.7738 1.244 2.9095 0.4704 4.5-0.56914 1.1701-1.3167 4.2544-1.6612 6.8541-0.62317 4.7027-2.1523 7.0918-2.9356 4.5867zm12.202-13.022c-0.25996-6.7605-0.29163-12.504-0.0704-12.763 0.64039-0.74982 2.1992 2.1338 3.4982 6.471 0.65888 2.2 1.6229 4.2921 2.1424 4.6491 0.54166 0.37227 0.58843 1.4384 0.10967 2.5-0.4591 1.018-1.3122 3.8394-1.8957 6.2699-2.0035 8.3445-3.2818 5.9369-3.7842-7.1272h3e-5zm13.15 5.4582c-0.0402-3.1625-0.41225-8.1341-0.82688-11.048s-0.43277-5.4964-0.0403-5.739c1.0739-0.66372 2.6921 1.6778 3.4849 5.0426 0.38803 1.6469 1.6617 3.7649 2.8304 4.7067l2.1249 1.7123-2.25 1.5944c-1.248 0.88439-2.25 2.646-2.25 3.9559 0 3.0105-0.95893 5.5251-2.107 5.5251-0.49115 0-0.92586-2.5875-0.96601-5.75zm12.062-2.4167c-6e-3 -3.4833-0.30128-8.0908-0.65607-10.239-0.86267-5.223 0.87093-4.0957 4.1101 2.6727 2.1118 4.4126 2.2735 5.3918 1.1063 6.7003-0.75183 0.84287-1.5205 2.6222-1.7081 3.9542-0.18765 1.3319-0.90368 2.6069-1.5912 2.8333-0.91103 0.30003-1.253-1.3058-1.261-5.9217zm11.011-4.0476c0-8.3897 0.1411-9.0732 1.5767-7.6376 2.1632 2.1632 2.9035 8.8667 1.4618 13.235-1.9906 6.0315-3.0385 4.101-3.0385-5.5977zm10.46 1.7051c-1.874-1.469-1.8286-1.5242 1.0404-1.2635 1.65 0.14995 2.9212 0.71139 2.825 1.2476-0.2923 1.6286-1.8003 1.6347-3.8654 0.0158v4e-5z" fill="#febc5b" inkscape:connector-curvature="0" sodipodi:nodetypes="csssssssccssssssccssssscccssscccssccsssssccssccsscc"/>
<path transform="translate(99.211 338.08)" d="m-23.969 361.84c-1.6687-3.1e-4 -3.6191 0.69762-6.25 1.9688-2.295 1.1088-7.4417 3.1738-11.438 4.5938s-9.0812 3.5768-11.281 4.8125c-3.2261 1.8121-5.7159 2.283-12.875 2.4062-26.936 0.46372-55.098 9.6924-75 24.594-10.279 7.6963-16.253 16.825-12.531 19.125 1.1431 0.59494 2.2185 1.2326 5.5625 0.4375 1.5653-0.99284 5.3188-4.3742 8.3438-7.5 11.205-11.578 30.545-22.104 50-27.219 7.9184-2.0816 12.608-2.568 28.094-3 20.823-0.58084 29.867 0.47788 47.969 5.6875 5.6808 1.6349 10.503 2.8093 10.719 2.5938 0.91034-0.91035-15.081-7.6982-23.281-9.875-4.895-1.2994-9.0206-2.7772-9.1875-3.2812-0.16694-0.50404 0.76735-1.5812 2.0938-2.4062s4.0269-2.7968 6-4.375l3.5938-2.8438 3.8438 3.9375c2.6022 2.6814 5.399 4.3444 8.75 5.25 2.7086 0.73201 5.6938 2.0171 6.6562 2.8438 1.5354 1.3187 1.75 1.3304 1.75 0.0312 0-1.9172-3.5364-4.981-8.1562-7.0625-2.0119-0.90647-4.4869-2.8521-5.5-4.3125-3.1042-4.4749-5.0938-6.4057-7.875-6.4062zm73.656 21.938c-3.5523 0-30.125 12.405-30.125 14.062 0 1.3885 5.4785 0.73678 17.406-2.0938 4.348-1.0318 8.3631-1.617 8.9062-1.2812 0.61171 0.37806 0.75569 4.461 0.375 10.719-0.48684 8.0025-0.21804 12.053 1.3438 19.5 2.09 9.966 2.5165 16.094 1.125 16.094-0.46391 0-2.6909-2.2049-4.9688-4.9062-4.8224-5.7191-10.63-8.3788-17.25-7.9062l-4.4375 0.3125 6.5938 2.2812c7.2604 2.5101 9.5374 4.5292 16 14.219 2.3844 3.575 4.8038 6.8459 5.375 7.25 1.5123 1.0699 2.1543 0.94034 3.5312-0.71875 0.58788-0.70835 0.85409-2.6913 0.84375-6.9688-4.6e-5 -0.0191 5.7e-5 -0.0433 0-0.0625 0.09661-2.9978-0.0086-6.9246-0.3125-11.844-0.08633-1.3974-0.14677-2.319-0.21875-3.5625-0.65351-15.627-0.59476-18.691 0.15625-29.094 0.9196-12.738 0.03211-16-4.3438-16zm-162.28 19.125c-2.6184-0.10384-5.4391 1.3744-7.3438 4.2812-1.7342 2.6468-1.1262 4.9302 2.375 8.9375 2.1277 2.4352 6.8722 1.506 9.875-1.9062 2.7517-3.127 2.7705-4.0535 0.25-8.1875-1.2284-2.0147-3.1197-3.0442-5.1562-3.125zm-3 4.9375c1.1281-0.18725 3.4632 1.3271 3.9375 2.75 0.59254 1.7776-3.7524 1.4415-4.4375-0.34375-0.32574-0.84872-0.27558-1.8494 0.0937-2.2188 0.10238-0.10238 0.2451-0.16075 0.40625-0.1875zm-38.375 13.812c-0.56727 0.0167-1.1223 0.0651-1.6562 0.1875-0.0686 0.0587-0.1231 0.12564-0.1875 0.1875-1.1395 0.4391-1.6336 1.4748-1.4375 3.0938 1e-3 9e-3 -1e-3 0.0218 0 0.0312-5.9e-4 0.0104 5.2e-4 0.0209 0 0.0312-0.0634 1.2646 0.36584 2.5757 1.3438 3.6562 4.8556 5.3654 29.691 18.11 38.781 19.906 6.0296 1.1915 8.9481 1.1795 14.594-0.0312 5.6974-1.2219 12.618-5.8183 14.281-9.4688 1.2969-2.8463 0.13629-4.8076-1.3125-2.2188-0.53011 0.94725-3.0651 2.9768-5.6562 4.5-3.9276 2.3088-5.7998 2.7464-11.219 2.6562-10.339-0.17182-20.285-4.9447-38.719-18.562l-4.375-3.2188c-1.0058-0.4427-2.7357-0.80012-4.4375-0.75zm148.12 13.156c-5.69-0.0943-13.594 8.0218-13.594 13.969 0 1.7141-0.39013 2.0398-1.75 1.4688-13.588-5.7061-22.175-7.3846-25.719-5.0625-2.9023 1.9017-3.3438 5.2253-0.78125 5.9688 0.9625 0.27923 6.25 1.035 11.75 1.6875 5.5 0.65252 10.675 1.5677 11.5 2.0312 1.0646 0.5982 2.5356 0.86325 4 0.8125 0.07619 2e-3 0.14348-2.3e-4 0.21875 0 0.02106-1e-3 0.04145 1e-3 0.0625 0 1.2601-5e-3 2.3622-0.25331 3.125-0.78125 0.02163-0.0105 0.04112-0.0206 0.0625-0.0312 0.0116-8e-3 0.01982-0.0227 0.03125-0.0312 0.26443-0.13484 0.53054-0.2709 0.75-0.4375 1.21-0.91849 1.75-2.7367 1.75-5.8438 0-4.7624 1.5197-7.086 7.5-11.5 2.4598-1.8155 2.6616-2.224 1.0938-2.25z" inkscape:connector-curvature="0"/>
<path d="m-12.199 777.57-3.5-1.0569 6.2285-1.1784c8.2467-1.5603 10.271-3.4689 10.271-9.6823 0-5.2828 1.0303-6.0675 3.4433-2.6225 3.4803 4.9688 1.0763 11.827-5.0419 14.383-3.8429 1.6056-6.484 1.642-11.401 0.15706zm137.46-21.516c0.45732-2.7069 0.17012-5.1996-0.89194-7.7415-1.9454-4.6559-1.9569-4.5048 0.34466-4.5048 2.8194 0 7.2954 5.7262 6.5377 8.3639-0.81433 2.8347-3.7483 6.9026-5.3678 7.4424-0.9895 0.32984-1.1372-0.51465-0.6227-3.56zm-35.958-24.383c-19.766-6.3818-54.735-6.5646-78.306-0.40931-4.8139 1.2571-5.8944 1.2746-7.0549 0.1141-1.9818-1.9818 1.6075-4.0635 11.425-6.6261 19.214-3.6772 66.186-5.1546 82.435 8.5032 0 0.88023-2.064 0.4961-8.5-1.5819z" fill="#71a0fe" inkscape:connector-curvature="0" sodipodi:nodetypes="cccsssccssssccssccc"/>
</g>
<text x="35.010254" y="679.52655" fill="#000000" font-family="sans-serif" font-size="96.579px" letter-spacing="0px" stroke-width="1px" word-spacing="0px" style="line-height:125%" sodipodi:linespacing="125%" xml:space="preserve"><tspan x="35.010254" y="679.52655" font-family="Arial" font-weight="bold" sodipodi:role="line">GlassFish</tspan></text>
</g>
</svg>
