<?xml version="1.0" encoding="UTF-8"?>
<!DOCTYPE svg  PUBLIC '-//W3C//DTD SVG 1.0//EN'  'http://www.w3.org/TR/2001/REC-SVG-20010904/DTD/svg10.dtd'>
<svg width="1024" height="598" version="1.0" viewBox="-5.649 -5.649 342.03 199.6" xmlns="http://www.w3.org/2000/svg">
<path d="m215.23 169.64 4.5194 9.0667h-3.8242l-4.3936-8.7804h-4.9951v8.7804h-3.2549v-22.192h9.7033c3.858 0 7.1129 2.0608 7.1129 6.6273 0 3.5491-1.8645 5.7377-4.8678 6.498zm-2.2452-9.9871h-6.4484v7.1336h6.4484c2.2129 0 3.7613-1.1404 3.7613-3.5506 0-2.3148-1.5162-3.583-3.7613-3.583z" fill="#c00"/>
<path d="m238.12 171.54h-10.969c0.34835 3.2013 2.15 4.5649 4.1741 4.5649 1.3904 0 2.4968-0.50635 3.6033-1.3313l1.929 2.0916c-1.4533 1.3944-3.192 2.187-5.7225 2.187-3.8872 0-7.1758-3.1382-7.1758-8.6542 0-5.6438 2.9725-8.6881 7.2694-8.6881 4.7097 0 6.987 3.8354 6.987 8.3387 0 0.60025-0.06293 1.142-0.09515 1.4914zm-7.1129-6.8812c-2.1822 0-3.5096 1.5206-3.7951 4.1848h7.7129c-0.15654-2.2824-1.2308-4.1848-3.9178-4.1848z" fill="#c00"/>
<path d="m252.24 178.71v-1.5837c-1.2016 1.1097-2.592 1.9331-4.3307 1.9331-3.5726 0-6.3855-2.598-6.3855-8.9405 0-5.7069 3.0984-8.4018 6.5436-8.4018 1.6758 0 3.2564 0.88805 4.1741 1.9023v-6.341l3.2242-1.6807v23.112h-3.2257zm0.03224-11.792c-0.7274-0.98347-2.2452-2.1886-3.8887-2.1886-2.3387 0-3.6032 1.7761-3.6032 5.2944 0 4.1847 1.3274 6.0224 3.7306 6.0224 1.5484 0 2.9081-1.0466 3.7613-2.1224v-7.0059z" fill="#c00"/>
<path d="m282.78 178.71v-9.9547h-10.181v9.9547h-3.3178v-22.192h3.3178v8.9713h10.181v-8.9713h3.3178v22.192h-3.3178z" fill="#c00"/>
<path d="m300.88 178.71v-1.6468c-1.1371 1.1404-2.75 1.9962-4.5516 1.9962-2.6871 0-5.7532-1.5206-5.7532-5.6115 0-3.7092 2.8451-5.3898 6.6065-5.3898 1.5499 0 2.7822 0.22163 3.6984 0.6341v-1.2374c0-1.8069-1.1065-2.8211-3.1291-2.8211-1.7065 0-3.0354 0.31705-4.3307 1.0466l-1.2645-2.4718c1.5806-0.98348 3.3516-1.4914 5.6903-1.4914 3.6984 0 6.229 1.8069 6.229 5.5807v11.412h-3.195zm0-7.0998c-0.88394-0.4448-2.0226-0.73106-3.7936-0.73106-2.0855 0-3.4145 0.95115-3.4145 2.4733 0 1.6468 1.0435 2.758 3.192 2.758 1.7402 0 3.2564-1.0774 4.0145-2.1239v-2.3763h0.00154z" fill="#c00"/>
<path d="m316.69 178.29c-0.79186 0.44478-1.8968 0.7603-3.1935 0.7603-2.308 0-3.7306-1.4252-3.7306-4.4064v-9.6054h-2.371v-2.9812h2.371v-4.7557l3.1935-1.7114v6.4672h4.1097v2.9812h-4.1097v9.0359c0 1.5529 0.50487 1.9977 1.7065 1.9977 0.85323 0 1.8016-0.31703 2.4016-0.66641l-0.37749 2.8842z" fill="#c00"/>
<path d="m163.27 78.531c5.4785-2.7503 9.2076-7.8508 9.2076-14.13 0-14.635-13.219-17.784-25.267-17.578h-32.512-0.18569-18.025v46.729c0 6.7858-2.3587 9.136-6.5589 9.136-4.5133 0-7.0515-2.5456-7.0515-7.169v-6.4718h-17.142v3.0304c0 15.628 5.9727 26.317 24.48 26.317 15.096 0 23.077-6.7042 24.297-19.943v18.475h33.576c14.979 0 27.219-5.102 27.219-21.795 0-7.9493-4.59-14.43-12.037-16.6zm-30.542-17.576h14.089c3.8258 0 7.4459 1.6807 7.4459 6.7796 0 5.0066-4.3061 6.6765-7.4459 6.6765h-14.089v-13.456zm14.582 41.346h-14.582v-16.113h14.582c5.4878 0 9.7969 2.07 9.7969 8.2418 0 5.8023-4.0161 7.8708-9.7969 7.8708z" fill="#c00"/>
<path d="m138.22 166.83c0-11.843-9.5836-21.465-21.399-21.465-11.838 0-21.415 9.6223-21.415 21.465 0 11.865 9.5775 21.467 21.415 21.467 11.815 0 21.399-9.6023 21.399-21.467z" fill="#c00"/>
<path d="m81.352 160.06c0-10.493-8.491-19.006-18.963-19.006-10.471 0-18.955 8.5111-18.955 19.006 0 10.503 8.4833 19.018 18.955 19.018 10.472 0 18.963-8.5157 18.963-19.018z" fill="#c00"/>
<path d="m38.514 125.71c0-9.4761-7.6485-17.162-17.111-17.162-9.4654 0-17.126 7.6862-17.126 17.162 0 9.5022 7.6608 17.188 17.126 17.188 9.4608 0 17.111-7.6862 17.111-17.188z" fill="#c00"/>
<path d="m30.566 77.9c0-8.4742-6.8367-15.323-15.277-15.323-8.4388 0-15.289 6.8474-15.289 15.323 0 8.4649 6.8505 15.335 15.289 15.335 8.4403 0 15.277-6.872 15.277-15.335z" fill="#c00"/>
<path d="m51.992 34.966c0-7.109-5.764-12.876-12.848-12.876-7.0883 0-12.843 5.7669-12.843 12.876 0 7.1151 5.7548 12.877 12.843 12.877 7.0837 0 12.848-5.7623 12.848-12.877z" fill="#c00"/>
<path d="m88.669 15.951c0-6.4333-5.1946-11.652-11.611-11.652-6.4146 0-11.618 5.219-11.618 11.652 0 6.4441 5.2054 11.663 11.618 11.663 6.4177 0 11.611-5.219 11.611-11.663z" fill="#c00"/>
<path d="m127.2 9.8147c0-5.4206-4.3721-9.8147-9.7816-9.8147-5.3957 0-9.7862 4.3941-9.7862 9.8147 0 5.4268 4.3905 9.8193 9.7862 9.8193 5.4095 0 9.7816-4.3925 9.7816-9.8193z" fill="#c00"/>
<path d="m306.5 86.493c-7.6347-1.6653-19.307-2.5456-19.307-7.3676 0-3.5399 4.4181-3.8277 7.1513-3.8277 2.0548 0 3.904 0.39709 5.2898 1.2728 1.3566 0.8865 2.1423 2.2624 2.1423 4.411h15.375c-0.59083-13.245-12.246-16.49-23.386-16.49-9.2813 0-21.339 2.8965-23.007 13.144-2.2789-10.436-12.805-13.144-22.932-13.144-9.9903 0-23.727 3.3429-23.727 15.615 0 0.21701 0.03222 0.4017 0.03685 0.61255-3.8749-9.69-13.029-16.228-24.804-16.228-12.736 0-22.258 7.4599-25.478 18.463 2.4615 3.3213 3.7567 7.6538 3.7567 12.177 0 3.7138-0.58928 7.0012-1.7049 9.8793 4.3782 8.1155 12.803 13.384 23.426 13.384 11.285 0 20.139-5.9593 24.27-14.958 2.1699 11.557 13.446 14.958 24.488 14.958 9.4946 0 19.981-3.1197 23.294-11.962 3.4298 9.156 13.643 11.962 23.665 11.962 11.451 0 24.379-4.511 24.379-18.163-0.00155-4.2201-2.6564-11.671-12.929-13.739zm-107.17 19.141c-7.7421 0-10.095-7.6492-10.095-14.139 0-6.4718 2.3526-14.244 10.095-14.244 7.7329 0 10.179 7.7739 10.179 14.244-0.00155 6.4918-2.4462 14.139-10.179 14.139zm48.659 1.9531c-2.3449 0-4.6038-0.57254-6.1722-1.7576-1.6543-1.2759-2.7438-3.1412-2.7438-5.6869h-14.207c0.83022-2.6965 1.2891-5.593 1.2891-8.648 0-1.4252-0.12738-2.8073-0.31307-4.1648 3.8933 6.7335 13.666 7.3891 21.857 9.4699 2.925 0.67873 8.1196 1.4775 8.1196 5.3944 0 4.0324-4.6115 5.3929-7.8295 5.3929zm46.957 0c-2.3434 0-4.6007-0.57254-6.1706-1.7576-1.6543-1.2759-2.7439-3.1412-2.7439-5.6869h-13.569c-0.03527-4.234-2.7208-11.595-12.926-13.65-7.6331-1.6653-18.794-2.5456-18.794-7.3676 0-3.5399 4.9276-3.8277 7.6607-3.8277 2.0564 0 3.904 0.39709 5.2898 1.2728 1.3581 0.8865 2.1423 2.2624 2.1423 4.411h14.763c0.59235 12.857 13.81 13.216 24.058 15.82 2.9265 0.67873 8.1196 1.4775 8.1196 5.3944 0.00155 4.0308-4.6115 5.3914-7.8295 5.3914z" fill="#61615c"/>
<path d="m320.93 55.653h1.4809l2.2283 3.6722h1.444l-2.4109-3.74c1.2384-0.15699 2.1791-0.81572 2.1791-2.3225 0-1.6914-0.97908-2.421-2.9741-2.421h-3.2257v8.4834h1.2783v-3.6722zm0-1.0989v-2.6334h1.754c0.87014 0 1.8415 0.20316 1.8415 1.2543 0 1.3036-0.97139 1.379-2.0548 1.379h-1.5407z" fill="#61615c"/>
<path d="m330.73 55.099c0 4.5864-3.7137 8.2987-8.2853 8.2987-4.5823 0-8.2961-3.7122-8.2961-8.2987 0-4.5972 3.7138-8.3187 8.2961-8.3187 4.5716 0.00153 8.2853 3.7215 8.2853 8.3187zm-8.2869-6.8396c-3.7812 0-6.8321 3.0504-6.8321 6.8396 0 3.7723 3.0508 6.8212 6.8321 6.8212 3.7598 0 6.8106-3.0489 6.8106-6.8212 0.00155-3.7892-3.0508-6.8396-6.8106-6.8396z" fill="#61615c"/>
<path d="m166.09 179.05c-1.6758 0-3.2564-0.8865-4.1726-1.9008v1.5529h-3.2257v-21.432l3.2257-1.6807v8.0524c1.2001-1.1112 2.5904-1.9346 4.3306-1.9346 3.571 0 6.384 2.5995 6.384 8.9405 0 5.7084-3.0968 8.4018-6.542 8.4018zm-0.4435-14.329c-1.55 0-2.9096 1.0466-3.7613 2.1255v7.0059c0.7274 0.98346 2.2436 2.187 3.8872 2.187 2.3387 0 3.6048-1.773 3.6048-5.2929 0-4.1863-1.3274-6.0255-3.7306-6.0255z" fill="#61615c"/>
<path d="m182.49 184.57h-3.4452l2.4017-6.1825-6.1016-16.328h3.5726l2.7178 8.1494c0.50489 1.4575 1.2645 3.9308 1.4533 4.8481 0.28544-0.98193 0.98062-3.3598 1.4855-4.785l2.8145-8.2125h3.4452l-8.3436 22.511z" fill="#61615c"/>
</svg>
