<?xml version="1.0" encoding="UTF-8"?>
<svg width="1327.5" height="386.56" inkscape:export-filename="/home/joakim/documents/Webtide/jetty-logo.png" inkscape:export-xdpi="90" inkscape:export-ydpi="90" inkscape:output_extension="org.inkscape.output.svg.inkscape" inkscape:version="0.91 r13725" sodipodi:docname="jetty.svg" sodipodi:version="0.32" version="1.0" xmlns="http://www.w3.org/2000/svg" xmlns:cc="http://creativecommons.org/ns#" xmlns:dc="http://purl.org/dc/elements/1.1/" xmlns:inkscape="http://www.inkscape.org/namespaces/inkscape" xmlns:rdf="http://www.w3.org/1999/02/22-rdf-syntax-ns#" xmlns:sodipodi="http://sodipodi.sourceforge.net/DTD/sodipodi-0.dtd">
<sodipodi:namedview bordercolor="#666666" borderopacity="1.0" fit-margin-bottom="40" fit-margin-left="0" fit-margin-right="0" fit-margin-top="40" gridtolerance="10000" guidetolerance="10" inkscape:current-layer="layer2" inkscape:cx="663.737" inkscape:cy="193.2811" inkscape:document-units="px" inkscape:guide-bbox="true" inkscape:pageopacity="0.0" inkscape:pageshadow="2" inkscape:window-height="700" inkscape:window-maximized="1" inkscape:window-width="1366" inkscape:window-x="0" inkscape:window-y="0" inkscape:zoom="0.69982538" objecttolerance="10" pagecolor="#ffffff" showborder="true" showgrid="false" showguides="true"/>
<metadata>
<rdf:RDF>
<cc:Work rdf:about="">
<dc:format>image/svg+xml</dc:format>
<dc:type rdf:resource="http://purl.org/dc/dcmitype/StillImage"/>
<dc:title/>
</cc:Work>
</rdf:RDF>
</metadata>
<g transform="translate(-38.108 -228.04)" fill="#fc390e" fill-rule="evenodd" inkscape:groupmode="layer" inkscape:label="Jetty">
<path d="m468.58 304.59-8.125 35.156h-29.594l-7.3125 31.75h29.594l-17.5 75.719c-4.5225 19.589-0.94201 54.25 39.969 54.25h98.781l8-34.656c-68.567 1e-5 -68.576-5e-3 -63.562-21.719l17-73.594h62.438 6.125 23.469l-17.5 75.719c-4.5225 19.589-0.94201 54.25 39.969 54.25h98.781l8-34.656c-68.567 0-68.576-5e-3 -63.562-21.719l17-73.594h68.562l7.3438-31.75h-68.594l8.125-35.156h-82.688l-8.125 35.156h-23.438-6.1562-62.438l8.125-35.156h-82.688zm-362.25 35.145-40.497 175.41c-2.4065 7.0591-6.0723 6.6822-14.254 7.0031l-0.96261 39.948 67.382-0.24066c13.075-0.72195 21.224-8.1344 26.599-26.424l45.18-195.7h-83.448zm13.667-59.2-10.334 44.761h83.448l10.334-44.761h-83.448zm119.3 59.211c-14.439 1e-5 -31.026 12.299-34.656 31.75l-16 65.469c-9.3648 40.563-4.4278 64.5 25.844 64.5h170.84l8-34.656h-128.03l6.875-29.844h128.03c2.0536-8.8951 10.603-21.822 15.125-65.469 1.2802-5.5451-7.5625-31.75-40.812-31.75h-135.22zm68.688 31.75c17.77 0 22.934 5.5578 17.219 30.312h-44.906c5.5146-23.887 13.161-30.313 27.688-30.312zm491.23-31.761-29.335 127.06s-8.0005 34.654 40.722 34.654h82.747c-4.1302 17.89-6.1115 26.472-54.205 26.472h-83.377l-7.4449 32.247h131.47c60.628 0 82.416 0 89.861-32.247l43.447-188.19h-82.416l-29.335 127.06h-48.093l29.335-127.06h-83.377zm246.25 0-14.334 62.088h83.747l14.334-62.088h-83.747zm-23.001 99.63-14.334 62.088h83.747l14.334-62.088h-83.747zm195.08-158.83-115.36 247.39h42.172l115.36-247.39h-42.172zm93.373 0-115.36 247.39h42.172l115.36-247.39h-42.172z" stroke="#000" stroke-linejoin="round" stroke-width="25" inkscape:connector-curvature="0"/>
<path d="m468.58 304.59-8.125 35.156h-29.594l-7.3125 31.75h29.594l-17.5 75.719c-4.5225 19.589-0.94201 54.25 39.969 54.25h98.781l8-34.656c-68.567 1e-5 -68.576-5e-3 -63.562-21.719l17-73.594h62.438 6.125 23.469l-17.5 75.719c-4.5225 19.589-0.94201 54.25 39.969 54.25h98.781l8-34.656c-68.567 0-68.576-5e-3 -63.562-21.719l17-73.594h68.562l7.3438-31.75h-68.594l8.125-35.156h-82.688l-8.125 35.156h-23.438-6.1562-62.438l8.125-35.156h-82.688zm-362.25 35.145-40.497 175.41c-2.4065 7.0591-6.0723 6.6822-14.254 7.0031l-0.96261 39.948 67.382-0.24066c13.075-0.72195 21.224-8.1344 26.599-26.424l45.18-195.7h-83.448zm13.667-59.2-10.334 44.761h83.448l10.334-44.761h-83.448zm119.3 59.211c-14.439 1e-5 -31.026 12.299-34.656 31.75l-16 65.469c-9.3648 40.563-4.4278 64.5 25.844 64.5h170.84l8-34.656h-128.03l6.875-29.844h128.03c2.0536-8.8951 10.603-21.822 15.125-65.469 1.2802-5.5451-7.5625-31.75-40.812-31.75h-135.22zm68.688 31.75c17.77 0 22.934 5.5578 17.219 30.312h-44.906c5.5146-23.887 13.161-30.313 27.688-30.312zm491.23-31.761-29.335 127.06s-8.0005 34.654 40.722 34.654h82.747c-4.1302 17.89-6.1115 26.472-54.205 26.472h-83.377l-7.4449 32.247h131.47c60.628 0 82.416 0 89.861-32.247l43.447-188.19h-82.416l-29.335 127.06h-48.093l29.335-127.06h-83.377zm246.25 0-14.334 62.088h83.747l14.334-62.088h-83.747zm-23.001 99.63-14.334 62.088h83.747l14.334-62.088h-83.747zm195.08-158.83-115.36 247.39h42.172l115.36-247.39h-42.172zm93.373 0-115.36 247.39h42.172l115.36-247.39h-42.172z" inkscape:connector-curvature="0"/>
</g>
</svg>
