<?xml version="1.0" encoding="UTF-8" standalone="no"?>
<!-- Generator: Adobe Illustrator 19.2.1, SVG Export Plug-In . SVG Version: 6.00 Build 0)  -->

<svg
   xmlns:dc="http://purl.org/dc/elements/1.1/"
   xmlns:cc="http://creativecommons.org/ns#"
   xmlns:rdf="http://www.w3.org/1999/02/22-rdf-syntax-ns#"
   xmlns:svg="http://www.w3.org/2000/svg"
   xmlns="http://www.w3.org/2000/svg"
   xmlns:sodipodi="http://sodipodi.sourceforge.net/DTD/sodipodi-0.dtd"
   xmlns:inkscape="http://www.inkscape.org/namespaces/inkscape"
   version="1.1"
   id="tomcat"
   x="0px"
   y="0px"
   viewBox="0 0 844.14958 184.30001"
   xml:space="preserve"
   inkscape:version="0.91 r13725"
   sodipodi:docname="tomcat.svg"
   width="844.1496"
   height="184.3"><metadata
     id="metadata72"><rdf:RDF><cc:Work
         rdf:about=""><dc:format>image/svg+xml</dc:format><dc:type
           rdf:resource="http://purl.org/dc/dcmitype/StillImage" /><dc:title></dc:title></cc:Work></rdf:RDF></metadata><defs
     id="defs70" /><sodipodi:namedview
     pagecolor="#ffffff"
     bordercolor="#666666"
     borderopacity="1"
     objecttolerance="10"
     gridtolerance="10"
     guidetolerance="10"
     inkscape:pageopacity="0"
     inkscape:pageshadow="2"
     inkscape:window-width="1366"
     inkscape:window-height="700"
     id="namedview68"
     showgrid="false"
     showguides="true"
     inkscape:guide-bbox="true"
     inkscape:zoom="0.99059095"
     inkscape:cx="472.95001"
     inkscape:cy="92.1"
     inkscape:window-x="0"
     inkscape:window-y="0"
     inkscape:window-maximized="1"
     inkscape:current-layer="tomcat"
     fit-margin-top="0"
     fit-margin-left="0"
     fit-margin-right="0"
     fit-margin-bottom="0" /><style
     type="text/css"
     id="style3">
	.st0{fill:#D1A41A;}
	.st1{fill:#FFDC76;}
	.st2{enable-background:new    ;}
</style><g
     id="Calque_3"><g
       id="XMLID_1_"><path
         class="st0"
         d="m 45,121.3 c 3,3.7 6.2,7.3 9.9,11.1 -10.5,3.2 -17.5,9.1 -21.8,14.3 -6.8,8.2 -10.4,19.1 -9.6,28.4 l -18.1,0 C 9,167.1 23.5,144.3 45,121.3 Z"
         id="path7"
         inkscape:connector-curvature="0"
         style="fill:#d1a41a" /><path
         class="st0"
         d="m 255.3,180 -22.1,0 c -50.6,-26.4 -95.1,-45 -142.3,-49.1 0.1,-6.6 1.3,-14 3.5,-22.3 L 90,107.4 c -2.3,8.5 -3.5,16.2 -3.7,23.1 -4.9,-0.3 -9.9,-0.5 -14.9,-0.5 -4.2,0 -8.1,0.4 -11.6,1.1 -4.6,-4.6 -8.5,-9 -11.8,-13.1 21.8,-22.7 57.6,-43.2 88.9,-50.9 8.8,29.2 27.7,49.2 50.6,62.7 1.7,-1 3.3,-2 5,-3 l 40,43 1.8,-0.2 c 10.9,-0.9 17.1,5 18.8,6.8 1.1,1.4 1.8,2.6 2.2,3.6 z"
         id="path9"
         inkscape:connector-curvature="0"
         style="fill:#d1a41a" /><path
         class="st1"
         d="m 235.8,36.1 c 0.8,39.7 -19.4,71.3 -47.8,87.5 -48.1,-24 -57.2,-84.7 -49,-117.3 2.3,12.5 6.4,20.3 15.4,24.1 19.5,-5.6 46.4,-6 66.2,-0.6 8.2,-6 11.5,-15.2 13.2,-23.2 2.2,9.4 2,29.5 2,29.5 z"
         id="path11"
         inkscape:connector-curvature="0"
         style="fill:#ffdc76" /></g></g><g
     id="Layer_1"><polygon
       points="114.7,73.7 122.1,95.5 99.8,80.5 "
       id="polygon14" /><polygon
       points="93.3,83.2 101.1,96.8 84.6,88.4 "
       id="polygon16" /><polygon
       points="75.3,93.8 79.1,107.4 67.7,99.5 "
       id="polygon18" /><polygon
       points="196.9,130.3 189.8,141.2 202.3,135.4 "
       id="polygon20" /><polygon
       points="208,142.8 196.6,151.5 212.4,147.4 "
       id="polygon22" /><polygon
       points="180.3,24.8 188.7,43.3 194.2,24.5 "
       id="polygon24" /><polygon
       points="137.6,51.7 150.9,58.8 138.9,59.6 "
       id="polygon26" /><polygon
       points="140.9,66.1 149,69.4 142.2,71.3 "
       id="polygon28" /><polygon
       points="236,56.9 225.2,61.5 234.1,62.8 "
       id="polygon30" /><polygon
       points="231.7,70.2 223.3,72.6 230,75.1 "
       id="polygon32" /></g><g
     id="Calque_4"><rect
       x="133.2"
       y="90.599998"
       width="26.200001"
       height="3.2"
       id="rect35" /><rect
       x="133.2"
       y="82.800003"
       width="26.200001"
       height="3.2"
       id="rect37" /><rect
       x="213.39999"
       y="90.599998"
       width="26.200001"
       height="3.2"
       id="rect39" /><rect
       x="213.39999"
       y="82.800003"
       width="26.200001"
       height="3.2"
       id="rect41" /><g
       id="g43"><path
         d="m 204.1,63.6 -27.2,0 -3,0 -12.6,0 0,-2.9 13.3,0 c 1.6,-7 2,-13.7 0,-17.1 -0.8,-1.4 -2,-2.1 -3.7,-2.1 -7.6,0 -10.8,8 -10.9,8.4 l 0,0 -2.7,-1 c 0.2,-0.4 4,-10.3 13.6,-10.3 2.7,0 4.8,1.2 6.2,3.6 2.4,4.1 2.1,11.3 0.5,18.6 l 23.4,0 c 3.1,-9.1 9.6,-13.4 20.4,-13.4 l 0,2.9 c -11.7,0 -15,5 -17.4,10.5 l 12.7,0 0,2.9 -12.6,-0.1 z"
         id="path45"
         inkscape:connector-curvature="0" /><path
         d="m 206,78 0,0 c -3.4,-5.1 -4.5,-9.5 -3.1,-14.4 l -3,0 c -1,3.3 -0.6,8.3 1.9,12.5 l -29.7,0 c 1.8,-3.6 3.5,-8 4.7,-12.5 l -3,0 c -1.3,4.8 -3.2,9.5 -5.4,13.3 l -0.7,1.2 16.7,10.5 -9.4,6.2 1.6,2.4 10.5,-6.9 11.3,7.4 1.6,-2.5 -10.5,-6.5 c 0.1,0 15.8,-10.2 16.5,-10.7 0,0 0,0 0,0 z m -18.8,8.8 -12.3,-7.8 24.1,0 -11.8,7.8 z"
         id="path47"
         inkscape:connector-curvature="0" /></g></g><g
     id="Calque_2"><path
       d="m 240.7,32.6 c 0,-5.1 -1.6,-26.5 -4.5,-32.4 -7.9,3 -22.2,12.7 -25.4,22.6 -15.5,-2.3 -33,-2 -48.4,0.6 C 159.8,12.8 146.9,4.6 137.2,0 c -4.1,6.9 -5.9,22.9 -5.4,34.3 0,0 0,0 -0.1,0 1.8,47.7 25.2,77.4 55.8,95.4 31.5,-18 54,-53 53.2,-97.1 0,0 0,0 0,0 z m -26.2,-9.2 c 0.1,0 0.2,0 0.3,0.1 -0.1,0 -0.2,-0.1 -0.3,-0.1 z m -2,-0.3 c 0.3,0 0.6,0.1 0.8,0.1 -0.2,0 -0.5,-0.1 -0.8,-0.1 z m 23.3,13 c 0.8,39.7 -19.4,71.3 -47.8,87.5 -48.1,-24 -57.2,-84.7 -49,-117.3 2.3,12.5 6.4,20.3 15.4,24.1 19.5,-5.6 46.4,-6 66.2,-0.6 8.3,-6 11.5,-15.2 13.2,-23.2 2.2,9.3 2,29.5 2,29.5 z"
       id="path50"
       inkscape:connector-curvature="0" /><path
       d="m 256.3,173.4 c -4.9,-5.5 -14.6,-8.1 -22.7,-8 -5.7,-6.8 -39,-41.9 -39,-41.9 l -2.3,2.9 40.2,43.2 1.7,-0.1 c 10.9,-0.9 17.1,5 18.8,6.8 1.2,1.3 1.9,2.6 2.3,3.5 l -22.1,0 c -50.6,-26.4 -95.1,-45 -142.3,-49.1 0.1,-6.6 1.3,-14 3.5,-22.3 l -4.3,-1.2 c -2.3,8.5 -3.5,16.2 -3.7,23.1 -4.9,-0.3 -9.9,-0.5 -14.9,-0.5 -4.2,0 -8.1,0.4 -11.6,1.1 -4.6,-4.6 -8.5,-9 -11.8,-13.1 C 70,95 106.2,74.3 137.6,66.7 l -1,-4.4 C 102.8,70.4 65.8,92.6 45.2,114.1 35.6,101.2 31.8,90.6 30.7,82.6 29.3,72.5 31.7,63.2 37.7,55.7 47.1,44 60.4,43.2 74.2,45.5 c -0.3,2.2 0,4.2 0.9,5.5 3.6,5.4 23.1,7.2 34.8,2 -8.6,-12 -26,-17.9 -30.8,-15.6 -1.6,0.8 -2.8,2.2 -3.6,3.9 C 70.7,40.6 66,40 62.5,40 50.4,40.1 41.2,44.3 34.2,53 c -6.8,8.5 -9.6,18.9 -8,30.3 1.5,10.8 6.9,22.3 15.8,34.2 -1.5,1.6 -2.9,3.2 -4.3,4.7 C 16,146.7 0,172.9 0,177.2 l 0,2.2 28.8,0 -0.5,-2.7 c -1.6,-8.6 1.6,-19.4 8.3,-27.4 4.2,-5 11.1,-10.8 22,-13.5 9.7,9.4 22,19.4 35.7,29.1 l 21.4,0 0,-2.2 c 0,-2.5 -1.3,-4.8 -3.5,-6.3 -3.4,-2.2 -8.6,-2.5 -13.4,-0.9 -4.6,-5.1 -7.1,-11.9 -7.7,-20.3 46.5,4.1 90.9,22.9 141.1,49.1 l 27.6,0 0.4,-1.8 c 0.4,-2.5 -1,-5.9 -3.9,-9.1 z M 33.1,146.5 c -6.8,8.2 -10.4,19.1 -9.6,28.4 l -18.1,0 C 9,167 23.6,144.2 45,121.1 c 3,3.7 6.3,7.3 9.9,11.1 -10.6,3.2 -17.5,9.1 -21.8,14.3 z"
       id="path52"
       inkscape:connector-curvature="0" /></g><g
     class="st2"
     id="g54"
     transform="matrix(0.87401204,0,0,0.87401204,17.421631,12.642891)"
     style="enable-background:new"><path
       d="m 349.5,160.7 0,-100.1 -36.6,0 0,-23.6 104.2,0 0,23.6 -36.6,0 0,100.1 -31,0 z"
       id="path56"
       inkscape:connector-curvature="0" /><path
       d="m 517.8,114.1 c 0,15.3 -4.2,27.4 -12.6,36.3 -8.4,8.8 -20.3,13.3 -35.6,13.3 -15.2,0 -27.1,-4.4 -35.5,-13.3 -8.4,-8.8 -12.7,-20.9 -12.7,-36.3 0,-15.5 4.2,-27.7 12.7,-36.4 8.4,-8.8 20.3,-13.2 35.5,-13.2 15.3,0 27.1,4.4 35.6,13.3 8.4,8.8 12.6,20.9 12.6,36.3 z m -29.8,0.2 c 0,-5.5 -0.5,-10.1 -1.4,-13.8 -0.9,-3.7 -2.2,-6.6 -3.8,-8.8 -1.7,-2.3 -3.7,-3.9 -5.8,-4.9 -2.2,-0.9 -4.6,-1.4 -7.4,-1.4 -2.6,0 -5,0.4 -7.1,1.2 -2.1,0.8 -4,2.3 -5.8,4.6 -1.7,2.2 -3,5.1 -4,8.9 -1,3.8 -1.5,8.5 -1.5,14.2 0,5.7 0.5,10.3 1.4,13.8 0.9,3.5 2.2,6.3 3.7,8.4 1.6,2.2 3.5,3.7 5.8,4.7 2.3,1 4.9,1.5 7.7,1.5 2.3,0 4.7,-0.5 7.1,-1.5 2.4,-1 4.3,-2.5 5.8,-4.5 1.7,-2.4 3,-5.2 3.9,-8.6 1,-3.3 1.4,-7.9 1.4,-13.8 z"
       id="path58"
       inkscape:connector-curvature="0" /><path
       d="m 644.8,160.7 0,-46.6 c 0,-4.6 -0.1,-8.5 -0.2,-11.6 -0.2,-3.2 -0.7,-5.7 -1.5,-7.7 -0.8,-2 -2.1,-3.4 -3.9,-4.4 -1.7,-0.9 -4.2,-1.4 -7.4,-1.4 -2.2,0 -4.4,0.5 -6.6,1.5 -2.2,1 -4.5,2.3 -7.1,4.1 l 0,66.1 -29.2,0 0,-46.6 c 0,-4.5 -0.1,-8.4 -0.3,-11.6 -0.2,-3.2 -0.7,-5.8 -1.5,-7.8 -0.8,-2 -2.1,-3.4 -3.9,-4.4 -1.7,-0.9 -4.2,-1.4 -7.3,-1.4 -2.4,0 -4.7,0.6 -7,1.7 -2.3,1.1 -4.5,2.4 -6.6,3.9 l 0,66.1 -29.1,0 0,-93.2 29.1,0 0,10.3 c 4.8,-4 9.2,-7.2 13.5,-9.5 4.2,-2.3 8.9,-3.4 14.2,-3.4 5.7,0 10.7,1.4 15,4.1 4.3,2.7 7.6,6.8 9.9,12.1 5.6,-5.2 10.9,-9.2 15.8,-12 5,-2.8 10,-4.2 15.1,-4.2 4.3,0 8.2,0.7 11.6,2.1 3.4,1.4 6.3,3.5 8.7,6.2 2.6,3 4.6,6.6 5.9,10.7 1.3,4.1 2,9.5 2,16.2 l 0,60.7 -29.2,0 0,0 z"
       id="path60"
       inkscape:connector-curvature="0" /><path
       d="m 741.3,163.2 c -7.7,0 -14.7,-1 -21.1,-2.9 -6.4,-1.9 -11.9,-4.9 -16.7,-9 -4.7,-4 -8.3,-9.1 -10.9,-15.2 -2.6,-6.1 -3.9,-13.3 -3.9,-21.6 0,-8.9 1.4,-16.5 4.2,-22.8 2.8,-6.3 6.6,-11.4 11.5,-15.5 4.7,-3.9 10.1,-6.7 16.4,-8.6 6.3,-1.9 12.8,-2.8 19.6,-2.8 5.2,0 10.3,0.6 15.5,1.8 5.2,1.2 10.3,3.1 15.5,5.7 l 0,24.9 -3.7,0 c -1.2,-1.1 -2.6,-2.3 -4.3,-3.7 -1.7,-1.3 -3.5,-2.5 -5.5,-3.7 -2.1,-1.2 -4.5,-2.1 -7.1,-3 -2.7,-0.8 -5.6,-1.2 -8.9,-1.2 -7.4,0 -13.2,2.6 -17.2,7.8 -4.1,5.2 -6.1,12.1 -6.1,20.9 0,9.4 2.2,16.3 6.5,20.9 4.3,4.6 10.1,6.9 17.3,6.9 3.7,0 6.9,-0.4 9.6,-1.2 2.8,-0.8 5.2,-1.8 7.1,-3 1.9,-1.2 3.6,-2.4 5,-3.6 1.4,-1.2 2.6,-2.4 3.6,-3.4 l 3.7,0 0,25.1 c -1.7,0.7 -3.6,1.6 -5.8,2.5 -2.2,0.9 -4.4,1.7 -6.7,2.3 -2.8,0.8 -5.5,1.4 -7.9,1.8 -2.4,0.4 -5.6,0.6 -9.7,0.6 z"
       id="path62"
       inkscape:connector-curvature="0" /><path
       d="m 836.7,150.8 c -2,1.7 -3.8,3.2 -5.4,4.5 -1.6,1.3 -3.7,2.7 -6.4,4 -2.6,1.3 -5.1,2.2 -7.6,2.9 -2.5,0.7 -5.9,1 -10.3,1 -8.3,0 -15.1,-2.8 -20.6,-8.3 -5.5,-5.5 -8.2,-12.5 -8.2,-20.9 0,-6.9 1.4,-12.5 4.2,-16.8 2.8,-4.3 6.8,-7.6 12,-10.1 5.3,-2.5 11.5,-4.3 18.9,-5.3 7.3,-1 15.2,-1.8 23.6,-2.3 l 0,-0.5 c 0,-5.2 -1.9,-8.7 -5.7,-10.7 -3.8,-2 -9.5,-3 -17.1,-3 -3.4,0 -7.4,0.6 -12,1.9 -4.6,1.2 -9.1,2.8 -13.5,4.8 l -2.5,0 0,-22.6 c 2.9,-0.8 7.5,-1.8 14,-2.9 6.4,-1.1 12.9,-1.7 19.4,-1.7 16.1,0 27.8,2.7 35.1,8 7.3,5.3 11,13.5 11,24.5 l 0,63.5 -28.9,0 0,-10 z m 0,-14.4 0,-19.4 c -4.9,0.5 -8.9,0.9 -12,1.3 -3,0.4 -6,1.1 -9,2.1 -2.5,0.9 -4.5,2.2 -5.9,4 -1.4,1.8 -2.1,4.2 -2.1,7.2 0,4.4 1.2,7.4 3.5,9 2.4,1.6 5.8,2.4 10.4,2.4 2.5,0 5.2,-0.6 7.8,-1.7 2.7,-1.2 5.1,-2.8 7.3,-4.9 z"
       id="path64"
       inkscape:connector-curvature="0" /><path
       d="m 922.8,162.5 c -11.9,0 -20.5,-2.4 -25.9,-7.3 -5.4,-4.9 -8.1,-12.8 -8.1,-23.9 l 0,-43.6 -11.1,0 0,-20.3 11.1,0 0,-26.7 29.1,0 0,26.7 28,0 0,20.3 -28,0 0,33.1 c 0,3.3 0,6.1 0.1,8.6 0.1,2.4 0.5,4.6 1.3,6.6 0.8,1.9 2.1,3.5 4.1,4.6 2,1.1 4.8,1.7 8.6,1.7 1.6,0 3.6,-0.3 6.1,-1 2.5,-0.7 4.3,-1.3 5.3,-1.8 l 2.5,0 0,20.5 c -3.2,0.8 -6.5,1.5 -10.1,2 -3.5,0.3 -7.8,0.5 -13,0.5 z"
       id="path66"
       inkscape:connector-curvature="0" /></g></svg>