<?xml version="1.0" encoding="UTF-8"?>
<svg width="844.15" height="184.3" inkscape:version="0.91 r13725" sodipodi:docname="tomcat.svg" version="1.1" viewBox="0 0 844.15 184.3" xml:space="preserve" xmlns="http://www.w3.org/2000/svg" xmlns:cc="http://creativecommons.org/ns#" xmlns:dc="http://purl.org/dc/elements/1.1/" xmlns:inkscape="http://www.inkscape.org/namespaces/inkscape" xmlns:rdf="http://www.w3.org/1999/02/22-rdf-syntax-ns#" xmlns:sodipodi="http://sodipodi.sourceforge.net/DTD/sodipodi-0.dtd"><metadata><rdf:RDF><cc:Work rdf:about=""><dc:format>image/svg+xml</dc:format><dc:type rdf:resource="http://purl.org/dc/dcmitype/StillImage"/><dc:title/></cc:Work></rdf:RDF></metadata><sodipodi:namedview bordercolor="#666666" borderopacity="1" fit-margin-bottom="0" fit-margin-left="0" fit-margin-right="0" fit-margin-top="0" gridtolerance="10" guidetolerance="10" inkscape:current-layer="tomcat" inkscape:cx="472.95001" inkscape:cy="92.1" inkscape:guide-bbox="true" inkscape:pageopacity="0" inkscape:pageshadow="2" inkscape:window-height="700" inkscape:window-maximized="1" inkscape:window-width="1366" inkscape:window-x="0" inkscape:window-y="0" inkscape:zoom="0.99059095" objecttolerance="10" pagecolor="#ffffff" showgrid="false" showguides="true"/><style type="text/css">
	.st0{fill:#D1A41A;}
	.st1{fill:#FFDC76;}
	.st2{enable-background:new    ;}
</style><path class="st0" d="m45 121.3c3 3.7 6.2 7.3 9.9 11.1-10.5 3.2-17.5 9.1-21.8 14.3-6.8 8.2-10.4 19.1-9.6 28.4h-18.1c3.6-8 18.1-30.8 39.6-53.8z" fill="#d1a41a" inkscape:connector-curvature="0"/><path class="st0" d="m255.3 180h-22.1c-50.6-26.4-95.1-45-142.3-49.1 0.1-6.6 1.3-14 3.5-22.3l-4.4-1.2c-2.3 8.5-3.5 16.2-3.7 23.1-4.9-0.3-9.9-0.5-14.9-0.5-4.2 0-8.1 0.4-11.6 1.1-4.6-4.6-8.5-9-11.8-13.1 21.8-22.7 57.6-43.2 88.9-50.9 8.8 29.2 27.7 49.2 50.6 62.7 1.7-1 3.3-2 5-3l40 43 1.8-0.2c10.9-0.9 17.1 5 18.8 6.8 1.1 1.4 1.8 2.6 2.2 3.6z" fill="#d1a41a" inkscape:connector-curvature="0"/><path class="st1" d="m235.8 36.1c0.8 39.7-19.4 71.3-47.8 87.5-48.1-24-57.2-84.7-49-117.3 2.3 12.5 6.4 20.3 15.4 24.1 19.5-5.6 46.4-6 66.2-0.6 8.2-6 11.5-15.2 13.2-23.2 2.2 9.4 2 29.5 2 29.5z" fill="#ffdc76" inkscape:connector-curvature="0"/><polygon points="114.7 73.7 122.1 95.5 99.8 80.5"/><polygon points="93.3 83.2 101.1 96.8 84.6 88.4"/><polygon points="75.3 93.8 79.1 107.4 67.7 99.5"/><polygon points="196.9 130.3 189.8 141.2 202.3 135.4"/><polygon points="208 142.8 196.6 151.5 212.4 147.4"/><polygon points="180.3 24.8 188.7 43.3 194.2 24.5"/><polygon points="137.6 51.7 150.9 58.8 138.9 59.6"/><polygon points="140.9 66.1 149 69.4 142.2 71.3"/><polygon points="236 56.9 225.2 61.5 234.1 62.8"/><polygon points="231.7 70.2 223.3 72.6 230 75.1"/><rect x="133.2" y="90.6" width="26.2" height="3.2"/><rect x="133.2" y="82.8" width="26.2" height="3.2"/><rect x="213.4" y="90.6" width="26.2" height="3.2"/><rect x="213.4" y="82.8" width="26.2" height="3.2"/><path d="m204.1 63.6h-27.2-3-12.6v-2.9h13.3c1.6-7 2-13.7 0-17.1-0.8-1.4-2-2.1-3.7-2.1-7.6 0-10.8 8-10.9 8.4l-2.7-1c0.2-0.4 4-10.3 13.6-10.3 2.7 0 4.8 1.2 6.2 3.6 2.4 4.1 2.1 11.3 0.5 18.6h23.4c3.1-9.1 9.6-13.4 20.4-13.4v2.9c-11.7 0-15 5-17.4 10.5h12.7v2.9l-12.6-0.1z" inkscape:connector-curvature="0"/><path d="m206 78c-3.4-5.1-4.5-9.5-3.1-14.4h-3c-1 3.3-0.6 8.3 1.9 12.5h-29.7c1.8-3.6 3.5-8 4.7-12.5h-3c-1.3 4.8-3.2 9.5-5.4 13.3l-0.7 1.2 16.7 10.5-9.4 6.2 1.6 2.4 10.5-6.9 11.3 7.4 1.6-2.5-10.5-6.5c0.1 0 15.8-10.2 16.5-10.7zm-18.8 8.8-12.3-7.8h24.1l-11.8 7.8z" inkscape:connector-curvature="0"/><path d="m240.7 32.6c0-5.1-1.6-26.5-4.5-32.4-7.9 3-22.2 12.7-25.4 22.6-15.5-2.3-33-2-48.4 0.6-2.6-10.6-15.5-18.8-25.2-23.4-4.1 6.9-5.9 22.9-5.4 34.3h-0.1c1.8 47.7 25.2 77.4 55.8 95.4 31.5-18 54-53 53.2-97.1zm-26.2-9.2c0.1 0 0.2 0 0.3 0.1-0.1 0-0.2-0.1-0.3-0.1zm-2-0.3c0.3 0 0.6 0.1 0.8 0.1-0.2 0-0.5-0.1-0.8-0.1zm23.3 13c0.8 39.7-19.4 71.3-47.8 87.5-48.1-24-57.2-84.7-49-117.3 2.3 12.5 6.4 20.3 15.4 24.1 19.5-5.6 46.4-6 66.2-0.6 8.3-6 11.5-15.2 13.2-23.2 2.2 9.3 2 29.5 2 29.5z" inkscape:connector-curvature="0"/><path d="m256.3 173.4c-4.9-5.5-14.6-8.1-22.7-8-5.7-6.8-39-41.9-39-41.9l-2.3 2.9 40.2 43.2 1.7-0.1c10.9-0.9 17.1 5 18.8 6.8 1.2 1.3 1.9 2.6 2.3 3.5h-22.1c-50.6-26.4-95.1-45-142.3-49.1 0.1-6.6 1.3-14 3.5-22.3l-4.3-1.2c-2.3 8.5-3.5 16.2-3.7 23.1-4.9-0.3-9.9-0.5-14.9-0.5-4.2 0-8.1 0.4-11.6 1.1-4.6-4.6-8.5-9-11.8-13.1 21.9-22.8 58.1-43.5 89.5-51.1l-1-4.4c-33.8 8.1-70.8 30.3-91.4 51.8-9.6-12.9-13.4-23.5-14.5-31.5-1.4-10.1 1-19.4 7-26.9 9.4-11.7 22.7-12.5 36.5-10.2-0.3 2.2 0 4.2 0.9 5.5 3.6 5.4 23.1 7.2 34.8 2-8.6-12-26-17.9-30.8-15.6-1.6 0.8-2.8 2.2-3.6 3.9-4.8-0.7-9.5-1.3-13-1.3-12.1 0.1-21.3 4.3-28.3 13-6.8 8.5-9.6 18.9-8 30.3 1.5 10.8 6.9 22.3 15.8 34.2-1.5 1.6-2.9 3.2-4.3 4.7-21.7 24.5-37.7 50.7-37.7 55v2.2h28.8l-0.5-2.7c-1.6-8.6 1.6-19.4 8.3-27.4 4.2-5 11.1-10.8 22-13.5 9.7 9.4 22 19.4 35.7 29.1h21.4v-2.2c0-2.5-1.3-4.8-3.5-6.3-3.4-2.2-8.6-2.5-13.4-0.9-4.6-5.1-7.1-11.9-7.7-20.3 46.5 4.1 90.9 22.9 141.1 49.1h27.6l0.4-1.8c0.4-2.5-1-5.9-3.9-9.1zm-223.2-26.9c-6.8 8.2-10.4 19.1-9.6 28.4h-18.1c3.6-7.9 18.2-30.7 39.6-53.8 3 3.7 6.3 7.3 9.9 11.1-10.6 3.2-17.5 9.1-21.8 14.3z" inkscape:connector-curvature="0"/><g class="st2" transform="matrix(.87401 0 0 .87401 17.422 12.643)" enable-background="new"><path d="m349.5 160.7v-100.1h-36.6v-23.6h104.2v23.6h-36.6v100.1h-31z" inkscape:connector-curvature="0"/><path d="m517.8 114.1c0 15.3-4.2 27.4-12.6 36.3-8.4 8.8-20.3 13.3-35.6 13.3-15.2 0-27.1-4.4-35.5-13.3-8.4-8.8-12.7-20.9-12.7-36.3 0-15.5 4.2-27.7 12.7-36.4 8.4-8.8 20.3-13.2 35.5-13.2 15.3 0 27.1 4.4 35.6 13.3 8.4 8.8 12.6 20.9 12.6 36.3zm-29.8 0.2c0-5.5-0.5-10.1-1.4-13.8s-2.2-6.6-3.8-8.8c-1.7-2.3-3.7-3.9-5.8-4.9-2.2-0.9-4.6-1.4-7.4-1.4-2.6 0-5 0.4-7.1 1.2s-4 2.3-5.8 4.6c-1.7 2.2-3 5.1-4 8.9s-1.5 8.5-1.5 14.2 0.5 10.3 1.4 13.8 2.2 6.3 3.7 8.4c1.6 2.2 3.5 3.7 5.8 4.7s4.9 1.5 7.7 1.5c2.3 0 4.7-0.5 7.1-1.5s4.3-2.5 5.8-4.5c1.7-2.4 3-5.2 3.9-8.6 1-3.3 1.4-7.9 1.4-13.8z" inkscape:connector-curvature="0"/><path d="m644.8 160.7v-46.6c0-4.6-0.1-8.5-0.2-11.6-0.2-3.2-0.7-5.7-1.5-7.7s-2.1-3.4-3.9-4.4c-1.7-0.9-4.2-1.4-7.4-1.4-2.2 0-4.4 0.5-6.6 1.5s-4.5 2.3-7.1 4.1v66.1h-29.2v-46.6c0-4.5-0.1-8.4-0.3-11.6s-0.7-5.8-1.5-7.8-2.1-3.4-3.9-4.4c-1.7-0.9-4.2-1.4-7.3-1.4-2.4 0-4.7 0.6-7 1.7s-4.5 2.4-6.6 3.9v66.1h-29.1v-93.2h29.1v10.3c4.8-4 9.2-7.2 13.5-9.5 4.2-2.3 8.9-3.4 14.2-3.4 5.7 0 10.7 1.4 15 4.1s7.6 6.8 9.9 12.1c5.6-5.2 10.9-9.2 15.8-12 5-2.8 10-4.2 15.1-4.2 4.3 0 8.2 0.7 11.6 2.1s6.3 3.5 8.7 6.2c2.6 3 4.6 6.6 5.9 10.7s2 9.5 2 16.2v60.7h-29.2z" inkscape:connector-curvature="0"/><path d="m741.3 163.2c-7.7 0-14.7-1-21.1-2.9s-11.9-4.9-16.7-9c-4.7-4-8.3-9.1-10.9-15.2s-3.9-13.3-3.9-21.6c0-8.9 1.4-16.5 4.2-22.8s6.6-11.4 11.5-15.5c4.7-3.9 10.1-6.7 16.4-8.6s12.8-2.8 19.6-2.8c5.2 0 10.3 0.6 15.5 1.8s10.3 3.1 15.5 5.7v24.9h-3.7c-1.2-1.1-2.6-2.3-4.3-3.7-1.7-1.3-3.5-2.5-5.5-3.7-2.1-1.2-4.5-2.1-7.1-3-2.7-0.8-5.6-1.2-8.9-1.2-7.4 0-13.2 2.6-17.2 7.8-4.1 5.2-6.1 12.1-6.1 20.9 0 9.4 2.2 16.3 6.5 20.9s10.1 6.9 17.3 6.9c3.7 0 6.9-0.4 9.6-1.2 2.8-0.8 5.2-1.8 7.1-3s3.6-2.4 5-3.6 2.6-2.4 3.6-3.4h3.7v25.1c-1.7 0.7-3.6 1.6-5.8 2.5s-4.4 1.7-6.7 2.3c-2.8 0.8-5.5 1.4-7.9 1.8s-5.6 0.6-9.7 0.6z" inkscape:connector-curvature="0"/><path d="m836.7 150.8c-2 1.7-3.8 3.2-5.4 4.5s-3.7 2.7-6.4 4c-2.6 1.3-5.1 2.2-7.6 2.9s-5.9 1-10.3 1c-8.3 0-15.1-2.8-20.6-8.3s-8.2-12.5-8.2-20.9c0-6.9 1.4-12.5 4.2-16.8s6.8-7.6 12-10.1c5.3-2.5 11.5-4.3 18.9-5.3 7.3-1 15.2-1.8 23.6-2.3v-0.5c0-5.2-1.9-8.7-5.7-10.7s-9.5-3-17.1-3c-3.4 0-7.4 0.6-12 1.9-4.6 1.2-9.1 2.8-13.5 4.8h-2.5v-22.6c2.9-0.8 7.5-1.8 14-2.9 6.4-1.1 12.9-1.7 19.4-1.7 16.1 0 27.8 2.7 35.1 8s11 13.5 11 24.5v63.5h-28.9v-10zm0-14.4v-19.4c-4.9 0.5-8.9 0.9-12 1.3-3 0.4-6 1.1-9 2.1-2.5 0.9-4.5 2.2-5.9 4s-2.1 4.2-2.1 7.2c0 4.4 1.2 7.4 3.5 9 2.4 1.6 5.8 2.4 10.4 2.4 2.5 0 5.2-0.6 7.8-1.7 2.7-1.2 5.1-2.8 7.3-4.9z" inkscape:connector-curvature="0"/><path d="m922.8 162.5c-11.9 0-20.5-2.4-25.9-7.3s-8.1-12.8-8.1-23.9v-43.6h-11.1v-20.3h11.1v-26.7h29.1v26.7h28v20.3h-28v33.1c0 3.3 0 6.1 0.1 8.6 0.1 2.4 0.5 4.6 1.3 6.6 0.8 1.9 2.1 3.5 4.1 4.6s4.8 1.7 8.6 1.7c1.6 0 3.6-0.3 6.1-1s4.3-1.3 5.3-1.8h2.5v20.5c-3.2 0.8-6.5 1.5-10.1 2-3.5 0.3-7.8 0.5-13 0.5z" inkscape:connector-curvature="0"/></g></svg>
