<?xml version="1.0" encoding="UTF-8"?>
<svg width="300" height="110.2" inkscape:version="0.91 r13725" sodipodi:docname="weblogic.svg" version="1.1" viewBox="0 0 300 110.2" xml:space="preserve" xmlns="http://www.w3.org/2000/svg" xmlns:cc="http://creativecommons.org/ns#" xmlns:dc="http://purl.org/dc/elements/1.1/" xmlns:inkscape="http://www.inkscape.org/namespaces/inkscape" xmlns:rdf="http://www.w3.org/1999/02/22-rdf-syntax-ns#" xmlns:sodipodi="http://sodipodi.sourceforge.net/DTD/sodipodi-0.dtd"><metadata><rdf:RDF><cc:Work rdf:about=""><dc:format>image/svg+xml</dc:format><dc:type rdf:resource="http://purl.org/dc/dcmitype/StillImage"/><dc:title/></cc:Work></rdf:RDF></metadata><sodipodi:namedview bordercolor="#666666" borderopacity="1" fit-margin-bottom="0" fit-margin-left="0" fit-margin-right="0" fit-margin-top="0" gridtolerance="10" guidetolerance="10" inkscape:current-layer="图层_1" inkscape:cx="362.92373" inkscape:cy="-39.800004" inkscape:pageopacity="0" inkscape:pageshadow="2" inkscape:window-height="700" inkscape:window-maximized="1" inkscape:window-width="1366" inkscape:window-x="0" inkscape:window-y="0" inkscape:zoom="0.78666667" objecttolerance="10" pagecolor="#ffffff" showgrid="false"/><style type="text/css">
	.st0{fill:#DA2423;}
	.st1{fill:#FFFFFF;}
	.st2{fill:#888988;}
</style><g transform="translate(0 -94.9)"><rect class="st0" y="94.9" width="300" height="57.5" fill="#da2423"/><rect class="st1" y="152.5" width="300" height="52.6" fill="#fff"/><g transform="translate(-702.65 -712.58)"><g fill="#fff"><path class="st1" d="m837.4 841h14.9l-7.9-12.7-14.4 23h-6.6l17.6-27.5c0.8-1.1 2-1.8 3.5-1.8 1.4 0 2.6 0.6 3.4 1.7l17.7 27.6h-6.6l-3.1-5.1h-15.1l-3.4-5.2zm68.4 5.2v-23.9h-5.6v26.3c0 0.7 0.3 1.4 0.8 1.9s1.3 0.8 2 0.8h25.5l3.3-5.1h-26zm-92.4-4.3c5.4 0 9.8-4.4 9.8-9.8s-4.4-9.8-9.8-9.8h-24.4v29h5.6v-23.9h18.4c2.6 0 4.7 2.1 4.7 4.7s-2.1 4.7-4.7 4.7h-15.7l16.7 14.5h8.1l-11.2-9.4h2.5zm-58.8 9.4c-8 0-14.5-6.5-14.5-14.5s6.5-14.5 14.5-14.5h16.9c8 0 14.5 6.5 14.5 14.5s-6.5 14.5-14.5 14.5h-16.9zm16.5-5.1c5.2 0 9.4-4.2 9.4-9.4s-4.2-9.4-9.4-9.4h-16.1c-5.2 0-9.4 4.2-9.4 9.4s4.2 9.4 9.4 9.4h16.1zm106.1 5.1c-8 0-14.5-6.5-14.5-14.5s6.5-14.5 14.5-14.5h20l-3.3 5.1h-16.4c-5.2 0-9.4 4.2-9.4 9.4s4.2 9.4 9.4 9.4h20.1l-3.3 5.1h-17.1zm68.3-5.1c-4.3 0-7.9-2.9-9-6.8h23.9l3.3-5.1h-27.2c1.1-3.9 4.8-6.8 9-6.8h16.4l3.3-5.1h-20.1c-8 0-14.5 6.5-14.5 14.5s6.5 14.5 14.5 14.5h17.2l3.3-5.1h-20.1" inkscape:connector-curvature="0"/><path class="st1" d="m968.2 825.3c0-1.4 1.1-2.5 2.5-2.5s2.6 1.1 2.6 2.5-1.1 2.6-2.6 2.6c-1.4 0-2.5-1.1-2.5-2.6zm2.5 3.3c1.8 0 3.3-1.5 3.3-3.3s-1.5-3.3-3.3-3.3-3.2 1.5-3.2 3.3 1.4 3.3 3.2 3.3zm-0.3-5.2c0.5 0 0.7 0 1 0.1 0.6 0.2 0.7 0.8 0.7 1v0.3c0 0.1-0.1 0.4-0.4 0.6 0 0-0.1 0-0.2 0.1l0.8 1.5h-0.8l-0.7-1.4h-0.5v1.4h-0.7v-3.7h0.8zm0.3 1.7c0.2 0 0.5 0 0.6-0.2 0.1-0.1 0.1-0.2 0.1-0.3 0-0.2-0.1-0.3-0.3-0.4s-0.3-0.1-0.7-0.1h-0.2v1.1h0.5" inkscape:connector-curvature="0"/></g></g><g fill="#888988"><path class="st2" d="m71.7 187.6h-5l-2.8-11c-0.1-0.4-0.3-1.2-0.5-2.4-0.3-1.2-0.4-2-0.4-2.5-0.1 0.5-0.2 1.3-0.4 2.5-0.2 1.1-0.4 1.9-0.5 2.4l-2.8 10.9h-5l-5.3-20.9h4.4l2.7 11.4c0.5 2.1 0.8 3.9 1 5.5 0.1-0.5 0.2-1.4 0.4-2.5s0.4-2 0.6-2.6l3-11.7h3.9l3 11.7c0.1 0.5 0.3 1.3 0.5 2.4s0.4 2 0.5 2.8c0.1-0.7 0.2-1.7 0.5-2.8 0.2-1.1 0.4-2 0.6-2.7l2.7-11.4h4.2l-5.3 20.9z" inkscape:connector-curvature="0"/><path class="st2" d="m97.7 187.6h-12v-20.9h12v3.6h-7.6v4.6h7.1v3.6h-7.1v5.4h7.6v3.7z" inkscape:connector-curvature="0"/><path class="st2" d="m108.1 166.8h6.5c3 0 5.1 0.4 6.4 1.3 1.3 0.8 2 2.2 2 4 0 1.2-0.3 2.3-0.9 3.1s-1.4 1.3-2.3 1.4v0.1c1.3 0.3 2.3 0.8 2.9 1.7 0.6 0.8 0.9 1.9 0.9 3.2 0 1.9-0.7 3.4-2.1 4.5s-3.2 1.6-5.6 1.6h-7.8v-20.9zm4.4 8.2h2.6c1.2 0 2.1-0.2 2.6-0.6s0.8-1 0.8-1.8-0.3-1.4-0.9-1.7-1.5-0.5-2.8-0.5h-2.3v4.6zm0 3.5v5.4h2.9c1.2 0 2.1-0.2 2.7-0.7s0.9-1.2 0.9-2.1c0-1.7-1.2-2.6-3.7-2.6h-2.8z" inkscape:connector-curvature="0"/><path class="st2" d="m133.7 187.6v-20.9h4.4v17.3h8.5v3.7h-12.9z" inkscape:connector-curvature="0"/><path class="st2" d="m175.2 177.2c0 3.5-0.9 6.1-2.6 8s-4.2 2.8-7.4 2.8-5.6-0.9-7.4-2.8c-1.7-1.9-2.6-4.5-2.6-8s0.9-6.1 2.6-8c1.7-1.8 4.2-2.7 7.4-2.7s5.7 0.9 7.4 2.8c1.7 1.7 2.6 4.4 2.6 7.9zm-15.3 0c0 2.3 0.4 4.1 1.3 5.3s2.2 1.8 4 1.8c3.5 0 5.3-2.3 5.3-7s-1.8-7-5.3-7c-1.8 0-3.1 0.6-4 1.8-0.8 1-1.3 2.7-1.3 5.1z" inkscape:connector-curvature="0"/><path class="st2" d="m193.4 175.9h8.3v10.8c-1.3 0.4-2.6 0.7-3.8 0.9s-2.4 0.3-3.6 0.3c-3.1 0-5.6-0.9-7.2-2.8-1.7-1.8-2.5-4.5-2.5-8 0-3.4 1-6 2.9-7.9s4.6-2.8 8-2.8c2.1 0 4.2 0.4 6.2 1.3l-1.5 3.5c-1.5-0.8-3.1-1.1-4.7-1.1-1.9 0-3.4 0.6-4.6 1.9s-1.7 3-1.7 5.2c0 2.3 0.5 4 1.4 5.2s2.3 1.8 4 1.8c0.9 0 1.9-0.1 2.8-0.3v-4.3h-4v-3.7z" inkscape:connector-curvature="0"/><path class="st2" d="m212.7 187.6v-20.9h4.4v20.9h-4.4z" inkscape:connector-curvature="0"/><path class="st2" d="m237.2 170.1c-1.7 0-3 0.6-3.9 1.9s-1.4 3-1.4 5.2c0 4.6 1.7 7 5.2 7 1.5 0 3.2-0.4 5.3-1.1v3.7c-1.7 0.7-3.6 1.1-5.7 1.1-3 0-5.4-0.9-7-2.8-1.6-1.8-2.4-4.5-2.4-7.9 0-2.2 0.4-4.1 1.2-5.7s1.9-2.9 3.4-3.8 3.2-1.3 5.2-1.3 4.1 0.5 6.1 1.5l-1.4 3.6c-0.8-0.4-1.6-0.7-2.4-1-0.7-0.2-1.4-0.4-2.2-0.4z" inkscape:connector-curvature="0"/></g></g></svg>
