<?xml version="1.0" encoding="UTF-8" standalone="no"?>
<!-- Generator: Adobe Illustrator 19.0.0, SVG Export Plug-In . SVG Version: 6.00 Build 0)  -->

<svg
   xmlns:dc="http://purl.org/dc/elements/1.1/"
   xmlns:cc="http://creativecommons.org/ns#"
   xmlns:rdf="http://www.w3.org/1999/02/22-rdf-syntax-ns#"
   xmlns:svg="http://www.w3.org/2000/svg"
   xmlns="http://www.w3.org/2000/svg"
   xmlns:sodipodi="http://sodipodi.sourceforge.net/DTD/sodipodi-0.dtd"
   xmlns:inkscape="http://www.inkscape.org/namespaces/inkscape"
   version="1.1"
   id="图层_1"
   x="0px"
   y="0px"
   viewBox="0 0 300 110.2"
   xml:space="preserve"
   inkscape:version="0.91 r13725"
   sodipodi:docname="weblogic.svg"
   width="300"
   height="110.2"><metadata
     id="metadata25"><rdf:RDF><cc:Work
         rdf:about=""><dc:format>image/svg+xml</dc:format><dc:type
           rdf:resource="http://purl.org/dc/dcmitype/StillImage" /><dc:title></dc:title></cc:Work></rdf:RDF></metadata><defs
     id="defs23" /><sodipodi:namedview
     pagecolor="#ffffff"
     bordercolor="#666666"
     borderopacity="1"
     objecttolerance="10"
     gridtolerance="10"
     guidetolerance="10"
     inkscape:pageopacity="0"
     inkscape:pageshadow="2"
     inkscape:window-width="1366"
     inkscape:window-height="700"
     id="namedview21"
     showgrid="false"
     fit-margin-top="0"
     fit-margin-left="0"
     fit-margin-right="0"
     fit-margin-bottom="0"
     inkscape:zoom="0.78666667"
     inkscape:cx="362.92373"
     inkscape:cy="-39.800004"
     inkscape:window-x="0"
     inkscape:window-y="0"
     inkscape:window-maximized="1"
     inkscape:current-layer="图层_1" /><style
     type="text/css"
     id="style3">
	.st0{fill:#DA2423;}
	.st1{fill:#FFFFFF;}
	.st2{fill:#888988;}
</style><g
     id="XMLID_1624_"
     transform="translate(0,-94.900002)"><rect
       id="XMLID_1657_"
       y="94.900002"
       class="st0"
       width="300"
       height="57.5"
       x="0"
       style="fill:#da2423" /><rect
       id="XMLID_1656_"
       y="152.5"
       class="st1"
       width="300"
       height="52.599998"
       x="0"
       style="fill:#ffffff" /><g
       id="layer1_2_"
       transform="translate(-702.6538,-712.5837)"><g
         id="g16337_1_"><path
           id="path16197_1_"
           class="st1"
           d="m 837.4,841 14.9,0 -7.9,-12.7 -14.4,23 -6.6,0 17.6,-27.5 c 0.8,-1.1 2,-1.8 3.5,-1.8 1.4,0 2.6,0.6 3.4,1.7 l 17.7,27.6 -6.6,0 -3.1,-5.1 -15.1,0 -3.4,-5.2 z m 68.4,5.2 0,-23.9 -5.6,0 0,26.3 c 0,0.7 0.3,1.4 0.8,1.9 0.5,0.5 1.3,0.8 2,0.8 l 25.5,0 3.3,-5.1 -26,0 z m -92.4,-4.3 c 5.4,0 9.8,-4.4 9.8,-9.8 0,-5.4 -4.4,-9.8 -9.8,-9.8 l -24.4,0 0,29 5.6,0 0,-23.9 18.4,0 c 2.6,0 4.7,2.1 4.7,4.7 0,2.6 -2.1,4.7 -4.7,4.7 l -15.7,0 16.7,14.5 8.1,0 -11.2,-9.4 2.5,0 z m -58.8,9.4 c -8,0 -14.5,-6.5 -14.5,-14.5 0,-8 6.5,-14.5 14.5,-14.5 l 16.9,0 c 8,0 14.5,6.5 14.5,14.5 0,8 -6.5,14.5 -14.5,14.5 l -16.9,0 z m 16.5,-5.1 c 5.2,0 9.4,-4.2 9.4,-9.4 0,-5.2 -4.2,-9.4 -9.4,-9.4 l -16.1,0 c -5.2,0 -9.4,4.2 -9.4,9.4 0,5.2 4.2,9.4 9.4,9.4 l 16.1,0 z m 106.1,5.1 c -8,0 -14.5,-6.5 -14.5,-14.5 0,-8 6.5,-14.5 14.5,-14.5 l 20,0 -3.3,5.1 -16.4,0 c -5.2,0 -9.4,4.2 -9.4,9.4 0,5.2 4.2,9.4 9.4,9.4 l 20.1,0 -3.3,5.1 -17.1,0 z m 68.3,-5.1 c -4.3,0 -7.9,-2.9 -9,-6.8 l 23.9,0 3.3,-5.1 -27.2,0 c 1.1,-3.9 4.8,-6.8 9,-6.8 l 16.4,0 3.3,-5.1 -20.1,0 c -8,0 -14.5,6.5 -14.5,14.5 0,8 6.5,14.5 14.5,14.5 l 17.2,0 3.3,-5.1 -20.1,0"
           inkscape:connector-curvature="0"
           style="fill:#ffffff" /><path
           id="path16199_1_"
           class="st1"
           d="m 968.2,825.3 c 0,-1.4 1.1,-2.5 2.5,-2.5 1.4,0 2.6,1.1 2.6,2.5 0,1.4 -1.1,2.6 -2.6,2.6 -1.4,0 -2.5,-1.1 -2.5,-2.6 z m 2.5,3.3 c 1.8,0 3.3,-1.5 3.3,-3.3 0,-1.8 -1.5,-3.3 -3.3,-3.3 -1.8,0 -3.2,1.5 -3.2,3.3 0,1.8 1.4,3.3 3.2,3.3 z m -0.3,-5.2 c 0.5,0 0.7,0 1,0.1 0.6,0.2 0.7,0.8 0.7,1 0,0 0,0.2 0,0.3 0,0.1 -0.1,0.4 -0.4,0.6 0,0 -0.1,0 -0.2,0.1 l 0.8,1.5 -0.8,0 -0.7,-1.4 -0.5,0 0,1.4 -0.7,0 0,-3.7 0.8,0 z m 0.3,1.7 c 0.2,0 0.5,0 0.6,-0.2 0.1,-0.1 0.1,-0.2 0.1,-0.3 0,-0.2 -0.1,-0.3 -0.3,-0.4 -0.2,-0.1 -0.3,-0.1 -0.7,-0.1 l -0.2,0 0,1.1 0.5,0"
           inkscape:connector-curvature="0"
           style="fill:#ffffff" /></g></g><g
       id="XMLID_1625_"><path
         id="XMLID_1643_"
         class="st2"
         d="m 71.7,187.6 -5,0 -2.8,-11 c -0.1,-0.4 -0.3,-1.2 -0.5,-2.4 -0.3,-1.2 -0.4,-2 -0.4,-2.5 -0.1,0.5 -0.2,1.3 -0.4,2.5 -0.2,1.1 -0.4,1.9 -0.5,2.4 l -2.8,10.9 -5,0 -5.3,-20.9 4.4,0 2.7,11.4 c 0.5,2.1 0.8,3.9 1,5.5 0.1,-0.5 0.2,-1.4 0.4,-2.5 0.2,-1.1 0.4,-2 0.6,-2.6 l 3,-11.7 3.9,0 3,11.7 c 0.1,0.5 0.3,1.3 0.5,2.4 0.2,1.1 0.4,2 0.5,2.8 0.1,-0.7 0.2,-1.7 0.5,-2.8 0.2,-1.1 0.4,-2 0.6,-2.7 l 2.7,-11.4 4.2,0 -5.3,20.9 z"
         inkscape:connector-curvature="0"
         style="fill:#888988" /><path
         id="XMLID_1641_"
         class="st2"
         d="m 97.7,187.6 -12,0 0,-20.9 12,0 0,3.6 -7.6,0 0,4.6 7.1,0 0,3.6 -7.1,0 0,5.4 7.6,0 0,3.7 z"
         inkscape:connector-curvature="0"
         style="fill:#888988" /><path
         id="XMLID_1637_"
         class="st2"
         d="m 108.1,166.8 6.5,0 c 3,0 5.1,0.4 6.4,1.3 1.3,0.8 2,2.2 2,4 0,1.2 -0.3,2.3 -0.9,3.1 -0.6,0.8 -1.4,1.3 -2.3,1.4 l 0,0.1 c 1.3,0.3 2.3,0.8 2.9,1.7 0.6,0.8 0.9,1.9 0.9,3.2 0,1.9 -0.7,3.4 -2.1,4.5 -1.4,1.1 -3.2,1.6 -5.6,1.6 l -7.8,0 0,-20.9 z m 4.4,8.2 2.6,0 c 1.2,0 2.1,-0.2 2.6,-0.6 0.5,-0.4 0.8,-1 0.8,-1.8 0,-0.8 -0.3,-1.4 -0.9,-1.7 -0.6,-0.3 -1.5,-0.5 -2.8,-0.5 l -2.3,0 0,4.6 z m 0,3.5 0,5.4 2.9,0 c 1.2,0 2.1,-0.2 2.7,-0.7 0.6,-0.5 0.9,-1.2 0.9,-2.1 0,-1.7 -1.2,-2.6 -3.7,-2.6 l -2.8,0 z"
         inkscape:connector-curvature="0"
         style="fill:#888988" /><path
         id="XMLID_1635_"
         class="st2"
         d="m 133.7,187.6 0,-20.9 4.4,0 0,17.3 8.5,0 0,3.7 -12.9,0 z"
         inkscape:connector-curvature="0"
         style="fill:#888988" /><path
         id="XMLID_1632_"
         class="st2"
         d="m 175.2,177.2 c 0,3.5 -0.9,6.1 -2.6,8 -1.7,1.9 -4.2,2.8 -7.4,2.8 -3.2,0 -5.6,-0.9 -7.4,-2.8 -1.7,-1.9 -2.6,-4.5 -2.6,-8 0,-3.5 0.9,-6.1 2.6,-8 1.7,-1.8 4.2,-2.7 7.4,-2.7 3.2,0 5.7,0.9 7.4,2.8 1.7,1.7 2.6,4.4 2.6,7.9 z m -15.3,0 c 0,2.3 0.4,4.1 1.3,5.3 0.9,1.2 2.2,1.8 4,1.8 3.5,0 5.3,-2.3 5.3,-7 0,-4.7 -1.8,-7 -5.3,-7 -1.8,0 -3.1,0.6 -4,1.8 -0.8,1 -1.3,2.7 -1.3,5.1 z"
         inkscape:connector-curvature="0"
         style="fill:#888988" /><path
         id="XMLID_1630_"
         class="st2"
         d="m 193.4,175.9 8.3,0 0,10.8 c -1.3,0.4 -2.6,0.7 -3.8,0.9 -1.2,0.2 -2.4,0.3 -3.6,0.3 -3.1,0 -5.6,-0.9 -7.2,-2.8 -1.7,-1.8 -2.5,-4.5 -2.5,-8 0,-3.4 1,-6 2.9,-7.9 1.9,-1.9 4.6,-2.8 8,-2.8 2.1,0 4.2,0.4 6.2,1.3 l -1.5,3.5 c -1.5,-0.8 -3.1,-1.1 -4.7,-1.1 -1.9,0 -3.4,0.6 -4.6,1.9 -1.2,1.3 -1.7,3 -1.7,5.2 0,2.3 0.5,4 1.4,5.2 0.9,1.2 2.3,1.8 4,1.8 0.9,0 1.9,-0.1 2.8,-0.3 l 0,-4.3 -4,0 0,-3.7 z"
         inkscape:connector-curvature="0"
         style="fill:#888988" /><path
         id="XMLID_1628_"
         class="st2"
         d="m 212.7,187.6 0,-20.9 4.4,0 0,20.9 -4.4,0 z"
         inkscape:connector-curvature="0"
         style="fill:#888988" /><path
         id="XMLID_1626_"
         class="st2"
         d="m 237.2,170.1 c -1.7,0 -3,0.6 -3.9,1.9 -0.9,1.3 -1.4,3 -1.4,5.2 0,4.6 1.7,7 5.2,7 1.5,0 3.2,-0.4 5.3,-1.1 l 0,3.7 c -1.7,0.7 -3.6,1.1 -5.7,1.1 -3,0 -5.4,-0.9 -7,-2.8 -1.6,-1.8 -2.4,-4.5 -2.4,-7.9 0,-2.2 0.4,-4.1 1.2,-5.7 0.8,-1.6 1.9,-2.9 3.4,-3.8 1.5,-0.9 3.2,-1.3 5.2,-1.3 2,0 4.1,0.5 6.1,1.5 l -1.4,3.6 c -0.8,-0.4 -1.6,-0.7 -2.4,-1 -0.7,-0.2 -1.4,-0.4 -2.2,-0.4 z"
         inkscape:connector-curvature="0"
         style="fill:#888988" /></g></g></svg>