<?xml version="1.0" encoding="UTF-8" standalone="no"?>
<!-- Generator: Adobe Illustrator 19.0.0, SVG Export Plug-In . SVG Version: 6.00 Build 0)  -->

<svg
   xmlns:dc="http://purl.org/dc/elements/1.1/"
   xmlns:cc="http://creativecommons.org/ns#"
   xmlns:rdf="http://www.w3.org/1999/02/22-rdf-syntax-ns#"
   xmlns:svg="http://www.w3.org/2000/svg"
   xmlns="http://www.w3.org/2000/svg"
   xmlns:sodipodi="http://sodipodi.sourceforge.net/DTD/sodipodi-0.dtd"
   xmlns:inkscape="http://www.inkscape.org/namespaces/inkscape"
   version="1.1"
   id="图层_1"
   x="0px"
   y="0px"
   viewBox="0 0 350 93.199997"
   xml:space="preserve"
   inkscape:version="0.91 r13725"
   sodipodi:docname="websphere.svg"
   width="350"
   height="93.199997"><metadata
     id="metadata3360"><rdf:RDF><cc:Work
         rdf:about=""><dc:format>image/svg+xml</dc:format><dc:type
           rdf:resource="http://purl.org/dc/dcmitype/StillImage" /><dc:title></dc:title></cc:Work></rdf:RDF></metadata><defs
     id="defs3358" /><sodipodi:namedview
     pagecolor="#ffffff"
     bordercolor="#666666"
     borderopacity="1"
     objecttolerance="10"
     gridtolerance="10"
     guidetolerance="10"
     inkscape:pageopacity="0"
     inkscape:pageshadow="2"
     inkscape:window-width="1366"
     inkscape:window-height="700"
     id="namedview3356"
     showgrid="false"
     fit-margin-top="0"
     fit-margin-left="0"
     fit-margin-right="0"
     fit-margin-bottom="0"
     inkscape:zoom="1.72"
     inkscape:cx="175"
     inkscape:cy="46.599998"
     inkscape:window-x="0"
     inkscape:window-y="0"
     inkscape:window-maximized="1"
     inkscape:current-layer="图层_1" /><style
     type="text/css"
     id="style3337">
	.st0{fill:#6D5E97;}
	.st1{fill:#FFFFFF;}
</style><g
     id="XMLID_1575_"
     transform="translate(0,-103.4)"><rect
       id="XMLID_1573_"
       y="103.4"
       class="st0"
       width="350"
       height="93.199997"
       x="0"
       style="fill:#6d5e97" /><g
       id="XMLID_1576_"><g
         id="XMLID_1601_"><path
           id="XMLID_1602_"
           class="st1"
           d="m 332.5,161.9 c 0.6,0 1.7,0 2.3,0.6 0.9,0.6 1.2,1.4 1.2,2 0,1.2 -0.9,2.3 -2,2.3 l 2.9,3.7 -1.7,0 -2.6,-3.5 -0.3,0 0,3.5 -1.4,0 0,-8.6 1.6,0 z m -0.3,3.8 0.3,0 c 0.3,0 1.7,0 1.7,-1.4 0,-1.2 -1.2,-1.4 -1.7,-1.4 l -0.3,0 0,2.8 z"
           inkscape:connector-curvature="0"
           style="fill:#ffffff" /></g><g
         id="XMLID_1597_"><path
           id="XMLID_1598_"
           class="st1"
           d="m 333.4,173.5 c -4,0 -7.5,-3.5 -7.5,-7.5 0,-4 3.5,-7.5 7.5,-7.5 4,0 7.5,3.5 7.5,7.5 0,4 -3.5,7.5 -7.5,7.5 z m 0,-13.6 c -3.5,0 -6,2.6 -6,6 0,3.5 2.6,6 6,6 3.5,0 6,-2.6 6,-6 0,-3.4 -2.6,-6 -6,-6 z"
           inkscape:connector-curvature="0"
           style="fill:#ffffff" /></g><g
         id="XMLID_1577_"><path
           id="XMLID_1568_"
           class="st1"
           d="m 77.8,124.2 -9.5,47.5 -12.1,0 c -0.6,-5.2 -1.4,-10.4 -2,-15.5 -0.9,-6 -1.2,-11.2 -1.4,-15.5 -0.3,4 -1.4,14.4 -3.5,30.8 l -12.4,0 -9.5,-47.5 11.2,0 c 0.9,7.5 2,18.7 3.7,34 0.3,-4.6 0.9,-10.4 2,-17 0.9,-5.8 1.7,-11.2 2.9,-17 l 11.2,0 c 1.2,7.5 2.9,18.7 4.9,34 0.3,-4 1.4,-15.5 3.5,-34 l 10.9,0 0,0.2 z"
           inkscape:connector-curvature="0"
           style="fill:#ffffff" /><path
           id="XMLID_1593_"
           class="st1"
           d="m 106.5,155 -16.1,0 c 0,1.7 0,2.9 0,3.5 0,2 0,3.5 0.3,4.3 0.6,1.4 1.7,2.3 3.2,2.3 2.3,0 3.5,-1.4 3.5,-4.6 0,-0.6 0,-1.2 0,-1.7 l 9.2,0 0,0.9 c 0,8.3 -4.3,12.4 -13,12.4 -5.8,0 -9.5,-1.7 -11.5,-5.5 -1.2,-2.3 -1.7,-6.6 -1.7,-13 0,-6.6 0.6,-10.9 1.7,-13.5 2,-3.7 5.8,-5.5 11.8,-5.5 4.9,0 8.3,1.4 10.4,4 1.7,2.3 2.6,6 2.6,10.9 l 0,5.5 -0.4,0 z m -9.2,-8.3 c 0,-3.5 -1.2,-5.2 -3.5,-5.2 -2.3,0 -3.5,1.7 -3.5,5.2 0,0.9 0,1.4 0,2 l 6.7,0 c 0.3,-0.9 0.3,-1.4 0.3,-2 z"
           inkscape:connector-curvature="0"
           style="fill:#ffffff" /><path
           id="XMLID_1590_"
           class="st1"
           d="m 139.1,154.7 c 0,5.8 -0.3,9.5 -0.9,11.5 -1.2,4.3 -4,6.3 -8.3,6.3 -3.5,0 -6,-1.7 -8.1,-4.9 l 0,4 -9.2,0 0,-47.5 10.1,0 0,15 c 1.7,-2.6 4,-4 6.9,-4 4.6,0 7.5,2.3 8.6,6.9 0.6,2.1 0.9,6.4 0.9,12.7 z m -10.1,0 c 0,-0.3 0,-0.6 0,-1.4 0,-0.8 0,-1.4 0,-2 0,-4.9 -1.2,-7.5 -3.2,-7.5 -1.4,0 -2.6,1.2 -2.9,3.2 -0.3,0.9 -0.3,2.6 -0.3,4.9 0,0.3 0,0.9 0,1.7 0,0.9 0,1.7 0,2.6 0,5.8 1.2,8.6 3.7,8.6 2,0 3.2,-2.3 3.2,-6.6 0,-0.6 0,-1.2 0,-1.7 -0.5,-1.2 -0.5,-1.8 -0.5,-1.8 z"
           inkscape:connector-curvature="0"
           style="fill:#ffffff" /><path
           id="XMLID_1563_"
           class="st1"
           d="m 172.8,157.9 c 0,4.6 -1.2,8.3 -3.7,10.9 -2.6,2.6 -6,4 -10.7,4 -9.8,0 -14.4,-4.9 -14.4,-14.7 0,-0.6 0,-1.4 0,-2.6 l 10,0 c 0,2.9 0,4.6 0.3,5.5 0.6,2 1.7,3.2 3.7,3.2 2.6,0 3.7,-1.4 3.7,-4.6 0,-2.3 -1.4,-4.6 -4.6,-6.3 -5.2,-3.5 -8.1,-5.5 -8.3,-5.8 -3.2,-2.9 -4.6,-6.6 -4.6,-10.9 0,-4 1.2,-7.5 3.7,-9.8 2.3,-2.3 5.8,-3.5 9.8,-3.5 4.6,0 8.1,1.2 10.4,3.5 2.6,2.3 3.7,5.8 3.7,10.1 0,0.3 0,0.3 0,0.9 0,0.3 0,0.6 0,0.9 l -10.1,0 c 0,-4.6 -1.2,-6.9 -3.7,-6.9 -1.2,0 -2,0.3 -2.6,1.2 -0.6,0.9 -0.9,1.7 -0.9,2.9 0,2 1.4,4 4.6,6 4.9,3.2 7.8,4.9 8.6,5.5 3.6,2.2 5.1,5.9 5.1,10.5 z"
           inkscape:connector-curvature="0"
           style="fill:#ffffff" /><path
           id="XMLID_1586_"
           class="st1"
           d="m 205,152.7 c 0,6.3 -0.3,10.7 -0.9,12.7 -1.2,4.6 -4,7.2 -8.6,7.2 -2.9,0 -5.2,-1.4 -7.2,-4 l 0,15.3 -10.1,0 0,-47.5 9.2,0 0,4 c 2,-3.2 4.6,-4.9 8.1,-4.9 4.3,0 7.2,2 8.3,6 0.9,1.7 1.2,5.5 1.2,11.2 z m -10.1,-1.1 c 0,-2.6 0,-4 -0.3,-5.2 -0.6,-2.3 -1.4,-3.5 -2.9,-3.5 -2.3,0 -3.7,2.9 -3.7,8.6 0,0.6 0,1.4 0,2.6 0,0.9 0,1.4 0,1.7 0,2.3 0,4 0.3,4.9 0.3,2 1.4,3.2 2.9,3.2 2.3,0 3.5,-2.9 3.5,-8.6 0,-0.6 0,-1.2 0,-2 0.2,-1.1 0.2,-1.7 0.2,-1.7 z"
           inkscape:connector-curvature="0"
           style="fill:#ffffff" /><path
           id="XMLID_1560_"
           class="st1"
           d="m 236.4,171.4 -9.8,0 0,-21.9 c 0,-2.3 0,-3.5 0,-4 -0.3,-1.7 -1.2,-2.3 -2.3,-2.3 -2.3,0 -3.5,2 -3.5,6 l 0,22.2 -10.1,0 0,-47.5 10.1,0 0,15.5 c 1.7,-2.9 4.3,-4.6 8.1,-4.6 5.2,0 8.1,3.7 8.1,11.5 l 0,25 -0.6,0 z"
           inkscape:connector-curvature="0"
           style="fill:#ffffff" /><path
           id="XMLID_1582_"
           class="st1"
           d="m 268.3,155 -16.1,0 c 0,1.7 0,2.9 0,3.5 0,2 0,3.5 0.3,4.3 0.6,1.4 1.7,2.3 3.2,2.3 2.3,0 3.5,-1.4 3.5,-4.6 0,-0.6 0,-1.2 0,-1.7 l 9.2,0 0,0.9 c 0,8.3 -4.3,12.4 -13,12.4 -5.8,0 -9.5,-1.7 -11.5,-5.5 -1.2,-2.3 -1.7,-6.6 -1.7,-13 0,-6.6 0.6,-10.9 1.7,-13.5 2,-3.7 5.8,-5.5 11.8,-5.5 4.9,0 8.3,1.4 10.4,4 1.7,2.3 2.6,6 2.6,10.9 l 0,5.5 -0.4,0 z m -9.2,-8.3 c 0,-3.5 -1.2,-5.2 -3.5,-5.2 -2.3,0 -3.5,1.7 -3.5,5.2 0,0.9 0,1.4 0,2 l 6.6,0 c 0.4,-0.9 0.4,-1.4 0.4,-2 z"
           inkscape:connector-curvature="0"
           style="fill:#ffffff" /><path
           id="XMLID_1557_"
           class="st1"
           d="m 291.4,146.4 c -1.2,-0.3 -2,-0.3 -2.9,-0.3 -2,0 -3.2,0.9 -3.7,2.9 -0.3,0.9 -0.6,2.9 -0.6,5.5 l 0,17 -10.1,0 0,-35.7 9.2,0 0,5.2 c 2,-3.5 4.9,-5.5 8.1,-5.8 l 0,11.2 z"
           inkscape:connector-curvature="0"
           style="fill:#ffffff" /><path
           id="XMLID_1578_"
           class="st1"
           d="m 321.9,155 -16.1,0 c 0,1.7 0,2.9 0,3.5 0,2 0,3.5 0.3,4.3 0.6,1.4 1.7,2.3 3.2,2.3 2.3,0 3.5,-1.4 3.5,-4.6 0,-0.6 0,-1.2 0,-1.7 l 9.2,0 0,0.9 c 0,8.3 -4.3,12.4 -13,12.4 -5.8,0 -9.5,-1.7 -11.5,-5.5 -1.2,-2.3 -1.7,-6.6 -1.7,-13 0,-6.6 0.6,-10.9 1.7,-13.5 2,-3.7 5.8,-5.5 11.8,-5.5 4.9,0 8.3,1.4 10.4,4 1.7,2.3 2.6,6 2.6,10.9 l 0,5.5 -0.4,0 z m -9.2,-8.3 c 0,-3.5 -1.2,-5.2 -3.5,-5.2 -2.3,0 -3.5,1.7 -3.5,5.2 0,0.9 0,1.4 0,2 l 6.6,0 c 0.4,-0.9 0.4,-1.4 0.4,-2 z"
           inkscape:connector-curvature="0"
           style="fill:#ffffff" /></g></g></g></svg>