<?xml version="1.0" encoding="UTF-8"?>
<svg width="350" height="93.2" inkscape:version="0.91 r13725" sodipodi:docname="websphere.svg" version="1.1" viewBox="0 0 350 93.2" xml:space="preserve" xmlns="http://www.w3.org/2000/svg" xmlns:cc="http://creativecommons.org/ns#" xmlns:dc="http://purl.org/dc/elements/1.1/" xmlns:inkscape="http://www.inkscape.org/namespaces/inkscape" xmlns:rdf="http://www.w3.org/1999/02/22-rdf-syntax-ns#" xmlns:sodipodi="http://sodipodi.sourceforge.net/DTD/sodipodi-0.dtd"><metadata><rdf:RDF><cc:Work rdf:about=""><dc:format>image/svg+xml</dc:format><dc:type rdf:resource="http://purl.org/dc/dcmitype/StillImage"/><dc:title/></cc:Work></rdf:RDF></metadata><sodipodi:namedview bordercolor="#666666" borderopacity="1" fit-margin-bottom="0" fit-margin-left="0" fit-margin-right="0" fit-margin-top="0" gridtolerance="10" guidetolerance="10" inkscape:current-layer="图层_1" inkscape:cx="175" inkscape:cy="46.599998" inkscape:pageopacity="0" inkscape:pageshadow="2" inkscape:window-height="700" inkscape:window-maximized="1" inkscape:window-width="1366" inkscape:window-x="0" inkscape:window-y="0" inkscape:zoom="1.72" objecttolerance="10" pagecolor="#ffffff" showgrid="false"/><style type="text/css">
	.st0{fill:#6D5E97;}
	.st1{fill:#FFFFFF;}
</style><g transform="translate(0,-103.4)"><rect class="st0" y="103.4" width="350" height="93.2" fill="#6d5e97"/><path class="st1" d="m332.5 161.9c0.6 0 1.7 0 2.3 0.6 0.9 0.6 1.2 1.4 1.2 2 0 1.2-0.9 2.3-2 2.3l2.9 3.7h-1.7l-2.6-3.5h-0.3v3.5h-1.4v-8.6h1.6zm-0.3 3.8h0.3c0.3 0 1.7 0 1.7-1.4 0-1.2-1.2-1.4-1.7-1.4h-0.3v2.8z" fill="#fff" inkscape:connector-curvature="0"/><path class="st1" d="m333.4 173.5c-4 0-7.5-3.5-7.5-7.5s3.5-7.5 7.5-7.5 7.5 3.5 7.5 7.5-3.5 7.5-7.5 7.5zm0-13.6c-3.5 0-6 2.6-6 6 0 3.5 2.6 6 6 6 3.5 0 6-2.6 6-6s-2.6-6-6-6z" fill="#fff" inkscape:connector-curvature="0"/><g fill="#fff"><path class="st1" d="m77.8 124.2-9.5 47.5h-12.1c-0.6-5.2-1.4-10.4-2-15.5-0.9-6-1.2-11.2-1.4-15.5-0.3 4-1.4 14.4-3.5 30.8h-12.4l-9.5-47.5h11.2c0.9 7.5 2 18.7 3.7 34 0.3-4.6 0.9-10.4 2-17 0.9-5.8 1.7-11.2 2.9-17h11.2c1.2 7.5 2.9 18.7 4.9 34 0.3-4 1.4-15.5 3.5-34h10.9v0.2z" inkscape:connector-curvature="0"/><path class="st1" d="m106.5 155h-16.1v3.5c0 2 0 3.5 0.3 4.3 0.6 1.4 1.7 2.3 3.2 2.3 2.3 0 3.5-1.4 3.5-4.6v-1.7h9.2v0.9c0 8.3-4.3 12.4-13 12.4-5.8 0-9.5-1.7-11.5-5.5-1.2-2.3-1.7-6.6-1.7-13 0-6.6 0.6-10.9 1.7-13.5 2-3.7 5.8-5.5 11.8-5.5 4.9 0 8.3 1.4 10.4 4 1.7 2.3 2.6 6 2.6 10.9v5.5h-0.4zm-9.2-8.3c0-3.5-1.2-5.2-3.5-5.2s-3.5 1.7-3.5 5.2v2h6.7c0.3-0.9 0.3-1.4 0.3-2z" inkscape:connector-curvature="0"/><path class="st1" d="m139.1 154.7c0 5.8-0.3 9.5-0.9 11.5-1.2 4.3-4 6.3-8.3 6.3-3.5 0-6-1.7-8.1-4.9v4h-9.2v-47.5h10.1v15c1.7-2.6 4-4 6.9-4 4.6 0 7.5 2.3 8.6 6.9 0.6 2.1 0.9 6.4 0.9 12.7zm-10.1 0v-1.4-2c0-4.9-1.2-7.5-3.2-7.5-1.4 0-2.6 1.2-2.9 3.2-0.3 0.9-0.3 2.6-0.3 4.9v1.7 2.6c0 5.8 1.2 8.6 3.7 8.6 2 0 3.2-2.3 3.2-6.6v-1.7c-0.5-1.2-0.5-1.8-0.5-1.8z" inkscape:connector-curvature="0"/><path class="st1" d="m172.8 157.9c0 4.6-1.2 8.3-3.7 10.9-2.6 2.6-6 4-10.7 4-9.8 0-14.4-4.9-14.4-14.7v-2.6h10c0 2.9 0 4.6 0.3 5.5 0.6 2 1.7 3.2 3.7 3.2 2.6 0 3.7-1.4 3.7-4.6 0-2.3-1.4-4.6-4.6-6.3-5.2-3.5-8.1-5.5-8.3-5.8-3.2-2.9-4.6-6.6-4.6-10.9 0-4 1.2-7.5 3.7-9.8 2.3-2.3 5.8-3.5 9.8-3.5 4.6 0 8.1 1.2 10.4 3.5 2.6 2.3 3.7 5.8 3.7 10.1v0.9 0.9h-10.1c0-4.6-1.2-6.9-3.7-6.9-1.2 0-2 0.3-2.6 1.2s-0.9 1.7-0.9 2.9c0 2 1.4 4 4.6 6 4.9 3.2 7.8 4.9 8.6 5.5 3.6 2.2 5.1 5.9 5.1 10.5z" inkscape:connector-curvature="0"/><path class="st1" d="m205 152.7c0 6.3-0.3 10.7-0.9 12.7-1.2 4.6-4 7.2-8.6 7.2-2.9 0-5.2-1.4-7.2-4v15.3h-10.1v-47.5h9.2v4c2-3.2 4.6-4.9 8.1-4.9 4.3 0 7.2 2 8.3 6 0.9 1.7 1.2 5.5 1.2 11.2zm-10.1-1.1c0-2.6 0-4-0.3-5.2-0.6-2.3-1.4-3.5-2.9-3.5-2.3 0-3.7 2.9-3.7 8.6v2.6 1.7c0 2.3 0 4 0.3 4.9 0.3 2 1.4 3.2 2.9 3.2 2.3 0 3.5-2.9 3.5-8.6v-2c0.2-1.1 0.2-1.7 0.2-1.7z" inkscape:connector-curvature="0"/><path class="st1" d="m236.4 171.4h-9.8v-21.9-4c-0.3-1.7-1.2-2.3-2.3-2.3-2.3 0-3.5 2-3.5 6v22.2h-10.1v-47.5h10.1v15.5c1.7-2.9 4.3-4.6 8.1-4.6 5.2 0 8.1 3.7 8.1 11.5v25h-0.6z" inkscape:connector-curvature="0"/><path class="st1" d="m268.3 155h-16.1v3.5c0 2 0 3.5 0.3 4.3 0.6 1.4 1.7 2.3 3.2 2.3 2.3 0 3.5-1.4 3.5-4.6v-1.7h9.2v0.9c0 8.3-4.3 12.4-13 12.4-5.8 0-9.5-1.7-11.5-5.5-1.2-2.3-1.7-6.6-1.7-13 0-6.6 0.6-10.9 1.7-13.5 2-3.7 5.8-5.5 11.8-5.5 4.9 0 8.3 1.4 10.4 4 1.7 2.3 2.6 6 2.6 10.9v5.5h-0.4zm-9.2-8.3c0-3.5-1.2-5.2-3.5-5.2s-3.5 1.7-3.5 5.2v2h6.6c0.4-0.9 0.4-1.4 0.4-2z" inkscape:connector-curvature="0"/><path class="st1" d="m291.4 146.4c-1.2-0.3-2-0.3-2.9-0.3-2 0-3.2 0.9-3.7 2.9-0.3 0.9-0.6 2.9-0.6 5.5v17h-10.1v-35.7h9.2v5.2c2-3.5 4.9-5.5 8.1-5.8v11.2z" inkscape:connector-curvature="0"/><path class="st1" d="m321.9 155h-16.1v3.5c0 2 0 3.5 0.3 4.3 0.6 1.4 1.7 2.3 3.2 2.3 2.3 0 3.5-1.4 3.5-4.6v-1.7h9.2v0.9c0 8.3-4.3 12.4-13 12.4-5.8 0-9.5-1.7-11.5-5.5-1.2-2.3-1.7-6.6-1.7-13 0-6.6 0.6-10.9 1.7-13.5 2-3.7 5.8-5.5 11.8-5.5 4.9 0 8.3 1.4 10.4 4 1.7 2.3 2.6 6 2.6 10.9v5.5h-0.4zm-9.2-8.3c0-3.5-1.2-5.2-3.5-5.2s-3.5 1.7-3.5 5.2v2h6.6c0.4-0.9 0.4-1.4 0.4-2z" inkscape:connector-curvature="0"/></g></g></svg>
