<?xml version="1.0" encoding="UTF-8" standalone="no"?>
<svg
   xmlns:dc="http://purl.org/dc/elements/1.1/"
   xmlns:cc="http://creativecommons.org/ns#"
   xmlns:rdf="http://www.w3.org/1999/02/22-rdf-syntax-ns#"
   xmlns:svg="http://www.w3.org/2000/svg"
   xmlns="http://www.w3.org/2000/svg"
   xmlns:sodipodi="http://sodipodi.sourceforge.net/DTD/sodipodi-0.dtd"
   xmlns:inkscape="http://www.inkscape.org/namespaces/inkscape"
   width="6975.0312"
   height="4546.5854"
   viewBox="0 0 4124.1992 2688.6067"
   id="svg2"
   version="1.1"
   inkscape:version="0.91 r13725"
   sodipodi:docname="java-to-sgbd.svg">
  <metadata
     id="metadata33">
    <rdf:RDF>
      <cc:Work
         rdf:about="">
        <dc:format>image/svg+xml</dc:format>
        <dc:type
           rdf:resource="http://purl.org/dc/dcmitype/StillImage" />
        <dc:title></dc:title>
      </cc:Work>
    </rdf:RDF>
  </metadata>
  <defs
     id="defs31">
    <style
       id="style4224">.cls-1{fill:url(#linear-gradient);}.cls-2{fill:url(#linear-gradient-2);}.cls-3{fill:url(#linear-gradient-3);}.cls-4{fill:#c0bfbe;}.cls-5{fill:#484748;}</style>
    <linearGradient
       gradientUnits="userSpaceOnUse"
       gradientTransform="matrix(-0.98,-0.32,0.29,-0.88,1473.45,-35.83)"
       y2="-839.42999"
       x2="1020.21"
       y1="-838.27002"
       x1="1190.76"
       id="linear-gradient">
      <stop
         id="stop4227"
         stop-color="#999875"
         offset="0.23" />
      <stop
         id="stop4229"
         stop-color="#9b9977"
         offset="0.56" />
      <stop
         id="stop4231"
         stop-color="#a09f7e"
         offset="0.68" />
      <stop
         id="stop4233"
         stop-color="#a9a889"
         offset="0.77" />
      <stop
         id="stop4235"
         stop-color="#b7b69a"
         offset="0.84" />
      <stop
         id="stop4237"
         stop-color="#c9c7b0"
         offset="0.9" />
      <stop
         id="stop4239"
         stop-color="#deddcb"
         offset="0.95" />
      <stop
         id="stop4241"
         stop-color="#f8f6eb"
         offset="0.99" />
      <stop
         id="stop4243"
         stop-color="#fbf9ef"
         offset="1" />
    </linearGradient>
    <linearGradient
       gradientUnits="userSpaceOnUse"
       gradientTransform="matrix(-0.98,-0.32,0.29,-0.88,1473.45,-35.83)"
       y2="-964.76001"
       x2="971.66998"
       y1="-539.78998"
       x1="1217.03"
       id="linear-gradient-2">
      <stop
         id="stop4246"
         stop-color="#48a547"
         offset="0" />
      <stop
         id="stop4248"
         stop-color="#3f9143"
         offset="1" />
    </linearGradient>
    <linearGradient
       gradientUnits="userSpaceOnUse"
       gradientTransform="matrix(-0.98,-0.32,0.29,-0.88,1473.45,-35.83)"
       y2="-728.46002"
       x2="1065.59"
       y1="-845.28003"
       x1="1239.5"
       id="linear-gradient-3">
      <stop
         id="stop4251"
         stop-color="#41a247"
         offset="0" />
      <stop
         id="stop4253"
         stop-color="#4ba74b"
         offset="0.35" />
      <stop
         id="stop4255"
         stop-color="#67b554"
         offset="0.96" />
      <stop
         id="stop4257"
         stop-color="#69b655"
         offset="1" />
    </linearGradient>
  </defs>
  <sodipodi:namedview
     pagecolor="#ffffff"
     bordercolor="#666666"
     borderopacity="1"
     objecttolerance="10"
     gridtolerance="10"
     guidetolerance="10"
     inkscape:pageopacity="0"
     inkscape:pageshadow="2"
     inkscape:window-width="1366"
     inkscape:window-height="705"
     id="namedview29"
     showgrid="false"
     inkscape:zoom="0.100504"
     inkscape:cx="3487.5109"
     inkscape:cy="1954.6483"
     inkscape:window-x="0"
     inkscape:window-y="0"
     inkscape:window-maximized="1"
     inkscape:current-layer="svg2"
     fit-margin-top="0"
     fit-margin-left="0"
     fit-margin-right="0"
     fit-margin-bottom="0" />
  <text
     xml:space="preserve"
     style="font-style:normal;font-weight:normal;font-size:7.17179298px;line-height:125%;font-family:sans-serif;letter-spacing:0px;word-spacing:0px;fill:#000000;fill-opacity:1;stroke:none;stroke-width:1px;stroke-linecap:butt;stroke-linejoin:miter;stroke-opacity:1"
     x="410.1106"
     y="1819.64"
     id="text9382"
     sodipodi:linespacing="125%"
     transform="matrix(0.81256014,-0.58287737,0.58287737,0.81256014,0,0)"><tspan
       sodipodi:role="line"
       id="tspan9384"
       x="410.1106"
       y="1819.64"
       style="font-style:normal;font-variant:normal;font-weight:normal;font-stretch:normal;font-size:86.06151581px;font-family:Arial;-inkscape-font-specification:Arial">Protocolo MSSQL</tspan></text>
  <path
     style="fill:none;fill-rule:evenodd;stroke:#000000;stroke-width:8.87019539;stroke-linecap:butt;stroke-linejoin:miter;stroke-miterlimit:4;stroke-dasharray:none;stroke-opacity:1"
     d="M 850.52073,1655.2543 2160.6984,1985.2722"
     id="path9378"
     inkscape:connector-curvature="0"
     sodipodi:nodetypes="cc" />
  <path
     sodipodi:nodetypes="cc"
     inkscape:connector-curvature="0"
     id="path9380"
     d="m 850.52073,1655.2543 1283.88647,863.313"
     style="fill:none;fill-rule:evenodd;stroke:#000000;stroke-width:8.87019539;stroke-linecap:butt;stroke-linejoin:miter;stroke-miterlimit:4;stroke-dasharray:none;stroke-opacity:1" />
  <path
     sodipodi:nodetypes="cc"
     inkscape:connector-curvature="0"
     id="path9376"
     d="M 850.52073,1655.2543 2195.7533,1374.815"
     style="fill:none;fill-rule:evenodd;stroke:#000000;stroke-width:8.87019539;stroke-linecap:butt;stroke-linejoin:miter;stroke-miterlimit:4;stroke-dasharray:none;stroke-opacity:1" />
  <path
     style="fill:none;fill-rule:evenodd;stroke:#000000;stroke-width:8.87019539;stroke-linecap:butt;stroke-linejoin:miter;stroke-miterlimit:4;stroke-dasharray:none;stroke-opacity:1"
     d="M 850.52073,1655.2543 2200.1352,700.00774"
     id="path9374"
     inkscape:connector-curvature="0"
     sodipodi:nodetypes="cc" />
  <g
     id="g4161"
     transform="translate(2646.2272,-379.95172)">
    <g
       id="g4"
       transform="matrix(0.569,0,0,0.569,-871.71225,297.21747)">
      <linearGradient
         gradientTransform="matrix(0.1234,0,0,-0.1234,1158.33,1550.273)"
         y2="1420.3311"
         x2="-2061.249"
         y1="923.573"
         x1="-2901.9519"
         gradientUnits="userSpaceOnUse"
         id="a">
        <stop
           id="stop7"
           stop-color="#909ca9"
           offset="0" />
        <stop
           id="stop9"
           stop-color="#ededee"
           offset="1" />
      </linearGradient>
      <path
         id="path11"
         d="m 1410.773,814.195 -286.9,93.683 -249.599,110.161 -69.829,18.435 c -17.784,16.916 -36.431,34.049 -56.599,51.397 -22.119,19.082 -42.72,36.433 -58.553,49.008 -17.564,13.88 -43.587,39.902 -56.814,56.38 -19.735,24.721 -35.348,50.96 -42.071,71.13 -11.928,36.433 -6.07,73.297 16.916,107.346 29.492,43.369 88.261,87.606 156.785,117.749 34.916,15.4 93.683,35.132 137.92,46.19 73.512,18.651 215.771,38.819 294.054,41.857 15.828,0.65 37.082,0.65 37.947,0 1.737,-1.088 13.881,-24.289 27.979,-53.129 48.142,-98.238 82.838,-190.402 101.703,-269.119 11.276,-47.706 20.166,-111.246 26.019,-186.492 1.521,-21.036 2.169,-91.514 0.868,-115.37 -1.953,-39.033 -5.423,-70.692 -10.84,-101.703 -0.868,-4.555 -1.088,-8.676 -0.652,-8.892 0.865,-0.65 3.467,-1.517 38.815,-11.712 l -7.153,-16.912 0,-0.005 0,0 z m -65.49,38.386 c 2.602,0 9.539,66.573 11.273,108.646 0.436,8.89 0.216,14.745 -0.216,14.745 -1.733,0 -36.649,-20.599 -61.583,-36.212 -21.687,-13.663 -62.888,-40.988 -69.393,-46.192 -2.173,-1.517 -1.957,-1.733 15.828,-7.807 30.14,-10.194 101.706,-33.18 104.091,-33.18 z m -146.161,48.143 c 1.953,0 6.937,2.816 18.865,10.191 44.671,27.974 105.393,61.805 131.415,73.083 8.022,3.469 8.887,2.166 -9.542,14.746 -39.468,26.889 -88.697,53.344 -148.983,80.018 -10.624,4.771 -19.514,8.456 -19.73,8.456 -0.432,0 0.865,-5.418 2.598,-11.925 14.53,-54.001 22.772,-108.647 23.208,-152.452 0.216,-21.687 0.216,-21.687 2.169,-22.334 -0.436,0.217 -0.22,0.217 0,0.217 z m -30.142,11.492 c 1.297,1.299 0.432,49.877 -1.304,63.104 -3.903,31.662 -9.975,61.153 -19.947,94.335 -2.386,8.018 -4.558,14.745 -4.987,15.177 -0.872,1.083 -30.581,-27.975 -40.339,-39.251 -16.916,-19.518 -30.141,-39.035 -39.9,-58.117 -4.988,-9.759 -12.793,-28.84 -12.144,-29.492 3.469,-2.385 117.753,-46.622 118.621,-45.756 z m -141.826,55.731 c 0.216,0 0.432,0 0.652,0.216 0.432,0.434 1.953,3.905 3.254,7.807 6.937,18.867 22.548,46.624 35.997,64.407 14.746,19.518 34.048,40.334 50.091,53.996 5.207,4.337 9.975,8.456 10.624,9.108 1.304,1.302 1.737,1.083 -33.612,14.53 -40.981,15.613 -85.656,31.226 -136.835,47.706"
         inkscape:connector-curvature="0"
         style="fill:url(#a)" />
      <linearGradient
         gradientTransform="matrix(0.1234,0,0,-0.1234,1158.33,1550.273)"
         y2="10288.81"
         x2="-2206.249"
         y1="10288.81"
         x1="-2882.7"
         gradientUnits="userSpaceOnUse"
         id="b">
        <stop
           id="stop14"
           stop-color="#939fab"
           offset="0" />
        <stop
           id="stop16"
           stop-color="#dcdee1"
           offset="1" />
      </linearGradient>
      <path
         id="path18"
         d="m 1114.983,145.414 c -4.771,-0.647 -81.757,27.11 -131.415,47.275 -67.01,27.327 -119.052,53.351 -151.148,75.899 -11.925,8.461 -26.891,23.422 -29.273,29.276 -0.867,2.169 -1.303,4.771 -1.303,7.373 l 29.06,27.541 69.175,22.119 164.594,29.493 188.228,32.312 1.953,-16.264 c -0.649,0 -1.085,-0.216 -1.73,-0.216 l -24.728,-3.905 -4.984,-8.89 c -25.59,-45.107 -53.781,-101.056 -70.261,-138.789 -12.793,-29.276 -24.938,-63.102 -31.662,-87.391 -3.687,-14.746 -4.119,-15.613 -6.501,-15.829 l 0,-0.005 -0.01,0 z m -3.474,11.063 0.223,0 c 0.213,0.214 1.081,6.29 1.95,13.442 3.683,30.364 10.411,59.635 21.035,91.297 8.022,23.855 8.022,22.555 -1.301,19.734 -22.119,-6.07 -121.221,-23.202 -193,-33.177 -11.494,-1.519 -21.253,-3.036 -21.253,-3.252 -0.867,-0.867 51.827,-28.41 75.031,-39.25 29.709,-13.665 111.246,-47.711 117.315,-48.794 z m -209.047,97.15 8.461,2.816 c 45.97,15.616 161.551,37.736 225.31,42.94 7.154,0.651 13.229,1.303 13.442,1.303 0.216,0.216 -5.852,3.469 -13.661,7.154 -30.79,15.397 -64.621,34.264 -88.042,48.794 -6.937,4.335 -13.229,7.807 -14.094,7.807 -0.868,0 -5.42,-0.868 -10.191,-1.519 l -8.674,-1.303 -21.683,-21.253 c -38.167,-37.08 -68.094,-65.704 -79.588,-76.549 l -11.28,-10.19 z m -8.671,6.721 30.576,38.168 c 16.696,21.035 33.611,41.635 37.301,46.187 3.683,4.557 6.721,8.245 6.505,8.461 -0.868,0.65 -44.236,-7.809 -67.226,-13.011 -23.637,-5.423 -33.395,-8.025 -47.924,-12.577 l -11.928,-3.905 0,-3.038 c 0.216,-14.53 18.651,-36.214 49.877,-58.331 l 2.819,-1.954 z m 259.791,52.046 c 0.869,0 1.95,1.951 4.552,7.806 7.373,16.263 30.364,60.07 35.997,68.526 1.74,2.822 4.771,3.038 -25.802,-1.95 -73.512,-11.93 -97.152,-15.829 -97.152,-16.263 0,-0.216 2.169,-1.735 4.988,-3.254 22.771,-12.575 45.756,-28.624 66.142,-45.756 4.988,-4.121 9.542,-8.024 10.407,-8.676 0.216,-0.433 0.652,-0.649 0.868,-0.433 z"
         inkscape:connector-curvature="0"
         style="fill:url(#b)" />
      <radialGradient
         gradientUnits="userSpaceOnUse"
         gradientTransform="matrix(-0.1185,-0.0178,-0.036,0.237,-198.955,-1314.415)"
         r="898.12"
         cy="7277.7051"
         cx="-14217.448"
         id="c">
        <stop
           id="stop21"
           stop-color="#ee352c"
           offset="0" />
        <stop
           id="stop23"
           stop-color="#a91d22"
           offset="1" />
      </radialGradient>
      <path
         id="path25"
         d="m 804.66,294.828 c 0,0 -4.768,7.593 -0.215,18.87 2.822,6.937 11.061,15.393 20.384,24.069 0,0 96.5,94.114 108.211,107.561 53.344,61.585 76.549,122.305 78.718,206.012 1.301,53.78 -8.894,101.054 -34.264,155.919 -45.106,98.453 -140.307,207.098 -287.117,327.67 l 21.472,-7.157 c 13.878,-10.411 32.745,-21.467 76.982,-45.756 102.137,-55.952 217.071,-107.346 358.028,-160.258 202.971,-76.335 536.715,-165.681 726.676,-194.736 l 19.737,-3.038 -3.038,-4.771 c -17.345,-26.891 -29.276,-43.587 -43.59,-61.369 -41.633,-51.612 -92.157,-93.463 -153.964,-128.161 -85.007,-47.489 -194.956,-84.571 -334.173,-112.112 -26.239,-5.207 -83.923,-15.181 -130.763,-22.337 -99.321,-15.393 -163.51,-26.021 -234.203,-38.165 -25.37,-4.339 -63.323,-10.843 -88.478,-16.263 -13.011,-2.822 -37.947,-8.676 -57.464,-15.398 -15.613,-6.075 -38.168,-12.147 -42.939,-30.58 z m 55.952,54.216 c 0.214,-0.214 3.683,1.083 8.24,2.602 8.24,2.816 18.865,6.07 31.446,9.542 a 1599.47,1599.47 0 0 0 28.624,7.589 c 13.011,3.251 23.852,6.288 24.068,6.288 1.521,1.519 23.424,71.558 30.797,98.449 2.815,10.195 4.988,18.867 4.771,18.867 -0.223,0.22 -2.605,-3.469 -5.423,-8.456 -25.373,-44.673 -65.491,-89.995 -111.899,-126.428 -6.069,-4.333 -10.624,-8.237 -10.624,-8.453 z m 106.692,29.492 c 1.085,0 5.856,0.651 11.708,1.951 36.866,8.24 103.008,20.818 145.293,27.975 7.157,1.083 12.797,2.387 12.797,2.818 0,0.436 -2.605,1.951 -5.859,3.688 -7.153,3.685 -35.997,20.815 -45.536,27.322 -24.073,16.047 -45.756,33.395 -61.371,49.008 -6.288,6.29 -11.712,11.494 -11.712,11.494 0,0 -1.297,-3.685 -2.386,-8.242 -7.802,-30.143 -24.069,-74.816 -38.815,-106.258 -2.386,-4.986 -4.339,-9.541 -4.339,-9.973 0,0.433 0,0.217 0.22,0.217 z m 187.795,35.781 c 1.301,0.432 3.47,7.806 7.806,24.069 8.025,31.446 11.712,66.576 10.411,99.321 -0.436,9.108 -0.868,17.564 -1.304,18.651 l -0.649,2.166 -11.276,-3.685 c -23.204,-7.373 -60.935,-18.435 -93.245,-27.541 -18.436,-4.988 -33.395,-9.542 -33.395,-9.975 0,-1.303 26.891,-28.192 38.383,-38.383 21.898,-19.303 81.316,-65.275 83.269,-64.623 z m 14.963,2.166 c 0.652,-0.647 89.779,14.746 130.331,22.554 30.145,5.854 73.948,14.963 76.549,16.049 1.301,0.432 -3.254,3.034 -17.784,9.539 -57.248,25.808 -99.754,49.008 -142.036,77.202 -11.06,7.373 -20.386,13.444 -20.602,13.444 -0.216,0 -0.433,-6.287 -0.433,-13.878 0,-41.201 -8.241,-82.838 -23.424,-117.968 -1.517,-3.47 -2.818,-6.722 -2.601,-6.942 z m 230.516,45.542 c 0.652,0.65 -2.169,18.217 -4.771,28.624 -7.806,32.312 -28.84,80.24 -54.643,125.343 -4.558,8.024 -8.677,14.53 -9.114,14.746 -0.429,0.216 -6.285,-3.038 -13.009,-6.941 -25.154,-14.746 -53.778,-28.624 -85.007,-41.637 -8.671,-3.685 -16.263,-6.723 -16.48,-7.153 -1.521,-1.303 68.308,-47.493 105.174,-69.612 29.276,-17.781 76.982,-44.239 77.85,-43.37 z m 16.48,2.601 c 1.953,0 41.421,10.844 62.019,16.916 50.963,15.181 109.512,36.648 147.679,53.996 l 15.828,7.159 -11.056,2.6 c -93.245,21.467 -173.049,46.192 -250.034,77.418 -6.289,2.602 -11.928,4.771 -12.357,4.771 -0.436,0 1.733,-4.987 4.552,-11.061 23.204,-49.225 38.167,-100.62 41.85,-144.427 0.221,-4.121 0.867,-7.372 1.519,-7.372 z m -392.938,90.213 c 0.649,-0.652 30.793,6.506 47.057,11.056 24.721,6.942 77.198,24.505 77.198,25.808 0,0.216 -5.853,5.204 -12.79,11.278 -28.408,23.637 -55.734,48.572 -88.481,80.234 -9.759,9.328 -17.997,16.917 -18.429,16.917 -0.436,0 -0.649,-1.304 -0.436,-3.038 4.987,-36.433 3.906,-83.272 -3.034,-130.763 -0.653,-6.074 -1.302,-11.276 -1.085,-11.492 z m 633.433,0.652 c 0.429,0.431 -13.881,22.984 -22.988,35.777 -13.009,18.649 -32.098,43.375 -75.252,97.588 -22.765,28.622 -48.358,60.936 -56.812,71.778 -8.678,10.842 -15.831,19.948 -16.051,19.948 -0.216,0 -3.031,-3.901 -6.069,-8.671 -24.289,-36.433 -53.349,-68.311 -87.829,-96.935 -6.505,-5.423 -13.658,-11.278 -16.044,-13.013 -2.386,-1.734 -4.339,-3.469 -4.339,-3.685 0,-0.649 36.862,-16.483 64.841,-27.757 49.01,-19.952 115.794,-43.805 165.892,-59.203 26.24,-8.239 54.215,-16.263 54.651,-15.827 z m 16.696,4.334 c 0.865,-0.215 6.072,2.387 12.361,6.07 52.697,30.143 104.305,68.962 145.077,108.864 11.492,11.278 39.9,40.77 39.464,40.986 0,0 -9.975,0.867 -21.683,1.733 -91.296,6.942 -208.178,26.239 -320.511,53.345 -7.589,1.733 -14.31,3.252 -14.746,3.252 -0.429,0 8.025,-8.456 18.653,-18.647 65.922,-63.538 96.067,-103.656 131.628,-175.22 4.986,-10.623 9.325,-19.731 9.757,-20.383 -0.216,0 -0.216,0 0,0 z m -482.936,49.446 c 3.038,0.647 31.229,13.88 52.48,24.503 19.517,9.755 48.794,25.372 50.311,26.671 0.216,0.216 -10.195,5.638 -22.984,11.928 -40.772,20.384 -75.684,39.682 -112.118,61.802 -10.408,6.29 -19.082,11.497 -19.298,11.497 -0.868,0 -0.652,-0.872 5.204,-11.497 19.518,-35.561 35.129,-78.065 44.023,-119.486 0.864,-3.252 1.733,-5.418 2.382,-5.418 z m -28.192,5.202 c 0.652,0.652 -6.721,27.323 -11.273,41.853 -8.894,27.541 -23.856,62.02 -38.383,88.043 -3.474,6.069 -8.677,14.961 -11.496,19.948 l -5.42,8.674 -12.144,-11.707 c -14.094,-13.663 -25.59,-22.12 -40.333,-29.712 -5.859,-3.033 -10.411,-5.638 -10.411,-6.069 0,-1.735 37.082,-35.347 65.49,-59.635 20.383,-17.566 63.321,-52.045 63.97,-51.395 z m 172.404,70.913 10.627,6.937 c 24.282,15.833 52.906,36.866 74.813,55.298 12.357,10.19 36.21,31.662 40.985,36.866 l 2.598,2.822 -17.561,4.986 c -99.321,27.538 -176.087,52.043 -265.649,85.007 -9.975,3.685 -18.433,6.721 -19.085,6.721 -1.297,0 -2.385,1.083 19.954,-19.519 57.251,-52.691 107.992,-110.812 145.726,-167.411 l 7.592,-11.707 z m -45.324,11.276 c 0.432,0.432 -29.276,42.284 -47.06,65.922 -21.251,28.192 -58.985,75.465 -85.007,106.256 -10.84,12.797 -20.163,23.422 -20.599,23.64 -0.652,0.216 -0.868,-3.036 -0.868,-8.024 0,-26.242 -6.721,-54.216 -18.433,-78.068 -4.988,-9.975 -5.856,-12.361 -4.768,-13.444 4.119,-3.688 67.223,-39.686 107.123,-61.153 26.89,-14.312 68.956,-35.563 69.612,-35.129 z m -274.107,67.225 c 0.652,0 5.64,2.6 11.279,5.638 13.878,7.589 26.239,16.046 37.298,25.156 0.432,0.432 -5.204,4.988 -12.577,10.406 -20.602,14.746 -51.828,38.385 -70.041,52.915 -19.088,15.18 -19.734,15.613 -17.568,12.361 14.314,-21.903 21.467,-34.264 29.06,-50.093 6.721,-14.094 13.442,-30.793 18.213,-45.323 1.734,-6.289 3.904,-11.06 4.336,-11.06 z m 73.083,57.248 c 1.081,-0.214 2.386,1.735 8.238,10.411 12.361,18.429 21.903,43.154 24.292,63.104 l 0.429,4.339 -29.705,11.494 c -53.133,20.599 -102.139,40.985 -135.322,56.162 -9.322,4.339 -25.587,12.144 -36.211,17.352 -10.627,5.418 -19.301,9.539 -19.301,9.323 0,-0.216 6.721,-5.204 14.961,-11.278 64.844,-47.055 121.007,-98.669 163.076,-150.279 4.555,-5.423 8.677,-10.411 9.107,-10.627 l 0.436,-10e-4 z m -33.612,8.242 c 0.868,0.867 -23.853,28.84 -40.768,45.971 -41.853,42.723 -83.273,76.12 -134.669,108.649 -6.505,4.119 -12.359,7.804 -13.011,8.24 -1.519,0.867 0.432,-1.303 22.986,-25.808 14.314,-15.397 25.155,-28.408 37.516,-44.453 8.24,-10.624 9.759,-12.143 21.688,-20.604 31.878,-22.987 105.39,-72.864 106.258,-71.995 z"
         inkscape:connector-curvature="0"
         style="fill:url(#c)" />
    </g>
    <path
       id="path27"
       d="m 265.747,900.102 c -2.276,0 -4.553,0.217 -6.809,0.217 -45.975,2.45 -76.983,22.683 -95.113,62.195 -15.506,35.735 -13.813,82.446 0.174,118.4 16.265,35.131 42.547,53.672 86.416,60.675 9.282,1.52 15.506,6.616 33.483,27.606 l 22.12,25.915 40.118,0 -26.676,-26.892 c -14.746,-14.745 -26.673,-27.584 -26.673,-28.712 0,-1.127 5.641,-3.599 12.469,-5.68 22.51,-6.812 41.203,-24.202 54.279,-50.854 10.583,-21.402 12.102,-28.018 13.619,-54.646 3.969,-79.26 -37.82,-128.813 -107.409,-128.247 z m 35.173,207.27 c -19.517,9.453 -47.857,11.34 -66.356,4.553 -19.127,-7.025 -37.646,-26.889 -45.975,-49.377 -9.259,-24.591 -7.937,-69.956 2.646,-90.386 17.023,-32.528 39.534,-47.49 72.43,-47.49 48.792,0 76.549,29.884 80.171,86.048 2.863,46.885 -12.838,82.058 -42.895,96.632 z M 993.945,967.804 c -16.828,0 -29.709,6.811 -38.385,20.231 l -6.809,10.627 0,-27.628 -29.123,0 0,165.678 29.104,0 0,-52.956 c 0,-48.424 0.604,-54.084 7.371,-67.335 9.326,-18.172 25.371,-27.234 40.879,-22.897 l 10.408,3.036 0,-28.712 -13.445,0 z m -171.098,-1.519 c -5.705,0 -11.756,0.76 -17.781,2.084 -38.971,10.19 -60.938,47.489 -59.594,85.873 0,32.139 6.244,48.206 21.752,65.057 31.77,26.065 60.502,28.146 99.275,14.161 6.615,-2.819 13.814,-6.072 13.814,-6.072 l 0,-26.065 -13.814,7.156 c -31.379,13.661 -55.016,13.661 -73.949,-2.43 -12.076,-12.296 -17.391,-27.042 -19.84,-43.868 l 117.426,0 0,-22.339 c 0,-45.539 -27.41,-74.294 -67.313,-73.557 z m -47.492,72.647 c 0,0 4.338,-28.407 20.428,-39.554 7.744,-5.466 16.633,-8.11 25.328,-8.11 8.719,0 17.414,2.818 24.592,8.306 14.748,11.341 17.219,39.143 17.219,39.143 l -87.566,0 0,0.215 z M 73.244,1009.051 C 41.671,989.923 27.662,976.13 29.375,959.866 c 4.9,-44.997 60.503,-38.773 91.295,-21.749 l 0.219,-30.272 c 0,0 -17.024,-7.373 -41.421,-7.764 -37.429,-0.564 -61.63,11.709 -72.97,36.691 -16.656,36.865 -1.908,64.665 51.396,95.677 29.925,17.412 43.152,32.528 43.152,49.008 0,34.047 -41.05,45.931 -83.401,24.57 -8.716,-4.337 -16.09,-7.959 -16.48,-7.959 -1.519,9.651 -0.736,32.745 -0.736,32.745 0,0 13.012,5.466 32.527,9.236 48.4,9.65 92.445,-13.054 96.608,-49.919 3.622,-34.609 -8.893,-52.761 -56.318,-81.104 z m 1178.454,-43.155 c -5.682,0 -11.711,0.78 -18,2.103 -38.924,10.192 -60.85,47.492 -59.354,85.876 0,32.095 6.225,48.011 21.729,64.838 31.771,26.089 60.504,28.191 99.473,14.184 6.592,-2.818 13.77,-6.026 13.77,-6.026 l 0,-26.109 -13.791,7.197 c -31.443,13.619 -55.082,13.619 -73.947,-2.471 -12.145,-12.274 -17.414,-26.847 -19.865,-43.871 l 117.232,0 0,-22.336 c 0,-45.321 -27.412,-74.099 -67.313,-73.339 z m -47.492,72.646 c 0,0 4.381,-28.365 20.449,-39.729 7.721,-5.485 16.611,-8.132 25.307,-8.132 8.674,0 17.414,2.819 24.594,8.327 14.746,11.342 17.219,39.338 17.219,39.338 l -87.545,0 z m -533.809,-29.123 c -31.573,-19.083 -45.54,-32.92 -43.848,-49.185 4.9,-45.02 60.504,-38.773 91.296,-21.749 l 0.218,-30.272 c 0,0 -17.024,-7.374 -41.421,-7.722 -37.429,-0.563 -61.63,11.711 -72.991,36.692 -16.633,36.864 -1.692,64.666 51.437,95.677 29.884,17.393 43.111,32.312 43.111,48.792 0,34.047 -41.029,46.126 -83.381,24.569 -8.674,-4.337 -16.046,-7.916 -16.48,-7.916 -1.519,9.649 -0.736,32.746 -0.736,32.746 0,0 12.858,5.27 32.31,9.237 48.445,9.672 92.51,-13.012 96.653,-49.877 3.6,-34.437 -8.891,-52.587 -56.167,-80.952 l 0,-0.04 z m 752.421,-42.005 c -16.828,0 -29.859,6.829 -38.383,20.254 l -6.811,10.582 0,-27.583 -29.123,0 0,165.633 29.102,0 0,-52.954 c 0,-48.403 0.584,-54.085 7.375,-67.313 9.324,-18.15 25.369,-27.235 40.875,-22.878 l 10.408,3.035 0,-28.775 -13.443,0 z m -984.021,41.05 0,-105.523 -29.361,0 0,233.728 123.478,0 0,-27.604 -94.116,0 0,-100.601 z m 679.015,32.896 -24.201,62.975 -23.27,-63.322 -23.637,-70.173 -30.055,0 c 19.475,55.212 40.658,111.376 62.02,165.829 9.26,0.216 18.541,0 27.799,0 l 32.682,-82.058 33.287,-83.75 -28.732,0 c 0,0 -12.688,33.266 -25.914,70.521 z M 506.455,839.251 c 4.728,0 8.674,-1.516 11.927,-4.769 3.208,-3.211 4.9,-6.984 4.9,-11.711 0,-4.728 -1.692,-8.675 -4.9,-11.711 -3.253,-3.035 -7.005,-4.555 -11.711,-4.555 -4.769,0 -8.717,1.52 -11.927,4.728 -3.252,3.211 -4.727,7.158 -4.727,11.712 0,4.771 1.519,8.716 4.727,11.711 3.037,3.034 6.984,4.553 11.711,4.553 z m -10.408,-26.889 c 2.818,-2.818 6.245,-4.121 10.625,-4.121 4.121,0 7.548,1.303 10.411,4.121 2.819,2.819 4.337,6.245 4.337,10.409 0,4.163 -1.518,7.764 -4.337,10.582 -2.862,2.817 -6.29,4.163 -10.411,4.163 -4.185,0 -7.59,-1.301 -10.408,-4.163 -2.819,-2.818 -4.337,-6.419 -4.337,-10.582 0,-4.164 1.301,-7.589 4.12,-10.409 z m 7.003,11.928 1.908,0 c 1.346,0 2.668,1.3 3.795,3.773 l 2.279,5.116 3.577,0 -2.818,-5.683 c -1.149,-2.275 -2.276,-3.598 -3.6,-3.969 1.67,-0.39 2.992,-0.953 3.947,-2.082 0.952,-0.974 1.3,-2.298 1.3,-3.795 0,-1.734 -0.542,-3.034 -1.69,-3.989 -1.302,-1.084 -3.384,-1.669 -6.074,-1.669 l -6.026,0 0,21.187 3.035,0 0,-8.891 z m 0,-9.846 2.647,0 c 1.908,0 3.253,0.39 3.99,0.953 0.716,0.564 0.911,1.303 0.911,2.646 0,2.45 -1.52,3.601 -4.337,3.601 l -3.252,0 0,-7.2 z m -485.018,7.958 c 0,-7.373 -0.216,-12.858 -0.39,-16.09 l 0.174,0 c 0.758,3.814 1.691,6.657 2.45,8.543 l 28.19,62.975 4.728,0 28.19,-63.538 c 0.761,-1.733 1.52,-4.337 2.452,-7.959 l 0.216,0 c -0.563,6.29 -0.758,11.754 -0.758,16.112 l 0,55.581 9.648,0 0,-82.622 -12.1,0 -25.913,57.466 c -0.955,2.276 -2.278,5.683 -3.969,10.193 l -0.392,0 c -0.563,-2.234 -1.886,-5.639 -3.772,-9.803 l -25.33,-58.053 -12.858,0 0,82.621 9.281,0 0,-55.385 z m 96.045,0.154 8.329,0 0,51.458 -8.329,0 z m 4.164,-18.868 c 1.736,0 3.21,-0.587 4.337,-1.734 1.15,-1.129 1.91,-2.603 1.91,-4.337 0,-1.692 -0.565,-3.211 -1.887,-4.337 -1.171,-1.15 -2.668,-1.737 -4.381,-1.737 -1.69,0 -3.208,0.587 -4.338,1.737 -1.146,1.126 -1.907,2.645 -1.907,4.337 0,1.887 0.586,3.208 1.907,4.337 1.304,1.147 2.647,1.734 4.338,1.734 z m 63.54,71.455 0,-9.066 c -4.555,3.405 -9.456,5.098 -14.53,5.098 -6.07,0 -10.995,-2.081 -14.595,-6.07 -3.577,-3.947 -5.485,-9.436 -5.485,-16.266 0,-7.156 1.908,-12.84 5.854,-17.177 3.795,-4.163 8.719,-6.245 14.748,-6.245 4.922,0 9.647,1.52 14.009,4.557 l 0,-9.65 c -3.968,-2.082 -8.5,-3.037 -13.619,-3.037 -9.456,0 -16.827,3.037 -22.335,8.894 -5.466,5.854 -8.285,13.813 -8.285,23.42 0,8.543 2.45,15.722 7.548,21.209 5.312,5.637 12.102,8.5 20.428,8.5 6.438,-0.178 11.707,-1.523 16.262,-4.167 z m 23.831,-27.433 c 0,-6.788 1.518,-12.273 4.337,-16.049 2.647,-3.403 5.855,-5.116 9.65,-5.116 3.21,0 5.486,0.585 7.155,1.908 l 0,-9.846 c -1.3,-0.563 -3.187,-0.758 -5.637,-0.758 -3.405,0 -6.439,1.146 -9.107,3.253 -2.819,2.231 -5.074,5.638 -6.397,9.975 l -0.216,0 0,-12.08 -9.433,0 0,58.985 9.454,0 0,-30.272 z m 54.279,31.443 c 8.892,0 16.048,-2.863 21.36,-8.543 5.29,-5.641 7.936,-13.229 7.936,-22.686 0,-9.647 -2.427,-17.021 -7.372,-22.51 -4.9,-5.483 -11.711,-8.132 -20.603,-8.132 -8.892,0 -16.048,2.647 -21.36,7.764 -5.681,5.641 -8.674,13.599 -8.674,23.813 0,8.891 2.429,16.265 7.548,21.751 5.29,5.68 12.295,8.521 21.165,8.521 z m -13.445,-48.055 c 3.6,-3.795 8.329,-5.683 14.182,-5.683 6.074,0 10.627,1.888 14.01,5.683 3.404,3.969 5.097,9.63 5.097,17.197 0,7.198 -1.519,12.859 -4.729,16.654 -3.208,3.969 -7.936,6.071 -14.183,6.071 -6.071,0 -10.777,-2.104 -14.377,-6.071 -3.577,-3.99 -5.291,-9.456 -5.291,-16.654 -0.368,-7.156 1.519,-13.01 5.291,-17.197 z m 84.141,42.916 c 3.599,-3.208 5.509,-7.155 5.509,-12.102 0,-4.337 -1.52,-7.936 -4.338,-10.777 -2.3,-2.275 -5.854,-4.337 -10.994,-6.419 -4.556,-1.906 -7.374,-3.6 -8.893,-4.923 -1.517,-1.517 -2.45,-3.402 -2.45,-6.071 0,-2.45 0.955,-4.337 2.821,-5.855 1.908,-1.516 4.337,-2.253 7.59,-2.253 5.096,0 9.454,1.343 13.443,4.185 l 0,-9.456 c -3.816,-1.906 -7.958,-2.817 -12.686,-2.817 -6.071,0 -11.189,1.671 -14.964,4.899 -3.969,3.212 -5.854,7.375 -5.854,12.274 0,4.337 1.3,7.938 3.771,10.582 2.082,2.256 5.641,4.556 10.583,6.614 4.729,2.083 7.938,3.968 9.65,5.485 1.691,1.52 2.45,3.405 2.45,5.641 0,5.506 -3.772,8.349 -11.146,8.349 -5.682,0 -10.776,-1.866 -15.333,-5.638 l 0,10.189 c 4.121,2.475 9.066,3.601 14.53,3.601 7.005,-0.368 12.49,-2.081 16.264,-5.486 z m 45.019,-56.73 c -8.893,0 -16.048,2.647 -21.361,7.764 -5.638,5.641 -8.674,13.599 -8.674,23.813 0,8.891 2.452,16.265 7.547,21.751 5.313,5.68 12.295,8.521 21.187,8.521 9.107,0 16.048,-2.861 21.36,-8.545 5.313,-5.637 7.958,-13.227 7.958,-22.683 0,-9.65 -2.472,-17.022 -7.374,-22.509 -5.115,-5.487 -11.927,-8.133 -20.601,-8.133 z m 18.345,31.012 c 0,7.198 -1.518,12.859 -4.727,16.654 -3.21,3.969 -7.938,6.071 -14.184,6.071 -6.074,0 -10.778,-2.104 -14.379,-6.071 -3.577,-3.99 -5.29,-9.456 -5.29,-16.654 0,-7.59 1.888,-13.444 5.683,-17.393 3.576,-3.773 8.306,-5.682 14.182,-5.682 5.854,0 10.561,1.907 13.964,5.682 3.037,4.163 4.729,9.824 4.729,17.393 z m 25.547,29.513 9.433,0 0,-51.068 13.813,0 0,-7.938 -13.814,0 0,-9.108 c 0,-8.282 3.208,-12.446 9.845,-12.446 2.234,0 4.511,0.563 6.203,1.518 l 0,-8.521 c -1.692,-0.759 -3.969,-0.932 -6.812,-0.932 -5.095,0 -9.258,1.519 -12.664,4.727 -3.969,3.773 -6.071,8.674 -6.071,15.312 l 0,9.672 -9.978,0 0,7.936 9.978,0 0,50.876 z m 38.75,-16.091 c 0,11.538 5.098,17.414 15.506,17.414 3.774,0 6.614,-0.606 8.891,-1.951 l 0,-8.11 c -1.734,1.302 -3.795,1.91 -6.071,1.91 -3.208,0 -5.464,-0.762 -6.788,-2.475 -1.345,-1.689 -2.103,-4.554 -2.103,-8.501 l 0,-33.286 14.961,0 0,-7.938 -14.961,0 0,-17.39 c -3.253,1.127 -6.44,2.082 -9.456,3.034 l 0,14.355 -10.192,0 0,7.938 10.192,0 0,34.979 z m 1014.88,108.73 c -3.209,-3.034 -7.004,-4.553 -11.709,-4.553 -4.77,0 -8.719,1.519 -11.928,4.771 -3.209,3.188 -4.729,7.155 -4.729,11.711 0,4.728 1.52,8.675 4.705,11.709 3.211,3.036 7.156,4.556 11.928,4.556 4.705,0 8.674,-1.52 11.928,-4.729 3.188,-3.253 4.879,-7.004 4.879,-11.709 -0.174,-4.771 -1.887,-8.719 -5.096,-11.754 z m -1.517,22.338 c -2.82,2.818 -6.246,4.119 -10.41,4.119 -4.119,0 -7.545,-1.301 -10.408,-4.119 -2.818,-2.863 -4.338,-6.441 -4.338,-10.627 0,-4.121 1.301,-7.545 4.164,-10.408 2.818,-2.817 6.225,-4.121 10.582,-4.121 4.121,0 7.549,1.304 10.41,4.121 2.818,2.863 4.336,6.287 4.336,10.408 0,4.382 -1.301,7.764 -4.336,10.627 z m -8.502,-9.651 c 1.691,-0.39 3.037,-1.149 3.969,-2.081 0.955,-0.977 1.303,-2.301 1.303,-3.815 0,-1.692 -0.543,-3.037 -1.691,-3.969 -1.301,-1.085 -3.404,-1.671 -6.07,-1.671 l -6.029,0 0,21.164 3.037,0 0,-8.891 1.885,0 c 1.303,0 2.604,1.3 3.773,3.773 l 2.254,5.096 3.602,0 -2.818,-5.683 c -0.977,-2.472 -2.105,-3.601 -3.252,-3.97 z m -2.082,-1.907 -3.252,0 0,-7.155 2.668,0 c 1.887,0 3.209,0.345 3.969,0.932 0.758,0.563 0.932,1.301 0.932,2.646 0,2.45 -1.518,3.579 -4.336,3.579 z"
       inkscape:connector-curvature="0"
       style="fill:#231f1f"
       sodipodi:nodetypes="cccccccccscccccccccsccccccccccscccccccccccccccccsccccsccccccccccccsccccccccccccccccccsccccscccccccccccscccccccccccccccscccccccccccccccccccccccccccccscscsccccscscscsccsccccccscsccccccscssccccccccccccscccccccccccccccccccscscscscssccscscsccscscccccsccscccccccccccscscsccccscscsccccscccscsccscscccsscccccccscscscccccscscscccccccccssccscscccccccsccscscccccccccccccscscscccccscscscscccscsccccscccccccccscscc" />
  </g>
  <g
     id="g4214"
     transform="matrix(7.7340211,0,0,7.7340211,2083.8078,1214.0375)">
    <path
       id="path4200"
       d="m 40.054,113.583 -5.175,0 C 34.696,104.848 34.192,96.636 33.368,88.941 l -0.046,0 -7.879,24.642 -3.94,0 -7.832,-24.642 -0.045,0 c -0.581,7.388 -0.947,15.602 -1.099,24.642 l -4.717,0 C 8.114,102.59 8.878,92.284 10.099,82.664 l 6.414,0 7.465,22.719 0.046,0 7.511,-22.719 6.137,0 c 1.344,11.268 2.138,21.575 2.382,30.919 M 62.497,90.771 c -2.107,11.434 -4.887,19.742 -8.337,24.928 -2.688,3.992 -5.633,5.99 -8.84,5.99 -0.855,0 -1.91,-0.258 -3.16,-0.77 l 0,-2.757 c 0.611,0.088 1.328,0.138 2.152,0.138 1.498,0 2.702,-0.412 3.62,-1.238 1.098,-1.006 1.647,-2.137 1.647,-3.388 0,-0.858 -0.428,-2.612 -1.282,-5.268 l -5.679,-17.636 5.084,0 4.076,13.19 c 0.916,2.995 1.298,5.086 1.145,6.277 2.229,-5.953 3.786,-12.444 4.673,-19.468 l 4.901,0 0,0.002 z"
       inkscape:connector-curvature="0"
       style="fill:#5d87a1" />
    <path
       id="path4202"
       d="m 131.382,113.583 -14.7,0 0,-30.919 4.945,0 0,27.113 9.755,0 0,3.806 z m -18.548,0.747 -5.684,-2.805 c 0.504,-0.414 0.986,-0.862 1.42,-1.381 2.416,-2.838 3.621,-7.035 3.621,-12.594 0,-10.229 -4.014,-15.346 -12.045,-15.346 -3.938,0 -7.01,1.298 -9.207,3.895 -2.414,2.84 -3.619,7.022 -3.619,12.551 0,5.435 1.068,9.422 3.205,11.951 1.955,2.291 4.902,3.438 8.843,3.438 1.47,0 2.819,-0.18 4.048,-0.543 l 7.4,4.308 2.018,-3.474 z m -18.413,-6.934 c -1.252,-2.014 -1.878,-5.248 -1.878,-9.707 0,-7.785 2.365,-11.682 7.1,-11.682 2.475,0 4.289,0.932 5.449,2.792 1.25,2.017 1.879,5.222 1.879,9.619 0,7.849 -2.367,11.774 -7.099,11.774 -2.476,0.001 -4.29,-0.928 -5.451,-2.796 m -9.256,-2.383 c 0,2.622 -0.962,4.773 -2.884,6.458 -1.924,1.678 -4.504,2.519 -7.737,2.519 -3.024,0 -5.956,-0.966 -8.794,-2.888 l 1.329,-2.655 c 2.442,1.223 4.653,1.831 6.638,1.831 1.863,0 3.319,-0.413 4.375,-1.232 1.055,-0.822 1.684,-1.975 1.684,-3.433 0,-1.837 -1.281,-3.407 -3.631,-4.722 -2.167,-1.19 -6.501,-3.678 -6.501,-3.678 -2.349,-1.712 -3.525,-3.55 -3.525,-6.578 0,-2.506 0.877,-4.529 2.632,-6.068 1.757,-1.545 4.024,-2.315 6.803,-2.315 2.87,0 5.479,0.769 7.829,2.291 l -1.192,2.656 c -2.01,-0.854 -3.994,-1.281 -5.951,-1.281 -1.585,0 -2.809,0.381 -3.66,1.146 -0.858,0.762 -1.387,1.737 -1.387,2.933 0,1.828 1.308,3.418 3.722,4.759 2.196,1.192 6.638,3.723 6.638,3.723 2.409,1.709 3.612,3.53 3.612,6.534"
       inkscape:connector-curvature="0"
       style="fill:#f8981d" />
    <path
       id="path4206"
       d="m 141.148,113.578 0.774,0 0,-3.788 -1.161,0 -0.947,2.585 -1.029,-2.585 -1.118,0 0,3.788 0.731,0 0,-2.882 0.041,0 1.078,2.882 0.557,0 1.074,-2.882 0,2.882 z m -6.235,0 0.819,0 0,-3.146 1.072,0 0,-0.643 -3.008,0 0,0.643 1.115,0 0.002,3.146 z"
       inkscape:connector-curvature="0"
       style="fill:#f8981d" />
  </g>
  <g
     id="g4343"
     transform="matrix(1.9116244,0,0,1.9116231,2035.2849,2157.1756)">
    <path
       id="path4317"
       d="m 78.2,94.9 c 1.4,2.6 3.3,6.7 4.9,9.2 1.1,1.7 2.3,3.2 3.7,4.6 4.1,4.1 8,8.4 11.5,13 8.3,10.9 13.9,23 17.9,36.1 2.4,8 3.7,16.2 3.8,24.5 0.4,24.8 -8.1,46.1 -25.3,63.8 -2.8,2.8 -5.8,5.4 -9,7.7 -1.7,0 -2.5,-1.3 -3.2,-2.5 -1.3,-2.2 -2.1,-4.7 -2.5,-7.2 -0.6,-3 -1,-6 -0.8,-9.1 0,-0.5 0,-0.9 0,-1.4 -0.1,-0.3 -1.6,-138 -1,-138.7 z"
       inkscape:connector-curvature="0"
       style="fill:#599636" />
    <path
       id="path4319"
       d="m 171.1,215.9 c 0,5.1 0,10.2 0,15.2 0,0.6 0,1.2 0.1,1.8 0.2,1.8 1.3,2.9 3,3.4 1.5,0.4 3.1,0.7 4.6,0.9 0.9,0.1 1.2,0.5 1.3,1.4 0.1,3.4 -0.2,3.8 -3.5,3.6 -7.7,-0.4 -15.4,-0.5 -23.1,0 -0.3,0 -0.6,0 -0.8,0 -2.4,0.1 -2.6,-0.1 -2.6,-2.5 0,-0.4 0.1,-0.9 0.1,-1.3 0,-0.8 0.5,-1.1 1.2,-1.1 1.6,-0.2 3.1,-0.6 4.6,-0.9 2.1,-0.5 3.3,-1.8 3.5,-3.9 0.3,-2.3 0.3,-4.7 0.3,-7 0.3,-8.9 0.2,-17.9 0.1,-26.8 0,-1.7 -0.7,-3 -2.2,-3.8 -1.8,-1 -3.7,-1.8 -5.7,-2.4 -0.6,-0.2 -1.2,-0.3 -1.7,-0.6 -1.4,-0.7 -1.5,-2 -0.1,-2.8 0.5,-0.3 1.1,-0.5 1.7,-0.6 6.1,-0.9 12,-2.4 17.8,-4.5 1.2,-0.4 1.5,-0.3 1.6,0.9 0.1,0.8 0,1.6 -0.1,2.3 -0.2,1.3 -0.2,2.6 -0.2,3.8 0,0.5 0.1,1 0.6,1.3 0.5,0.3 1,0 1.4,-0.3 2.1,-1.6 4.2,-3.1 6.5,-4.4 3.3,-1.8 6.8,-3.4 10.6,-3.9 4.6,-0.6 8.6,0.6 12.1,3.6 1.5,1.3 2.7,2.8 3.8,4.4 1,1.4 1.1,1.5 2.4,0.5 3.8,-2.8 7.8,-5.3 12.1,-7.1 4.5,-1.9 9.1,-2.2 13.7,-0.6 4.7,1.7 7.9,5 9.8,9.5 1.6,3.6 2.3,7.4 2.3,11.2 0,5.9 0,11.8 0,17.8 0,3 0,6 0,9 0,1.8 0.8,3 2.5,3.8 1.9,0.8 4,1.1 6,1.5 1.3,0.3 1.3,0.3 1.3,1.6 -0.2,3.3 -0.5,3.5 -3.7,3.3 -8,-0.5 -16.1,-0.4 -24.1,0 -1.6,0.1 -1.6,0.1 -1.7,-1.5 0,-0.2 0,-0.3 0,-0.5 -0.1,-2.7 -0.1,-2.7 2.5,-3.3 0.9,-0.2 1.7,-0.4 2.6,-0.7 2,-0.6 3,-1.9 3.1,-3.9 0.1,-2.5 0.2,-5 0.3,-7.5 0,-6.5 0.2,-13.1 -0.2,-19.6 -0.1,-1.7 -0.4,-3.4 -1.1,-5.1 -2.5,-6.1 -8,-8.3 -13.3,-7.7 -4,0.4 -7.5,2 -10.8,4.3 -0.7,0.5 -1.2,1.1 -1.1,2.1 0.9,6.4 0.3,12.8 0.4,19.2 0.1,4.6 0,9.3 0,13.9 0,2.5 1,3.7 3.4,4.3 1.5,0.4 3,0.7 4.6,1 0.7,0.1 1.1,0.4 1.1,1.2 0,0.3 0,0.6 0,0.8 -0.1,2.8 -0.3,3 -3.1,2.9 -8,-0.4 -16,-0.3 -23.9,0 -2.7,0.1 -3,-0.2 -2.8,-3 0.1,-1.6 0.3,-1.7 1.8,-2 1.1,-0.2 2.2,-0.4 3.3,-0.6 3,-0.6 4,-1.7 4.2,-4.8 0.1,-2.2 0.3,-4.5 0.3,-6.7 0.1,-6.7 0.3,-13.4 -0.2,-20.1 -0.2,-2.5 -0.8,-4.9 -2.1,-7.2 -2,-3.7 -5.2,-5.6 -9.4,-5.8 -4.3,-0.3 -8.1,1.3 -11.7,3.3 -2.5,1.4 -3.6,3.2 -3.4,6.1 0.1,5 -0.1,9.8 0,14.6 -0.1,0 0,0 0,0 z"
       inkscape:connector-curvature="0"
       style="fill:#47474a" />
    <path
       id="path4321"
       d="m 359.5,216.5 c 0,4.7 0,9.4 0,14.1 0,1 0.1,2 0.2,3 0.2,1.5 1,2.4 2.4,2.8 1.7,0.5 3.5,0.8 5.3,0.9 1,0.1 1.2,0.5 1.3,1.3 0,0.2 0,0.4 0,0.7 -0.1,3.5 -0.5,3.9 -3.9,3.7 -7.6,-0.5 -15.2,-0.4 -22.8,0 -1,0 -2,0.1 -3,0.1 -0.6,0 -0.8,-0.3 -0.9,-0.7 -0.3,-1.4 -0.3,-2.8 0,-4.2 0.1,-0.6 0.5,-0.8 1.1,-0.9 1.4,-0.2 2.7,-0.5 4.1,-0.8 2.5,-0.6 3.4,-1.6 3.5,-4.2 0.2,-2.8 0.3,-5.6 0.3,-8.4 0,-8.2 0,-16.4 0,-24.6 0,-1.8 -0.7,-2.9 -2.3,-3.7 -1.8,-1 -3.7,-1.7 -5.7,-2.4 -0.6,-0.2 -1.2,-0.4 -1.7,-0.7 -1.3,-0.9 -1.4,-2.2 -0.2,-3.2 0.6,-0.5 1.2,-0.7 2,-0.8 6.4,-1 12.6,-2.4 18.6,-4.8 0.7,-0.3 1,-0.1 1.3,0.5 0.3,0.6 0.4,1.3 0.3,2 -0.1,1.6 -0.2,3.1 -0.3,4.7 0,0.6 -0.3,1.4 0.2,1.7 0.6,0.4 1,-0.5 1.5,-0.8 3,-2.4 6.2,-4.6 9.7,-6.2 3.1,-1.4 6.3,-2.4 9.9,-2.2 6.7,0.4 11.5,3.8 14.6,9.7 1.6,3.1 2.3,6.5 2.6,10 0.2,2.4 0.3,4.9 0.3,7.4 0,6.9 0.1,13.7 0.1,20.6 0,0.5 0,1 0,1.5 0.1,1.7 0.7,2.8 2.4,3.4 1.8,0.6 3.5,1 5.4,1.3 1.6,0.2 1.7,0.5 1.8,2 0,0.2 0,0.3 0,0.5 -0.2,3.4 -0.4,3.5 -3.8,3.3 -7.5,-0.4 -15,-0.4 -22.4,0 -1,0.1 -2,0 -3,0.1 -0.6,0 -1,-0.1 -1.1,-0.7 -0.2,-1.3 -0.4,-2.6 -0.1,-4 0.1,-0.6 0.4,-0.9 1.1,-1 1.5,-0.2 3.1,-0.4 4.6,-0.8 1.6,-0.4 2.5,-1.4 2.7,-3 0.1,-0.9 0.2,-1.9 0.2,-2.8 0,-7 0,-14 -0.1,-20.9 0,-2.4 -0.1,-4.8 -0.6,-7.2 -1.2,-5.2 -5.1,-8.7 -10.4,-9.3 -4.6,-0.5 -8.7,0.7 -12.6,3.2 -1.9,1.2 -2.7,2.9 -2.7,5 0,3.5 0,7 0,10.6 0,1.5 0,3 0,4.5 0,-0.3 0,-0.3 0.1,-0.3 z"
       inkscape:connector-curvature="0"
       style="fill:#47474a" />
    <path
       id="path4323"
       d="m 78.2,94.6 c -0.2,-0.4 -0.4,-0.1 -0.6,0.1 0.1,2 -0.6,3.8 -1.7,5.5 -1.2,1.7 -2.8,3 -4.4,4.4 -8.9,7.7 -15.9,17 -21.5,27.4 -7.4,14 -11.3,29 -12.4,44.8 -0.5,5.7 1.8,25.8 3.6,31.6 4.9,15.4 13.7,28.3 25.1,39.5 2.8,2.7 5.8,5.2 8.9,7.6 0.9,0 1,-0.8 1.2,-1.4 0.4,-1.3 0.7,-2.6 0.9,-3.9 0.9,-5 1.4,-10 2,-15 0,-0.6 -0.8,-140.1 -1.1,-140.6 z"
       inkscape:connector-curvature="0"
       style="fill:#6cac48" />
    <path
       id="path4325"
       d="m 83.1,259.9 c 0.2,-2.3 1.3,-4.2 2.5,-6.1 -1.2,-0.5 -2.1,-1.5 -2.8,-2.6 -0.6,-1 -1.1,-2.2 -1.5,-3.3 -1.4,-4.2 -1.7,-8.6 -2.1,-12.9 0,0 0,0 0,0 l 0,0 c 0,-0.4 0,-0.9 0,-1.3 0,0 0,0 0,0 0,-0.4 0,-0.9 0,-1.3 -0.5,0.4 -0.6,3.8 -0.6,4.3 -0.3,4.6 -0.9,9.1 -1.8,13.5 -0.3,1.8 -0.5,3.6 -1.6,5.2 0,0.2 0,0.4 0.1,0.7 1.8,5.3 2.3,10.7 2.6,16.2 0,0.7 0,1.3 0,2 0,2.4 -0.1,1.9 1.9,2.7 0.8,0.3 1.7,0.4 2.5,1 0.6,0 0.7,-0.5 0.7,-0.9 -0.1,-1.1 -0.3,-2.2 -0.3,-3.3 0,-3.1 -0.1,-6.1 0,-9.2 -0.1,-1.6 0.2,-3.2 0.4,-4.7 z"
       inkscape:connector-curvature="0"
       style="fill:#c2bfbf" />
    <path
       id="path4327"
       d="m 652.4,188.2 c -1.1,-7.3 -3.8,-13.8 -8.5,-19.5 -4.2,-5.1 -9.3,-8.9 -15.4,-11.4 -6.3,-2.6 -13,-3.4 -19.8,-3.6 -2.8,-0.1 -41,0.5 -43.8,0 -0.7,-0.1 -1.2,0.1 -1.6,0.7 -0.5,0.8 -1,1.5 -1.3,2.3 -1.2,2.7 -1.2,2.5 1.7,2.9 2.4,0.4 4.7,0.6 7,1.3 2.1,0.7 3.6,1.9 4.1,4.2 0.2,1.1 0.4,36.3 0.4,52.7 0,3.9 -0.1,7.8 -0.4,11.7 -0.1,0.9 -0.2,1.8 -0.5,2.6 -0.4,1.2 -1.1,2.2 -2.3,2.7 -1.3,0.6 -2.7,1 -4.2,1.1 -2.7,0.3 -3.1,0.4 -4,3.4 -0.1,0.4 -0.2,0.8 -0.3,1.1 -0.2,1.3 -0.1,1.5 1.2,1.5 6,0.1 24.9,0.3 29.9,0.3 2.8,-0.1 7.3,0.2 11.7,-0.2 2.7,-0.3 5.4,-0.5 8.1,-1 9.2,-1.7 17.4,-5.5 24.4,-11.6 4.1,-3.6 7.2,-7.8 9.6,-12.6 2.8,-5.6 4,-11.7 4.3,-17.9 0.5,-3.5 0.3,-7.1 -0.3,-10.7 z m -14.5,14.2 c -0.4,6.4 -1.7,12.6 -5,18.2 -4.2,7.3 -10.2,12.4 -18.5,14.2 -3.6,0.8 -7.2,1.1 -10.9,0.6 -2.7,-0.3 -5.3,-0.6 -7.8,-1.5 -4.5,-1.6 -6.1,-4.4 -6.2,-8.7 -0.2,-6.3 0,-50.4 -0.1,-60.3 0,-3.6 1.6,-4.4 4.2,-4.5 3.9,-0.3 7.9,-0.2 11.8,0.2 4.2,0.4 8.2,1.4 12.1,3 2.9,1.2 5.6,2.9 7.9,4.9 5.4,4.6 9,10.4 10.9,17.2 1.6,5.5 1.9,11.1 1.6,16.7 z"
       inkscape:connector-curvature="0"
       style="fill:#c2bfbf" />
    <path
       id="path4329"
       d="m 735.5,212.2 c 0,-0.6 0,-1.1 -0.1,-1.7 -0.9,-5.5 -3.8,-9.7 -8.3,-12.9 -2.9,-2.1 -6.2,-3.5 -9.6,-4.5 -0.6,-0.2 -1.1,-0.4 -1.7,-0.5 0.1,-0.5 0.4,-0.6 0.7,-0.7 2,-1 3.9,-2.1 5.6,-3.6 3.1,-2.6 5.2,-5.8 6.2,-9.7 0.6,-2.1 0.6,-4.2 0.4,-6.4 -0.5,-5.5 -2.9,-9.8 -7.3,-13 -4.6,-3.4 -10,-4.8 -15.6,-4.9 -10.8,-0.2 -21.7,0 -32.5,0 -3.1,0 -6.2,0.2 -9.4,-0.3 -0.6,-0.1 -1.4,-0.3 -1.9,0.4 -0.8,1.3 -1.6,2.6 -1.9,4.1 -0.1,0.7 0.1,1.1 0.9,1.2 2.3,0.3 4.6,0.7 6.9,1 2.7,0.4 4.6,1.9 4.8,4.3 0.2,1.7 0.3,3.3 0.3,5 0,6.2 -0.1,12.5 -0.2,18.7 -0.2,12.3 -0.1,24.7 -0.1,37 0,2.2 -0.3,4.3 -0.7,6.5 -0.3,1.5 -1.1,2.5 -2.6,3 -2,0.6 -3.9,1.2 -6,1.2 -1.3,0 -2.1,0.5 -2.6,1.7 -0.4,0.9 -0.8,1.9 -0.9,2.8 -0.2,1.2 0.1,1.6 1.3,1.4 0.9,-0.1 33.9,0.7 40.1,0.1 3.7,-0.4 7.4,-0.9 11,-2 6.3,-2 12.1,-4.9 16.7,-9.8 3.8,-4 6,-8.8 6.2,-14.4 0.3,-1.3 0.3,-2.6 0.3,-4 z M 687,171.3 c 0.2,-2.7 0.2,-5.3 0.3,-8 0,-1.5 0.6,-2.2 2.1,-2.5 2.4,-0.5 4.8,-0.3 7.2,-0.2 2.4,0.2 4.7,0.5 7.1,1.2 4.4,1.3 7.8,3.8 9.8,8 0.9,1.9 1.4,4 1.4,6.1 0.1,2.8 -0.1,5.5 -1.2,8.2 -1.7,3.7 -4.4,6.1 -8.3,6.8 -3.9,0.7 -15,0.4 -16.7,0.4 -1.5,0 -1.6,-0.2 -1.6,-1.7 0,-3.2 0,-6.4 0,-9.5 0,0 0,0 0,0 -0.2,-2.8 -0.3,-5.8 -0.1,-8.8 z m 32.5,53.8 c -1.7,4.5 -4.8,7.6 -9.2,9.3 -2.4,0.9 -4.8,1.4 -7.4,1.3 -3.1,-0.1 -6.2,0 -9.3,-0.6 -4.2,-0.9 -6.1,-4.9 -6.4,-7.8 -0.5,-5.1 -0.2,-10.3 -0.3,-14.1 0,-5.3 0,-9.2 0,-13.2 0,-1.6 0.2,-2.1 1.9,-2.1 3.1,-0.1 6.2,-0.2 9.4,0.1 2.2,0.2 4.3,0.4 6.4,0.8 4.5,1 8.6,2.7 11.8,6.2 2.6,2.8 4,6.2 4.3,9.9 0.3,3.5 0.1,6.9 -1.2,10.2 z"
       inkscape:connector-curvature="0"
       style="fill:#c2bfbf" />
    <path
       id="path4331"
       d="m 465.4,194.9 c 0.9,0.1 1.8,0.3 2.6,0.4 2.8,0.1 6.1,-0.9 7.1,-4.8 0.5,-1.9 0.6,-3.7 0,-5.7 -0.6,0 -0.9,0.5 -1.2,0.7 -1.5,1.2 -3.2,1.9 -5,2.1 -3.6,0.4 -7.2,0.2 -10.7,-1.1 -1.6,-0.6 -3.2,-1.2 -4.9,-1.7 -3.4,-1.1 -7,-1.6 -10.6,-1.4 -5.1,0.4 -9.9,2.1 -14.4,4.5 -4.8,2.6 -8.2,6.5 -9.8,11.8 -0.9,3.1 -1,6.3 -0.6,9.5 1,7.3 4.8,12.4 11.6,15.1 0.4,0.1 0.7,0.3 1.1,0.4 0.9,0.5 1,1 0.2,1.7 -0.8,0.6 -1.6,1.2 -2.5,1.7 -2,1.2 -4,2.4 -6,3.7 -1.5,0.9 -1.7,1.6 -1.2,3.2 0.6,1.9 1.7,3.5 3.2,4.8 1.4,1.2 2.9,2.1 4.6,2.8 1.1,0.5 1.1,0.8 0.1,1.6 -1.9,1.4 -3.8,2.7 -5.7,4.1 -1.9,1.4 -3.8,3 -5.4,4.8 -2.3,2.6 -3.1,5.6 -2.4,9 0.8,3.6 2.5,6.5 5.2,9 2.6,2.4 5.7,4.1 9.2,5 5.6,1.6 11.4,1.7 17.1,0.6 8.2,-1.5 15.3,-5.2 21,-11.3 3.9,-4.1 6.2,-8.9 6.4,-14.7 0.3,-7 -4,-12.9 -10.8,-14.6 -1.8,-0.4 -3.6,-0.7 -5.4,-1 -5.5,-0.7 -11,-1 -16.5,-1.4 -1.8,-0.1 -3.6,-0.4 -5.1,-1.3 -1.9,-1.2 -2.4,-3.5 -1.2,-5 0.9,-1.1 2,-1.8 3.4,-1.9 1.1,-0.1 2.1,-0.2 3.2,-0.3 6.5,-0.7 12.1,-3.3 16.9,-7.7 2.5,-2.3 4.2,-5.2 5.1,-8.5 1.2,-4.3 1.2,-8.7 0.2,-13.1 -0.3,-1.1 -0.2,-1.2 1.2,-1 z m -24.5,49.8 c 0.6,0.1 1.2,0 1.8,0 4.2,0.2 8.5,0.5 12.6,1.6 1.4,0.4 2.6,0.9 3.9,1.5 4,2.2 5.5,6 5,10.1 -0.6,4.5 -3.1,7.7 -7,9.8 -2.6,1.4 -5.5,2.1 -8.5,2.4 -1.1,0.1 -2.1,0 -3.2,0 -3.5,0.1 -6.9,-0.3 -10.2,-1.7 -2.3,-0.9 -4.2,-2.2 -5.9,-4 -3.5,-3.5 -5.2,-9.9 0.1,-15.1 3.2,-3 6.8,-5 11.4,-4.6 z m 11.4,-31.2 c -2.1,5.3 -6.7,6.9 -11.3,6.2 -4.2,-0.6 -7.3,-2.9 -9.3,-6.7 -2.6,-5.1 -3.3,-10.4 -1.8,-15.9 1.1,-4.1 3.6,-7.2 8,-7.9 5.6,-1 10.9,1 13.8,6.6 1.4,2.7 2.1,6 2.1,10.7 -0.1,1.9 -0.5,4.5 -1.5,7 z"
       inkscape:connector-curvature="0"
       style="fill:#47474a" />
    <path
       id="path4333"
       d="m 326.3,206.7 c -0.9,-5.4 -2.9,-10.3 -6.6,-14.4 -5.5,-6.1 -12.5,-8.7 -20.4,-8.8 -6.9,-0.1 -13.4,1.9 -19.2,5.5 -5.8,3.6 -9.8,8.7 -11.7,15.3 -1.7,5.8 -1.6,11.7 -0.3,17.6 3.5,15.8 15.7,22.6 30.3,21.6 4.3,-0.3 8.4,-1.7 12.3,-3.6 5.8,-2.7 10,-7 12.9,-12.7 2.3,-4.7 3.3,-9.7 3.2,-15.4 -0.1,-1.4 -0.2,-3.3 -0.5,-5.1 z m -14.2,22.2 c -1.8,4.8 -5.2,7.7 -10.3,8.4 -4.4,0.6 -8.5,-0.5 -12.2,-3.1 -2.7,-2 -4.8,-4.5 -6.3,-7.5 -4.1,-8.4 -4.8,-17.2 -2.7,-26.2 0.7,-2.8 2.1,-5.3 4.2,-7.3 3.7,-3.4 8,-4.2 12.8,-3.2 4.6,1 8.1,3.5 10.9,7.3 2.8,3.8 4.2,8.2 5,12.8 0.4,2.3 0.4,4.7 0.5,6.2 0,4.8 -0.4,8.7 -1.9,12.6 z"
       inkscape:connector-curvature="0"
       style="fill:#47474a" />
    <path
       id="path4335"
       d="m 544.8,207.5 c -0.8,-5.8 -2.9,-11.1 -7,-15.5 -5.4,-5.9 -12.4,-8.4 -20.2,-8.5 -6.7,-0.1 -12.9,1.8 -18.6,5.1 -6.4,3.8 -10.8,9.2 -12.5,16.5 -2,8.2 -1.2,16.2 2.4,23.8 3.3,7 8.9,11.5 16.3,13.5 8.2,2.2 16,1.2 23.6,-2.5 6.6,-3.2 11.3,-8.2 14,-15 1.6,-4 2.2,-8.3 2.3,-13.3 0.1,-0.9 -0.1,-2.5 -0.3,-4.1 z M 531,227.6 c -1.6,5.4 -5,8.9 -10.7,9.7 -4.2,0.6 -8.2,-0.4 -11.8,-2.8 -3.1,-2.1 -5.3,-4.9 -6.9,-8.2 -1.8,-3.5 -2.8,-7.2 -3.2,-11 -0.6,-4.7 -0.6,-9.3 0.5,-14 0.2,-0.9 0.5,-1.8 0.9,-2.7 2.8,-7 9,-10.2 16.3,-8.6 4.9,1.1 8.6,3.8 11.4,7.9 2.7,4 4,8.4 4.6,13.1 0.3,1.9 0.4,3.9 0.3,5.6 0,3.9 -0.3,7.5 -1.4,11 z"
       inkscape:connector-curvature="0"
       style="fill:#47474a" />
  </g>
  <style
     id="style4367"
     type="text/css">
	.st0{fill:#326690;}
	.st1{fill:#FFFFFF;}
</style>
  <g
     id="g4369"
     transform="matrix(4.1381593,0,0,4.1381596,2788.2981,164.13555)">
    <path
       id="path4371"
       d="m 206.02218,257 c 3.88552,-2.3 8.51115,-2.5 12.85923,-2.6 4.71814,0.1 9.80633,0.5 13.69185,3.7 2.40533,2 3.42297,5.3 3.42297,8.5 -1.4802,0 -2.9604,0 -4.4406,0 -0.55508,-3.1 -1.85025,-6.5 -4.81065,-7.6 -4.99568,-2.1 -10.82397,-1.9 -16.00467,-0.3 -4.07055,1.2 -5.64326,7.7 -2.40532,10.8 2.31281,2 5.27321,2.2 8.04859,2.9 5.64326,1.3 11.56406,1.5 16.74476,4.3 5.55075,3 5.36572,12.7 0.46256,16.3 -4.07055,3 -9.25125,3.4 -14.0619,3.4 -5.1807,-0.1 -10.91647,-0.6 -15.17205,-4.3 -2.68286,-2.3 -3.51547,-6.2 -3.7005,-9.8 1.4802,-0.1 3.05291,-0.1 4.53311,-0.1 0.37005,3.8 1.94277,7.7 5.45824,9.2 5.45824,2.3 11.8416,2.3 17.39235,0.4 3.88553,-1.2 5.45824,-6.6 3.60799,-10.3 -0.83261,-1.7 -2.49784,-2.6 -4.16306,-3.1 -6.84593,-2 -14.0619,-2.1 -20.7228,-4.8 -6.19834,-2.4 -6.38337,-13.2 -0.7401,-16.6 z"
       class="st0"
       inkscape:connector-curvature="0"
       style="fill:#326690" />
    <g
       id="g4373"
       transform="matrix(0.92512501,0,0,1,0.36688747,0)">
      <path
         id="path4375"
         d="m 268.2,257.4 c 5.6,-2.9 12.2,-3.3 18.4,-2.8 5.9,0.5 11.9,2.7 15.9,7.2 4.9,5.3 5.8,13.4 4,20.2 -1,3.8 -3.7,6.8 -6.5,9.4 2.3,1.6 4.6,3.2 6.9,4.8 -1,1 -2.1,1.9 -3.1,2.8 -2.4,-1.5 -4.6,-3.4 -7.1,-4.8 -1.9,0 -3.7,1.2 -5.6,1.4 -5.3,0.9 -10.8,1 -16.1,0 -5.8,-1.2 -11.3,-4.4 -14.4,-9.5 -3.1,-5 -3.5,-11.3 -2.1,-16.9 1.2,-5.1 5,-9.4 9.7,-11.8 z m 7.7,0.9 c -5.5,1.3 -10.6,5.1 -12.4,10.6 -1.9,5.9 -1.2,13.1 3.1,17.8 3.8,4.3 9.6,6.2 15.2,6.3 6.2,0.2 13,-1.6 17,-6.5 5.6,-7.2 4.9,-19.1 -2.5,-24.7 -5.7,-4.5 -13.6,-4.9 -20.4,-3.5 z"
         class="st0"
         inkscape:connector-curvature="0"
         style="fill:#326690" />
    </g>
    <path
       id="path4377"
       d="m 287.6182,255.4 c 1.4802,0 2.86789,-0.1 4.34809,-0.1 0.0925,12.2 0,24.4 0,36.6 9.15874,0.2 18.31747,-0.1 27.47621,0.1 0,1.1 0,2.2 0,3.3 -10.63894,0 -21.27787,0 -31.8243,0 0.0925,-13.3 0,-26.6 0,-39.9 z"
       class="st0"
       inkscape:connector-curvature="0"
       style="fill:#326690" />
    <g
       id="g4379"
       transform="matrix(0.92512501,0,0,1,0.36688747,0)">
      <path
         id="path4381"
         d="m 5,255.4 c 7.5,0 15,-0.1 22.4,-0.1 3.5,0 7.2,0.6 9.9,3 3.6,3.1 4.3,8.7 2.7,13 -1.8,4.7 -7.1,6.9 -11.9,7 -6.4,0.1 -12.8,0 -19.2,0 -0.1,5.7 0.1,11.3 0,16.9 -1.3,0 -2.7,0 -4,0 C 5,282 5,268.7 5,255.4 Z m 4,3.2 c 0,5.5 0,11.1 0,16.6 5.9,0 11.8,0.1 17.7,0 3.3,-0.1 7.2,-1.2 8.5,-4.6 1.1,-3 0.9,-6.7 -1.1,-9.2 -2,-2.3 -5.2,-2.8 -8.1,-2.8 -5.6,0 -11.3,0 -17,0 z"
         inkscape:connector-curvature="0" />
    </g>
    <path
       id="path4383"
       d="m 103.61084,260.6 c 1.29517,0 2.49784,0 3.79301,0 0,2.8 0,5.7 0,8.5 2.12779,0 4.34809,0 6.47588,0 0,0.9 0.0925,1.8 0.0925,2.8 -2.2203,0 -4.34809,0 -6.56839,0 -0.0925,5.6 0,11.2 -0.0925,16.8 0,1.3 -0.0925,3 1.11015,3.7 1.66522,0.9 3.60799,0.6 5.45824,0.5 0,0.9 0,1.8 0,2.7 -2.77538,0.3 -5.73578,0.6 -8.32613,-0.8 -1.57271,-0.9 -2.03527,-2.9 -2.03527,-4.7 0,-6.1 0,-12.1 0,-18.1 -1.66523,0 -3.23794,0 -4.903167,0 0,-0.9 0,-1.8 0,-2.7 1.572717,0 3.237937,0 4.810647,-0.1 0.18503,-3 0.18503,-5.8 0.18503,-8.6 z"
       inkscape:connector-curvature="0" />
    <g
       id="g4385"
       transform="matrix(0.92512501,0,0,1,0.36688747,0)">
      <path
         id="path4387"
         d="m 51.5,268.6 c 5.2,-0.8 10.9,-0.6 15.6,2.1 7,4 8,14.6 3.1,20.6 -4.2,4.7 -11.1,5.3 -17,4.8 -4.8,-0.3 -9.7,-2.7 -12,-7.1 -2.1,-4.1 -2.1,-9.1 -0.2,-13.2 2.1,-4 6.3,-6.4 10.5,-7.2 z m 2.1,2.7 c -3.8,0.4 -7.6,2.9 -8.9,6.7 -1.4,4.2 -0.8,9.5 2.6,12.6 2.7,2.5 6.6,3.1 10.1,2.9 3.2,-0.1 6.6,-1 8.9,-3.4 2.5,-2.5 2.9,-6.2 2.6,-9.6 -0.3,-2.9 -1.6,-5.8 -4.2,-7.3 -3.3,-2.1 -7.4,-2.3 -11.1,-1.9 z"
         inkscape:connector-curvature="0" />
    </g>
    <path
       id="path4389"
       d="m 73.266738,270.6 c 2.497838,-1.7 5.55075,-2 8.51115,-2.2 4.07055,-0.1 8.51115,-0.1 12.119138,2.4 1.942762,1.3 2.682862,3.9 2.9604,6.2 -1.295175,0.1 -2.682863,0.1 -3.978038,0.1 -0.277537,-2 -1.017637,-4 -2.867887,-4.8 -3.237938,-1.6 -7.03095,-1.4 -10.453913,-0.9 -2.127787,0.3 -4.81065,1.7 -4.81065,4.4 -0.185025,1.9 1.4802,3.3 2.9604,3.7 4.533113,1.2 9.343763,1.1 13.969388,2.2 2.035275,0.5 4.255575,1.4 5.458237,3.4 1.572713,3 0.647588,7.2 -2.127787,8.9 -3.33045,2.1 -7.401,2.3 -11.194013,2.3 -3.7005,-0.2 -7.678537,-0.2 -10.916475,-2.6 -1.942763,-1.4 -2.59035,-4 -2.9604,-6.4 1.387687,0 2.775375,0 4.163063,0 0.09251,3.2 2.59035,5.5 5.458237,5.9 4.07055,0.6 8.696175,1 12.489188,-1.1 2.682862,-1.4 2.405325,-6.1 -0.37005,-7.2 -5.735775,-1.8 -11.934113,-1.2 -17.484863,-3.4 -4.348088,-1.8 -4.348088,-8.5 -0.925125,-10.9 z"
       inkscape:connector-curvature="0" />
    <g
       id="g4391"
       transform="matrix(0.92512501,0,0,1,0.36688747,0)">
      <path
         id="path4393"
         d="m 135.1,269 c 4.2,-0.9 8.8,-1 13,0.3 2.4,0.6 4.1,2.5 5.9,4.1 0.1,-1.4 0.1,-2.8 0.2,-4.2 1.3,0 2.6,0 3.9,0 0.4,8.1 0,16.1 0.2,24.2 0.1,3.3 -0.6,7 -3.2,9.3 -3.4,3.1 -8.3,3.6 -12.7,3.7 -3.9,-0.1 -8.1,-0.2 -11.6,-2 -2.5,-1.3 -3.7,-4 -4.2,-6.6 1.3,0 2.7,0 4,-0.1 0.8,1.7 1.5,3.8 3.4,4.7 2.8,1.3 6,1.4 9.1,1.4 3.4,-0.1 7.3,-0.8 9.4,-3.7 2.1,-2.8 1.6,-6.5 1.6,-9.8 -4.2,4.3 -10.7,5.1 -16.4,4.4 -3.6,-0.4 -7.4,-1.7 -9.7,-4.6 -2.9,-3.5 -3.2,-8.5 -2.1,-12.8 1,-4.4 5,-7.4 9.2,-8.3 z m 3.5,2.4 c -3,0.5 -5.9,1.9 -7.6,4.5 -1.9,3.1 -1.9,7.1 -0.7,10.4 1.4,3.4 5.1,5.2 8.6,5.6 4.4,0.6 9.6,0.1 12.8,-3.4 3.6,-4.3 3.2,-11.8 -1.6,-15.2 -3.3,-2.3 -7.6,-2.4 -11.5,-1.9 z"
         inkscape:connector-curvature="0" />
    </g>
    <path
       id="path4395"
       d="m 158.28573,269.4 c 2.77537,-1.3 5.82828,-1.1 8.78868,-1.1 0,1.1 0,2.2 0,3.3 -3.05291,0 -6.38336,-0.5 -8.97371,1.6 -2.49784,1.9 -3.42296,5.4 -3.42296,8.5 0,4.5 0,9 0,13.6 -1.20266,0 -2.49784,0 -3.7005,0 -0.0925,-8.7 -0.0925,-17.4 0,-26.1 1.20266,0 2.49784,0 3.7005,0 0,1.5 0,3 0.0925,4.5 0.83261,-1.7 1.85025,-3.5 3.51548,-4.3 z"
       inkscape:connector-curvature="0" />
    <g
       id="g4397"
       transform="matrix(0.92512501,0,0,1,0.36688747,0)">
      <path
         id="path4399"
         d="m 181.6,274.8 c 2.7,-4.4 8.1,-6.3 13.1,-6.5 5.1,-0.3 10.9,0.4 14.6,4.3 2.8,2.7 3.7,6.6 3.8,10.3 -9.7,0.1 -19.5,-0.1 -29.2,0.1 0.2,2.6 1,5.4 3.1,7.2 3.8,3.5 9.5,3.8 14.3,2.7 3.2,-0.7 5.6,-3.2 6.8,-6.1 1.5,0 3,0 4.5,0 -1.3,4.4 -5.2,7.6 -9.6,8.6 -6,1.4 -12.9,1.1 -18,-2.5 -5.7,-3.9 -6.8,-12.4 -3.4,-18.1 z m 7.4,-2.1 c -3,1.5 -4.3,4.8 -5.1,7.9 8.3,0.1 16.6,0.1 24.8,0 -0.3,-1.9 -0.8,-3.8 -2.1,-5.2 -4.1,-5.2 -12,-5.7 -17.6,-2.7 z"
         inkscape:connector-curvature="0" />
    </g>
    <g
       id="g4401"
       transform="matrix(0.83960832,0,0,0.83960832,-222.54631,164.72286)">
      <g
         id="g4403">
        <path
           id="path4405"
           d="m 180.4,52.3 c 12.7,-3.9 26.5,-4.9 39.3,-1.5 10.3,2.8 19.6,9 26.1,17.5 2.6,3.5 3.2,8.1 3.4,12.3 0.2,7.6 -1.1,15.2 -2.8,22.6 -4.7,19.5 -13.1,37.9 -23.8,54.8 6,2.6 12.7,1.3 18.9,0.2 2.6,-0.5 5.9,-1.1 7.9,1.1 1.9,2.5 0.1,5.6 -1.8,7.4 -9,8.8 -22.6,11.1 -34.7,9.1 -1.2,10.8 -2.5,21.5 -4.2,32.2 -0.9,6 -2.9,12.2 -7.6,16.3 -4.4,3.8 -10.2,5.5 -15.8,6.6 -5.7,1 -12.2,0.2 -16.7,-3.8 -4.8,-4.2 -7.5,-10.5 -8.1,-16.8 -1.2,-10.8 -1.3,-21.6 -1.2,-32.5 -5.2,4.5 -12.1,6.8 -18.9,6.2 -4.8,-0.4 -10.1,-1.2 -13.7,-4.7 -2,-1.8 -1.9,-5.3 0.3,-6.9 3.9,-2.9 9,-2.7 13.4,-4.4 3.2,-1 4.9,-4.1 7,-6.5 -3.8,-0.3 -7.5,-1.2 -10.8,-2.9 -5.2,5.5 -10.2,11.3 -15.1,17.1 -2.8,3.4 -7,6.2 -11.6,5.7 -5.2,-0.6 -9,-4.7 -11.9,-8.7 -5.7,-8.2 -9.2,-17.6 -12.4,-27 -4.9,-15 -8.7,-30.4 -10.9,-46.1 -1.1,-11.8 -0.2,-24.6 6.7,-34.7 5.4,-8.1 14.9,-12.5 24.4,-13.4 12.7,-1.3 25.6,1.3 37.5,5.6 10,-6.7 22.6,-7.6 34.1,-5.2 0.9,0.2 1.9,0.6 3,0.4 z m 9.3,3.3 c 2.5,1.7 5.3,2.9 7.7,4.6 10.2,6.8 18.1,16.8 23.1,27.9 1.4,3.2 2.8,6.6 2.5,10.2 0.1,7.3 -2.4,14.5 -1.7,21.8 0.7,7.8 2.4,15.7 0.4,23.5 -0.6,2.7 -2,5.2 -3,7.8 0.1,0.4 0.2,1.1 0.3,1.5 0.9,-1.2 1.8,-2.5 2.6,-3.8 7.9,-13.4 14.2,-27.8 18.4,-42.8 2.2,-8.1 3.9,-16.5 3.8,-24.9 -0.1,-3.5 -0.4,-7.4 -2.7,-10.3 -4.8,-6 -11.2,-10.8 -18.5,-13.5 -10.4,-4 -22,-4.3 -32.9,-2 z m -30.1,1 c -8.1,1.1 -15.6,5.4 -20.5,12 -6.6,8.8 -9.5,19.9 -10.4,30.7 6.7,-3.1 14.2,-6 21.6,-4.2 4.8,1.2 8.5,5.4 9.5,10.2 2.2,9.6 3.4,19.7 1.2,29.4 -1.6,7.8 -6.4,14.6 -8,22.5 2,0.2 4.1,0.3 5.9,1.3 3.7,2 5.9,6.4 5.6,10.5 -0.3,10.7 -0.3,21.4 0.3,32.1 0.3,4.4 0.5,8.9 1.6,13.2 1.6,5.1 5.2,10.4 10.8,11.4 5.9,0.9 12.1,-0.8 17.4,-3.5 5.2,-2.7 7.5,-8.5 8.4,-14 1.9,-11.4 3.2,-22.9 4.5,-34.4 0.6,-4.1 -0.2,-8.6 2,-12.3 1.3,-2.4 3.9,-3.5 6.2,-4.6 -1.9,-2.5 -4,-4.9 -5.5,-7.6 -5.7,-11.7 -13.4,-22.8 -15.8,-35.9 -1,-5.5 -0.4,-12 4.1,-15.9 5,-4.3 12,-4.1 18.2,-3.8 C 213,83.2 206.1,73.8 197.3,66.9 187,58.6 173,54.9 159.6,56.6 Z m -56.8,0.9 c -7.4,1.4 -14.5,5.6 -18.3,12.3 -5,8.8 -5.5,19.4 -4.6,29.2 1.8,13 4.9,25.7 8.5,38.3 3.3,10.6 6.8,21.3 12.7,30.8 2.2,3.2 4.7,6.8 8.6,7.9 3.4,0.7 6,-2.1 8,-4.4 4.5,-5.5 9.4,-10.7 14,-16 -6.8,-6.2 -10.4,-15.5 -9.2,-24.6 1,-7 1.2,-14.1 0.7,-21.1 -0.7,-10 0.7,-20.1 3.8,-29.6 2.3,-7.1 6.2,-13.6 11.2,-19.1 -11.3,-3.6 -23.5,-6 -35.4,-3.7 z m 99.8,43.9 c -3.4,2.7 -3.3,7.6 -2.6,11.5 2.5,12.2 9.6,22.6 15.1,33.5 4.1,-8.2 1.6,-17.6 0.9,-26.3 -0.7,-7 1.4,-13.9 1.7,-20.8 -5.1,-0.3 -10.8,-1 -15.1,2.1 z m -74,4.5 c 0.1,5.9 0.5,11.7 0.1,17.6 -0.2,5.2 -1.7,10.4 -0.5,15.5 1.7,9.1 9.9,17.2 19.5,17.1 1.4,-4.6 3,-9.1 5.1,-13.5 5.8,-11.4 4.8,-24.7 1.8,-36.7 -0.8,-3.4 -4,-5.8 -7.4,-6 -6.8,-0.3 -13.2,2.5 -18.6,6 z m 86.4,57.6 c -1.8,1.7 -1.7,4.3 -1.7,6.5 4,1.4 8.2,1.2 12.3,0.7 6.2,-0.7 12.5,-2.7 17,-7.1 -7.4,0.9 -15.5,2.7 -22.5,-1 -1.6,-1.1 -3.7,-0.1 -5.1,0.9 z m -70.3,8.6 c -4.1,2.4 -9.2,2.3 -13.5,4.3 8.7,4.4 20.8,2.9 26.8,-5.3 3.1,-2.9 0.1,-8.9 -4,-8.4 -3.7,2.5 -5.3,7.2 -9.3,9.4 z"
           class="st1"
           inkscape:connector-curvature="0"
           style="fill:#ffffff" />
      </g>
      <path
         id="path4407"
         d="m 204.2,103 c 2.5,-1.8 5.9,-1.9 8.6,-0.6 -0.1,3.5 -4.2,5.9 -7.3,4.2 -1.2,-0.6 -2.8,-2.4 -1.3,-3.6 z"
         class="st1"
         inkscape:connector-curvature="0"
         style="fill:#ffffff" />
      <path
         id="path4409"
         d="m 143.9,103.2 c 2.6,-0.7 5.7,-0.4 7.8,1.4 1.5,1.2 0.1,3.2 -1.2,3.9 -2.9,2.2 -7.6,0 -8.2,-3.4 -0.1,-1 0.8,-1.6 1.6,-1.9 z"
         class="st1"
         inkscape:connector-curvature="0"
         style="fill:#ffffff" />
      <path
         id="path4411"
         d="m 189.7,55.6 c 10.8,-2.3 22.4,-2 32.9,1.9 7.2,2.7 13.6,7.5 18.5,13.5 2.3,2.9 2.6,6.8 2.7,10.3 0.1,8.4 -1.6,16.8 -3.8,24.9 -4.1,15 -10.4,29.4 -18.4,42.8 -0.8,1.3 -1.6,2.6 -2.6,3.8 -0.1,-0.4 -0.2,-1.1 -0.3,-1.5 1,-2.6 2.4,-5 3,-7.8 2,-7.7 0.3,-15.7 -0.4,-23.5 -0.7,-7.4 1.8,-14.5 1.7,-21.8 0.3,-3.6 -1.1,-7 -2.5,-10.2 -5,-11.2 -12.9,-21.1 -23.1,-27.9 -2.4,-1.6 -5.2,-2.8 -7.7,-4.5 z"
         class="st0"
         inkscape:connector-curvature="0"
         style="fill:#326690" />
      <path
         id="path4413"
         d="m 159.6,56.6 c 13.3,-1.7 27.3,2 37.9,10.3 8.8,6.9 15.7,16.3 19.4,26.8 -6.2,-0.2 -13.2,-0.5 -18.2,3.8 -4.5,3.8 -5.1,10.4 -4.1,15.9 2.4,13.1 10.1,24.2 15.8,35.9 1.5,2.8 3.5,5.2 5.5,7.6 -2.3,1.2 -4.9,2.3 -6.2,4.6 -2.3,3.7 -1.5,8.2 -2,12.3 -1.3,11.5 -2.6,23 -4.5,34.4 -0.9,5.5 -3.2,11.3 -8.4,14 -5.3,2.7 -11.4,4.4 -17.4,3.5 -5.6,-1 -9.2,-6.2 -10.8,-11.4 -1.2,-4.3 -1.3,-8.8 -1.6,-13.2 -0.6,-10.7 -0.6,-21.4 -0.3,-32.1 0.2,-4.2 -1.9,-8.5 -5.6,-10.5 -1.8,-1 -3.9,-1.1 -5.9,-1.3 1.6,-7.9 6.4,-14.6 8,-22.5 2.1,-9.7 1,-19.8 -1.2,-29.4 -1.1,-4.8 -4.7,-9 -9.5,-10.2 -7.5,-1.9 -15,1 -21.6,4.2 0.8,-10.8 3.7,-21.9 10.4,-30.7 4.7,-6.6 12.3,-10.9 20.3,-12 z"
         class="st0"
         inkscape:connector-curvature="0"
         style="fill:#326690" />
      <path
         id="path4415"
         d="m 102.8,57.5 c 11.9,-2.3 24,0.1 35.4,3.6 -5,5.5 -8.9,12 -11.2,19.1 -3.1,9.5 -4.5,19.6 -3.8,29.6 0.4,7 0.2,14.1 -0.7,21.1 -1.2,9.1 2.4,18.5 9.2,24.6 -4.6,5.4 -9.5,10.5 -14,16 -2,2.3 -4.6,5.1 -8,4.4 -3.9,-1.1 -6.4,-4.7 -8.6,-7.9 C 95.2,158.5 91.6,147.8 88.4,137.2 84.7,124.6 81.7,111.9 79.9,98.9 79,89 79.6,78.4 84.6,69.6 88.4,63.1 95.4,58.9 102.8,57.5 Z"
         class="st0"
         inkscape:connector-curvature="0"
         style="fill:#326690" />
      <path
         id="path4417"
         d="m 202.6,101.4 c 4.4,-3.1 10.1,-2.4 15.1,-2.1 -0.2,7 -2.4,13.8 -1.7,20.8 0.6,8.7 3.2,18 -0.9,26.3 -5.5,-10.9 -12.6,-21.4 -15.1,-33.5 -0.7,-3.9 -0.9,-8.8 2.6,-11.5 z m 1.6,1.6 c -1.5,1.2 0.1,3 1.4,3.5 3,1.8 7.2,-0.7 7.3,-4.2 -2.8,-1.2 -6.3,-1 -8.7,0.7 z"
         class="st0"
         inkscape:connector-curvature="0"
         style="fill:#326690" />
      <path
         id="path4419"
         d="m 128.6,105.9 c 5.5,-3.5 11.9,-6.3 18.5,-5.9 3.4,0.1 6.6,2.6 7.4,6 3,12 3.9,25.3 -1.8,36.7 -2,4.4 -3.6,8.9 -5.1,13.5 -9.6,0.1 -17.8,-8 -19.5,-17.1 -1.2,-5.2 0.4,-10.4 0.5,-15.5 0.5,-6 0.1,-11.8 0,-17.7 z m 15.3,-2.7 c -0.8,0.3 -1.7,0.9 -1.5,1.9 0.6,3.5 5.3,5.6 8.2,3.4 1.3,-0.7 2.7,-2.7 1.2,-3.9 -2.2,-1.7 -5.3,-2 -7.9,-1.4 z"
         class="st0"
         inkscape:connector-curvature="0"
         style="fill:#326690" />
      <path
         id="path4421"
         d="m 215,163.5 c 1.4,-1 3.4,-2 5.1,-0.9 7,3.7 15.1,1.9 22.5,1 -4.5,4.4 -10.8,6.5 -17,7.1 -4.1,0.5 -8.3,0.6 -12.3,-0.7 0,-2.2 -0.1,-4.8 1.7,-6.5 z"
         class="st0"
         inkscape:connector-curvature="0"
         style="fill:#326690" />
      <path
         id="path4423"
         d="m 144.7,172.1 c 4,-2.2 5.6,-6.9 9.3,-9.3 4.1,-0.6 7.1,5.5 4,8.4 -6,8.2 -18.1,9.7 -26.8,5.3 4.3,-2.1 9.3,-2 13.5,-4.4 z"
         class="st0"
         inkscape:connector-curvature="0"
         style="fill:#326690" />
      <g
         id="g4425">
        <path
           id="path4427"
           d="m 180.4,46.9 c 11.6,-3 23.9,-4.3 35.8,-2.1 10.8,1.9 21.1,7 28.9,14.8 3.5,3.5 7,7.2 8.3,12.1 2.3,8.3 1.4,17.2 0,25.6 -3.7,20.2 -11.7,39.4 -21.9,57.1 4.6,0 9,-1.5 13.6,-1.8 4.5,-0.3 9.2,2.5 10.3,7 1.3,4.8 -1.7,9.5 -5.2,12.5 -9,8 -21.6,10.7 -33.4,10 -0.7,12.2 -1,24.9 -6.1,36.2 -2.3,5 -5.9,9.5 -10.7,12.5 -4.5,2.8 -9.8,4.2 -15,5.2 -5.7,1 -11.9,0.5 -16.9,-2.8 -4.5,-2.9 -7.4,-7.8 -9,-12.8 -4,-10.5 -3.6,-21.9 -4.1,-33 -8,3.2 -17.1,3.2 -25.2,0.4 -2.8,-1 -5.4,-2.7 -7.5,-4.8 -4.2,3.5 -9.9,5.2 -15.3,3.7 -6.8,-1.8 -11.6,-7.5 -15.2,-13.3 C 85.5,163.1 81.6,151.6 78.1,140.1 74.3,126.8 71,113.4 69.3,99.6 68.3,87.4 69.4,74.4 76,63.8 c 5.3,-8.7 14.6,-14.5 24.5,-16.5 14,-2.9 28.5,-0.1 42,4.1 4.4,-2 8.7,-4.1 13.5,-4.9 8,-1.5 16.3,-0.8 24.4,0.4 z m 0,5.4 c -1,0.2 -2.1,-0.3 -3.1,-0.4 -11.5,-2.3 -24.2,-1.4 -34.1,5.2 -12,-4.3 -24.8,-6.9 -37.5,-5.6 -9.5,1 -19,5.4 -24.4,13.4 -6.9,10.1 -7.8,22.9 -6.7,34.7 2.2,15.7 6,31.1 10.9,46.1 3.2,9.4 6.7,18.8 12.4,27 2.9,4 6.7,8.1 11.9,8.7 4.6,0.6 8.8,-2.3 11.6,-5.7 4.9,-5.8 9.9,-11.6 15.1,-17.1 3.4,1.7 7.1,2.6 10.8,2.9 -2,2.4 -3.7,5.6 -7,6.5 -4.4,1.7 -9.5,1.5 -13.4,4.4 -2.2,1.6 -2.3,5.1 -0.3,6.9 3.6,3.5 8.9,4.3 13.7,4.7 6.8,0.5 13.7,-1.8 18.9,-6.2 0,10.8 0,21.7 1.2,32.5 0.6,6.3 3.3,12.6 8.1,16.8 4.5,3.9 11,4.8 16.7,3.8 5.6,-1.1 11.4,-2.8 15.8,-6.6 4.7,-4.1 6.7,-10.3 7.6,-16.3 1.7,-10.7 3,-21.5 4.2,-32.2 12,2 25.7,-0.3 34.7,-9.1 1.9,-1.8 3.7,-4.9 1.8,-7.4 -2,-2.3 -5.3,-1.6 -7.9,-1.1 -6.2,1.1 -12.9,2.4 -18.9,-0.2 10.7,-16.9 19.1,-35.3 23.8,-54.8 1.7,-7.4 3,-15 2.8,-22.6 -0.2,-4.3 -0.8,-8.8 -3.4,-12.3 -6.4,-8.5 -15.8,-14.7 -26.1,-17.5 -12.8,-3.4 -26.6,-2.4 -39.2,1.5 z"
           inkscape:connector-curvature="0" />
      </g>
    </g>
  </g>
  <style
     id="style4467"
     type="text/css">
	.st0{fill:#262626;}
	.st1{fill:#FFFFFF;}
	.st2{fill:#019934;}
</style>
  <g
     transform="matrix(7.9211722,0,0,7.9211722,-1423.6385,1021.8695)"
     id="g728">
    <rect
       style="fill:#f7edfb;fill-opacity:1;stroke:#672178;stroke-width:1.94659996"
       x="180.67"
       y="23.996"
       width="111.93"
       height="111.93"
       ry="13.96"
       id="rect730" />
    <text
       x="197.23764"
       y="40.534546"
       font-size="10.429px"
       letter-spacing="0px"
       word-spacing="0px"
       style="font-size:10.4289999px;line-height:125%;font-family:sans-serif;letter-spacing:0px;word-spacing:0px;fill:#000000;stroke-width:1px"
       sodipodi:linespacing="125%"
       xml:space="preserve"
       id="text732"><tspan
         style="font-weight:bold;font-size:11.17399979px;font-family:Arial;fill:#000000"
         x="197.23764"
         y="40.534546"
         font-size="11.174px"
         font-weight="bold"
         sodipodi:role="line"
         id="tspan734">Container Web</tspan></text>
    <g
       id="g8573"
       transform="matrix(0.35521571,0,0,0.35521571,189.7179,57.039586)">
      <g
         id="g8532">
        <path
           id="path8534"
           d="m 74.1,1 c 3.5,4 4.6,9.6 3.6,14.8 -1.1,5.8 -4.3,10.8 -8,15.2 -3,3.5 -6.5,6.6 -10.1,9.5 -4.2,3.4 -8.3,7 -10.9,11.8 -2.2,3.9 -2.7,8.6 -1.2,12.8 2.5,7.2 8.3,12.5 11.4,19.3 C 55.4,81.3 52,78.1 48.8,74.8 45.5,71.2 42.3,67.5 40.2,63 c -1.4,-3.1 -2,-6.8 -1,-10.1 1.1,-3.4 3.5,-6.1 5.9,-8.6 6.7,-6.7 15,-11.7 21.6,-18.5 3.6,-3.7 6.6,-8.2 7.7,-13.4 C 75.3,8.6 74.9,4.7 74.1,1 l 0,0 z"
           class="st0"
           inkscape:connector-curvature="0"
           style="fill:#e92d2f;fill-opacity:1" />
        <path
           id="path8536"
           d="M 68.6,43.3 C 75.8,38 84.2,34.6 92.8,32.2 86,36.5 79,40.4 73.2,46 c -2.1,2 -4.1,4.4 -5,7.2 -0.7,2.1 -0.4,4.5 0.4,6.5 1.6,3.6 4.2,6.5 6.2,9.7 1.7,2.8 2,6.3 0.7,9.4 -2,4.4 -5.8,7.6 -9.8,10.2 -0.5,0.3 -1,0.9 -1.6,0.9 2.7,-2.4 4.8,-5.8 4.7,-9.5 -0.1,-2.7 -1.6,-5.2 -3.4,-7.1 -3.7,-4.4 -6.8,-9.9 -6.1,-15.8 0.5,-6.1 4.7,-10.8 9.3,-14.2 l 0,0 z"
           class="st0"
           inkscape:connector-curvature="0"
           style="fill:#e92d2f;fill-opacity:1" />
        <path
           id="path8538"
           d="m 94.1,86.2 c 1.6,-1.9 4,-2.4 6.3,-2.7 3.9,-0.5 8.1,0.5 11.1,3.2 2.5,2.2 3.8,5.6 3.3,8.9 -0.6,3.8 -3.1,7 -6,9.4 -5.2,4.2 -11.7,6.6 -18.1,8.3 0.4,-0.4 0.8,-0.8 1.3,-1.1 4.9,-2.6 9.8,-5.7 13.4,-10 2.2,-2.7 3.9,-6.2 3.2,-9.7 -0.7,-4.1 -4.7,-7.1 -8.8,-7.3 -2,-0.1 -3.8,0.6 -5.7,1 l 0,0 z"
           class="st1"
           inkscape:connector-curvature="0"
           style="fill:#0774ba;fill-opacity:1" />
        <path
           id="path8540"
           d="m 19.5,89.6 c 6.8,-2.9 14.3,-4.8 21.7,-4.7 -4.3,1.3 -8.8,2.3 -12.9,4.3 -1,0.5 -2.1,1 -2.6,2 -0.3,0.8 0.5,1.3 1.1,1.6 2.5,1 5.3,1.2 8,1.4 9.5,0.6 19,0.3 28.5,-0.3 9.4,-0.6 18.6,-1.9 27.9,-3.3 -2,1 -4.1,1.9 -6,3.2 -1,0.7 -2.2,0.9 -3.2,1.1 -11.4,2.5 -23,3.3 -34.6,3.5 -4.5,0 -8.9,0 -13.4,-0.3 -5,-0.3 -10,-0.7 -14.8,-2 -1.4,-0.4 -2.9,-0.9 -4,-1.9 -0.6,-0.4 -0.6,-1.3 -0.1,-1.9 1.2,-1.4 2.9,-2 4.4,-2.7 l 0,0 z"
           class="st1"
           inkscape:connector-curvature="0"
           style="fill:#0774ba;fill-opacity:1" />
        <path
           id="path8542"
           d="m 28.3,105.4 c 1.9,-1.5 4.2,-2.4 6.5,-3.2 -0.7,0.9 -1.8,1.7 -1.9,3 0,0.8 0.6,1.4 1.2,1.7 1.2,0.6 2.6,0.9 4,1 7.1,0.7 14.3,1.2 21.5,0.7 6.6,-0.3 13.1,-1.4 19.6,-2.6 1.8,1.7 3.9,2.8 6.1,3.8 -7.8,2.3 -15.9,3.6 -24,4.3 -7.6,0.5 -15.4,0.5 -23,-0.7 -3,-0.6 -6.1,-1.2 -8.8,-2.6 -1.1,-0.6 -2.4,-1.4 -2.7,-2.7 -0.2,-1.1 0.7,-2.1 1.5,-2.7 l 0,0 z"
           class="st1"
           inkscape:connector-curvature="0"
           style="fill:#0774ba;fill-opacity:1" />
        <path
           id="path8544"
           d="m 32.6,121.6 c 1.7,-1.4 3.8,-2.1 5.9,-2.7 -0.7,0.6 -1.9,1.4 -1.3,2.5 1,1.3 2.9,1.4 4.3,1.8 6.3,0.8 12.6,1.3 18.9,0.8 4.8,-0.3 9.4,-1.2 14.1,-2 2.7,1.6 5.5,2.9 8.3,4.1 -4.4,2 -9.1,3.2 -13.8,4.1 -7.9,1.4 -16.1,1.6 -24.1,0.3 -3.5,-0.6 -7.1,-1.4 -10.3,-3.2 -1.2,-0.7 -2.5,-1.5 -3,-2.9 -0.5,-1 0.1,-2.1 1,-2.8 l 0,0 z"
           class="st1"
           inkscape:connector-curvature="0"
           style="fill:#0774ba;fill-opacity:1" />
        <path
           id="path8546"
           d="m 12,132.1 c 3.4,-1.2 6.9,-2.1 10.5,-2.2 1.4,0 2.9,0 4.2,0.8 -4.3,0.3 -8.6,1.3 -12.5,3.3 -0.9,0.5 -1.8,1 -2.2,2 0,1.2 1.3,1.5 2.2,1.9 5.4,2 11.1,2.6 16.8,3.2 16.8,1.4 33.7,1 50.6,-0.5 6.3,-0.7 12.7,-1.4 18.9,-3.2 2,-0.7 4.2,-1.3 5.5,-3.1 0.8,-1 0.3,-2.3 -0.5,-3.2 1.3,0.7 3,1.6 2.8,3.3 -0.5,1.8 -2.3,2.7 -3.8,3.6 -4.8,2.4 -10,3.6 -15.2,4.7 -15.1,3 -30.6,3.6 -45.9,3.2 -11.6,-0.4 -23.2,-1.5 -34.6,-3.5 -2,-0.5 -4.3,-0.9 -5.8,-2.5 -1,-1.1 -0.1,-2.7 0.8,-3.5 2.3,-2 5.3,-3.2 8.2,-4.3 l 0,0 z"
           class="st1"
           inkscape:connector-curvature="0"
           style="fill:#0774ba;fill-opacity:1" />
        <path
           id="path8548"
           d="m 104.5,144.8 c 3.7,-1.3 7.8,-2.7 10.5,-5.6 -0.5,3.2 -3.3,5.5 -6,6.9 -5.3,2.7 -11.2,4 -17,5 -12.4,2 -25,2.4 -37.6,2.2 -8.6,-0.3 -17.2,-0.6 -25.6,-2.4 -2,-0.6 -4.2,-0.9 -5.9,-2.1 7.5,1.3 15.1,1.8 22.7,2.1 12.5,0.4 25.1,-0.1 37.5,-1.7 7.2,-1 14.4,-2.2 21.4,-4.4 l 0,0 z"
           class="st1"
           inkscape:connector-curvature="0"
           style="fill:#0774ba;fill-opacity:1" />
      </g>
      <g
         id="g8550"
         style="fill:#e92d2f;fill-opacity:1">
        <path
           id="path8552"
           d="m 136.8,89 c 0,-13.6 0,-27.2 0,-40.8 2.8,0.1 5.6,0 8.5,0.1 0,15.2 0,30.5 0,45.7 -0.1,4.3 -0.2,8.7 -2.2,12.6 -2.3,4.1 -6.3,6.9 -10.7,8.6 -1.4,-1.5 -2.6,-3.1 -4,-4.6 l 0,0 c 3.5,-2 7,-4.9 7.8,-9.1 0.7,-4.2 0.5,-8.3 0.6,-12.5 l 0,0 z"
           class="st0"
           inkscape:connector-curvature="0"
           style="fill:#e92d2f;fill-opacity:1" />
        <path
           id="path8554"
           d="m 153.1,64.6 c 5.6,-2.4 11.8,-3.6 17.9,-3 3.2,0.4 6.4,1.5 8.5,4.1 1.7,2.2 2.3,4.9 2.3,7.6 0,9.3 0,18.5 0,27.8 -2.1,0 -4.1,0 -6.3,0 -0.2,-1.4 -0.4,-2.8 -0.6,-4.2 -2.4,1.9 -4.9,3.6 -7.8,4.4 -3.4,0.9 -7,0.8 -10.3,-0.5 -2.5,-1 -4.5,-3.3 -5.2,-6 -1,-3.9 -0.5,-8.4 2.2,-11.5 2.4,-2.9 6.1,-4.3 9.8,-4.9 3.4,-0.7 6.8,-0.7 10.2,-0.7 -0.1,-2.6 0.4,-5.5 -1.1,-7.8 -1.2,-1.8 -3.4,-2.5 -5.4,-2.6 -4.4,-0.4 -8.8,0.7 -13,2.2 -0.4,-1.6 -0.8,-3.3 -1.2,-4.9 m 10.3,19.2 c -1.8,0.6 -3.5,1.9 -4,3.8 -0.6,2.1 -0.4,4.6 1,6.4 1.3,1.7 3.7,2.2 5.8,1.9 2.9,-0.3 5.4,-2 7.7,-3.8 0,-3.1 0,-6.2 0,-9.3 -3.6,0 -7.2,-0.2 -10.5,1 l 0,0 z"
           class="st0"
           inkscape:connector-curvature="0"
           style="fill:#e92d2f;fill-opacity:1" />
        <path
           id="path8556"
           d="m 226,64.6 c 5.6,-2.4 11.9,-3.7 18,-3 3.1,0.4 6.2,1.5 8.2,3.9 1.9,2.3 2.5,5.3 2.4,8.2 0,9.2 0,18.3 -0.1,27.4 -2.1,-0.1 -4.1,0 -6.2,-0.1 -0.2,-1.4 -0.4,-2.8 -0.6,-4.1 -2.9,2.5 -6.4,4.5 -10.3,4.8 -3.6,0.3 -7.7,-0.1 -10.5,-2.7 -2.9,-2.7 -3.4,-7.2 -2.7,-10.9 0.7,-3.5 3.3,-6.3 6.5,-7.9 4.9,-2.4 10.6,-2.5 16,-2.5 -0.1,-2.5 0.4,-5.2 -0.9,-7.5 -1,-1.8 -3.1,-2.7 -5.1,-2.9 -4.6,-0.5 -9.2,0.7 -13.5,2.2 -0.4,-1.6 -0.8,-3.3 -1.2,-4.9 m 10.1,19.2 c -1.7,0.6 -3.4,1.9 -3.9,3.7 -0.6,2.1 -0.4,4.6 0.9,6.4 1.4,1.8 3.8,2.2 5.9,1.9 2.9,-0.4 5.5,-2 7.6,-3.9 -0.1,-3 0,-6.1 0,-9.2 -3.5,0.1 -7.1,-0.1 -10.5,1.1 l 0,0 z"
           class="st0"
           inkscape:connector-curvature="0"
           style="fill:#e92d2f;fill-opacity:1" />
        <path
           id="path8558"
           d="m 186.5,62.1 c 2.9,0 5.8,0 8.7,0 1.7,5.5 3.4,10.9 5.1,16.4 1,3.4 2.2,6.7 2.9,10.1 0.4,1.5 0.7,3.1 1.2,4.6 3.6,-10.1 6.3,-20.5 7.7,-31.1 2.8,0 5.6,0 8.5,0 -2.4,13.4 -6.3,26.7 -12.1,39 -3.3,0 -6.6,0 -9.9,0 -4.1,-13 -8.1,-26 -12.1,-39 l 0,0 z"
           class="st0"
           inkscape:connector-curvature="0"
           style="fill:#e92d2f;fill-opacity:1" />
        <g
           id="g8560"
           style="fill:#e92d2f;fill-opacity:1">
          <path
             id="path8562"
             d="m 256.3,61.3 -1,0 0,-0.4 2.5,0 0,0.4 -1,0 0,3 -0.4,0 0,-3 z"
             class="st0"
             inkscape:connector-curvature="0"
             style="fill:#e92d2f;fill-opacity:1" />
          <path
             id="path8564"
             d="m 261,62.8 c 0,-0.5 -0.1,-1 -0.1,-1.4 l 0,0 c -0.1,0.4 -0.3,0.8 -0.4,1.3 l -0.6,1.6 -0.3,0 -0.5,-1.6 c -0.2,-0.5 -0.3,-0.9 -0.4,-1.3 l 0,0 c 0,0.4 0,1 -0.1,1.5 l -0.1,1.4 -0.4,0 0.2,-3.4 0.6,0 0.6,1.6 c 0.1,0.4 0.2,0.8 0.3,1.1 l 0,0 c 0.1,-0.3 0.2,-0.7 0.4,-1.1 l 0.6,-1.6 0.6,0 0.2,3.4 -0.4,0 -0.2,-1.5 z"
             class="st0"
             inkscape:connector-curvature="0"
             style="fill:#e92d2f;fill-opacity:1" />
        </g>
      </g>
    </g>
  </g>
  <style
     id="style8530"
     type="text/css">
	.st0{fill:#E92D2F;stroke:#E92D2F;stroke-width:9.375000e-02;stroke-miterlimit:10;}
	.st1{fill:#0774BA;stroke:#0774BA;stroke-width:9.375000e-02;stroke-miterlimit:10;}
</style>
  <text
     transform="matrix(0.97686844,-0.2138412,0.2138412,0.97686844,0,0)"
     sodipodi:linespacing="125%"
     id="text9386"
     y="1784.9789"
     x="976.43018"
     style="font-style:normal;font-weight:normal;font-size:7.17179298px;line-height:125%;font-family:sans-serif;letter-spacing:0px;word-spacing:0px;fill:#000000;fill-opacity:1;stroke:none;stroke-width:1px;stroke-linecap:butt;stroke-linejoin:miter;stroke-opacity:1"
     xml:space="preserve"><tspan
       style="font-style:normal;font-variant:normal;font-weight:normal;font-stretch:normal;font-size:86.06151581px;font-family:Arial;-inkscape-font-specification:Arial"
       y="1784.9789"
       x="976.43018"
       id="tspan9388"
       sodipodi:role="line">Protocolo PGSQL</tspan></text>
  <text
     xml:space="preserve"
     style="font-style:normal;font-weight:normal;font-size:7.17179298px;line-height:125%;font-family:sans-serif;letter-spacing:0px;word-spacing:0px;fill:#000000;fill-opacity:1;stroke:none;stroke-width:1px;stroke-linecap:butt;stroke-linejoin:miter;stroke-opacity:1"
     x="1674.9487"
     y="1364.3352"
     id="text9390"
     sodipodi:linespacing="125%"
     transform="matrix(0.9687974,0.24785397,-0.24785397,0.9687974,0,0)"><tspan
       sodipodi:role="line"
       id="tspan9392"
       x="1674.9487"
       y="1364.3352"
       style="font-style:normal;font-variant:normal;font-weight:normal;font-stretch:normal;font-size:86.06151581px;font-family:Arial;-inkscape-font-specification:Arial">Protocolo MYSQL</tspan></text>
  <text
     transform="matrix(0.83115088,0.55604695,-0.55604695,0.83115088,0,0)"
     sodipodi:linespacing="125%"
     id="text9394"
     y="883.31799"
     x="2231.1025"
     style="font-style:normal;font-weight:normal;font-size:7.17179298px;line-height:125%;font-family:sans-serif;letter-spacing:0px;word-spacing:0px;fill:#000000;fill-opacity:1;stroke:none;stroke-width:1px;stroke-linecap:butt;stroke-linejoin:miter;stroke-opacity:1"
     xml:space="preserve"><tspan
       style="font-style:normal;font-variant:normal;font-weight:normal;font-stretch:normal;font-size:86.06151581px;font-family:Arial;-inkscape-font-specification:Arial"
       y="883.31799"
       x="2231.1025"
       id="tspan9396"
       sodipodi:role="line">Protocolo MONGO</tspan></text>
</svg>
